<?xml version="1.0" encoding="utf-8"?><svg viewBox="0 0 133 60" xmlns="http://www.w3.org/2000/svg" xmlns:xlink="http://www.w3.org/1999/xlink"><style>:root>svg{display:none}:root>svg:target{display:block}</style><svg fill="none" viewBox="0 0 133 60" id="header--logo" xmlns="http://www.w3.org/2000/svg"><mask id="aa" fill="#fff"><rect width="126.191" height="54.286" rx=".854"/></mask><rect width="126.191" height="54.286" rx=".854" stroke="#5970F6" stroke-width="2.19" mask="url(#aa)"/><circle cx="125.477" cy="53.094" r="6.905" fill="#AD0018"/><path d="M42.283 17.634v.872h-4.069v11.843h-.908V18.506h-4.05v-.872h9.027ZM52.219 30.349l-3.178-5.34h-3.579v5.34h-.908V17.634h4.686c1.139 0 2.077.351 2.816 1.054.75.69 1.126 1.574 1.126 2.652 0 .92-.29 1.713-.872 2.379-.581.654-1.344 1.06-2.289 1.217l3.233 5.413H52.22Zm-6.757-11.843v5.63h3.724c.908 0 1.647-.26 2.216-.78.569-.533.853-1.205.853-2.017 0-.823-.29-1.501-.872-2.034-.569-.533-1.301-.799-2.197-.799h-3.724ZM65.131 30.349l-1.47-3.47H56.94l-1.471 3.47h-.981l5.34-12.715h.835L66.13 30.35h-.999Zm-4.867-11.425-2.98 7.102h6.013l-3.033-7.102ZM68.429 30.349V17.634h.908V30.35h-.908ZM81.993 17.634h.909V30.35h-.781L74 19.25v11.098h-.89V17.634h.818l8.064 11.043V17.634ZM86.663 30.349V17.634h.908V30.35h-.908ZM100.228 17.634h.908V30.35h-.781l-8.12-11.098v11.098h-.89V17.634h.818l8.065 11.043V17.634ZM109.801 24.282h6.83c-.049 1.84-.66 3.342-1.835 4.504-1.162 1.163-2.639 1.744-4.431 1.744-1.865 0-3.397-.611-4.596-1.834-1.199-1.236-1.798-2.798-1.798-4.687 0-1.889.605-3.45 1.816-4.686 1.211-1.235 2.731-1.852 4.559-1.852.981 0 1.901.193 2.761.58a5.797 5.797 0 0 1 2.18 1.6c.581.69.962 1.47 1.144 2.342h-.944c-.279-1.065-.897-1.937-1.853-2.615-.945-.678-2.034-1.017-3.269-1.017-1.587 0-2.895.532-3.924 1.598-1.017 1.066-1.525 2.416-1.525 4.05 0 1.647.502 2.997 1.507 4.05 1.017 1.042 2.331 1.563 3.942 1.563 1.404 0 2.591-.412 3.56-1.235.98-.824 1.555-1.901 1.725-3.233h-5.849v-.872ZM40.08 34.3c1.223 0 2.325.273 3.306.818a5.78 5.78 0 0 1 2.306 2.27c.557.97.836 2.053.836 3.252 0 1.852-.612 3.378-1.835 4.577-1.21 1.199-2.748 1.798-4.613 1.798h-3.905V34.301h3.905Zm-.036 11.843c.799 0 1.537-.133 2.216-.4A5.217 5.217 0 0 0 44.02 44.6a4.91 4.91 0 0 0 1.145-1.743c.278-.69.417-1.43.417-2.216 0-1.587-.52-2.894-1.562-3.923-1.041-1.03-2.367-1.544-3.977-1.544h-2.961v10.97h2.96ZM58.082 47.015l-1.47-3.47H49.89l-1.471 3.47h-.981l5.34-12.714h.835l5.467 12.714h-.999ZM53.215 35.59l-2.98 7.102h6.013l-3.033-7.102ZM67.712 34.3v.873h-4.07v11.842h-.907V35.173h-4.05V34.3h9.026ZM77.93 47.015l-1.47-3.47h-6.72l-1.472 3.47h-.98l5.34-12.714h.835l5.467 12.714h-1ZM73.064 35.59l-2.979 7.102h6.012l-3.033-7.102Z" fill="#222324"/></svg><svg fill="none" viewBox="0 0 10 7" id="header--menu_has_child" xmlns="http://www.w3.org/2000/svg"><path d="M5 6.344a.84.84 0 0 1-.59-.238L.245 2.043a.798.798 0 0 1 0-1.149.848.848 0 0 1 1.178 0L5 4.384 8.578.894a.848.848 0 0 1 1.178 0 .798.798 0 0 1 0 1.15L5.589 6.106a.842.842 0 0 1-.59.238Z" fill="#222324"/></svg></svg>