<svg width="78" height="78" fill="none" xmlns="http://www.w3.org/2000/svg"><circle cx="39" cy="39" r="39" fill="#5970F6"/><g clip-path="url(#clip0_0_767)" fill="#fff"><path d="M54.11 38.19l-.004.673-.002.634H52.84l.002-.634.003-.673c0-3.675-1.868-5.538-5.535-5.538h-6.169c-3.672 0-5.535 1.863-5.535 5.538v1.307h-1.263V38.19c0-2.316.715-4.104 2.039-5.26a5.173 5.173 0 011.111-.75c.998-.517 2.222-.79 3.648-.79h6.17c4.317 0 6.797 2.474 6.797 6.8zm-9.886-7.04a4.823 4.823 0 01-3.408-1.412A4.638 4.638 0 0139.48 26.4v-.469c.027-2.662 2.11-4.743 4.743-4.743 1.278 0 2.52.515 3.409 1.412a4.637 4.637 0 011.334 3.337v.469c-.026 2.662-2.11 4.743-4.743 4.743zm0-8.7c-1.932 0-3.46 1.532-3.48 3.487v.469a3.386 3.386 0 00.97 2.443 3.552 3.552 0 002.51 1.038c1.933 0 3.462-1.532 3.481-3.488v-.468a3.387 3.387 0 00-.97-2.443 3.556 3.556 0 00-2.51-1.037z"/><path d="M38.094 32.76l-.966.814a3.081 3.081 0 00-.746-.643c-.87-.549-1.936-.683-2.77-.683h-5.076c-2.948 0-4.443 1.498-4.443 4.446v2.804H22.83v-2.804c0-3.631 2.078-5.706 5.706-5.706h5.076c1.59 0 2.916.41 3.882 1.192.223.17.417.365.6.58zm-7.022-2.182c-2.229 0-3.992-1.76-4.015-4.008v-.397a3.921 3.921 0 011.13-2.82 4.084 4.084 0 012.885-1.195c2.229 0 3.992 1.761 4.014 4.008v.398a3.921 3.921 0 01-1.13 2.82 4.08 4.08 0 01-2.884 1.194zm0-7.157a2.81 2.81 0 00-1.987.82 2.636 2.636 0 00-.765 1.925v.397c.015 1.54 1.224 2.752 2.752 2.752.746 0 1.47-.299 1.987-.82.354-.358.774-.982.765-1.925v-.397c-.015-1.541-1.224-2.752-2.752-2.752z"/><path d="M60.368 38.863H17.632a.63.63 0 00-.632.63V56.18c0 .348.283.631.632.631h42.737a.632.632 0 00.632-.631V39.492a.63.63 0 00-.633-.629zm-.63 16.686H18.26V40.123h41.476V55.55z"/><path d="M52.846 38.19l-.002.673H35.606v-.673c0-3.674 1.863-5.538 5.535-5.538h6.17c3.666 0 5.534 1.864 5.534 5.538zm-16.463-5.26c-1.325 1.156-2.039 2.944-2.039 5.26v.673h-10.25v-2.17c0-2.948 1.494-4.446 4.442-4.446h5.077c.834.001 1.898.135 2.77.684z" fill-opacity=".1"/><path d="M28.943 42.484h-2.47a2.433 2.433 0 00-2.431 2.431v5.396a2.433 2.433 0 002.431 2.431h2.47a2.433 2.433 0 002.431-2.43v-5.397a2.433 2.433 0 00-2.43-2.43zm1.168 7.827a1.17 1.17 0 01-1.168 1.168h-2.47a1.17 1.17 0 01-1.168-1.168v-5.396c0-.647.524-1.17 1.168-1.17h2.47a1.17 1.17 0 011.168 1.17v5.396z"/><path d="M54.921 47.612v4.086h-1.263v-3.455H30.742V46.98H54.29c.35 0 .632.283.632.632z"/><path d="M51.922 47.612H50.66v2.886h1.263v-2.886zm-2.999 0H47.66v4.086h1.263v-4.086z"/></g><defs><clipPath id="clip0_0_767"><path fill="#fff" transform="translate(17 17)" d="M0 0h44v44H0z"/></clipPath></defs></svg>