<svg width="78" height="78" fill="none" xmlns="http://www.w3.org/2000/svg"><circle cx="39" cy="39" r="39" fill="#5970F6"/><path d="M48.698 57.44h-1.081c0-4.75-3.128-5.747-5.749-5.747h-6.292c-2.62 0-5.748.997-5.748 5.748h-1.083a10.201 10.201 0 01.106-1.525c.27-1.847 1.042-3.069 2.019-3.866a5.34 5.34 0 01.962-.63c1.251-.65 2.655-.812 3.744-.812h6.292c1.19 0 2.753.193 4.085 1 .308.189.605.408.881.668.853.798 1.515 1.966 1.76 3.652.068.464.104.967.104 1.513zm-6.573-15.826a4.818 4.818 0 00-3.403-1.41c-2.63 0-4.708 2.077-4.736 4.736v.48a4.62 4.62 0 001.333 3.33 4.818 4.818 0 003.403 1.41c2.63 0 4.708-2.077 4.736-4.737v-.479a4.624 4.624 0 00-1.333-3.33zm.25 3.805c-.021 2.05-1.626 3.656-3.653 3.656a3.72 3.72 0 01-2.634-1.087 3.55 3.55 0 01-1.02-2.565v-.479c.022-2.05 1.626-3.657 3.654-3.657.989 0 1.95.396 2.633 1.088.668.674 1.028 1.581 1.02 2.564v.48z" fill="#fff"/><path d="M61 55.916h-1.083c0-3.077-1.559-4.636-4.636-4.636h-5.176c-.995 0-2.311.184-3.271.996a3 3 0 00-.396.393l-.83-.697c.108-.127.222-.248.345-.363.98-.925 2.403-1.412 4.152-1.412h5.176c3.635 0 5.72 2.085 5.72 5.719zm-5.437-13.534a4.066 4.066 0 00-2.87-1.188c-2.215 0-3.97 1.75-3.991 3.99v.394a3.89 3.89 0 001.123 2.81 4.057 4.057 0 002.869 1.187c2.217 0 3.97-1.75 3.993-3.99v-.394a3.91 3.91 0 00-1.124-2.81zm.04 3.196c-.016 1.636-1.294 2.916-2.91 2.916a2.966 2.966 0 01-2.1-.868 2.842 2.842 0 01-.81-2.042v-.393c.017-1.636 1.295-2.916 2.91-2.916.788 0 1.554.317 2.1.868.53.535.818 1.26.81 2.042v.393zm-23.211 6.394l-.83.697a3.333 3.333 0 00-.693-.62c-.923-.621-2.08-.77-2.975-.77H22.72c-3.077 0-4.636 1.559-4.636 4.636H17c0-3.633 2.084-5.719 5.72-5.719h5.175c1.623 0 2.966.42 3.936 1.224.203.165.392.352.56.552zm-7.085-10.779c-1.075 0-2.12.433-2.87 1.188a3.904 3.904 0 00-1.124 2.803v.406c.023 2.234 1.776 3.984 3.994 3.984a4.066 4.066 0 002.87-1.188 3.896 3.896 0 001.124-2.803v-.402c-.024-2.237-1.777-3.988-3.994-3.988zm2.91 4.395a2.839 2.839 0 01-.81 2.038 2.969 2.969 0 01-2.1.868c-1.615 0-2.894-1.28-2.91-2.91v-.403a2.83 2.83 0 01.81-2.038 2.978 2.978 0 012.1-.868c1.615 0 2.893 1.28 2.91 2.91v.403zM54.18 20.56H31.127a2.518 2.518 0 00-2.516 2.513v11.71a2.518 2.518 0 002.516 2.515h12.902l2.05 3.215a.54.54 0 00.423.251h.034c.16 0 .314-.07.416-.197l2.705-3.27h4.524a2.517 2.517 0 002.514-2.513v-11.71a2.516 2.516 0 00-2.513-2.515zm1.431 14.224c0 .79-.642 1.432-1.43 1.432H49.4a.55.55 0 00-.42.195l-2.39 2.893-1.808-2.839a.545.545 0 00-.456-.249h-13.2a1.434 1.434 0 01-1.434-1.432v-11.71c0-.79.642-1.431 1.433-1.431H54.18c.788 0 1.43.642 1.43 1.43v11.71z" fill="#fff"/><path d="M45.091 30.123h1.136a4.157 4.157 0 01-4.004 3.069 4.156 4.156 0 01-4.152-4.152 4.155 4.155 0 014.152-4.15 4.157 4.157 0 014.004 3.068h-1.136a3.074 3.074 0 00-2.868-1.987 3.072 3.072 0 00-3.069 3.069 3.072 3.072 0 003.07 3.069 3.07 3.07 0 002.867-1.986z" fill="#fff"/><path d="M46.972 30.123h1.105c-.51 2.77-2.939 4.874-5.852 4.874a5.965 5.965 0 01-5.958-5.958 5.964 5.964 0 015.957-5.956c2.914 0 5.343 2.104 5.853 4.874h-1.105c-.495-2.167-2.435-3.793-4.748-3.793a4.88 4.88 0 00-4.874 4.874 4.879 4.879 0 004.874 4.874c2.313.002 4.253-1.621 4.748-3.789z" fill="#fff"/><path d="M42.864 30.123h1.428a2.34 2.34 0 01-2.068 1.264 2.349 2.349 0 01-2.347-2.348 2.348 2.348 0 012.347-2.345c.9 0 1.675.515 2.068 1.264h-1.428a1.242 1.242 0 00-.64-.182c-.697 0-1.264.567-1.264 1.264 0 .696.567 1.263 1.264 1.263.234 0 .451-.067.64-.18z" fill="#fff"/><path d="M51.61 28.498h-9.386v1.083h9.386v-1.083z" fill="#fff"/><path d="M52.197 29.04l1.297 1.443-.803.726-1.465-1.628-.16-.178a.541.541 0 010-.726l.16-.18 1.465-1.625.803.726-1.297 1.442z" fill="#fff"/><path d="M50.518 29.581l.812.902-.805.726-1.465-1.628-.16-.178a.546.546 0 010-.726l.16-.18 1.465-1.625.805.726-.812.9-.488.54.488.543z" fill="#fff"/><path d="M30.869 52.05c-.977.797-1.75 2.019-2.019 3.866H18.083c0-3.077 1.56-4.636 4.636-4.636h5.176c.895 0 2.051.149 2.974.77zm16.748 5.39h-17.79c0-4.75 3.128-5.747 5.749-5.747h6.292c2.621 0 5.748.997 5.748 5.748zm12.299-1.524H48.593v.012c-.245-1.685-.905-2.853-1.759-3.652.96-.812 2.276-.996 3.272-.996h5.175c3.077 0 4.635 1.559 4.635 4.636z" fill="#fff" fill-opacity=".1"/></svg>