<svg width="78" height="78" fill="none" xmlns="http://www.w3.org/2000/svg"><circle cx="39" cy="39" r="39" fill="#5970F6"/><path d="M30.63 39.001h-.985v16.217h.986V39.001zm-4.483 4.547h-.986v11.67h.986v-11.67zm-4.493-4.547h-.987v16.217h.987V39.001z" fill="#fff"/><path d="M34.306 35.104L34.3 41.68c0 1.987-1.442 3.429-3.427 3.429h-.736v-.987h.736c1.436 0 2.44-1.003 2.44-2.442l.007-6.578a3.01 3.01 0 00-.887-2.148 3.014 3.014 0 00-2.145-.89H21.02a3.039 3.039 0 00-3.034 3.035v6.581a2.444 2.444 0 002.442 2.442h.733v.987h-.733A3.432 3.432 0 0117 41.68V35.1a4.024 4.024 0 014.02-4.021h9.267c1.074 0 2.083.419 2.844 1.179a3.996 3.996 0 011.175 2.846zm-8.651-4.454a4.388 4.388 0 01-3.102-1.285 4.216 4.216 0 01-1.213-3.036v-.437c.024-2.422 1.92-4.315 4.315-4.315a4.39 4.39 0 013.103 1.285 4.22 4.22 0 011.213 3.035v.437c-.025 2.422-1.92 4.316-4.316 4.316zm0-8.087c-1.848 0-3.31 1.465-3.329 3.334v.437a3.242 3.242 0 00.928 2.337 3.4 3.4 0 002.402.992c1.848 0 3.31-1.464 3.33-3.334v-.437a3.239 3.239 0 00-.929-2.337 3.399 3.399 0 00-2.402-.992zm15.688 13.64a4.56 4.56 0 01-4.555-4.555 4.561 4.561 0 014.555-4.555 4.561 4.561 0 014.555 4.555 4.56 4.56 0 01-4.555 4.555zm0-8.125a3.573 3.573 0 00-3.57 3.57 3.573 3.573 0 003.57 3.57 3.573 3.573 0 003.57-3.57 3.573 3.573 0 00-3.57-3.57z" fill="#fff"/><path d="M40.77 33.38a.49.49 0 01-.348-.145l-1.332-1.331.697-.698.983.983 2.128-2.129.697.698-2.477 2.477a.487.487 0 01-.348.145zm15.299-2.864h-9.13v.987h9.13v-.987zM61 32.489H46.94v.986H61v-.986zm-7.89-3.945h-6.17v.986h6.17v-.986zM41.343 46.56a4.56 4.56 0 01-4.555-4.556 4.56 4.56 0 014.555-4.555 4.561 4.561 0 014.555 4.555 4.56 4.56 0 01-4.555 4.556zm0-8.125a3.573 3.573 0 00-3.57 3.57 3.573 3.573 0 003.57 3.569 3.574 3.574 0 003.57-3.57 3.573 3.573 0 00-3.57-3.57z" fill="#fff"/><path d="M40.77 43.736a.49.49 0 01-.348-.144L39.09 42.26l.697-.697.983.982 2.128-2.128.697.697-2.477 2.478a.486.486 0 01-.348.144zm15.299-2.863h-9.13v.986h9.13v-.986zM61 42.846H46.94v.986H61v-.986zM53.11 38.9h-6.17v.987h6.17V38.9zM41.343 56.423a4.56 4.56 0 01-4.555-4.555 4.561 4.561 0 014.555-4.556 4.561 4.561 0 014.555 4.556 4.56 4.56 0 01-4.555 4.555zm0-8.125a3.573 3.573 0 00-3.57 3.57 3.573 3.573 0 003.57 3.57 3.573 3.573 0 003.57-3.57 3.573 3.573 0 00-3.57-3.57z" fill="#fff"/><path d="M40.77 53.6a.49.49 0 01-.348-.145l-1.332-1.331.697-.697.983.982 2.128-2.128.697.697-2.477 2.477a.487.487 0 01-.348.145zm15.299-2.864h-9.13v.987h9.13v-.987zM61 52.709H46.94v.986H61v-.986zm-7.89-3.945h-6.17v.986h6.17v-.986z" fill="#fff"/><path d="M33.32 35.104l-.008 6.577c0 1.438-1.003 2.442-2.44 2.442h-.242v-5.122h-.985v16.217h-3.497v-11.67h-.988v11.67h-3.506V39.001h-.987v5.123h-.24a2.444 2.444 0 01-2.442-2.442V35.1a3.039 3.039 0 013.035-3.034h9.267c.81 0 1.572.316 2.145.89.573.572.89 1.336.888 2.148z" fill="#fff" fill-opacity=".1"/></svg>