<svg width="78" height="78" fill="none" xmlns="http://www.w3.org/2000/svg"><circle cx="39" cy="39" r="39" fill="#5970F6"/><path d="M31.638 28.23c-2.37 0-4.3-1.963-4.3-4.376v-.528c0-2.413 1.93-4.376 4.3-4.376s4.3 1.963 4.3 4.376v.528c-.002 2.412-1.93 4.376-4.3 4.376zm0-8.191c-1.771 0-3.212 1.475-3.212 3.287v.528c0 1.813 1.44 3.287 3.212 3.287 1.77 0 3.21-1.475 3.21-3.287v-.528c0-1.813-1.44-3.287-3.21-3.287zm14.652 8.728c-2.37 0-4.3-1.963-4.3-4.376v-.527c0-2.413 1.93-4.376 4.3-4.376 2.371 0 4.3 1.963 4.3 4.376v.527c0 2.413-1.929 4.376-4.3 4.376zm0-8.19c-1.77 0-3.211 1.475-3.211 3.288v.527c0 1.813 1.441 3.288 3.211 3.288 1.77 0 3.212-1.476 3.212-3.288v-.528c0-1.813-1.44-3.288-3.212-3.288zm10.62 21.638h-1.088v16.527h1.088V42.215zm-12.098 2.454h-1.089v14.058h1.089V44.669zm-5.547 5.257h-1.087v8.92h1.087v-8.92zm-11.914-2.8h-1.088V59.05h1.088V47.126zm24.786 0h-1.089V59.05h1.089V47.126zm-18.609-2.512h-1.089v14.178h1.089V44.614zm-12.064.055h-1.088v14.176h1.088V44.67z" fill="#fff"/><path d="M48.7 43.391l-.013 4.377c0 2.26-1.627 3.907-3.875 3.934-.021.002-.04.002-.061.002v-1.088c.021 0 .042 0 .061-.002 1.645-.028 2.787-1.19 2.787-2.847l.014-4.377c0-4.747-3.125-5.745-5.747-5.745h-6.289c-2.62 0-5.747.998-5.747 5.747v4.375c0 1.597 1.061 2.736 2.61 2.84.078.007.157.009.24.009v1.088c-.08 0-.16-.002-.24-.006-2.156-.111-3.696-1.729-3.696-3.932v-4.375c0-2.73.901-4.392 2.122-5.392.305-.25.629-.458.965-.633 1.252-.646 2.656-.809 3.747-.809h6.289c1.19 0 2.755.191 4.087 1 .309.188.605.408.883.669 1.087 1.02 1.862 2.633 1.862 5.165zm-9.979-7.279a4.82 4.82 0 01-3.405-1.41 4.629 4.629 0 01-1.332-3.332v-.48c.026-2.659 2.107-4.737 4.737-4.737a4.82 4.82 0 013.406 1.41 4.629 4.629 0 011.332 3.332v.48c-.027 2.658-2.108 4.737-4.738 4.737zm0-8.871c-2.026 0-3.629 1.605-3.649 3.655v.479c-.01.982.351 1.89 1.017 2.562a3.722 3.722 0 002.632 1.087c2.027 0 3.63-1.605 3.65-3.655v-.479a3.554 3.554 0 00-1.018-2.561 3.72 3.72 0 00-2.632-1.088z" fill="#fff"/><path d="M57.004 48.95v-1.09c1.678 0 2.849-1.185 2.849-2.883v-1.985l.06-1.157c-.001-3.045-1.56-4.604-4.633-4.604h-5.176c-1.14 0-2.7.241-3.665 1.389l-.833-.701c.978-1.162 2.533-1.776 4.498-1.776h5.176c3.635 0 5.72 2.085 5.72 5.72l-.06 1.157v1.957c0 2.301-1.655 3.971-3.936 3.971zm-4.312-13.42a4.066 4.066 0 01-2.87-1.19 3.91 3.91 0 01-1.125-2.81v-.394c.022-2.242 1.777-3.995 3.995-3.995 1.075 0 2.122.434 2.87 1.189a3.91 3.91 0 011.125 2.811v.393c-.022 2.243-1.777 3.995-3.995 3.995zm0-7.3c-1.613 0-2.89 1.279-2.907 2.912v.393a2.83 2.83 0 00.81 2.04c.545.55 1.31.866 2.097.866 1.614 0 2.89-1.279 2.907-2.911v-.394a2.83 2.83 0 00-.81-2.04 2.968 2.968 0 00-2.097-.866zM20.937 48.934c-2.282 0-3.937-1.67-3.937-3.971v-3.098c0-3.635 2.084-5.72 5.72-5.72h5.176c1.965 0 3.52.614 4.498 1.776l-.833.7c-.966-1.147-2.526-1.388-3.665-1.388H22.72c-3.073 0-4.632 1.559-4.632 4.632v3.098c0 1.697 1.172 2.883 2.849 2.883v1.088zm4.371-13.404c-2.218 0-3.973-1.753-3.995-3.99v-.404a3.9 3.9 0 011.125-2.806 4.061 4.061 0 012.87-1.189c2.218 0 3.973 1.753 3.995 3.99v.404a3.903 3.903 0 01-1.124 2.806 4.067 4.067 0 01-2.871 1.188zm0-7.3c-.788 0-1.553.315-2.098.866a2.826 2.826 0 00-.809 2.035v.404c.017 1.627 1.293 2.907 2.907 2.907.788 0 1.552-.316 2.097-.866.53-.535.817-1.258.81-2.035v-.405c-.017-1.628-1.294-2.906-2.907-2.906z" fill="#fff"/><path d="M47.613 43.389l-.014 4.377c0 1.659-1.142 2.82-2.787 2.847v-5.945h-1.089v14.058l-4.46.03v-8.83h-1.085v8.836l-4.65.03V44.614h-1.089v5.993c-1.549-.105-2.61-1.244-2.61-2.84V43.39c0-4.75 3.127-5.747 5.747-5.747h6.29c2.622 0 5.747.998 5.747 5.745z" fill="#fff" fill-opacity=".1"/></svg>