<svg width="666" height="844" fill="none" xmlns="http://www.w3.org/2000/svg"><g filter="url(#filter0_f_2462_1854)"><ellipse cx="478.417" cy="371.041" rx="178.123" ry="172.348" transform="rotate(-167.405 478.417 371.041)" fill="#5970F6" fill-opacity=".2"/></g><path d="M345.31 340.374c-64.792-15.399-109.783-42.045-130.163-72.662-20.382-30.619-16.138-65.177 17.428-96.438 33.565-31.26 90.172-53.374 154.65-63.824C451.7 97 523.986 98.227 588.778 113.626c64.792 15.399 109.783 42.045 130.163 72.662 20.382 30.619 16.138 65.177-17.428 96.438-33.565 31.26-90.172 53.374-154.65 63.824-64.475 10.449-136.761 9.223-201.553-6.176z" stroke="#D5DAE1" stroke-width=".94"/><path d="M381.522 313.363c-68.342-16.242-115.799-44.349-137.297-76.645-21.498-32.296-17.024-68.752 18.387-101.73 35.41-32.979 95.125-56.305 163.137-67.328 68.01-11.023 144.257-9.73 212.599 6.513 68.342 16.243 115.798 44.35 137.296 76.645 21.499 32.297 17.024 68.752-18.386 101.731-35.41 32.978-95.125 56.305-163.138 67.328-68.01 11.022-144.257 9.729-212.598-6.514z" stroke="#D5DAE1" stroke-width=".94"/><defs><filter id="filter0_f_2462_1854" x=".527" y="-101.624" width="955.779" height="945.33" filterUnits="userSpaceOnUse" color-interpolation-filters="sRGB"><feFlood flood-opacity="0" result="BackgroundImageFix"/><feBlend in="SourceGraphic" in2="BackgroundImageFix" result="shape"/><feGaussianBlur stdDeviation="150" result="effect1_foregroundBlur_2462_1854"/></filter></defs></svg>