<svg width="18" height="18" fill="none" xmlns="http://www.w3.org/2000/svg"><g clip-path="url(#clip0_2462_216)"><path d="M17.722 16.559l-4.71-4.711c1.019-1.248 1.581-2.82 1.581-4.536A7.312 7.312 0 007.281 0C3.242 0 0 3.274 0 7.313c0 4.038 3.274 7.312 7.28 7.312a7.27 7.27 0 004.536-1.583l4.711 4.71a.972.972 0 00.63.248.844.844 0 00.596-.247.822.822 0 00-.03-1.194zM1.688 7.312a5.632 5.632 0 015.625-5.625 5.632 5.632 0 015.625 5.625 5.632 5.632 0 01-5.625 5.625 5.632 5.632 0 01-5.625-5.624z" fill="#5970F6"/></g><defs><clipPath id="clip0_2462_216"><path fill="#fff" d="M0 0h18v18H0z"/></clipPath></defs></svg>