<svg width="35" height="35" fill="none" xmlns="http://www.w3.org/2000/svg"><g clip-path="url(#clip0_2669_44562)"><path d="M34.453 17.5c0 9.363-7.59 16.953-16.953 16.953S.547 26.863.547 17.5 8.137.547 17.5.547 34.453 8.137 34.453 17.5zM15.54 26.477l12.578-12.579a1.094 1.094 0 000-1.546l-1.547-1.547a1.094 1.094 0 00-1.546 0L14.766 21.063l-4.79-4.79a1.094 1.094 0 00-1.546 0L6.883 17.82a1.094 1.094 0 000 1.547l7.11 7.11a1.093 1.093 0 001.546 0z" fill="#5970F6"/></g><defs><clipPath id="clip0_2669_44562"><path fill="#fff" d="M0 0h35v35H0z"/></clipPath></defs></svg>