<svg width="194" height="194" fill="none" xmlns="http://www.w3.org/2000/svg"><g filter="url(#filter0_d_2669_45423)"><path fill="#FEFEFE" d="M33 14h128v128H33z"/><g clip-path="url(#clip0_2669_45423)"><path d="M98.719 74.563H95.28a1.719 1.719 0 00-1.719 1.718v3.438a1.719 1.719 0 001.72 1.719h3.437a1.719 1.719 0 001.719-1.72v-3.437a1.721 1.721 0 00-1.72-1.719zm10.312 0h-3.437a1.721 1.721 0 00-1.719 1.718v3.438a1.72 1.72 0 001.719 1.719h3.437a1.721 1.721 0 001.719-1.72v-3.437a1.72 1.72 0 00-1.719-1.719zm10.313 0h-3.438a1.717 1.717 0 00-1.718 1.718v3.438a1.72 1.72 0 001.718 1.719h3.438a1.717 1.717 0 001.718-1.72v-3.437a1.72 1.72 0 00-1.718-1.719zm-30.938 0H84.97a1.719 1.719 0 00-1.719 1.718v3.438a1.719 1.719 0 001.719 1.719h3.437a1.719 1.719 0 001.719-1.72v-3.437a1.719 1.719 0 00-1.719-1.719zM98.72 95.186h-3.44a1.719 1.719 0 00-1.719 1.72v3.437a1.717 1.717 0 001.72 1.718h3.437a1.72 1.72 0 001.719-1.718v-3.438a1.721 1.721 0 00-1.72-1.719zm10.312 0h-3.437a1.721 1.721 0 00-1.719 1.72v3.437a1.718 1.718 0 001.719 1.718h3.437a1.718 1.718 0 001.719-1.718v-3.438a1.72 1.72 0 00-1.719-1.719zm10.313 0h-3.438a1.717 1.717 0 00-1.718 1.72v3.437a1.718 1.718 0 001.718 1.718h3.438a1.718 1.718 0 001.718-1.718v-3.438a1.72 1.72 0 00-1.718-1.719zm0-10.312h-3.438a1.717 1.717 0 00-1.718 1.719v3.437a1.72 1.72 0 001.718 1.719h3.438a1.717 1.717 0 001.718-1.719v-3.437a1.72 1.72 0 00-1.718-1.719zm0-20.625h-3.438a1.717 1.717 0 00-1.718 1.719v3.437a1.72 1.72 0 001.718 1.719h3.438a1.717 1.717 0 001.718-1.719V65.97a1.72 1.72 0 00-1.718-1.719zM98.719 84.875H95.28a1.719 1.719 0 00-1.719 1.719v3.437a1.719 1.719 0 001.72 1.719h3.437a1.719 1.719 0 001.719-1.719v-3.437a1.721 1.721 0 00-1.72-1.719zm0-20.625H95.28a1.719 1.719 0 00-1.719 1.719v3.437a1.719 1.719 0 001.72 1.719h3.437a1.719 1.719 0 001.719-1.719V65.97a1.721 1.721 0 00-1.72-1.719zM88.406 95.188H84.97a1.719 1.719 0 00-1.719 1.718v3.438a1.717 1.717 0 001.719 1.718h3.437a1.72 1.72 0 001.719-1.718v-3.438a1.719 1.719 0 00-1.719-1.719zm10.313-41.25H95.28a1.719 1.719 0 00-1.719 1.718v3.438a1.719 1.719 0 001.72 1.718h3.437a1.719 1.719 0 001.719-1.718v-3.438a1.721 1.721 0 00-1.72-1.718zm10.312 0h-3.437a1.721 1.721 0 00-1.719 1.718v3.438a1.72 1.72 0 001.719 1.718h3.437a1.721 1.721 0 001.719-1.718v-3.438a1.72 1.72 0 00-1.719-1.718zm10.313 0h-3.438a1.717 1.717 0 00-1.718 1.718v3.438a1.72 1.72 0 001.718 1.718h3.438a1.717 1.717 0 001.718-1.718v-3.438a1.72 1.72 0 00-1.718-1.718zm-41.25 20.624h-3.438a1.719 1.719 0 00-1.719 1.72v3.437a1.719 1.719 0 001.72 1.719h3.437a1.719 1.719 0 001.719-1.72v-3.437a1.719 1.719 0 00-1.72-1.719zm0 20.626h-3.438a1.719 1.719 0 00-1.719 1.718v3.438a1.717 1.717 0 001.72 1.718h3.437a1.72 1.72 0 001.719-1.718v-3.438a1.719 1.719 0 00-1.72-1.719zm0-10.313h-3.438a1.719 1.719 0 00-1.719 1.719v3.437a1.719 1.719 0 001.72 1.719h3.437a1.719 1.719 0 001.719-1.719v-3.437a1.719 1.719 0 00-1.72-1.719zm0-20.625h-3.438a1.719 1.719 0 00-1.719 1.719v3.437a1.719 1.719 0 001.72 1.719h3.437a1.719 1.719 0 001.719-1.719V65.97a1.719 1.719 0 00-1.72-1.719zm0-10.313h-3.438a1.719 1.719 0 00-1.719 1.72v3.437a1.719 1.719 0 001.72 1.718h3.437a1.719 1.719 0 001.719-1.718v-3.438a1.719 1.719 0 00-1.72-1.718zm10.312 0H84.97a1.719 1.719 0 00-1.719 1.72v3.437a1.719 1.719 0 001.719 1.718h3.437a1.719 1.719 0 001.719-1.718v-3.438a1.719 1.719 0 00-1.719-1.718z" fill="#5970F6"/></g></g><defs><clipPath id="clip0_2669_45423"><path fill="#fff" transform="translate(72.938 50.5)" d="M0 0h48.125v55H0z"/></clipPath><filter id="filter0_d_2669_45423" x="0" y="0" width="194" height="194" filterUnits="userSpaceOnUse" color-interpolation-filters="sRGB"><feFlood flood-opacity="0" result="BackgroundImageFix"/><feColorMatrix in="SourceAlpha" values="0 0 0 0 0 0 0 0 0 0 0 0 0 0 0 0 0 0 127 0" result="hardAlpha"/><feOffset dy="19"/><feGaussianBlur stdDeviation="16.5"/><feColorMatrix values="0 0 0 0 0.435294 0 0 0 0 0.427451 0 0 0 0 0.443137 0 0 0 0.13 0"/><feBlend in2="BackgroundImageFix" result="effect1_dropShadow_2669_45423"/><feBlend in="SourceGraphic" in2="effect1_dropShadow_2669_45423" result="shape"/></filter></defs></svg>