<svg width="194" height="194" viewBox="0 0 194 194" fill="none" xmlns="http://www.w3.org/2000/svg">
<g filter="url(#filter0_d_2669_45423)">
<rect width="128" height="128" transform="translate(33 14)" fill="#FEFEFE"/>
<g clip-path="url(#clip0_2669_45423)">
<path d="M98.7188 74.5625H95.2812C94.8254 74.5625 94.3882 74.7436 94.0659 75.0659C93.7436 75.3882 93.5625 75.8254 93.5625 76.2812V79.7188C93.5625 80.1746 93.7436 80.6118 94.0659 80.9341C94.3882 81.2564 94.8254 81.4375 95.2812 81.4375H98.7188C99.1746 81.4375 99.6118 81.2564 99.9341 80.9341C100.256 80.6118 100.438 80.1746 100.438 79.7188V76.2812C100.438 75.8254 100.256 75.3882 99.9341 75.0659C99.6118 74.7436 99.1746 74.5625 98.7188 74.5625ZM109.031 74.5625H105.594C105.138 74.5625 104.701 74.7436 104.378 75.0659C104.056 75.3882 103.875 75.8254 103.875 76.2812V79.7188C103.875 80.1746 104.056 80.6118 104.378 80.9341C104.701 81.2564 105.138 81.4375 105.594 81.4375H109.031C109.487 81.4375 109.924 81.2564 110.247 80.9341C110.569 80.6118 110.75 80.1746 110.75 79.7188V76.2812C110.75 75.8254 110.569 75.3882 110.247 75.0659C109.924 74.7436 109.487 74.5625 109.031 74.5625ZM119.344 74.5625H115.906C115.45 74.5625 115.013 74.7436 114.691 75.0659C114.369 75.3882 114.188 75.8254 114.188 76.2812V79.7188C114.188 80.1746 114.369 80.6118 114.691 80.9341C115.013 81.2564 115.45 81.4375 115.906 81.4375H119.344C119.8 81.4375 120.237 81.2564 120.559 80.9341C120.881 80.6118 121.062 80.1746 121.062 79.7188V76.2812C121.062 75.8254 120.881 75.3882 120.559 75.0659C120.237 74.7436 119.8 74.5625 119.344 74.5625ZM88.4062 74.5625H84.9688C84.5129 74.5625 84.0757 74.7436 83.7534 75.0659C83.4311 75.3882 83.25 75.8254 83.25 76.2812V79.7188C83.25 80.1746 83.4311 80.6118 83.7534 80.9341C84.0757 81.2564 84.5129 81.4375 84.9688 81.4375H88.4062C88.8621 81.4375 89.2993 81.2564 89.6216 80.9341C89.9439 80.6118 90.125 80.1746 90.125 79.7188V76.2812C90.125 75.8254 89.9439 75.3882 89.6216 75.0659C89.2993 74.7436 88.8621 74.5625 88.4062 74.5625ZM98.7188 95.1875H95.2812C94.8254 95.1875 94.3882 95.3686 94.0659 95.6909C93.7436 96.0132 93.5625 96.4504 93.5625 96.9062V100.344C93.5625 100.8 93.7436 101.237 94.0659 101.559C94.3882 101.881 94.8254 102.062 95.2812 102.062H98.7188C99.1746 102.062 99.6118 101.881 99.9341 101.559C100.256 101.237 100.438 100.8 100.438 100.344V96.9062C100.438 96.4504 100.256 96.0132 99.9341 95.6909C99.6118 95.3686 99.1746 95.1875 98.7188 95.1875ZM109.031 95.1875H105.594C105.138 95.1875 104.701 95.3686 104.378 95.6909C104.056 96.0132 103.875 96.4504 103.875 96.9062V100.344C103.875 100.8 104.056 101.237 104.378 101.559C104.701 101.881 105.138 102.062 105.594 102.062H109.031C109.487 102.062 109.924 101.881 110.247 101.559C110.569 101.237 110.75 100.8 110.75 100.344V96.9062C110.75 96.4504 110.569 96.0132 110.247 95.6909C109.924 95.3686 109.487 95.1875 109.031 95.1875ZM119.344 95.1875H115.906C115.45 95.1875 115.013 95.3686 114.691 95.6909C114.369 96.0132 114.188 96.4504 114.188 96.9062V100.344C114.188 100.8 114.369 101.237 114.691 101.559C115.013 101.881 115.45 102.062 115.906 102.062H119.344C119.8 102.062 120.237 101.881 120.559 101.559C120.881 101.237 121.062 100.8 121.062 100.344V96.9062C121.062 96.4504 120.881 96.0132 120.559 95.6909C120.237 95.3686 119.8 95.1875 119.344 95.1875ZM119.344 84.875H115.906C115.45 84.875 115.013 85.0561 114.691 85.3784C114.369 85.7007 114.188 86.1379 114.188 86.5938V90.0312C114.188 90.4871 114.369 90.9243 114.691 91.2466C115.013 91.5689 115.45 91.75 115.906 91.75H119.344C119.8 91.75 120.237 91.5689 120.559 91.2466C120.881 90.9243 121.062 90.4871 121.062 90.0312V86.5938C121.062 86.1379 120.881 85.7007 120.559 85.3784C120.237 85.0561 119.8 84.875 119.344 84.875ZM119.344 64.25H115.906C115.45 64.25 115.013 64.4311 114.691 64.7534C114.369 65.0757 114.188 65.5129 114.188 65.9688V69.4062C114.188 69.8621 114.369 70.2993 114.691 70.6216C115.013 70.9439 115.45 71.125 115.906 71.125H119.344C119.8 71.125 120.237 70.9439 120.559 70.6216C120.881 70.2993 121.062 69.8621 121.062 69.4062V65.9688C121.062 65.5129 120.881 65.0757 120.559 64.7534C120.237 64.4311 119.8 64.25 119.344 64.25ZM98.7188 84.875H95.2812C94.8254 84.875 94.3882 85.0561 94.0659 85.3784C93.7436 85.7007 93.5625 86.1379 93.5625 86.5938V90.0312C93.5625 90.4871 93.7436 90.9243 94.0659 91.2466C94.3882 91.5689 94.8254 91.75 95.2812 91.75H98.7188C99.1746 91.75 99.6118 91.5689 99.9341 91.2466C100.256 90.9243 100.438 90.4871 100.438 90.0312V86.5938C100.438 86.1379 100.256 85.7007 99.9341 85.3784C99.6118 85.0561 99.1746 84.875 98.7188 84.875ZM98.7188 64.25H95.2812C94.8254 64.25 94.3882 64.4311 94.0659 64.7534C93.7436 65.0757 93.5625 65.5129 93.5625 65.9688V69.4062C93.5625 69.8621 93.7436 70.2993 94.0659 70.6216C94.3882 70.9439 94.8254 71.125 95.2812 71.125H98.7188C99.1746 71.125 99.6118 70.9439 99.9341 70.6216C100.256 70.2993 100.438 69.8621 100.438 69.4062V65.9688C100.438 65.5129 100.256 65.0757 99.9341 64.7534C99.6118 64.4311 99.1746 64.25 98.7188 64.25ZM88.4062 95.1875H84.9688C84.5129 95.1875 84.0757 95.3686 83.7534 95.6909C83.4311 96.0132 83.25 96.4504 83.25 96.9062V100.344C83.25 100.8 83.4311 101.237 83.7534 101.559C84.0757 101.881 84.5129 102.062 84.9688 102.062H88.4062C88.8621 102.062 89.2993 101.881 89.6216 101.559C89.9439 101.237 90.125 100.8 90.125 100.344V96.9062C90.125 96.4504 89.9439 96.0132 89.6216 95.6909C89.2993 95.3686 88.8621 95.1875 88.4062 95.1875ZM98.7188 53.9375H95.2812C94.8254 53.9375 94.3882 54.1186 94.0659 54.4409C93.7436 54.7632 93.5625 55.2004 93.5625 55.6562V59.0938C93.5625 59.5496 93.7436 59.9868 94.0659 60.3091C94.3882 60.6314 94.8254 60.8125 95.2812 60.8125H98.7188C99.1746 60.8125 99.6118 60.6314 99.9341 60.3091C100.256 59.9868 100.438 59.5496 100.438 59.0938V55.6562C100.438 55.2004 100.256 54.7632 99.9341 54.4409C99.6118 54.1186 99.1746 53.9375 98.7188 53.9375ZM109.031 53.9375H105.594C105.138 53.9375 104.701 54.1186 104.378 54.4409C104.056 54.7632 103.875 55.2004 103.875 55.6562V59.0938C103.875 59.5496 104.056 59.9868 104.378 60.3091C104.701 60.6314 105.138 60.8125 105.594 60.8125H109.031C109.487 60.8125 109.924 60.6314 110.247 60.3091C110.569 59.9868 110.75 59.5496 110.75 59.0938V55.6562C110.75 55.2004 110.569 54.7632 110.247 54.4409C109.924 54.1186 109.487 53.9375 109.031 53.9375ZM119.344 53.9375H115.906C115.45 53.9375 115.013 54.1186 114.691 54.4409C114.369 54.7632 114.188 55.2004 114.188 55.6562V59.0938C114.188 59.5496 114.369 59.9868 114.691 60.3091C115.013 60.6314 115.45 60.8125 115.906 60.8125H119.344C119.8 60.8125 120.237 60.6314 120.559 60.3091C120.881 59.9868 121.062 59.5496 121.062 59.0938V55.6562C121.062 55.2004 120.881 54.7632 120.559 54.4409C120.237 54.1186 119.8 53.9375 119.344 53.9375ZM78.0938 74.5625H74.6562C74.2004 74.5625 73.7632 74.7436 73.4409 75.0659C73.1186 75.3882 72.9375 75.8254 72.9375 76.2812V79.7188C72.9375 80.1746 73.1186 80.6118 73.4409 80.9341C73.7632 81.2564 74.2004 81.4375 74.6562 81.4375H78.0938C78.5496 81.4375 78.9868 81.2564 79.3091 80.9341C79.6314 80.6118 79.8125 80.1746 79.8125 79.7188V76.2812C79.8125 75.8254 79.6314 75.3882 79.3091 75.0659C78.9868 74.7436 78.5496 74.5625 78.0938 74.5625ZM78.0938 95.1875H74.6562C74.2004 95.1875 73.7632 95.3686 73.4409 95.6909C73.1186 96.0132 72.9375 96.4504 72.9375 96.9062V100.344C72.9375 100.8 73.1186 101.237 73.4409 101.559C73.7632 101.881 74.2004 102.062 74.6562 102.062H78.0938C78.5496 102.062 78.9868 101.881 79.3091 101.559C79.6314 101.237 79.8125 100.8 79.8125 100.344V96.9062C79.8125 96.4504 79.6314 96.0132 79.3091 95.6909C78.9868 95.3686 78.5496 95.1875 78.0938 95.1875ZM78.0938 84.875H74.6562C74.2004 84.875 73.7632 85.0561 73.4409 85.3784C73.1186 85.7007 72.9375 86.1379 72.9375 86.5938V90.0312C72.9375 90.4871 73.1186 90.9243 73.4409 91.2466C73.7632 91.5689 74.2004 91.75 74.6562 91.75H78.0938C78.5496 91.75 78.9868 91.5689 79.3091 91.2466C79.6314 90.9243 79.8125 90.4871 79.8125 90.0312V86.5938C79.8125 86.1379 79.6314 85.7007 79.3091 85.3784C78.9868 85.0561 78.5496 84.875 78.0938 84.875ZM78.0938 64.25H74.6562C74.2004 64.25 73.7632 64.4311 73.4409 64.7534C73.1186 65.0757 72.9375 65.5129 72.9375 65.9688V69.4062C72.9375 69.8621 73.1186 70.2993 73.4409 70.6216C73.7632 70.9439 74.2004 71.125 74.6562 71.125H78.0938C78.5496 71.125 78.9868 70.9439 79.3091 70.6216C79.6314 70.2993 79.8125 69.8621 79.8125 69.4062V65.9688C79.8125 65.5129 79.6314 65.0757 79.3091 64.7534C78.9868 64.4311 78.5496 64.25 78.0938 64.25ZM78.0938 53.9375H74.6562C74.2004 53.9375 73.7632 54.1186 73.4409 54.4409C73.1186 54.7632 72.9375 55.2004 72.9375 55.6562V59.0938C72.9375 59.5496 73.1186 59.9868 73.4409 60.3091C73.7632 60.6314 74.2004 60.8125 74.6562 60.8125H78.0938C78.5496 60.8125 78.9868 60.6314 79.3091 60.3091C79.6314 59.9868 79.8125 59.5496 79.8125 59.0938V55.6562C79.8125 55.2004 79.6314 54.7632 79.3091 54.4409C78.9868 54.1186 78.5496 53.9375 78.0938 53.9375ZM88.4062 53.9375H84.9688C84.5129 53.9375 84.0757 54.1186 83.7534 54.4409C83.4311 54.7632 83.25 55.2004 83.25 55.6562V59.0938C83.25 59.5496 83.4311 59.9868 83.7534 60.3091C84.0757 60.6314 84.5129 60.8125 84.9688 60.8125H88.4062C88.8621 60.8125 89.2993 60.6314 89.6216 60.3091C89.9439 59.9868 90.125 59.5496 90.125 59.0938V55.6562C90.125 55.2004 89.9439 54.7632 89.6216 54.4409C89.2993 54.1186 88.8621 53.9375 88.4062 53.9375Z" fill="#5970F6"/>
</g>
</g>
<defs>
<filter id="filter0_d_2669_45423" x="0" y="0" width="194" height="194" filterUnits="userSpaceOnUse" color-interpolation-filters="sRGB">
<feFlood flood-opacity="0" result="BackgroundImageFix"/>
<feColorMatrix in="SourceAlpha" type="matrix" values="0 0 0 0 0 0 0 0 0 0 0 0 0 0 0 0 0 0 127 0" result="hardAlpha"/>
<feOffset dy="19"/>
<feGaussianBlur stdDeviation="16.5"/>
<feColorMatrix type="matrix" values="0 0 0 0 0.435294 0 0 0 0 0.427451 0 0 0 0 0.443137 0 0 0 0.13 0"/>
<feBlend mode="normal" in2="BackgroundImageFix" result="effect1_dropShadow_2669_45423"/>
<feBlend mode="normal" in="SourceGraphic" in2="effect1_dropShadow_2669_45423" result="shape"/>
</filter>
<clipPath id="clip0_2669_45423">
<rect width="48.125" height="55" fill="white" transform="translate(72.9375 50.5)"/>
</clipPath>
</defs>
</svg>
