<svg width="1553" height="897" fill="none" xmlns="http://www.w3.org/2000/svg"><g filter="url(#filter0_f_2574_7023)"><ellipse cx="419.871" cy="548.401" rx="242.03" ry="163.56" transform="rotate(-167.405 419.871 548.401)" fill="#5970F6" fill-opacity=".05"/></g><g filter="url(#filter1_f_2574_7023)"><ellipse cx="1365.42" cy="371.041" rx="178.123" ry="172.348" transform="rotate(-167.405 1365.42 371.041)" fill="#5970F6" fill-opacity=".2"/></g><path d="M1232.19 659.026c-129.52-59.583-179.94-206.227-112.65-327.527 67.29-121.3 226.83-171.36 356.35-111.778 129.53 59.583 179.94 206.227 112.65 327.527-67.29 121.3-226.82 171.36-356.35 111.778z" stroke="#D5DAE1" stroke-width=".94"/><path d="M1268.41 606.744c-136.62-62.848-189.81-217.53-118.83-345.48 70.98-127.95 239.26-180.754 375.88-117.906 136.62 62.849 189.81 217.531 118.83 345.48-70.98 127.95-239.26 180.754-375.88 117.906z" stroke="#D5DAE1" stroke-width=".94"/><defs><filter id="filter0_f_2574_7023" x=".955" y="200.232" width="837.832" height="696.337" filterUnits="userSpaceOnUse" color-interpolation-filters="sRGB"><feFlood flood-opacity="0" result="BackgroundImageFix"/><feBlend in="SourceGraphic" in2="BackgroundImageFix" result="shape"/><feGaussianBlur stdDeviation="90" result="effect1_foregroundBlur_2574_7023"/></filter><filter id="filter1_f_2574_7023" x="887.527" y="-101.624" width="955.779" height="945.33" filterUnits="userSpaceOnUse" color-interpolation-filters="sRGB"><feFlood flood-opacity="0" result="BackgroundImageFix"/><feBlend in="SourceGraphic" in2="BackgroundImageFix" result="shape"/><feGaussianBlur stdDeviation="150" result="effect1_foregroundBlur_2574_7023"/></filter></defs></svg>