<svg width="56" height="56" fill="none" xmlns="http://www.w3.org/2000/svg"><rect width="56" height="56" rx="28" fill="#5970F6"/><path d="M28 40c1.576.002 3.137-.32 4.593-.949a11.944 11.944 0 003.892-2.712 12.506 12.506 0 002.604-4.054A12.9 12.9 0 0040 27.5a12.913 12.913 0 00-.91-4.785 12.507 12.507 0 00-2.605-4.054 11.944 11.944 0 00-3.892-2.712A11.547 11.547 0 0028 15a11.548 11.548 0 00-4.593.949 11.943 11.943 0 00-3.892 2.712 12.507 12.507 0 00-2.604 4.054A12.913 12.913 0 0016 27.5a12.913 12.913 0 00.91 4.785 12.506 12.506 0 002.605 4.054 11.943 11.943 0 003.892 2.712c1.456.629 3.017.951 4.593.949z" stroke="#fff" stroke-width="3" stroke-linejoin="round"/><path d="M23 23.5l6.333 6.5L42 17" stroke="#fff" stroke-width="3" stroke-linecap="round" stroke-linejoin="round"/></svg>