<svg width="64" height="52" fill="none" xmlns="http://www.w3.org/2000/svg"><path d="M35.219 19.694l-13.19-8.386c-.66-.427-1.524-.441-2.26-.044-.683.373-1.09 1.029-1.09 1.754v16.778c0 .72.41 1.374 1.095 1.747.356.19.749.287 1.135.287.41 0 .81-.106 1.145-.325l13.117-8.39a2.08 2.08 0 00.96-1.753c0-.677-.338-1.3-.912-1.668zm-1.043 1.873L21.063 29.96c-.092.058-.27.044-.407-.034-.09-.048-.137-.106-.137-.13V13.018c0-.038.058-.096.133-.137a.483.483 0 01.232-.062c.062 0 .113.01.154.038l13.188 8.385c.02.014.065.04.065.12a.233.233 0 01-.115.205z" fill="#3555F6"/><path d="M34.292 21.362a.24.24 0 01-.116.205L21.063 29.96c-.092.058-.27.044-.407-.034-.089-.048-.137-.106-.137-.13V13.018c0-.038.058-.096.133-.137a.483.483 0 01.232-.062c.062 0 .113.01.154.038l13.188 8.385c.022.014.066.042.066.12z" fill="#5970F6" fill-opacity=".5"/><path d="M40.973 41.24c0-.31.025-.614.046-.919H3.677a1.841 1.841 0 01-1.839-1.839V4.33c0-1.014.825-1.839 1.839-1.839h47.458c1.014 0 1.839.825 1.839 1.839v24.037c.305-.022.609-.046.919-.046.31 0 .614.025.919.046V4.33A3.682 3.682 0 0051.135.653H3.677A3.681 3.681 0 000 4.33v34.152a3.682 3.682 0 003.677 3.677H41.02c-.022-.304-.047-.608-.047-.919z" fill="#3555F6"/><path d="M53.893 51.347c-5.573 0-10.107-4.534-10.107-10.107 0-5.573 4.534-10.107 10.107-10.107C59.466 31.133 64 35.667 64 41.24c0 5.573-4.534 10.107-10.107 10.107zm0-18.375c-4.56 0-8.268 3.709-8.268 8.268 0 4.559 3.709 8.268 8.268 8.268 4.559 0 8.268-3.71 8.268-8.268 0-4.56-3.71-8.268-8.268-8.268z" fill="#3555F6"/><path d="M54.813 36.852h-1.839v8.776h1.84v-8.776z" fill="#3555F6"/><path d="M58.28 40.32h-8.775v1.84h8.776v-1.84z" fill="#3555F6"/></svg>