<svg width="64" height="64" fill="none" xmlns="http://www.w3.org/2000/svg"><path d="M12.05 7.505H4.07c-.577 0-1.044.468-1.044 1.044v41.396c0 .577.468 1.048 1.044 1.048h7.98c.58 0 1.048-.471 1.048-1.048V8.549c0-.577-.467-1.044-1.048-1.044zM5.118 9.597h5.884v39.3H5.118v-39.3z" fill="#3555F6"/><path d="M11.002 9.597H5.118v39.3h5.884v-39.3z" fill="#5970F6" fill-opacity=".5"/><path d="M20.03 24.435h-7.98a1.05 1.05 0 00-1.048 1.048v24.462a1.05 1.05 0 001.048 1.048h7.98c.581 0 1.048-.47 1.048-1.048V25.483c0-.577-.467-1.048-1.048-1.048zm-6.932 2.096h5.884v22.366h-5.884V26.531z" fill="#3555F6"/><path d="M28.01 35.544h-7.98c-.577 0-1.048.468-1.048 1.048v13.353c0 .577.472 1.048 1.048 1.048h7.98c.58 0 1.048-.471 1.048-1.048V36.592c0-.581-.467-1.048-1.048-1.048zm-6.932 13.353V37.64h5.884v11.257h-5.884z" fill="#3555F6"/><path d="M26.962 37.64h-5.884v11.257h5.884V37.64z" fill="#5970F6" fill-opacity=".5"/><path d="M35.99 42.222h-7.98c-.577 0-1.048.468-1.048 1.044v6.679c0 .577.472 1.048 1.048 1.048h7.98a1.05 1.05 0 001.048-1.048v-6.679c0-.576-.471-1.044-1.048-1.044zm-6.932 2.093h5.884v4.582h-5.884v-4.582z" fill="#3555F6"/><path d="M43.97 13.61h-7.98c-.581 0-1.048.468-1.048 1.048v35.287c0 .577.468 1.048 1.048 1.048h7.98a1.05 1.05 0 001.048-1.048V14.659c0-.581-.471-1.049-1.048-1.049zm-6.932 2.097h5.884v33.19h-5.884v-33.19z" fill="#3555F6"/><path d="M42.922 15.707h-5.884v33.19h5.884v-33.19z" fill="#5970F6" fill-opacity=".5"/><path d="M51.95 28.199h-7.98c-.581 0-1.048.471-1.048 1.048v20.698c0 .577.468 1.048 1.048 1.048h7.98c.577 0 1.044-.471 1.044-1.048V29.247c0-.577-.467-1.048-1.044-1.048zm-6.932 2.096h5.884v18.602h-5.884V30.295z" fill="#3555F6"/><path d="M59.93 32.446h-7.98c-.581 0-1.048.471-1.048 1.048v16.451c0 .577.468 1.048 1.048 1.048h7.98c.577 0 1.044-.471 1.044-1.048V33.494c0-.576-.467-1.048-1.044-1.048zm-1.048 16.451h-5.888V34.542h5.888v14.355z" fill="#3555F6"/><path d="M58.882 34.542h-5.888v14.355h5.888V34.542z" fill="#5970F6" fill-opacity=".5"/><path d="M29.058 0h-2.096v64h2.096V0z" fill="#3555F6"/></svg>