<svg width="64" height="49" fill="none" xmlns="http://www.w3.org/2000/svg"><path d="M57.904 6.064H46.893L41.659 0H22.956l-5.238 6.064H6.507C2.92 6.064 0 8.984 0 12.575v28.952c0 3.938 3.2 7.137 7.137 7.137h49.726c3.934 0 7.137-3.2 7.137-7.137V12.16a6.103 6.103 0 00-6.096-6.096zm3.95 35.463a4.995 4.995 0 01-4.991 4.991H7.137a4.999 4.999 0 01-4.995-4.991V12.575A4.371 4.371 0 016.507 8.21h12.192l5.238-6.064h16.74l5.234 6.064h11.993a3.954 3.954 0 013.95 3.95v29.367z" fill="#3555F6"/><path d="M61.854 18.962v22.565a4.995 4.995 0 01-4.99 4.991H7.136a4.999 4.999 0 01-4.995-4.991V18.962h18.07a14.451 14.451 0 00-2.139 7.58c0 8.015 6.52 14.534 14.534 14.534 8.011 0 14.534-6.519 14.534-14.534 0-2.773-.782-5.37-2.138-7.58h16.851z" fill="#5970F6" fill-opacity=".5"/><path d="M45.002 18.962a14.576 14.576 0 00-1.608-2.146 14.487 14.487 0 00-10.788-4.807 14.503 14.503 0 00-10.792 4.807 14.342 14.342 0 00-1.604 2.146 14.451 14.451 0 00-2.138 7.58c0 8.015 6.519 14.534 14.534 14.534 8.011 0 14.534-6.519 14.534-14.534 0-2.773-.782-5.37-2.138-7.58zM32.606 38.93c-6.83 0-12.388-5.557-12.388-12.387s5.557-12.387 12.388-12.387c3.926 0 7.432 1.839 9.703 4.7l.084.108a12.296 12.296 0 012.601 7.58c0 6.828-5.558 12.386-12.388 12.386z" fill="#3555F6"/><path d="M32.605 36.268c-5.363 0-9.726-4.363-9.726-9.726 0-.459.04-.944.124-1.484l.207-1.342 1.258.512c.457.186.93.28 1.408.28a3.738 3.738 0 003.734-3.734c0-.671-.185-1.317-.551-1.92l-.705-1.165 1.298-.413a9.726 9.726 0 012.954-.46 9.665 9.665 0 016.877 2.848 9.663 9.663 0 012.849 6.877c0 5.364-4.363 9.727-9.727 9.727zm-7.58-9.677c.027 4.158 3.417 7.532 7.58 7.532 4.18 0 7.58-3.401 7.58-7.581a7.53 7.53 0 00-2.22-5.36 7.529 7.529 0 00-5.36-2.22c-.375 0-.75.028-1.12.083.179.562.27 1.145.27 1.729a5.887 5.887 0 01-6.73 5.817zm-2.724-9.775H1.07v2.146h21.232v-2.146zm41.236 0H42.31v2.146h21.228v-2.146z" fill="#3555F6"/></svg>