<svg width="64" height="64" fill="none" xmlns="http://www.w3.org/2000/svg"><path d="M32.257 14.522a.655.655 0 00-.713.13l-8.954 8.582h-4.719a3.408 3.408 0 00-3.403 3.403v10.725a3.408 3.408 0 003.403 3.404h4.72l8.954 8.583a.657.657 0 001.11-.474v-33.75a.656.656 0 00-.398-.603zM15.78 37.362V26.637a2.093 2.093 0 012.091-2.09h4.327v14.906H17.87a2.093 2.093 0 01-2.09-2.09zm15.563 9.975L23.51 39.83V24.171l7.833-7.508v30.674zm7.089-7.435a1.902 1.902 0 01-1.345-3.247 6.592 6.592 0 000-9.31 1.902 1.902 0 112.69-2.69 10.4 10.4 0 010 14.69 1.89 1.89 0 01-1.345.557zm0-14.492a.59.59 0 00-.417 1.007 7.903 7.903 0 010 11.166.591.591 0 000 .834.604.604 0 00.834 0 9.086 9.086 0 000-12.834.588.588 0 00-.417-.172z" fill="#5970F6"/><path d="M43.454 44.056a1.902 1.902 0 01-1.345-3.247 12.472 12.472 0 000-17.618 1.902 1.902 0 112.69-2.69 16.281 16.281 0 010 22.998 1.892 1.892 0 01-1.345.557zm0-22.8a.59.59 0 00-.416 1.007 13.785 13.785 0 010 19.473.589.589 0 000 .835.604.604 0 00.834 0 14.967 14.967 0 000-21.142.588.588 0 00-.418-.172z" fill="#5970F6"/><path d="M62.782 63.999h-3.648v-2.432h2.432v-2.432h2.432v3.648c0 .671-.544 1.216-1.216 1.216zm-50.163-2.432V64h7.75v-2.433h-7.75zm15.502 0V64h7.756v-2.433H28.12zm15.507 0V64h7.75v-2.433h-7.75zm-38.765 0V64h-3.65a1.216 1.216 0 01-1.211-1.216v-3.649H2.43v2.433l2.433-.001zM.002 12.618v7.751H2.43v-7.751H.002zm0 15.503v7.756H2.43v-7.756H.002zm0 15.506v7.756H2.43v-7.756H.002zm2.43-38.763H0V1.216C0 .545.544 0 1.216 0h3.648v2.432H2.432v2.432zM51.38 2.432h-7.75V0h7.752v2.432zm-15.504 0h-7.753V0h7.753v2.432zm-15.506 0h-7.753V0h7.753v2.432zm43.628 2.432h-2.432V2.432h-2.432V0h3.648c.672 0 1.216.545 1.216 1.216v3.648zm0 46.516h-2.432v-7.75h2.432v7.752zm0-15.505h-2.432v-7.753h2.432v7.753zm0-15.505h-2.432v-7.753h2.432v7.753z" fill="#3555F6"/><path d="M19.502 43.284H1.214c-.33 0-.624.131-.841.344a1.2 1.2 0 00-.371.873v18.283c0 .67.543 1.216 1.212 1.216h18.288c.339 0 .651-.14.868-.37.213-.223.344-.517.344-.847V44.5c0-.674-.543-1.216-1.212-1.216zM2.43 61.567v-15.85h15.855v15.85H2.43z" fill="#3555F6"/><path d="M18.285 45.717H2.43v15.85h15.855v-15.85z" fill="#5970F6" fill-opacity=".5"/></svg>