<svg width="64" height="64" fill="none" xmlns="http://www.w3.org/2000/svg"><g clip-path="url(#clip0_0_685)" fill="#3555F6"><path d="M14.337 24.856h-1.262l.192-8.94h36.09l.192 8.94h-1.18c-.42-2.45-.996-4.219-1.727-5.307-.731-1.087-1.518-1.755-2.358-2.002-.841-.247-2.276-.37-4.306-.37H34v26.245c0 2.907.068 4.817.205 5.731.137.915.508 1.591 1.111 2.029.603.439 1.737.659 3.4.659h1.811v1.261H21.988v-1.261h1.919c1.591 0 2.692-.201 3.305-.604.612-.402 1.005-1.028 1.179-1.879.174-.85.261-2.828.261-5.937V17.178H23.14c-2.395 0-4.004.114-4.827.343-.823.229-1.595.918-2.317 2.07-.723 1.151-1.275 2.907-1.659 5.265zM19.981 64H1.263A1.264 1.264 0 010 62.737V47.113h2.526v14.36h17.455V64zm42.756 0H44.019v-2.526h17.455v-14.36H64v15.623c0 .697-.566 1.263-1.263 1.263zM2.526 19.981H0V1.263C0 .566.566 0 1.263 0h18.718v2.526H2.526v17.455zm61.474 0h-2.526V2.526H44.019V0h18.718C63.434 0 64 .566 64 1.263v18.718z"/></g><defs><clipPath id="clip0_0_685"><path fill="#fff" d="M0 0h64v64H0z"/></clipPath></defs></svg>