<svg width="64" height="64" fill="none" xmlns="http://www.w3.org/2000/svg"><path d="M21.858 6.71l-.101-.021-20.584-4.37a.962.962 0 00-.812.199.965.965 0 00-.361.75v17.327c0 .476.35.884.819.96l1.122.177 18.748 2.984.772.123c.022.004.036.004.054.007a.963.963 0 001.111-.96V7.66a.966.966 0 00-.768-.95zM1.941 19.769V4.467l18.748 3.976v14.306L1.941 19.768z" fill="#3555F6"/><path d="M20.689 8.443v14.306L1.94 19.768V4.467l18.748 3.976z" fill="#5970F6" fill-opacity=".5"/><path d="M42.344 6.689H21.659a.969.969 0 00-.971.971v16.225c0 .469.332.862.772.953.022.004.036.004.054.007a.997.997 0 00.144.011h20.685c.051 0 .101-.004.152-.011l.043-.007a.975.975 0 00.776-.953V7.66a.97.97 0 00-.97-.971zM22.626 22.915V8.627h18.748v14.288H22.626z" fill="#3555F6"/><path d="M63.639 2.518a.955.955 0 00-.812-.198L42.243 6.689l-.101.022a.97.97 0 00-.769.949v16.225a.963.963 0 001.122.96l.043-.007.776-.123 18.744-2.984 1.122-.177a.971.971 0 00.82-.959V3.269a.965.965 0 00-.361-.751zM43.315 22.749V8.443l18.744-3.976v15.302l-18.744 2.98z" fill="#3555F6"/><path d="M62.059 4.467v15.3L43.315 22.75V8.443l18.744-3.976z" fill="#5970F6" fill-opacity=".5"/><path d="M22.626 23.885v16.229a.966.966 0 01-.866.963l-.069.007-1.003.105-18.747 1.992-.866.09a.984.984 0 01-.754-.242.979.979 0 01-.321-.721V20.595h1.941V41.23l18.748-1.988V23.885h1.937z" fill="#3555F6"/><path d="M41.374 24.856H22.626v14.288h18.748V24.856z" fill="#5970F6" fill-opacity=".5"/><path d="M43.315 23.885v16.229a.974.974 0 01-.971.971H21.659v-1.941h19.715V23.885h1.94z" fill="#3555F6"/><path d="M64 20.595v22.81a.977.977 0 01-.34.74.985.985 0 01-.782.22l-.82-.13-18.743-2.984-1.054-.166-.07-.011.153-.96.152-.96.819.13 18.744 2.984V20.595h1.94z" fill="#3555F6"/><path d="M20.689 41.19v14.367L1.94 59.533V43.18l18.748-1.991z" fill="#5970F6" fill-opacity=".5"/><path d="M22.626 40.114v16.229a.968.968 0 01-.768.949l-.101.022L1.173 61.68a.962.962 0 01-.812-.194.98.98 0 01-.361-.755V42.308h1.941v17.225l18.748-3.976V40.114h1.937z" fill="#3555F6"/><path d="M43.315 40.114v16.229a.974.974 0 01-.971.971H21.659v-1.941h19.715V40.114h1.94z" fill="#3555F6"/><path d="M62.059 44.235v15.298l-18.744-3.976V41.251l18.744 2.984z" fill="#5970F6" fill-opacity=".5"/><path d="M64 43.405V60.73a.977.977 0 01-.97.97.953.953 0 01-.203-.022l-20.584-4.366-.1-.022.403-1.898.77.162 18.743 3.976V43.405H64z" fill="#3555F6"/></svg>