<svg width="14" height="14" viewBox="0 0 14 14" fill="none" xmlns="http://www.w3.org/2000/svg">
<g clip-path="url(#clip0_896_1443)">
<path d="M8.44557 8.3125H5.6285C2.77621 8.3125 0.463867 10.4672 0.463867 13.125C0.463867 13.6082 0.884374 14 1.40289 14H12.6712C13.1897 14 13.6102 13.6082 13.6102 13.125C13.6102 10.4672 11.2979 8.3125 8.44557 8.3125ZM1.90145 12.6875C2.13328 10.9621 3.71524 9.625 5.6285 9.625H8.44557C10.3577 9.625 11.9405 10.9635 12.1723 12.6875H1.90145ZM7.03704 7C9.1114 7 10.7931 5.43293 10.7931 3.5C10.7931 1.56707 9.1114 0 7.03704 0C4.96267 0 3.28094 1.56707 3.28094 3.5C3.28094 5.4332 4.96238 7 7.03704 7ZM7.03704 1.3125C8.33142 1.3125 9.3846 2.29387 9.3846 3.5C9.3846 4.70613 8.33142 5.6875 7.03704 5.6875C5.74265 5.6875 4.68948 4.70586 4.68948 3.5C4.68948 2.29387 5.74295 1.3125 7.03704 1.3125Z" fill="#5970F6"/>
</g>
<defs>
<clipPath id="clip0_896_1443">
<rect width="13.1463" height="14" fill="white" transform="translate(0.463867)"/>
</clipPath>
</defs>
</svg>
