<svg width="14" height="14" fill="none" xmlns="http://www.w3.org/2000/svg"><g clip-path="url(#clip0_896_1443)"><path d="M8.446 8.313H5.629c-2.853 0-5.165 2.154-5.165 4.812 0 .483.42.875.939.875H12.67c.519 0 .94-.392.94-.875 0-2.658-2.313-4.813-5.165-4.813zM1.9 12.686c.232-1.725 1.814-3.062 3.728-3.062h2.817c1.912 0 3.495 1.338 3.726 3.063H1.902zM7.037 7c2.074 0 3.756-1.567 3.756-3.5S9.111 0 7.037 0 3.281 1.567 3.281 3.5 4.962 7 7.037 7zm0-5.688c1.294 0 2.348.982 2.348 2.188 0 1.206-1.054 2.188-2.348 2.188-1.294 0-2.348-.982-2.348-2.188 0-1.206 1.054-2.188 2.348-2.188z" fill="#5970F6"/></g><defs><clipPath id="clip0_896_1443"><path fill="#fff" transform="translate(.464)" d="M0 0h13.146v14H0z"/></clipPath></defs></svg>