<svg width="64" height="52" viewBox="0 0 64 52" fill="none" xmlns="http://www.w3.org/2000/svg">
<path d="M35.2189 19.6939L22.0299 11.3079C21.3699 10.8809 20.5049 10.8669 19.7699 11.2639C19.0859 11.6369 18.6799 12.2929 18.6799 13.0179V29.7959C18.6799 30.5169 19.0899 31.1699 19.7739 31.5429C20.1299 31.7339 20.5229 31.8299 20.9089 31.8299C21.3189 31.8299 21.7189 31.7239 22.0539 31.5049L35.1709 23.1159C35.7729 22.7259 36.1319 22.0729 36.1319 21.3619C36.1319 20.6849 35.7929 20.0629 35.2189 19.6939ZM34.1759 21.5669L21.0629 29.9599C20.9709 30.0179 20.7929 30.0039 20.6559 29.9259C20.5669 29.8779 20.5189 29.8199 20.5189 29.7959V13.0179C20.5189 12.9799 20.5769 12.9219 20.6519 12.8809C20.7239 12.8399 20.8089 12.8189 20.8839 12.8189C20.9459 12.8189 20.9969 12.8289 21.0379 12.8569L34.2259 21.2419C34.2459 21.2559 34.2909 21.2829 34.2909 21.3619C34.2919 21.3929 34.2859 21.4989 34.1759 21.5669Z" fill="#3555F6"/>
<path d="M34.292 21.362C34.292 21.393 34.285 21.499 34.176 21.567L21.063 29.96C20.971 30.018 20.793 30.004 20.656 29.926C20.567 29.878 20.519 29.82 20.519 29.796V13.018C20.519 12.98 20.577 12.922 20.652 12.881C20.724 12.84 20.809 12.819 20.884 12.819C20.946 12.819 20.997 12.829 21.038 12.857L34.226 21.242C34.248 21.256 34.292 21.284 34.292 21.362Z" fill="#5970F6" fill-opacity="0.5"/>
<path d="M40.973 41.24C40.973 40.93 40.998 40.626 41.019 40.321H3.677C2.663 40.321 1.838 39.496 1.838 38.482V4.32995C1.838 3.31595 2.663 2.49095 3.677 2.49095H51.135C52.149 2.49095 52.974 3.31595 52.974 4.32995V28.367C53.279 28.345 53.583 28.321 53.893 28.321C54.203 28.321 54.507 28.346 54.812 28.367V4.32995C54.812 2.30295 53.162 0.652954 51.135 0.652954H3.677C1.65 0.652954 0 2.30195 0 4.32995V38.482C0 40.509 1.65 42.159 3.677 42.159H41.02C40.998 41.855 40.973 41.551 40.973 41.24Z" fill="#3555F6"/>
<path d="M53.8929 51.3469C48.3199 51.3469 43.7859 46.8129 43.7859 41.2399C43.7859 35.6669 48.3199 31.1329 53.8929 31.1329C59.4659 31.1329 63.9999 35.6669 63.9999 41.2399C63.9999 46.8129 59.4659 51.3469 53.8929 51.3469ZM53.8929 32.9719C49.3339 32.9719 45.6249 36.6809 45.6249 41.2399C45.6249 45.7989 49.3339 49.5079 53.8929 49.5079C58.4519 49.5079 62.1609 45.7989 62.1609 41.2399C62.1609 36.6809 58.4519 32.9719 53.8929 32.9719Z" fill="#3555F6"/>
<path d="M54.8131 36.8519H52.9741V45.6279H54.8131V36.8519Z" fill="#3555F6"/>
<path d="M58.2809 40.3209H49.5049V42.1599H58.2809V40.3209Z" fill="#3555F6"/>
</svg>
