<svg width="64" height="64" viewBox="0 0 64 64" fill="none" xmlns="http://www.w3.org/2000/svg">
<path d="M12.0499 7.505H4.06988C3.49288 7.505 3.02588 7.973 3.02588 8.549V49.945C3.02588 50.522 3.49388 50.993 4.06988 50.993H12.0499C12.6309 50.993 13.0979 50.522 13.0979 49.945V8.549C13.0979 7.972 12.6309 7.505 12.0499 7.505ZM5.11788 9.597H11.0019V48.897H5.11788V9.597Z" fill="#3555F6"/>
<path d="M11.0019 9.59705H5.11792V48.897H11.0019V9.59705Z" fill="#5970F6" fill-opacity="0.5"/>
<path d="M20.03 24.4351H12.05C11.473 24.4351 11.002 24.9061 11.002 25.4831V49.9451C11.002 50.5221 11.473 50.9931 12.05 50.9931H20.03C20.611 50.9931 21.078 50.5221 21.078 49.9451V25.4831C21.078 24.9061 20.611 24.4351 20.03 24.4351ZM13.098 26.5311H18.982V48.8971H13.098V26.5311Z" fill="#3555F6"/>
<path d="M28.0099 35.5439H20.0299C19.4529 35.5439 18.9819 36.0119 18.9819 36.5919V49.9449C18.9819 50.5219 19.4539 50.9929 20.0299 50.9929H28.0099C28.5909 50.9929 29.0579 50.5219 29.0579 49.9449V36.5919C29.0579 36.0109 28.5909 35.5439 28.0099 35.5439ZM21.0779 48.8969V37.6399H26.9619V48.8969H21.0779Z" fill="#3555F6"/>
<path d="M26.9619 37.64H21.0779V48.897H26.9619V37.64Z" fill="#5970F6" fill-opacity="0.5"/>
<path d="M35.9899 42.222H28.0099C27.4329 42.222 26.9619 42.69 26.9619 43.266V49.945C26.9619 50.522 27.4339 50.993 28.0099 50.993H35.9899C36.5669 50.993 37.0379 50.522 37.0379 49.945V43.266C37.0379 42.69 36.5669 42.222 35.9899 42.222ZM29.0579 44.315H34.9419V48.897H29.0579V44.315Z" fill="#3555F6"/>
<path d="M43.9699 13.61H35.9899C35.4089 13.61 34.9419 14.078 34.9419 14.658V49.945C34.9419 50.522 35.4099 50.993 35.9899 50.993H43.9699C44.5469 50.993 45.0179 50.522 45.0179 49.945V14.659C45.0179 14.078 44.5469 13.61 43.9699 13.61ZM37.0379 15.707H42.9219V48.897H37.0379V15.707Z" fill="#3555F6"/>
<path d="M42.9218 15.707H37.0378V48.897H42.9218V15.707Z" fill="#5970F6" fill-opacity="0.5"/>
<path d="M51.9499 28.199H43.9699C43.3889 28.199 42.9219 28.67 42.9219 29.247V49.945C42.9219 50.522 43.3899 50.993 43.9699 50.993H51.9499C52.5269 50.993 52.9939 50.522 52.9939 49.945V29.247C52.9939 28.67 52.5269 28.199 51.9499 28.199ZM45.0179 30.295H50.9019V48.897H45.0179V30.295Z" fill="#3555F6"/>
<path d="M59.9299 32.446H51.9499C51.3689 32.446 50.9019 32.917 50.9019 33.494V49.945C50.9019 50.522 51.3699 50.993 51.9499 50.993H59.9299C60.5069 50.993 60.9739 50.522 60.9739 49.945V33.494C60.9739 32.918 60.5069 32.446 59.9299 32.446ZM58.8819 48.897H52.9939V34.542H58.8819V48.897Z" fill="#3555F6"/>
<path d="M58.8819 34.542H52.9939V48.897H58.8819V34.542Z" fill="#5970F6" fill-opacity="0.5"/>
<path d="M29.0579 0H26.9619V64H29.0579V0Z" fill="#3555F6"/>
</svg>
