<svg width="64" height="49" viewBox="0 0 64 49" fill="none" xmlns="http://www.w3.org/2000/svg">
<path d="M57.904 6.064H46.893L41.659 0H22.956L17.718 6.064H6.507C2.92 6.064 0 8.984 0 12.575V41.527C0 45.465 3.2 48.664 7.137 48.664H56.863C60.797 48.664 64 45.464 64 41.527V12.16C64 8.797 61.263 6.064 57.904 6.064ZM61.854 41.527C61.854 44.28 59.616 46.518 56.863 46.518H7.137C4.384 46.518 2.142 44.28 2.142 41.527V12.575C2.142 10.169 4.101 8.21 6.507 8.21H18.699L23.937 2.146H40.677L45.911 8.21H57.904C60.082 8.21 61.854 9.981 61.854 12.16V41.527Z" fill="#3555F6"/>
<path d="M61.8541 18.962V41.527C61.8541 44.28 59.6161 46.518 56.8631 46.518H7.13709C4.38409 46.518 2.14209 44.28 2.14209 41.527V18.962H20.2111C18.8551 21.172 18.0731 23.769 18.0731 26.542C18.0731 34.557 24.5921 41.076 32.6071 41.076C40.6181 41.076 47.1411 34.557 47.1411 26.542C47.1411 23.769 46.3591 21.172 45.0031 18.962H61.8541Z" fill="#5970F6" fill-opacity="0.5"/>
<path d="M45.002 18.962C44.531 18.196 43.993 17.478 43.394 16.816C40.733 13.864 36.883 12.009 32.606 12.009C28.329 12.009 24.479 13.864 21.814 16.816C21.216 17.478 20.677 18.196 20.21 18.962C18.854 21.172 18.072 23.769 18.072 26.542C18.072 34.557 24.591 41.076 32.606 41.076C40.617 41.076 47.14 34.557 47.14 26.542C47.14 23.769 46.358 21.172 45.002 18.962ZM32.606 38.93C25.776 38.93 20.218 33.373 20.218 26.543C20.218 19.713 25.775 14.156 32.606 14.156C36.532 14.156 40.038 15.995 42.309 18.856C42.337 18.892 42.365 18.928 42.393 18.964C44.025 21.059 44.994 23.692 44.994 26.544C44.994 33.372 39.436 38.93 32.606 38.93Z" fill="#3555F6"/>
<path d="M32.6049 36.268C27.2419 36.268 22.8789 31.905 22.8789 26.542C22.8789 26.083 22.9189 25.598 23.0029 25.058L23.2099 23.716L24.4679 24.228C24.9249 24.414 25.3979 24.508 25.8759 24.508C27.9349 24.508 29.6099 22.833 29.6099 20.774C29.6099 20.103 29.4249 19.457 29.0589 18.854L28.3539 17.689L29.6519 17.276C30.6099 16.971 31.6039 16.816 32.6059 16.816C35.2039 16.816 37.6459 17.828 39.4829 19.664C41.3199 21.501 42.3319 23.944 42.3319 26.541C42.3319 31.905 37.9689 36.268 32.6049 36.268ZM25.0249 26.591C25.0519 30.749 28.4419 34.123 32.6049 34.123C36.7849 34.123 40.1849 30.722 40.1849 26.542C40.1849 24.517 39.3969 22.614 37.9649 21.182C36.5329 19.75 34.6299 18.962 32.6059 18.962C32.2299 18.962 31.8559 18.99 31.4859 19.045C31.6639 19.607 31.7549 20.19 31.7549 20.774C31.7549 24.016 29.1169 26.654 25.8749 26.654C25.5899 26.654 25.3059 26.633 25.0249 26.591Z" fill="#3555F6"/>
<path d="M22.3011 16.816H1.06909V18.962H22.3011V16.816Z" fill="#3555F6"/>
<path d="M63.5371 16.816H42.3091V18.962H63.5371V16.816Z" fill="#3555F6"/>
</svg>
