<svg width="64" height="64" viewBox="0 0 64 64" fill="none" xmlns="http://www.w3.org/2000/svg">
<path d="M32.2566 14.5216C32.1383 14.4708 32.0076 14.456 31.8808 14.4791C31.7541 14.5022 31.637 14.5621 31.5441 14.6514L22.5903 23.2344H17.8713C16.969 23.2355 16.104 23.5944 15.466 24.2323C14.8279 24.8703 14.469 25.7352 14.4678 26.6375V37.3625C14.4689 38.2648 14.8278 39.1299 15.4658 39.7679C16.1039 40.406 16.9689 40.7649 17.8713 40.766H22.5903L31.5449 49.349C31.6378 49.438 31.7547 49.4978 31.8813 49.5209C32.0078 49.5439 32.1384 49.5293 32.2567 49.4788C32.375 49.4283 32.4758 49.3442 32.5467 49.2368C32.6176 49.1295 32.6553 49.0036 32.6553 48.875V15.125C32.6553 14.9964 32.6175 14.8707 32.5466 14.7634C32.4758 14.6561 32.3749 14.5721 32.2566 14.5216ZM15.7803 37.3625V26.6375C15.7809 26.0831 16.0014 25.5516 16.3934 25.1596C16.7854 24.7676 17.3169 24.5471 17.8713 24.5465H22.1976V39.4528H17.8713C17.317 39.4522 16.7856 39.2318 16.3936 38.8399C16.0016 38.4481 15.7811 37.9168 15.7803 37.3625ZM31.3428 47.3375L23.5101 39.8293V24.1708L31.3428 16.6625V47.3375Z" fill="#5970F6"/>
<path d="M38.4323 39.9024C38.0561 39.9024 37.6883 39.7908 37.3755 39.5818C37.0627 39.3728 36.8189 39.0758 36.6749 38.7282C36.5309 38.3807 36.4932 37.9983 36.5665 37.6293C36.6398 37.2603 36.8208 36.9213 37.0868 36.6553C38.3195 35.4196 39.0118 33.7454 39.0118 32C39.0118 30.2546 38.3195 28.5804 37.0868 27.3448C36.9074 27.1687 36.7648 26.9589 36.667 26.7274C36.5692 26.4959 36.5183 26.2473 36.5171 25.996C36.516 25.7447 36.5646 25.4957 36.6602 25.2633C36.7559 25.0309 36.8966 24.8197 37.0743 24.642C37.252 24.4643 37.4631 24.3236 37.6955 24.228C37.9279 24.1323 38.1769 24.0837 38.4282 24.0849C38.6795 24.086 38.9281 24.137 39.1596 24.2347C39.3911 24.3325 39.601 24.4752 39.777 24.6545C41.7222 26.6042 42.8146 29.2458 42.8146 31.9998C42.8146 34.7539 41.7222 37.3955 39.777 39.3451C39.6008 39.5223 39.3912 39.6628 39.1604 39.7584C38.9296 39.8541 38.6821 39.903 38.4323 39.9024ZM38.4323 25.4105C38.3156 25.4104 38.2016 25.445 38.1046 25.5097C38.0076 25.5745 37.932 25.6666 37.8873 25.7744C37.8427 25.8821 37.831 26.0007 37.8538 26.1151C37.8765 26.2295 37.9327 26.3346 38.0153 26.417C39.4941 27.8987 40.3247 29.9066 40.3247 32C40.3247 34.0934 39.4941 36.1013 38.0153 37.583C37.9049 37.6938 37.843 37.8438 37.843 38.0002C37.843 38.1566 37.9049 38.3066 38.0153 38.4174C38.1276 38.5246 38.277 38.5844 38.4323 38.5844C38.5875 38.5844 38.7369 38.5246 38.8493 38.4174C40.5487 36.714 41.5031 34.4061 41.5031 32C41.5031 29.5939 40.5487 27.286 38.8493 25.5826C38.7945 25.5279 38.7295 25.4845 38.6579 25.455C38.5863 25.4255 38.5097 25.4103 38.4323 25.4105Z" fill="#5970F6"/>
<path d="M43.4544 44.0562C43.0782 44.0562 42.7104 43.9446 42.3976 43.7356C42.0848 43.5265 41.8409 43.2294 41.697 42.8818C41.553 42.5342 41.5153 42.1518 41.5887 41.7827C41.6621 41.4137 41.8433 41.0748 42.1093 40.8087C44.442 38.4706 45.7521 35.3027 45.7521 32C45.7521 28.6972 44.442 25.5293 42.1093 23.1912C41.7525 22.8345 41.552 22.3506 41.552 21.846C41.552 21.3415 41.7524 20.8576 42.1091 20.5008C42.4659 20.144 42.9497 19.9435 43.4543 19.9435C43.9589 19.9434 44.4428 20.1438 44.7996 20.5006C47.8448 23.5528 49.5549 27.6883 49.5549 31.9998C49.5549 36.3113 47.8448 40.4468 44.7996 43.499C44.6233 43.6762 44.4137 43.8167 44.1828 43.9124C43.9519 44.008 43.7044 44.0569 43.4544 44.0562ZM43.4544 21.2562C43.3377 21.2562 43.2237 21.2907 43.1266 21.3555C43.0296 21.4204 42.954 21.5125 42.9094 21.6203C42.8648 21.7281 42.8532 21.8468 42.876 21.9612C42.8989 22.0756 42.9552 22.1807 43.0378 22.2631C45.6165 24.8474 47.0647 28.349 47.0647 31.9998C47.0647 35.6505 45.6165 39.1522 43.0378 41.7365C42.983 41.7912 42.9396 41.8562 42.9099 41.9278C42.8802 41.9993 42.865 42.076 42.865 42.1535C42.865 42.2309 42.8802 42.3076 42.9099 42.3792C42.9396 42.4507 42.983 42.5157 43.0378 42.5705C43.1502 42.6778 43.2996 42.7376 43.455 42.7376C43.6104 42.7376 43.7598 42.6778 43.8722 42.5705C46.6716 39.7647 48.2437 35.9631 48.2437 31.9996C48.2437 28.0361 46.6716 24.2345 43.8722 21.4287C43.8173 21.3739 43.7522 21.3305 43.6805 21.301C43.6088 21.2714 43.532 21.2563 43.4544 21.2566V21.2562Z" fill="#5970F6"/>
<path d="M62.782 63.999H59.134V61.567H61.566V59.135H63.998V62.783C63.998 63.454 63.454 63.999 62.782 63.999Z" fill="#3555F6"/>
<path d="M12.6189 61.567V64H20.3699V61.567H12.6189ZM28.1209 61.567V64H35.8769V61.567H28.1209ZM43.6279 61.567V64H51.3789V61.567H43.6279Z" fill="#3555F6"/>
<path d="M4.86295 61.567V64H1.21395C0.544953 64 0.00195312 63.453 0.00195312 62.784V59.135H2.42995V61.568L4.86295 61.567Z" fill="#3555F6"/>
<path d="M0.00195312 12.618V20.369H2.42995V12.618H0.00195312ZM0.00195312 28.121V35.877H2.42995V28.121H0.00195312ZM0.00195312 43.627V51.383H2.42995V43.627H0.00195312Z" fill="#3555F6"/>
<path d="M2.432 4.864H0V1.216C0 0.545 0.544 0 1.216 0H4.864V2.432H2.432V4.864Z" fill="#3555F6"/>
<path d="M51.3809 2.432H43.6289V0H51.3809V2.432ZM35.8759 2.432H28.1229V0H35.8759V2.432ZM20.3699 2.432H12.6169V0H20.3699V2.432Z" fill="#3555F6"/>
<path d="M63.998 4.864H61.566V2.432H59.134V0H62.782C63.454 0 63.998 0.545 63.998 1.216V4.864Z" fill="#3555F6"/>
<path d="M63.9979 51.3809H61.5659V43.6289H63.9979V51.3809ZM63.9979 35.8749H61.5659V28.1219H63.9979V35.8749ZM63.9979 20.3699H61.5659V12.6169H63.9979V20.3699Z" fill="#3555F6"/>
<path d="M19.502 43.2841H1.21395C0.883953 43.2841 0.589953 43.4151 0.372953 43.6281C0.141953 43.8501 0.00195313 44.1571 0.00195313 44.5011V62.7841C0.00195312 63.4531 0.544953 64.0001 1.21395 64.0001H19.502C19.841 64.0001 20.153 63.8601 20.37 63.6291C20.583 63.4071 20.714 63.1131 20.714 62.7831V44.5001C20.714 43.8261 20.171 43.2841 19.502 43.2841ZM2.42995 61.5671V45.7171H18.285V61.5671H2.42995Z" fill="#3555F6"/>
<path d="M18.2849 45.717H2.42993V61.567H18.2849V45.717Z" fill="#5970F6" fill-opacity="0.5"/>
</svg>
