<svg width="64" height="64" viewBox="0 0 64 64" fill="none" xmlns="http://www.w3.org/2000/svg">
<g clip-path="url(#clip0_0_685)">
<path d="M14.337 24.856H13.075L13.267 15.916H49.3569L49.549 24.856H48.3699C47.9489 22.406 47.3729 20.637 46.6419 19.549C45.9109 18.462 45.124 17.794 44.284 17.547C43.443 17.3 42.008 17.177 39.978 17.177H34V43.422C34 46.329 34.068 48.239 34.205 49.153C34.342 50.068 34.713 50.744 35.316 51.182C35.919 51.621 37.0529 51.841 38.7169 51.841H40.527V53.102H21.988V51.841H23.907C25.498 51.841 26.599 51.64 27.212 51.237C27.824 50.835 28.217 50.209 28.391 49.358C28.565 48.508 28.652 46.53 28.652 43.421V17.178H23.14C20.745 17.178 19.136 17.292 18.313 17.521C17.49 17.75 16.718 18.439 15.996 19.591C15.273 20.742 14.721 22.498 14.337 24.856Z" fill="#3555F6"/>
<path d="M19.981 64H1.263C0.566 64 0 63.434 0 62.737V47.113H2.526V61.473H19.981V64Z" fill="#3555F6"/>
<path d="M62.737 64H44.019V61.474H61.474V47.114H64V62.737C64 63.434 63.434 64 62.737 64Z" fill="#3555F6"/>
<path d="M2.526 19.981H0V1.263C0 0.566 0.566 0 1.263 0H19.981V2.526H2.526V19.981Z" fill="#3555F6"/>
<path d="M64 19.981H61.474V2.526H44.019V0H62.737C63.434 0 64 0.566 64 1.263V19.981Z" fill="#3555F6"/>
</g>
<defs>
<clipPath id="clip0_0_685">
<rect width="64" height="64" fill="white"/>
</clipPath>
</defs>
</svg>
