<svg width="64" height="64" viewBox="0 0 64 64" fill="none" xmlns="http://www.w3.org/2000/svg">
<path d="M21.858 6.71091L21.757 6.68891L1.173 2.31991C0.888 2.25891 0.588 2.33091 0.361 2.51791C0.133 2.70191 0 2.97691 0 3.26891V20.5949C0 21.0709 0.35 21.4789 0.819 21.5549L1.941 21.7319L20.689 24.7159L21.461 24.8389C21.483 24.8429 21.497 24.8429 21.515 24.8459C21.562 24.8529 21.612 24.8569 21.659 24.8569C21.886 24.8569 22.11 24.7779 22.287 24.6259C22.503 24.4419 22.626 24.1709 22.626 23.8859V7.65991C22.626 7.20191 22.309 6.80491 21.858 6.71091ZM1.941 19.7679V4.46691L20.689 8.44291V22.7489L1.941 19.7679Z" fill="#3555F6"/>
<path d="M20.6889 8.44292V22.7489L1.94092 19.7679V4.46692L20.6889 8.44292Z" fill="#5970F6" fill-opacity="0.5"/>
<path d="M42.344 6.68896H21.659C21.121 6.68896 20.688 7.12196 20.688 7.65996V23.885C20.688 24.354 21.02 24.747 21.46 24.838C21.482 24.842 21.496 24.842 21.514 24.845C21.561 24.852 21.611 24.856 21.658 24.856H42.343C42.394 24.856 42.444 24.852 42.495 24.845L42.538 24.838C42.978 24.748 43.314 24.355 43.314 23.885V7.65996C43.315 7.12196 42.878 6.68896 42.344 6.68896ZM22.626 22.915V8.62696H41.374V22.915H22.626Z" fill="#3555F6"/>
<path d="M63.639 2.51796C63.412 2.32996 63.112 2.25796 62.827 2.31996L42.243 6.68896L42.142 6.71096C41.695 6.80496 41.373 7.20196 41.373 7.65996V23.885C41.373 24.17 41.499 24.441 41.712 24.625C41.889 24.777 42.112 24.856 42.343 24.856C42.394 24.856 42.444 24.852 42.495 24.845L42.538 24.838L43.314 24.715L62.058 21.731L63.18 21.554C63.654 21.479 64 21.071 64 20.595V3.26896C64 2.97696 63.867 2.70196 63.639 2.51796ZM43.315 22.749V8.44296L62.059 4.46696V19.769L43.315 22.749Z" fill="#3555F6"/>
<path d="M62.0589 4.46692V19.7679L43.3149 22.7489V8.44292L62.0589 4.46692Z" fill="#5970F6" fill-opacity="0.5"/>
<path d="M22.626 23.885V40.114C22.626 40.608 22.254 41.027 21.76 41.077L21.691 41.084L20.688 41.189L1.941 43.181L1.075 43.271C1.039 43.275 1.006 43.278 0.97 43.278C0.732 43.278 0.501 43.188 0.321 43.029C0.119 42.846 0 42.582 0 42.308V20.595H1.941V41.23L20.689 39.242V23.885H22.626Z" fill="#3555F6"/>
<path d="M41.374 24.856H22.626V39.144H41.374V24.856Z" fill="#5970F6" fill-opacity="0.5"/>
<path d="M43.3149 23.885V40.114C43.3149 40.648 42.8779 41.085 42.3439 41.085H21.6589V39.144H41.3739V23.885H43.3149Z" fill="#3555F6"/>
<path d="M63.9999 20.595V43.405C63.9999 43.69 63.8769 43.957 63.6609 44.145C63.4839 44.293 63.2609 44.376 63.0299 44.376C62.9799 44.376 62.9289 44.372 62.8779 44.365L62.0589 44.235L43.3149 41.251L42.2609 41.085L42.1919 41.074L42.3439 40.114L42.4959 39.154L43.3149 39.284L62.0589 42.268V20.595H63.9999Z" fill="#3555F6"/>
<path d="M20.6889 41.1899V55.5569L1.94092 59.5329V43.1809L20.6889 41.1899Z" fill="#5970F6" fill-opacity="0.5"/>
<path d="M22.626 40.114V56.343C22.626 56.801 22.309 57.195 21.858 57.292L21.757 57.314L1.173 61.68C1.108 61.694 1.04 61.702 0.971 61.702C0.751 61.702 0.534 61.626 0.361 61.486C0.133 61.297 0 61.023 0 60.731V42.308H1.941V59.533L20.689 55.557V40.114H22.626Z" fill="#3555F6"/>
<path d="M43.3149 40.114V56.343C43.3149 56.877 42.8779 57.314 42.3439 57.314H21.6589V55.373H41.3739V40.114H43.3149Z" fill="#3555F6"/>
<path d="M62.0589 44.235V59.533L43.3149 55.557V41.251L62.0589 44.235Z" fill="#5970F6" fill-opacity="0.5"/>
<path d="M64.0001 43.4049V60.7309C64.0001 61.0229 63.8671 61.2969 63.6391 61.4849C63.4661 61.6259 63.2491 61.7009 63.0291 61.7009C62.9641 61.7009 62.8961 61.6939 62.8271 61.6789L42.2431 57.3129L42.1421 57.2909L42.5461 55.3929L43.3151 55.5549L62.0591 59.5309V43.4049H64.0001Z" fill="#3555F6"/>
</svg>
