<svg width="152" height="70" fill="none" xmlns="http://www.w3.org/2000/svg"><mask id="a" fill="#fff"><rect y=".25" width="144.892" height="62.331" rx=".854"/></mask><rect y=".25" width="144.892" height="62.331" rx=".854" stroke="#5970F6" stroke-width="2.19" mask="url(#a)"/><circle cx="144.072" cy="61.214" r="7.928" fill="#AD0018"/><path d="M48.55 20.497v1.001h-4.672v13.598h-1.043V21.498h-4.65v-1h10.364zm11.408 14.599l-3.65-6.132H52.2v6.132h-1.043V20.497h5.38c1.308 0 2.385.404 3.233 1.21.862.792 1.293 1.807 1.293 3.045 0 1.056-.333 1.967-1 2.732-.668.75-1.544 1.216-2.628 1.397l3.712 6.215h-1.189zM52.2 21.498v6.465h4.275c1.043 0 1.891-.299 2.545-.896.653-.612.98-1.384.98-2.315 0-.946-.334-1.724-1.001-2.336-.654-.612-1.495-.918-2.524-.918H52.2zm22.584 13.598l-1.69-3.983h-7.716l-1.689 3.983h-1.126l6.131-14.599h.96l6.277 14.599h-1.147zm-5.59-13.118l-3.42 8.154h6.904l-3.483-8.154zm9.376 13.118V20.497h1.043v14.599H78.57zm15.575-14.599h1.043v14.599h-.897l-9.322-12.743v12.743h-1.022V20.497h.938l9.26 12.68v-12.68zm5.362 14.599V20.497h1.042v14.599h-1.042zm15.575-14.599h1.042v14.599h-.896l-9.323-12.743v12.743h-1.022V20.497h.939l9.26 12.68v-12.68zm10.992 7.633h7.842c-.056 2.114-.758 3.838-2.107 5.172-1.334 1.335-3.031 2.002-5.088 2.002-2.141 0-3.9-.702-5.277-2.106-1.376-1.418-2.064-3.212-2.064-5.38 0-2.17.695-3.963 2.085-5.381 1.39-1.418 3.135-2.127 5.235-2.127 1.126 0 2.183.222 3.17.667a6.653 6.653 0 012.502 1.835 6.013 6.013 0 011.314 2.69h-1.084c-.32-1.223-1.029-2.224-2.127-3.003-1.085-.778-2.336-1.168-3.754-1.168-1.822 0-3.323.612-4.505 1.836-1.168 1.223-1.752 2.773-1.752 4.65 0 1.891.577 3.442 1.731 4.651 1.168 1.196 2.676 1.794 4.526 1.794 1.612 0 2.975-.473 4.087-1.419 1.126-.945 1.787-2.182 1.981-3.712h-6.715v-1zM46.02 39.634c1.404 0 2.67.313 3.796.938a6.638 6.638 0 012.648 2.607c.64 1.113.96 2.357.96 3.733 0 2.128-.703 3.88-2.107 5.256-1.39 1.376-3.156 2.065-5.297 2.065h-4.484V39.634h4.484zm-.042 13.597c.918 0 1.766-.152 2.545-.458a5.99 5.99 0 002.022-1.314 5.637 5.637 0 001.314-2.002c.32-.793.48-1.64.48-2.545 0-1.82-.598-3.322-1.794-4.504-1.195-1.182-2.718-1.773-4.567-1.773h-3.4v12.596h3.4zm20.712 1.002l-1.689-3.984h-7.716l-1.69 3.984H54.47l6.132-14.599h.96l6.277 14.599H66.69zm-5.589-13.118l-3.42 8.154h6.903l-3.483-8.154zm16.645-1.481v1.001h-4.671v13.598h-1.043V40.635h-4.65v-1.001h10.364zM89.48 54.233l-1.689-3.984h-7.716l-1.69 3.984H77.26l6.132-14.599h.959l6.277 14.599H89.48zm-5.589-13.118l-3.42 8.154h6.903l-3.483-8.154z" fill="#fff"/></svg>