<svg width="33" height="33" fill="none" xmlns="http://www.w3.org/2000/svg"><rect y=".25" width="33" height="32" rx="16" fill="#5970F6"/><path d="M14.85 18.536l4.282-2.286-4.282-2.286v4.572zm9.537-5.966c.107.358.181.838.231 1.448.058.61.083 1.135.083 1.592l.049.64c0 1.669-.132 2.895-.363 3.68-.206.686-.685 1.128-1.427 1.318-.388.1-1.098.168-2.187.213a59.57 59.57 0 01-2.961.077l-1.312.045c-3.457 0-5.61-.121-6.46-.335-.742-.19-1.22-.632-1.427-1.318-.107-.358-.181-.838-.231-1.447A16.943 16.943 0 018.3 16.89l-.05-.64c0-1.668.132-2.895.363-3.68.206-.686.685-1.127 1.427-1.318.388-.1 1.098-.168 2.187-.213a59.446 59.446 0 012.961-.076l1.312-.046c3.457 0 5.61.122 6.46.335.742.19 1.22.632 1.427 1.318z" fill="#fff"/></svg>