<svg width="33" height="33" fill="none" xmlns="http://www.w3.org/2000/svg"><rect y=".25" width="33" height="32" rx="16" fill="#5970F6"/><path d="M13.035 8.25h6.93c2.64 0 4.785 2.08 4.785 4.64v6.72a4.57 4.57 0 01-1.401 3.281 4.862 4.862 0 01-3.384 1.359h-6.93c-2.64 0-4.785-2.08-4.785-4.64v-6.72c0-1.23.504-2.41 1.401-3.281a4.862 4.862 0 013.384-1.359zm-.165 1.6c-.788 0-1.543.303-2.1.844a2.836 2.836 0 00-.87 2.036v7.04c0 1.592 1.328 2.88 2.97 2.88h7.26c.788 0 1.543-.303 2.1-.843.557-.54.87-1.273.87-2.037v-7.04c0-1.592-1.328-2.88-2.97-2.88h-7.26zm7.961 1.2c.274 0 .536.105.73.293a.985.985 0 01.302.707.99.99 0 01-.302.707 1.048 1.048 0 01-.73.293c-.273 0-.536-.105-.729-.293a.985.985 0 01-.302-.707c0-.265.109-.52.302-.707.193-.188.456-.293.73-.293zm-4.331 1.2a4.19 4.19 0 012.917 1.172 3.94 3.94 0 011.208 2.828 3.94 3.94 0 01-1.208 2.828A4.191 4.191 0 0116.5 20.25a4.191 4.191 0 01-2.917-1.172 3.94 3.94 0 01-1.208-2.828 3.94 3.94 0 011.208-2.828A4.191 4.191 0 0116.5 12.25zm0 1.6c-.656 0-1.286.253-1.75.703a2.364 2.364 0 00-.725 1.697c0 .637.26 1.247.725 1.697.464.45 1.094.703 1.75.703.656 0 1.286-.253 1.75-.703.464-.45.725-1.06.725-1.697 0-.636-.26-1.247-.725-1.697a2.515 2.515 0 00-1.75-.703z" fill="#fff"/></svg>