<svg width="32" height="33" fill="none" xmlns="http://www.w3.org/2000/svg"><rect y=".25" width="32" height="32" rx="16" fill="#5970F6"/><path d="M22.4 16.846v4.412h-2.583v-4.143c0-1.023-.376-1.722-1.291-1.722-.7 0-1.13.484-1.291.915a2.007 2.007 0 00-.108.645v4.305h-2.583s.054-6.995 0-7.695h2.583v1.076c.323-.538.969-1.291 2.314-1.291 1.668 0 2.96 1.13 2.96 3.498zM11.853 9.85c-.86 0-1.453.592-1.453 1.345 0 .754.538 1.346 1.4 1.346.914 0 1.452-.592 1.452-1.346.054-.807-.484-1.345-1.399-1.345zm-1.291 11.408h2.583v-7.695h-2.583v7.695z" fill="#fff"/></svg>