<svg width="35" height="35" viewBox="0 0 35 35" fill="none" xmlns="http://www.w3.org/2000/svg">
<g clip-path="url(#clip0_2669_44562)">
<path d="M34.4531 17.5C34.4531 26.863 26.863 34.4531 17.5 34.4531C8.13702 34.4531 0.546875 26.863 0.546875 17.5C0.546875 8.13702 8.13702 0.546875 17.5 0.546875C26.863 0.546875 34.4531 8.13702 34.4531 17.5ZM15.539 26.4765L28.1172 13.8984C28.5443 13.4713 28.5443 12.7788 28.1172 12.3517L26.5704 10.8049C26.1433 10.3777 25.4507 10.3777 25.0236 10.8049L14.7656 21.0628L9.97643 16.2736C9.54933 15.8465 8.85678 15.8465 8.4296 16.2736L6.88283 17.8203C6.45572 18.2474 6.45572 18.94 6.88283 19.3671L13.9922 26.4765C14.4194 26.9037 15.1119 26.9037 15.539 26.4765Z" fill="#5970F6"/>
</g>
<defs>
<clipPath id="clip0_2669_44562">
<rect width="35" height="35" fill="white"/>
</clipPath>
</defs>
</svg>
