<svg width="56" height="56" viewBox="0 0 56 56" fill="none" xmlns="http://www.w3.org/2000/svg">
<rect width="56" height="56" rx="28" fill="#5970F6"/>
<path d="M28 40C29.5762 40.0021 31.1372 39.6798 32.5934 39.0514C34.0495 38.4231 35.3721 37.5012 36.4852 36.3387C37.6012 35.1793 38.4862 33.8016 39.0894 32.2847C39.6926 30.7679 40.002 29.1418 40 27.5C40.002 25.8582 39.6925 24.2321 39.0893 22.7153C38.4861 21.1984 37.6011 19.8207 36.4852 18.6613C35.3721 17.4988 34.0495 16.5769 32.5934 15.9486C31.1372 15.3202 29.5762 14.9979 28 15C26.4238 14.9979 24.8628 15.3203 23.4067 15.9486C21.9505 16.5769 20.6279 17.4988 19.5148 18.6613C18.3989 19.8207 17.5139 21.1984 16.9107 22.7153C16.3075 24.2321 15.998 25.8582 16 27.5C15.998 29.1418 16.3074 30.7679 16.9106 32.2847C17.5138 33.8016 18.3988 35.1793 19.5148 36.3387C20.6279 37.5012 21.9505 38.4231 23.4067 39.0514C24.8628 39.6797 26.4238 40.0021 28 40Z" stroke="white" stroke-width="3" stroke-linejoin="round"/>
<path d="M23 23.5L29.3333 30L42 17" stroke="white" stroke-width="3" stroke-linecap="round" stroke-linejoin="round"/>
</svg>
