<svg width="78" height="78" viewBox="0 0 78 78" fill="none" xmlns="http://www.w3.org/2000/svg">
<circle cx="39" cy="39" r="39" fill="#5970F6"/>
<path d="M30.6305 39.0013H29.6453V55.2181H30.6305V39.0013Z" fill="white"/>
<path d="M26.1472 43.5485H25.1606V55.2181H26.1472V43.5485Z" fill="white"/>
<path d="M21.6538 39.0013H20.6672V55.2181H21.6538V39.0013Z" fill="white"/>
<path d="M34.3064 35.1039L34.2989 41.6812C34.2989 43.6681 32.8572 45.1098 30.8717 45.1098H30.1361V44.1232H30.8717C32.3079 44.1232 33.3116 43.1195 33.3116 41.6812L33.3192 35.1032C33.3212 34.292 33.005 33.5282 32.4316 32.9548C31.8582 32.3814 31.0965 32.0652 30.2866 32.0652H21.0191C19.3464 32.0652 17.9845 33.4271 17.9845 35.0998V41.6812C17.9845 43.0281 19.0797 44.1232 20.4265 44.1232H21.1601V45.1098H20.4272C18.5373 45.1105 17 43.5712 17 41.6812V35.0998C17 32.8826 18.8019 31.0786 21.0191 31.0786H30.2866C31.3612 31.0786 32.3704 31.498 33.1308 32.2577C33.8891 33.0181 34.3085 34.0294 34.3064 35.1039Z" fill="white"/>
<path d="M25.655 30.6496C24.4918 30.6496 23.3615 30.1814 22.553 29.3647C21.759 28.563 21.3279 27.4843 21.3396 26.3293V25.8921C21.3636 23.47 23.2591 21.5767 25.655 21.5767C26.8183 21.5767 27.9492 22.0448 28.7577 22.8616C29.5511 23.6632 29.9822 24.7412 29.9712 25.8969V26.3342C29.9464 28.7562 28.051 30.6496 25.655 30.6496ZM25.655 22.5632C23.807 22.5632 22.3447 24.0276 22.3261 25.8969V26.3342C22.3172 27.2293 22.6472 28.0577 23.2543 28.671C23.8785 29.3014 24.7537 29.663 25.6557 29.663C27.5037 29.663 28.9667 28.1987 28.9853 26.3293V25.8921C28.9942 24.997 28.6649 24.1685 28.0571 23.5553C27.4322 22.9248 26.557 22.5632 25.655 22.5632Z" fill="white"/>
<path d="M41.343 36.2033C38.8308 36.2033 36.7876 34.1593 36.7876 31.6479C36.7876 29.1365 38.8315 27.0925 41.343 27.0925C43.8544 27.0925 45.8983 29.1365 45.8983 31.6479C45.8983 34.1593 43.8551 36.2033 41.343 36.2033ZM41.343 28.0784C39.3747 28.0784 37.7735 29.6796 37.7735 31.6479C37.7735 33.6162 39.3747 35.2174 41.343 35.2174C43.3113 35.2174 44.9125 33.6162 44.9125 31.6479C44.9125 29.6796 43.3113 28.0784 41.343 28.0784Z" fill="white"/>
<path d="M40.7703 33.3797C40.6438 33.3797 40.518 33.3315 40.4218 33.2353L39.0901 31.9036L39.7872 31.2065L40.7697 32.1889L42.8981 30.0604L43.5953 30.7575L41.1175 33.2353C41.0227 33.3315 40.8962 33.3797 40.7703 33.3797Z" fill="white"/>
<path d="M56.0686 30.5162H46.9399V31.5028H56.0686V30.5162Z" fill="white"/>
<path d="M61 32.4886H46.9399V33.4752H61V32.4886Z" fill="white"/>
<path d="M53.1096 28.5438H46.9399V29.5304H53.1096V28.5438Z" fill="white"/>
<path d="M41.343 46.5597C38.8308 46.5597 36.7876 44.5158 36.7876 42.0043C36.7876 39.4922 38.8315 37.449 41.343 37.449C43.8544 37.449 45.8983 39.4929 45.8983 42.0043C45.899 44.5158 43.8551 46.5597 41.343 46.5597ZM41.343 38.4348C39.3747 38.4348 37.7735 40.036 37.7735 42.0043C37.7735 43.9727 39.3747 45.5739 41.343 45.5739C43.3113 45.5739 44.9125 43.972 44.9125 42.0043C44.9125 40.036 43.3113 38.4348 41.343 38.4348Z" fill="white"/>
<path d="M40.7703 43.7361C40.6438 43.7361 40.518 43.688 40.4218 43.5917L39.0901 42.2601L39.7872 41.5629L40.7697 42.5454L42.8981 40.4169L43.5953 41.114L41.1175 43.5917C41.0227 43.688 40.8962 43.7361 40.7703 43.7361Z" fill="white"/>
<path d="M56.0686 40.8727H46.9399V41.8592H56.0686V40.8727Z" fill="white"/>
<path d="M61 42.8458H46.9399V43.8324H61V42.8458Z" fill="white"/>
<path d="M53.1096 38.9003H46.9399V39.8868H53.1096V38.9003Z" fill="white"/>
<path d="M41.343 56.4232C38.8308 56.4232 36.7876 54.3793 36.7876 51.8679C36.7876 49.3564 38.8315 47.3125 41.343 47.3125C43.8544 47.3125 45.8983 49.3564 45.8983 51.8679C45.8983 54.3793 43.8551 56.4232 41.343 56.4232ZM41.343 48.2984C39.3747 48.2984 37.7735 49.8996 37.7735 51.8679C37.7735 53.8362 39.3747 55.4374 41.343 55.4374C43.3113 55.4374 44.9125 53.8362 44.9125 51.8679C44.9125 49.8996 43.3113 48.2984 41.343 48.2984Z" fill="white"/>
<path d="M40.7703 53.5998C40.6438 53.5998 40.518 53.5516 40.4218 53.4554L39.0901 52.1237L39.7872 51.4266L40.7697 52.409L42.8981 50.2805L43.5953 50.9776L41.1175 53.4554C41.0227 53.5516 40.8962 53.5998 40.7703 53.5998Z" fill="white"/>
<path d="M56.0686 50.7363H46.9399V51.7229H56.0686V50.7363Z" fill="white"/>
<path d="M61 52.7087H46.9399V53.6953H61V52.7087Z" fill="white"/>
<path d="M53.1096 48.7638H46.9399V49.7504H53.1096V48.7638Z" fill="white"/>
<path d="M33.3198 35.1039L33.3122 41.6812C33.3122 43.1194 32.3085 44.1232 30.8723 44.1232H30.6303V39.0006H29.6451V55.218H26.1478V43.5484H25.1605V55.218H21.6536V39.0013H20.667V44.1239H20.4271C19.0803 44.1239 17.9851 43.0287 17.9851 41.6819V35.1004C17.9851 33.4277 19.347 32.0658 21.0197 32.0658H30.2872C31.0971 32.0658 31.8589 32.382 32.4322 32.9554C33.0049 33.5281 33.3212 34.2919 33.3198 35.1039Z" fill="white" fill-opacity="0.1"/>
</svg>
