<svg width="78" height="78" viewBox="0 0 78 78" fill="none" xmlns="http://www.w3.org/2000/svg">
<circle cx="39" cy="39" r="39" fill="#5970F6"/>
<path d="M48.6979 57.4408H47.6165C47.6165 52.6902 44.4891 51.6926 41.8683 51.6926H35.5763C32.9556 51.6926 29.8281 52.6902 29.8281 57.4408H28.7446C28.7446 56.897 28.7804 56.3951 28.8491 55.9345C28.8491 55.9283 28.8491 55.9221 28.8512 55.916C29.1207 54.0686 29.8928 52.847 30.8697 52.0501C31.1729 51.7992 31.4974 51.5923 31.8322 51.4204C33.0834 50.77 34.4866 50.6085 35.5763 50.6085H41.8683C43.0584 50.6085 44.6211 50.801 45.9534 51.6081C46.2608 51.7965 46.5578 52.0158 46.8341 52.2756C47.6873 53.0745 48.3487 54.2419 48.5934 55.9283C48.6622 56.3924 48.6979 56.895 48.6979 57.4408Z" fill="white"/>
<path d="M42.1254 41.6139C41.2385 40.7188 39.9983 40.2039 38.7223 40.2039C36.0926 40.2039 34.0136 42.2808 33.9861 44.94V45.4192C33.9737 46.687 34.446 47.8709 35.3185 48.7495C36.2053 49.6446 37.4456 50.1595 38.7216 50.1595C41.3513 50.1595 43.4303 48.0826 43.4578 45.4234V44.9442C43.4701 43.6764 42.9978 42.4946 42.1254 41.6139ZM42.3743 45.4185C42.3536 47.4687 40.749 49.0754 38.7216 49.0754C37.7323 49.0754 36.7718 48.68 36.0878 47.9877C35.4202 47.314 35.0586 46.4065 35.0689 45.4234V44.9442C35.0895 42.894 36.6941 41.2874 38.7216 41.2874C39.7109 41.2874 40.6713 41.6827 41.3554 42.375C42.023 43.0487 42.3825 43.9562 42.3743 44.9394V45.4185Z" fill="white"/>
<path d="M61.0001 55.916H59.9166C59.9166 52.8387 58.358 51.2802 55.2808 51.2802H50.1053C49.1098 51.2802 47.7939 51.4644 46.8335 52.2757C46.6932 52.3905 46.5612 52.5225 46.4382 52.6689L45.6077 51.9725C45.7163 51.8446 45.8297 51.7236 45.9528 51.6088C46.9339 50.6841 48.3563 50.1967 50.1053 50.1967H55.2808C58.9163 50.1967 61.0001 52.2825 61.0001 55.916Z" fill="white"/>
<path d="M55.5632 42.3818C54.8145 41.627 53.7681 41.1938 52.6929 41.1938C50.4778 41.1938 48.7226 42.9449 48.7019 45.1848V45.578C48.6896 46.6471 49.089 47.6447 49.8253 48.3872C50.5719 49.142 51.6183 49.5752 52.6936 49.5752C54.9108 49.5752 56.6639 47.8241 56.6873 45.5842V45.191C56.6969 44.1219 56.2974 43.1243 55.5632 42.3818ZM55.6031 45.578C55.5866 47.2136 54.3085 48.4944 52.6936 48.4944C51.905 48.4944 51.1391 48.1788 50.5933 47.6261C50.0639 47.0905 49.7772 46.3666 49.7834 45.5842V45.191C49.7999 43.5554 51.0779 42.2746 52.6929 42.2746C53.4814 42.2746 54.2473 42.5922 54.7932 43.1429C55.3226 43.6785 55.6113 44.4024 55.6031 45.1848V45.578Z" fill="white"/>
<path d="M32.3918 51.9725L31.5613 52.6689C31.3543 52.4221 31.1199 52.2193 30.8689 52.0495C29.9463 51.428 28.7899 51.2795 27.8941 51.2795H22.7193C19.6421 51.2795 18.0835 52.838 18.0835 55.9153H17C17 52.2819 19.0838 50.196 22.7193 50.196H27.8948C29.518 50.196 30.8614 50.6167 31.8314 51.4197C32.0343 51.5854 32.2226 51.7717 32.3918 51.9725Z" fill="white"/>
<path d="M25.3071 41.1931C24.2319 41.1931 23.1862 41.6262 22.4368 42.3811C21.7026 43.1236 21.3031 44.1219 21.3134 45.1841V45.5897C21.3361 47.8241 23.0892 49.5744 25.3071 49.5744C26.3824 49.5744 27.4281 49.1413 28.1774 48.3864C28.9117 47.646 29.3111 46.6484 29.3008 45.5835V45.1806C29.2774 42.9442 27.5243 41.1931 25.3071 41.1931ZM28.2166 45.5883C28.2228 46.3666 27.9361 47.0905 27.4067 47.6261C26.8609 48.1781 26.095 48.4944 25.3064 48.4944C23.6915 48.4944 22.4134 47.2142 22.3969 45.5849V45.1806C22.3887 44.4024 22.6774 43.6784 23.2068 43.1429C23.7527 42.5929 24.5186 42.2746 25.3071 42.2746C26.9221 42.2746 28.2001 43.5547 28.2166 45.1841V45.5883Z" fill="white"/>
<path d="M54.1807 20.5592H31.1261C29.7394 20.5592 28.6099 21.6867 28.6099 23.0734V34.7836C28.6099 36.1703 29.7394 37.2978 31.1261 37.2978H44.0284L46.0786 40.5132C46.1707 40.6596 46.3274 40.7538 46.5014 40.7641H46.5351C46.6959 40.7641 46.8486 40.6933 46.951 40.5675L49.6556 37.2978H54.1801C55.5667 37.2978 56.6942 36.1703 56.6942 34.7836V23.0734C56.6949 21.6867 55.5674 20.5592 54.1807 20.5592ZM55.6114 34.7836C55.6114 35.5742 54.9693 36.2163 54.1807 36.2163H49.4006C49.2397 36.2163 49.085 36.2871 48.9819 36.4109L46.5907 39.3039L44.7833 36.4652C44.6829 36.3105 44.5111 36.2163 44.3275 36.2163H31.1261C30.3355 36.2163 29.6934 35.5742 29.6934 34.7836V23.0734C29.6934 22.2848 30.3355 21.6427 31.1261 21.6427H54.1807C54.9693 21.6427 55.6114 22.2848 55.6114 23.0734V34.7836Z" fill="white"/>
<path d="M45.0913 30.123H46.2271C45.7479 31.8885 44.1371 33.192 42.2231 33.192C39.9323 33.192 38.0706 31.3303 38.0706 29.0395C38.0706 26.7508 39.9323 24.8891 42.2231 24.8891C44.1371 24.8891 45.7479 26.1926 46.2271 27.9581H45.0913C44.652 26.799 43.5327 25.9705 42.2231 25.9705C40.5304 25.9705 39.1541 27.3469 39.1541 29.0395C39.1541 30.7322 40.5304 32.1085 42.2231 32.1085C43.5334 32.1085 44.652 31.2822 45.0913 30.123Z" fill="white"/>
<path d="M46.9724 30.123H48.0772C47.567 32.8929 45.1381 34.9967 42.2245 34.9967C38.9403 34.9967 36.2666 32.3251 36.2666 29.0388C36.2666 25.7546 38.9403 23.083 42.2245 23.083C45.1381 23.083 47.567 25.1874 48.0772 27.9567H46.9724C46.4767 25.7897 44.5372 24.1644 42.2238 24.1644C39.5357 24.1644 37.3501 26.3528 37.3501 29.0381C37.3501 31.7263 39.5364 33.9118 42.2238 33.9118C44.5372 33.9139 46.4767 32.2907 46.9724 30.123Z" fill="white"/>
<path d="M42.8637 30.123H44.2923C43.899 30.8696 43.1249 31.3866 42.2236 31.3866C40.929 31.3866 39.8765 30.3348 39.8765 29.0395C39.8765 27.747 40.9283 26.6945 42.2236 26.6945C43.1249 26.6945 43.899 27.2094 44.2923 27.9581H42.8637C42.6753 27.8453 42.458 27.7759 42.2236 27.7759C41.5272 27.7759 40.96 28.3431 40.96 29.0395C40.96 29.736 41.5272 30.3031 42.2236 30.3031C42.458 30.3031 42.6753 30.2365 42.8637 30.123Z" fill="white"/>
<path d="M51.6101 28.4977H42.2236V29.5812H51.6101V28.4977Z" fill="white"/>
<path d="M52.1971 29.0395L53.4938 30.4826L52.6908 31.2086L51.2264 29.5813L51.0655 29.4032C50.8792 29.1963 50.8792 28.8841 51.0655 28.6772L51.2264 28.4971L52.6908 26.8718L53.4938 27.5978L52.1971 29.0395Z" fill="white"/>
<path d="M50.5178 29.5813L51.3297 30.4826L50.5247 31.2086L49.0603 29.5813L48.8994 29.4032C48.7152 29.1963 48.7152 28.8841 48.8994 28.6772L49.0603 28.4971L50.5247 26.8718L51.3297 27.5978L50.5178 28.4971L50.0304 29.0388L50.5178 29.5813Z" fill="white"/>
<path d="M30.8689 52.0502C29.892 52.847 29.1199 54.0687 28.8504 55.916H18.0835C18.0835 52.8387 19.6421 51.2802 22.7193 51.2802H27.8948C28.7899 51.2802 29.9463 51.4287 30.8689 52.0502Z" fill="white" fill-opacity="0.1"/>
<path d="M47.6165 57.4408H29.8274C29.8274 52.6902 32.9548 51.6926 35.5756 51.6926H41.8676C44.489 51.6926 47.6165 52.6902 47.6165 57.4408Z" fill="white" fill-opacity="0.1"/>
<path d="M59.9164 55.916H48.5933V55.9283C48.3485 54.2426 47.6879 53.0752 46.834 52.2757C47.7944 51.4637 49.1096 51.2802 50.1058 51.2802H55.2813C58.3579 51.2802 59.9164 52.8387 59.9164 55.916Z" fill="white" fill-opacity="0.1"/>
</svg>
