<svg width="78" height="78" viewBox="0 0 78 78" fill="none" xmlns="http://www.w3.org/2000/svg">
<circle cx="39" cy="39" r="39" fill="#5970F6"/>
<path d="M31.6376 28.2296C29.2671 28.2296 27.3386 26.2668 27.3386 23.8537V23.3264C27.3386 20.9133 29.2671 18.9504 31.6376 18.9504C34.0081 18.9504 35.9372 20.9133 35.9372 23.3264V23.8537C35.9365 26.2661 34.0081 28.2296 31.6376 28.2296ZM31.6376 20.0388C29.8666 20.0388 28.4262 21.5141 28.4262 23.3264V23.8537C28.4262 25.6666 29.8666 27.1413 31.6376 27.1413C33.4086 27.1413 34.8489 25.6659 34.8489 23.8537V23.3264C34.8489 21.5134 33.4079 20.0388 31.6376 20.0388Z" fill="white"/>
<path d="M46.2903 28.7672C43.9198 28.7672 41.9907 26.8044 41.9907 24.3913V23.864C41.9907 21.4508 43.9192 19.488 46.2903 19.488C48.6615 19.488 50.59 21.4515 50.59 23.864V24.3913C50.59 26.8044 48.6615 28.7672 46.2903 28.7672ZM46.2903 20.5763C44.5193 20.5763 43.079 22.0517 43.079 23.8647V24.392C43.079 26.2049 44.52 27.6796 46.2903 27.6796C48.0607 27.6796 49.5017 26.2042 49.5017 24.392V23.864C49.5024 22.051 48.0613 20.5763 46.2903 20.5763Z" fill="white"/>
<path d="M56.9101 42.2147H55.8218V58.7422H56.9101V42.2147Z" fill="white"/>
<path d="M44.8115 44.6685H43.7231V58.7265H44.8115V44.6685Z" fill="white"/>
<path d="M39.2647 49.9265H38.1785V58.8468H39.2647V49.9265Z" fill="white"/>
<path d="M27.351 47.1255H26.2627V59.0495H27.351V47.1255Z" fill="white"/>
<path d="M52.1367 47.1255H51.0483V59.0495H52.1367V47.1255Z" fill="white"/>
<path d="M33.5275 44.6141H32.4392V58.7918H33.5275V44.6141Z" fill="white"/>
<path d="M21.464 44.6685H20.3757V58.8454H21.464V44.6685Z" fill="white"/>
<path d="M48.6993 43.3911L48.6869 47.7684C48.6869 50.0275 47.0603 51.6748 44.8121 51.7023C44.7908 51.7043 44.7723 51.7043 44.751 51.7043V50.616C44.7723 50.616 44.7929 50.616 44.8121 50.6139C46.4573 50.5864 47.5986 49.4246 47.5986 47.767L47.613 43.3897C47.613 38.6432 44.4883 37.6449 41.8662 37.6449H35.577C32.9569 37.6449 29.8301 38.6432 29.8301 43.3917V47.767C29.8301 49.3641 30.891 50.5026 32.4399 50.6077C32.5176 50.6139 32.5973 50.616 32.6791 50.616V51.7043C32.5994 51.7043 32.5196 51.7023 32.4399 51.6981C30.2839 51.5868 28.7439 49.9691 28.7439 47.7663V43.3911C28.7439 40.6617 29.6452 38.9993 30.8662 37.999C31.1708 37.7487 31.4946 37.5411 31.8308 37.3665C33.0834 36.7196 34.4866 36.5573 35.5776 36.5573H41.8669C43.0563 36.5573 44.6217 36.7484 45.9541 37.5576C46.2628 37.7446 46.5591 37.9653 46.8368 38.2259C47.9238 39.2454 48.6993 40.859 48.6993 43.3911Z" fill="white"/>
<path d="M38.7214 36.1118C37.4448 36.1118 36.2038 35.5976 35.3163 34.7018C34.4445 33.8218 33.9715 32.6379 33.9839 31.3695V30.8903C34.01 28.231 36.0911 26.1527 38.7214 26.1527C39.9981 26.1527 41.2391 26.667 42.1266 27.5628C42.9984 28.4428 43.4714 29.6266 43.459 30.8951V31.3743C43.4322 34.0335 41.3511 36.1118 38.7214 36.1118ZM38.7214 27.241C36.6954 27.241 35.0921 28.8463 35.0722 30.8958V31.375C35.0626 32.3567 35.4235 33.2642 36.089 33.9366C36.7738 34.6282 37.7328 35.0242 38.7214 35.0242C40.7475 35.0242 42.3508 33.4189 42.3707 31.3695V30.8903C42.3803 29.9085 42.0187 29.001 41.3532 28.3286C40.6691 27.637 39.7094 27.241 38.7214 27.241Z" fill="white"/>
<path d="M57.0043 48.9495V47.8612C58.6818 47.8612 59.8526 46.6759 59.8526 44.9778V42.993L59.9124 41.8359C59.9117 38.791 58.3531 37.2324 55.28 37.2324H50.1038C48.9646 37.2324 47.404 37.473 46.4388 38.6205L45.6062 37.9199C46.5838 36.758 48.139 36.1441 50.1038 36.1441H55.28C58.9148 36.1441 61 38.2286 61 41.8641L60.9402 43.0212L60.9409 44.9778C60.9409 47.2795 59.2854 48.9495 57.0043 48.9495Z" fill="white"/>
<path d="M52.6923 35.5295C51.6163 35.5295 50.57 35.0957 49.8213 34.3408C49.0863 33.5976 48.6869 32.5994 48.6972 31.5296V31.1364C48.7192 28.8937 50.4737 27.1413 52.6916 27.1413C53.7675 27.1413 54.8139 27.5751 55.5626 28.33C56.2975 29.0732 56.697 30.0714 56.6867 31.1412V31.5344C56.6647 33.777 54.9102 35.5295 52.6923 35.5295ZM52.6923 28.2296C51.0787 28.2296 49.802 29.509 49.7855 31.1419V31.5351C49.778 32.3175 50.0647 33.04 50.5947 33.5749C51.1399 34.1256 51.9044 34.4412 52.6923 34.4412C54.3058 34.4412 55.5825 33.1624 55.599 31.5296V31.1364C55.6066 30.3533 55.3192 29.6307 54.7898 29.0959C54.244 28.5452 53.4795 28.2296 52.6923 28.2296Z" fill="white"/>
<path d="M20.9366 48.9344C18.6555 48.9344 17 47.2645 17 44.9627V41.8648C17 38.23 19.0845 36.1448 22.72 36.1448H27.8962C29.8611 36.1448 31.4162 36.7588 32.3938 37.9206L31.5613 38.6212C30.5953 37.4738 29.0354 37.2331 27.8962 37.2331H22.72C19.6469 37.2331 18.0883 38.7917 18.0883 41.8648V44.9627C18.0883 46.6601 19.2598 47.8461 20.9366 47.8461V48.9344Z" fill="white"/>
<path d="M25.3078 35.5295C23.0899 35.5295 21.3354 33.777 21.3134 31.5399V31.1357C21.3031 30.0707 21.7019 29.0725 22.4375 28.33C23.1855 27.5744 24.2319 27.1413 25.3085 27.1413C27.5264 27.1413 29.2809 28.8937 29.3029 31.1309V31.5351C29.3132 32.5994 28.9144 33.5976 28.1788 34.3408C27.4301 35.0957 26.3837 35.5295 25.3078 35.5295ZM25.3078 28.2296C24.5199 28.2296 23.7554 28.5452 23.2102 29.0959C22.6809 29.6307 22.3935 30.3533 22.4011 31.1309V31.5351C22.4176 33.1624 23.6936 34.4419 25.3078 34.4419C26.0957 34.4419 26.8602 34.1263 27.4054 33.5756C27.9347 33.0407 28.2221 32.3182 28.2146 31.5406V31.1364C28.1981 29.5084 26.9214 28.2296 25.3078 28.2296Z" fill="white"/>
<path d="M47.6129 43.389L47.5985 47.7663C47.5985 49.4245 46.4572 50.5864 44.812 50.6132V44.6684H43.723V58.7264L39.2639 58.756V49.9264H38.1777V58.7622L33.5274 58.7917V44.6141H32.4391V50.607C30.8902 50.5019 29.8293 49.3634 29.8293 47.7663V43.391C29.8293 38.6418 32.9561 37.6442 35.5762 37.6442H41.8654C44.4882 37.6442 47.6129 38.6425 47.6129 43.389Z" fill="white" fill-opacity="0.1"/>
</svg>
