<svg width="78" height="78" viewBox="0 0 78 78" fill="none" xmlns="http://www.w3.org/2000/svg">
<circle cx="39" cy="39" r="39" fill="#5970F6"/>
<g clip-path="url(#clip0_0_767)">
<path d="M54.1092 38.1901L54.1064 38.8631L54.1037 39.497H52.8407L52.8435 38.8631L52.8462 38.1901C52.8462 34.5154 50.9783 32.6523 47.3112 32.6523H41.1422C37.4703 32.6523 35.6072 34.5154 35.6072 38.1901V39.497H34.3442V38.1901C34.3442 35.8739 35.0586 34.0864 36.3827 32.9307C36.7189 32.633 37.0846 32.3869 37.4944 32.18C38.4919 31.663 39.7157 31.39 41.1422 31.39H47.3112C51.6294 31.3893 54.1092 33.8643 54.1092 38.1901Z" fill="white"/>
<path d="M44.2243 31.1494C42.9469 31.1494 41.7039 30.6352 40.8156 29.738C39.9425 28.8559 39.4688 27.6707 39.4812 26.4002V25.9313C39.508 23.2693 41.5911 21.1882 44.2243 21.1882C45.5016 21.1882 46.7446 21.7025 47.6329 22.5997C48.506 23.4817 48.9797 24.667 48.9673 25.9368V26.4057C48.9405 29.0684 46.8567 31.1494 44.2243 31.1494ZM44.2243 22.4505C42.2924 22.4505 40.7634 23.9822 40.7441 25.9368V26.4057C40.7352 27.3427 41.0789 28.2083 41.7135 28.849C42.3666 29.5084 43.2817 29.8865 44.2249 29.8865C46.1568 29.8865 47.6858 28.3547 47.7051 26.3995V25.9306C47.714 24.9935 47.3703 24.1287 46.7357 23.4879C46.0826 22.8293 45.1675 22.4505 44.2243 22.4505Z" fill="white"/>
<path d="M38.094 32.7596L37.128 33.5743C36.906 33.3082 36.655 33.1013 36.3821 32.9308C35.5117 32.3822 34.4461 32.2481 33.6121 32.2481H28.5356C25.5876 32.2481 24.093 33.7455 24.093 36.6935V39.4978H22.8301V36.6935C22.8301 33.0628 24.9077 30.9879 28.5356 30.9879H33.6121C35.2016 30.9879 36.5285 31.3977 37.4938 32.18C37.7165 32.3505 37.9111 32.5451 38.094 32.7596Z" fill="white"/>
<path d="M31.0719 30.5781C28.843 30.5781 27.0795 28.8175 27.0569 26.57V26.1726C27.0459 25.1036 27.448 24.0998 28.1871 23.3532C28.9392 22.5942 29.9904 22.1583 31.0719 22.1583C33.3007 22.1583 35.0642 23.919 35.0862 26.1665V26.5638C35.0972 27.6329 34.695 28.6366 33.9559 29.3833C33.2045 30.1423 32.1533 30.5781 31.0719 30.5781ZM31.0719 23.4206C30.3252 23.4206 29.6013 23.7196 29.085 24.2408C28.7309 24.599 28.3109 25.2225 28.3198 26.1658V26.5631C28.3349 28.1031 29.5442 29.3152 31.0719 29.3152C31.8178 29.3152 32.5424 29.0161 33.0587 28.495C33.4128 28.1368 33.8329 27.5133 33.8239 26.57V26.1726C33.8088 24.632 32.6002 23.4206 31.0719 23.4206Z" fill="white"/>
<path d="M60.3682 38.8632H17.6318C17.2826 38.8632 17 39.1437 17 39.4922V56.1806C17 56.5292 17.2826 56.8124 17.6318 56.8124H60.3689C60.7174 56.8124 61.0007 56.5298 61.0007 56.1806V39.4922C61 39.1437 60.7174 38.8632 60.3682 38.8632ZM59.7371 55.5488H18.2609V40.1233H59.7371V55.5488Z" fill="white"/>
<path d="M52.8462 38.1902L52.8435 38.8632H35.6072V38.1902C35.6072 34.5155 37.4703 32.6523 41.1422 32.6523H47.3112C50.9783 32.6523 52.8462 34.5155 52.8462 38.1902Z" fill="white" fill-opacity="0.1"/>
<path d="M36.3826 32.9307C35.0584 34.0864 34.3441 35.8739 34.3441 38.1901V38.8631H24.0935V36.6927C24.0935 33.7447 25.5881 32.2473 28.5361 32.2473H33.6126C34.4466 32.248 35.5115 32.3821 36.3826 32.9307Z" fill="white" fill-opacity="0.1"/>
<path d="M28.9432 42.4843H26.473C25.1317 42.4843 24.042 43.5739 24.042 44.9153V50.3114C24.042 51.6528 25.1317 52.7424 26.473 52.7424H28.9432C30.2845 52.7424 31.3742 51.6528 31.3742 50.3114V44.9153C31.3742 43.5739 30.2838 42.4843 28.9432 42.4843ZM30.1112 50.3108C30.1112 50.9543 29.5867 51.4788 28.9432 51.4788H26.473C25.8295 51.4788 25.3049 50.9543 25.3049 50.3108V44.9146C25.3049 44.2683 25.8295 43.7444 26.473 43.7444H28.9432C29.5867 43.7444 30.1112 44.269 30.1112 44.9146V50.3108Z" fill="white"/>
<path d="M54.9211 47.6116V51.6981H53.6582V48.2427H30.7424V46.9797H54.2893C54.6386 46.9804 54.9211 47.263 54.9211 47.6116Z" fill="white"/>
<path d="M51.9224 47.6116H50.6594V50.4984H51.9224V47.6116Z" fill="white"/>
<path d="M48.9226 47.6116H47.6597V51.6981H48.9226V47.6116Z" fill="white"/>
</g>
<defs>
<clipPath id="clip0_0_767">
<rect width="44" height="44" fill="white" transform="translate(17 17)"/>
</clipPath>
</defs>
</svg>
