<svg width="16" height="15" viewBox="0 0 16 15" fill="none" xmlns="http://www.w3.org/2000/svg">
<path d="M8.80197 11.6594C8.71419 11.5715 8.66489 11.4524 8.66489 11.3282C8.66489 11.204 8.71419 11.0848 8.80197 10.9969L11.9082 7.89068L2.88322 7.89068C2.7589 7.89068 2.63968 7.8413 2.55177 7.75339C2.46386 7.66548 2.41447 7.54625 2.41447 7.42193C2.41447 7.29761 2.46386 7.17838 2.55177 7.09048C2.63968 7.00257 2.7589 6.95318 2.88322 6.95318L11.9082 6.95318L8.80198 3.84693C8.74027 3.78964 8.69517 3.71676 8.67141 3.63598C8.64765 3.5552 8.64612 3.46951 8.66697 3.38793C8.68783 3.30635 8.73031 3.23191 8.78992 3.17245C8.84954 3.11299 8.92409 3.0707 9.00572 3.05006C9.08721 3.02917 9.17282 3.03063 9.25354 3.05428C9.33427 3.07792 9.40714 3.12288 9.46447 3.18443L13.3707 7.09068C13.4585 7.17857 13.5078 7.29771 13.5078 7.42193C13.5078 7.54615 13.4585 7.66529 13.3707 7.75318L9.46447 11.6594C9.37658 11.7472 9.25744 11.7965 9.13322 11.7965C9.00901 11.7965 8.88987 11.7472 8.80197 11.6594Z" fill="white"/>
</svg>
