<svg width="55" height="55" fill="none" xmlns="http://www.w3.org/2000/svg"><path d="M32.514 37.95c-1.489.29-3.013.437-4.53.437h-1.143A23.866 23.866 0 019.753 31.13a4.929 4.929 0 01-1.388-3.44v-.283c0-1.29.493-2.51 1.388-3.439a23.825 23.825 0 012.542-2.28.595.595 0 10-.73-.941c-.942.73-1.84 1.536-2.669 2.394a6.114 6.114 0 00-1.722 4.266v.284c0 1.6.612 3.114 1.722 4.266a24.795 24.795 0 007.864 5.49l-1.275 1.275-.28-.281a1.391 1.391 0 00-1.966 0l-1.403 1.403a1.391 1.391 0 000 1.965l1.403 1.404a1.391 1.391 0 001.965 0l1.404-1.404a1.391 1.391 0 000-1.965l-.28-.28 1.625-1.626a24.78 24.78 0 008.888 1.64h.063v1.19h-.397c-.766 0-1.389.624-1.389 1.39v1.985c0 .767.623 1.39 1.39 1.39h1.984a1.39 1.39 0 001.39-1.39v-1.985c0-.766-.623-1.39-1.39-1.39h-.397v-1.191a25.002 25.002 0 004.646-.457.595.595 0 00-.227-1.17zm-16.748 3.017l-1.404 1.404c-.11.082-.17.082-.28 0l-1.404-1.404c-.083-.11-.083-.17 0-.28l1.404-1.404c.11-.083.169-.083.28 0l1.404 1.404c.082.11.082.17 0 .28zm12.925 1.191v1.985a.2.2 0 01-.199.199h-1.985a.199.199 0 01-.198-.199v-1.985c0-.109.089-.198.198-.198h1.985c.11 0 .199.089.199.198zm17.223-19.063l-.755-.717a24.941 24.941 0 00-6.966-4.68l1.322-1.322.28.281a1.391 1.391 0 001.966 0l1.403-1.403a1.391 1.391 0 000-1.965l-1.403-1.404a1.391 1.391 0 00-1.965 0l-1.404 1.404a1.391 1.391 0 000 1.965l.28.28-1.667 1.668a24.91 24.91 0 00-8.91-1.68v-1.193h.398c.766 0 1.39-.623 1.39-1.39v-1.984c0-.767-.624-1.39-1.39-1.39h-1.985c-.766 0-1.39.623-1.39 1.39v1.985c0 .766.624 1.39 1.39 1.39h.397v1.19h-.064c-3.05 0-6.062.56-8.889 1.639l-1.624-1.625.28-.28a1.391 1.391 0 000-1.965l-1.403-1.404a1.391 1.391 0 00-1.965 0l-1.404 1.404a1.391 1.391 0 000 1.965l1.404 1.403a1.39 1.39 0 001.965 0l.28-.28 1.274 1.273c-.976.431-1.927.926-2.846 1.483a.595.595 0 10.618 1.018 23.743 23.743 0 0112.31-3.44h1.143c3.076 0 6.075.588 8.86 1.707a.595.595 0 00.15.063 23.727 23.727 0 017.345 4.76l.755.717c.98.93 1.541 2.24 1.541 3.591s-.562 2.66-1.541 3.59l-.755.718a23.88 23.88 0 01-9.197 5.426.595.595 0 10.359 1.135c.504-.16 1.004-.336 1.498-.528l1.674 1.674-.281.28a1.391 1.391 0 000 1.965l1.403 1.404a1.39 1.39 0 001.965 0l1.404-1.404a1.391 1.391 0 000-1.965l-1.404-1.403a1.391 1.391 0 00-1.965 0l-.28.28-1.329-1.328a25.085 25.085 0 006.973-4.673l.755-.717a6.17 6.17 0 001.912-4.454 6.17 6.17 0 00-1.912-4.454zm-6.68-8.964l1.404-1.404c.11-.082.17-.082.28 0l1.404 1.404c.082.11.082.17 0 .28l-1.404 1.404c-.11.083-.17.083-.28 0l-1.404-1.404c-.083-.11-.083-.17 0-.28zM26.309 12.94v-1.985a.2.2 0 01.198-.199h1.985a.2.2 0 01.199.199v1.985a.2.2 0 01-.198.198h-1.985a.199.199 0 01-.199-.198zm-12.227 2.875l-1.404-1.404c-.082-.11-.082-.17 0-.28l1.404-1.404c.111-.082.17-.082.28 0l1.404 1.404c.083.11.083.17 0 .28l-1.403 1.404c-.09.09-.19.08-.281 0zm26.836 23.468l1.404 1.404c.082.11.082.17 0 .28l-1.404 1.404c-.11.082-.17.082-.28 0l-1.404-1.404c-.083-.11-.083-.17 0-.28l1.404-1.404c.078-.092.178-.098.28 0z" fill="#5970F6"/><path d="M27.5 29.335c.985 0 1.787-.801 1.787-1.786s-.802-1.787-1.787-1.787c-.985 0-1.786.802-1.786 1.787 0 .985.801 1.786 1.786 1.786zm0-2.382a.596.596 0 110 1.193.596.596 0 010-1.193zm.001-2.778a.596.596 0 000-1.191.595.595 0 100 1.19zm2.808 6.777a.596.596 0 000-1.191h-.001a.595.595 0 100 1.19zm-5.614-5.615a.596.596 0 000-1.19h-.001a.595.595 0 100 1.19zm6.777 2.808a.596.596 0 000-1.191.595.595 0 100 1.19zm-7.941 0a.595.595 0 100-1.191.595.595 0 100 1.19zm3.97 2.778zm2.808-5.586a.596.596 0 000-1.19h-.001a.595.595 0 100 1.19zm-5.614 4.423h-.001z" fill="#5970F6"/><path d="M15.035 25.167H13.05a1.39 1.39 0 00-1.39 1.39v1.985a1.39 1.39 0 001.39 1.389h1.985c.766 0 1.39-.623 1.39-1.39v-.396h3.357c.305 3.99 3.65 7.145 7.718 7.145s7.414-3.154 7.719-7.145h3.357v.396c0 .767.624 1.39 1.39 1.39h1.985c.766 0 1.39-.623 1.39-1.39v-1.985c0-.766-.624-1.389-1.39-1.389h-1.985c-.766 0-1.39.623-1.39 1.39v.396H35.22c-.305-3.99-3.65-7.145-7.719-7.145-4.068 0-7.413 3.154-7.718 7.145h-3.358v-.396a1.39 1.39 0 00-1.39-1.39zm24.732 1.39a.2.2 0 01.199-.199h1.985c.11 0 .198.09.198.198v1.985c0 .11-.089.199-.198.199h-1.985a.199.199 0 01-.199-.198v-1.986zM27.5 20.998a6.558 6.558 0 016.55 6.55 6.558 6.558 0 01-6.55 6.55 6.558 6.558 0 01-6.55-6.55 6.558 6.558 0 016.55-6.55zm-12.267 7.543a.198.198 0 01-.198.198H13.05a.199.199 0 01-.199-.198v-1.986a.2.2 0 01.199-.198h1.985a.2.2 0 01.198.198v1.985z" fill="#5970F6"/></svg>