<svg width="55" height="55" fill="none" xmlns="http://www.w3.org/2000/svg"><g clip-path="url(#clip0_896_1379)" fill-rule="evenodd" clip-rule="evenodd" fill="#5970F6"><path d="M45.97 48.188H9.09a.644.644 0 01-.645-.644V27.966c0-.356.289-.644.644-.644h36.88c.356 0 .645.288.645.644v19.578a.644.644 0 01-.644.644zM9.733 46.9h35.593V28.61H9.733V46.9z"/><path d="M39.706 45.017H15.353a.644.644 0 01-.644-.644 2.388 2.388 0 00-2.385-2.386.644.644 0 01-.644-.644v-7.177c0-.356.288-.644.644-.644a2.388 2.388 0 002.385-2.386c0-.355.288-.644.644-.644h24.353c.356 0 .644.289.644.644a2.388 2.388 0 002.386 2.386c.355 0 .644.288.644.644v7.178a.644.644 0 01-.644.643 2.388 2.388 0 00-2.386 2.386.644.644 0 01-.644.644zM15.94 43.729h23.18a3.683 3.683 0 012.973-2.973v-6.003a3.683 3.683 0 01-2.973-2.973H15.94a3.683 3.683 0 01-2.973 2.973v6.003a3.683 3.683 0 012.973 2.973z"/><path d="M36.951 37.755a.862.862 0 00-.86-.86.862.862 0 00-.86.86.861.861 0 001.72 0zm-17.123 0a.862.862 0 00-.86-.86.862.862 0 00-.86.86.861.861 0 001.72 0zm7.701 3.542a3.547 3.547 0 01-3.543-3.542 3.547 3.547 0 013.543-3.543 3.547 3.547 0 013.543 3.543 3.547 3.547 0 01-3.543 3.542zm0-5.797a2.257 2.257 0 00-2.255 2.255 2.258 2.258 0 002.255 2.255 2.258 2.258 0 002.255-2.255 2.258 2.258 0 00-2.255-2.255zm15.748-6.89a.642.642 0 01-.455-.189L22.932 8.532 10 21.465l6.046 6.046a.644.644 0 01-.911.91l-6.501-6.5a.644.644 0 010-.911L22.477 7.166a.644.644 0 01.911 0l20.344 20.345a.644.644 0 01-.455 1.099z"/><path d="M20.074 28.61a.642.642 0 01-.455-.189l-4.314-4.313a.644.644 0 010-.911c.45-.45.698-1.05.698-1.687a2.37 2.37 0 00-.698-1.687.644.644 0 010-.91l5.075-5.075a.644.644 0 01.91 0c.93.93 2.444.93 3.374 0a.644.644 0 01.911 0L39.248 27.51a.644.644 0 01-.91.91L25.08 15.164a3.67 3.67 0 01-2.103.66c-.736 0-1.473-.22-2.102-.66l-4.244 4.245c.429.612.66 1.34.66 2.102a3.65 3.65 0 01-.66 2.103l3.898 3.898a.644.644 0 01-.455 1.099z"/><path d="M23.857 21.529a.862.862 0 00-.86-.86.862.862 0 00-.861.86.861.861 0 001.72 0zm8.067 7.081a.644.644 0 01-.64-.729 2.24 2.24 0 00-.64-1.893 2.24 2.24 0 00-1.594-.66 2.24 2.24 0 00-1.594.66c-.5.5-.734 1.19-.64 1.893a.644.644 0 11-1.277.17 3.517 3.517 0 011.006-2.973 3.519 3.519 0 012.505-1.038 3.52 3.52 0 012.505 1.038 3.518 3.518 0 011.007 2.973.644.644 0 01-.638.56z"/></g><defs><clipPath id="clip0_896_1379"><path fill="#fff" d="M0 0h55v55H0z"/></clipPath></defs></svg>