<svg width="55" height="55" fill="none" xmlns="http://www.w3.org/2000/svg"><g clip-path="url(#clip0_896_1334)" fill="#5970F6"><path d="M33.462 44.341a.662.662 0 00-.66.66v2.948a3.228 3.228 0 01-3.223 3.223H6.82a3.228 3.228 0 01-3.223-3.223V7.051A3.228 3.228 0 016.82 3.828h22.76a3.228 3.228 0 013.222 3.223c0 .363.297.66.66.66.363 0 .66-.297.66-.66a4.544 4.544 0 00-4.543-4.543H6.82a4.544 4.544 0 00-4.543 4.543v40.91a4.544 4.544 0 004.543 4.542h22.76a4.544 4.544 0 004.542-4.543v-2.948a.664.664 0 00-.66-.67z"/><path d="M9.262 7.414h18.314c1.354 0 2.465 1.067 2.465 2.365 0 .363.296.66.66.66.363 0 .66-.297.66-.66 0-2.035-1.695-3.685-3.785-3.685H9.262c-2.09 0-3.784 1.65-3.784 3.685v31.922c0 2.035 1.694 3.685 3.784 3.685h18.314c2.09 0 3.784-1.65 3.784-3.685a.662.662 0 00-.66-.66.662.662 0 00-.66.66c0 1.309-1.1 2.365-2.463 2.365H9.261c-1.353 0-2.464-1.067-2.464-2.365V9.79c0-1.309 1.1-2.376 2.464-2.376zm7.282 40.304a.662.662 0 00-.66.66c0 .363.297.66.66.66h3.322c.363 0 .66-.297.66-.66a.662.662 0 00-.66-.66h-3.322z"/><path d="M52.723 16.511v-.066c0-.01 0-.022-.01-.033 0-.022-.012-.033-.012-.055 0-.01-.01-.022-.01-.033 0-.01-.012-.033-.012-.044 0-.01-.01-.022-.022-.033-.01-.01-.01-.033-.022-.044-.01-.01-.01-.022-.022-.033-.01-.01-.022-.022-.022-.033-.01-.01-.022-.022-.022-.033l-.033-.033-.033-.033-.033-.033c-.01-.01-.022-.022-.033-.022l-.01-.01c-.012-.012-.023-.012-.034-.012-.01 0-.01-.01-.022-.01L37.642 8.623a.677.677 0 00-.583 0L22.33 15.94c-.01 0-.01.011-.022.011-.01.011-.022.011-.033.011l-.01.011c-.012.011-.023.011-.034.022l-.033.033c-.01.011-.022.022-.033.022l-.033.033c-.01.011-.022.022-.022.033-.01.011-.022.022-.033.044-.01.011-.01.022-.022.033-.01.011-.01.033-.022.044 0 .011-.01.022-.01.033-.012.011-.012.033-.023.044 0 .011-.01.022-.01.033 0 .022-.012.033-.012.055 0 .011 0 .022-.01.033 0 .033-.012.055-.012.088v18.315c0 .253.143.484.363.594l14.718 7.315s.011 0 .011.011c.011 0 .022.011.033.011.011.011.033.011.044.022.011 0 .022.011.033.011.022 0 .033.011.055.011h.022c.033 0 .055.011.088.011.033 0 .055 0 .088-.01h.033c.022 0 .033-.012.055-.012.011 0 .022-.01.033-.01.022 0 .033-.012.044-.023.011 0 .022-.01.033-.01 0 0 .011 0 .011-.012l14.718-7.315a.665.665 0 00.363-.594V16.533c.022-.01.022-.01.022-.022zM37.345 9.955l13.233 6.578-13.233 6.578-13.233-6.578 13.233-6.578zM23.287 17.6l9.834 4.884 3.564 1.771v16.841l-13.398-6.655v-16.84zm28.116 16.841l-13.398 6.655v-16.84l11.275-5.61 2.123-1.057v16.852z"/><path d="M35.057 25.19l-9.548-4.741a.657.657 0 00-.945.594v4.323c0 .253.142.484.363.594l9.547 4.74a.689.689 0 00.65-.032.645.645 0 00.307-.561v-4.323a.696.696 0 00-.373-.594zm-.957 3.839l-8.228-4.092v-2.85L34.1 26.18v2.849z"/></g><defs><clipPath id="clip0_896_1334"><path fill="#fff" d="M0 0h55v55H0z"/></clipPath></defs></svg>