<svg width="55" height="55" fill="none" xmlns="http://www.w3.org/2000/svg"><path fill-rule="evenodd" clip-rule="evenodd" d="M29.15 34.98h-.032a.644.644 0 01.001-1.287h.03c1.525 0 2.868-.232 3.887-.67.81-.35 1.41-.829 1.689-1.35.212-.396.215-.784.01-1.09-.36-.538-1.259-.789-2.405-.673-.25.026-.496.037-.736.037-1.75 0-3.234-.621-4.455-1.133-.917-.384-1.71-.716-2.387-.717h-.002c-1.59 0-2.776 1.1-4.15 2.374-1.342 1.245-2.863 2.655-5.035 3.185a.644.644 0 11-.305-1.25c1.846-.452 3.177-1.686 4.465-2.88.741-.687 1.442-1.337 2.23-1.839.926-.59 1.84-.878 2.795-.878h.003c.936.001 1.882.397 2.884.817 1.32.553 2.816 1.18 4.564 1.003 1.651-.167 2.965.283 3.604 1.236.476.711.496 1.592.056 2.416-.422.788-1.223 1.453-2.316 1.924-1.194.515-2.673.775-4.394.775z" fill="#5970F6"/><path fill-rule="evenodd" clip-rule="evenodd" d="M20.97 42.217a.644.644 0 01-.42-1.133c1.266-1.086 2.338-1.746 3.373-2.075.921-.293 1.822-.322 2.834-.089 3.35.77 5.707.234 7.601-.198l.374-.084c1.353-.304 4.183-1.643 6.73-3.185 3.38-2.046 4.776-3.511 4.945-4.144.062-.232.136-.651-.067-.841-.239-.224-.983-.328-2.297.116-.07.024-.391.163-.73.31-2.225.964-8.13 3.522-12.025 3.933a.644.644 0 11-.148-1.28c3.698-.385 9.483-2.891 11.66-3.835.507-.22.718-.31.832-.349 1.641-.553 2.882-.497 3.588.165.363.34.733.983.431 2.113-.183.689-.827 1.486-1.967 2.44-.913.763-2.142 1.618-3.555 2.474-2.694 1.63-5.62 3.004-7.115 3.34l-.37.083c-1.271.29-2.739.624-4.558.624-1.073 0-2.268-.116-3.618-.427-1.403-.322-2.742-.12-5.078 1.887a.643.643 0 01-.42.155z" fill="#5970F6"/><path fill-rule="evenodd" clip-rule="evenodd" d="M16.033 48.188a.64.64 0 01-.54-.293L7.4 35.457a.644.644 0 01.189-.891l6.197-4.033a.643.643 0 01.891.188l8.094 12.439a.644.644 0 01-.189.89l-6.198 4.033a.643.643 0 01-.35.105zM8.831 35.294l7.39 11.359 5.12-3.33-7.392-11.36-5.118 3.33zm24.303-13.139a.644.644 0 01-.644-.644V17.5a.644.644 0 011.288 0v4.01a.644.644 0 01-.644.644zm5.26-6.965c-.958 0-2.005-.357-3.283-.913a.644.644 0 01-.387-.58c-.021-1.302.178-2.444.593-3.392a5.2 5.2 0 011.725-2.164c2.236-1.616 5.542-1.316 7.89-.497a.644.644 0 01.15 1.14c-1.302.886-1.875 1.97-2.12 2.433-.04.076-.071.136-.102.187l-.132.232-.11.191c-1.146 1.962-2.144 2.935-3.338 3.251-.29.077-.583.113-.886.113zm-2.38-1.927c2.582 1.085 3.658 1.054 5.493-2.086.01-.02.055-.096.102-.18l.144-.251.071-.13c.2-.38.65-1.23 1.534-2.084-1.829-.414-4.06-.433-5.561.653-1.138.822-1.737 2.193-1.784 4.078z" fill="#5970F6"/><path fill-rule="evenodd" clip-rule="evenodd" d="M33.134 18.144a.644.644 0 01-.64-.564c-.149-1.203-.842-2.367-2.059-3.459-.941-.844-2.195-1.654-3.834-2.474a.644.644 0 11.576-1.152c1.743.873 3.09 1.745 4.118 2.668.804.72 1.418 1.481 1.84 2.273.42-.792 1.034-1.552 1.838-2.274 1.028-.922 2.375-1.794 4.118-2.667a.644.644 0 11.576 1.152c-1.639.82-2.893 1.63-3.834 2.474-1.217 1.092-1.91 2.256-2.06 3.459a.645.645 0 01-.64.564z" fill="#5970F6"/><path fill-rule="evenodd" clip-rule="evenodd" d="M27.875 15.19c-.303 0-.597-.035-.886-.112-1.194-.316-2.193-1.289-3.34-3.252l-.109-.191-.132-.231a4.696 4.696 0 01-.102-.187c-.245-.463-.817-1.547-2.12-2.432a.644.644 0 01.15-1.14c2.349-.82 5.655-1.12 7.89.496a5.196 5.196 0 011.725 2.164c.416.948.615 2.09.593 3.393a.644.644 0 01-.387.58c-1.277.555-2.325.913-3.282.913zM22.91 8.533a7.897 7.897 0 011.534 2.083l.071.131.144.25.102.18c1.835 3.141 2.911 3.172 5.494 2.087-.046-1.885-.645-3.256-1.784-4.078-1.5-1.086-3.732-1.068-5.56-.653zM43.374 30.81a.644.644 0 01-.634-.538 9.705 9.705 0 00-9.606-8.118 9.769 9.769 0 00-8.864 5.697.644.644 0 11-1.178-.52 11.044 11.044 0 013.998-4.662 10.983 10.983 0 016.044-1.802 10.985 10.985 0 017.16 2.64 11.036 11.036 0 013.716 6.552.644.644 0 01-.636.75z" fill="#5970F6"/></svg>