<svg width="32" height="29" viewBox="0 0 32 29" fill="none" xmlns="http://www.w3.org/2000/svg">
<path d="M16 6.78906L27.9219 17.3438C28.0312 17.4531 28.1406 17.4531 28.25 17.5625V27.625C28.25 28.1172 27.8125 28.5 27.375 28.5H4.625C4.13281 28.5 3.75 28.1172 3.75 27.625V17.5625C3.80469 17.4531 3.91406 17.4531 4.02344 17.3438L16 6.78906ZM21.25 21.0625V18.4375C21.25 18.2188 21.0312 18 20.8125 18H17.75V14.9375C17.75 14.7188 17.5312 14.5 17.3125 14.5H14.6875C14.4141 14.5 14.25 14.7188 14.25 14.9375V18H11.1875C10.9141 18 10.75 18.2188 10.75 18.4375V21.0625C10.75 21.3359 10.9141 21.5 11.1875 21.5H14.25V24.5625C14.25 24.8359 14.4141 25 14.6875 25H17.3125C17.5312 25 17.75 24.8359 17.75 24.5625V21.5H20.8125C21.0312 21.5 21.25 21.3359 21.25 21.0625ZM31.4219 13.4609C31.5859 13.625 31.6953 13.8438 31.6953 14.1172C31.6953 14.3359 31.6406 14.5547 31.4766 14.6641L30.3281 15.9766C30.1641 16.1406 29.9453 16.25 29.6719 16.25C29.4531 16.25 29.2344 16.1953 29.0703 16.0312L16.5469 4.98438C16.3828 4.875 16.2188 4.76562 15.9453 4.76562C15.7266 4.76562 15.5625 4.875 15.3984 4.98438L2.875 16.0312C2.71094 16.1953 2.49219 16.3047 2.27344 16.3047C2 16.3047 1.78125 16.1406 1.61719 15.9766L0.46875 14.6641C0.304688 14.5547 0.195312 14.3359 0.195312 14.1172C0.195312 13.8438 0.359375 13.625 0.523438 13.4609L14.5234 1.10156C14.9062 0.71875 15.3984 0.5 16 0.5C16.5469 0.5 17.0391 0.71875 17.4219 1.10156L31.4219 13.4609Z" fill="#5970F6"/>
</svg>
