<svg width="36" height="29" viewBox="0 0 36 29" fill="none" xmlns="http://www.w3.org/2000/svg">
<path d="M14.4453 14.8281L11.2188 11.6562C10.8906 11.3281 10.8906 10.7266 11.2188 10.3984L14.4453 7.22656C14.7734 6.89844 15.3203 6.89844 15.6484 7.22656L16.25 7.82812C16.6328 8.15625 16.6328 8.75781 16.25 9.08594L14.3359 11L16.25 12.9688C16.6328 13.2969 16.6328 13.8984 16.25 14.2266L15.6484 14.8281C15.3203 15.1562 14.7734 15.1562 14.4453 14.8281ZM19.6953 14.2266C19.3125 13.8984 19.3125 13.2969 19.6953 12.9688L21.6094 11L19.6953 9.08594C19.3125 8.75781 19.3125 8.15625 19.6953 7.82812L20.2969 7.22656C20.625 6.89844 21.1719 6.89844 21.5 7.22656L24.7266 10.3984C25.0547 10.7266 25.0547 11.3281 24.7266 11.6562L21.5 14.8281C21.1719 15.1562 20.625 15.1562 20.2969 14.8281L19.6953 14.2266ZM34.625 23.25C35.0625 23.25 35.5 23.6875 35.5 24.125V25C35.5 26.9688 33.9141 28.5 32 28.5H4C2.03125 28.5 0.5 26.9688 0.5 25V24.125C0.5 23.6875 0.882812 23.25 1.375 23.25H14.4453C14.3906 24.0703 15.2109 25 16.25 25H19.5312C20.5156 25 21.2812 24.3438 21.3359 23.25H34.625ZM32 3.125V21.5H4V3.125C4 1.70312 5.14844 0.5 6.625 0.5H29.375C30.7969 0.5 32 1.70312 32 3.125ZM28.5 18V4H7.5V18H28.5Z" fill="#5970F6"/>
</svg>
