<svg width="32" height="29" viewBox="0 0 32 29" fill="none" xmlns="http://www.w3.org/2000/svg">
<path d="M29.125 17.0156C28.9609 17.6172 28.4141 18 27.8125 18H11.7891L12.1719 19.75H26.8281C27.6484 19.75 28.3047 20.5703 28.0859 21.3906L27.8125 22.7031C28.8516 23.1953 29.5625 24.2344 29.5625 25.4375C29.5625 27.1328 28.1406 28.5 26.5 28.5C24.8047 28.5 23.4375 27.1328 23.4375 25.4375C23.4375 24.6172 23.7656 23.8516 24.3125 23.25H12.8828C13.4297 23.8516 13.8125 24.6172 13.8125 25.4375C13.8125 27.1328 12.3906 28.5 10.75 28.5C9.05469 28.5 7.6875 27.1328 7.6875 25.4375C7.6875 24.3438 8.28906 23.3594 9.21875 22.8125L5.33594 4H1.5625C0.796875 4 0.25 3.45312 0.25 2.6875V1.8125C0.25 1.10156 0.796875 0.5 1.5625 0.5H7.14062C7.74219 0.5 8.28906 0.992188 8.45312 1.59375L8.94531 4H30.3828C31.2578 4 31.8594 4.82031 31.6953 5.64062L29.125 17.0156Z" fill="#5970F6"/>
</svg>
