<svg width="36" height="22" viewBox="0 0 36 22" fill="none" xmlns="http://www.w3.org/2000/svg">
<path d="M34.5156 5.92188C35.7734 6.30469 35.7734 8 34.5156 8.38281L19.2578 13.0859C18.1641 13.4141 17.1797 13.25 16.6875 13.0859L6.02344 9.80469C5.3125 10.2422 4.92969 11.0078 4.875 11.8281C5.36719 12.1016 5.75 12.6484 5.75 13.25C5.75 13.8516 5.42188 14.3438 4.98438 14.6719L6.35156 20.9609C6.46094 21.5078 6.07812 22 5.53125 22H2.41406C1.86719 22 1.48438 21.5078 1.59375 20.9609L2.96094 14.6719C2.52344 14.3438 2.25 13.8516 2.25 13.25C2.25 12.6484 2.57812 12.1016 3.125 11.7734C3.17969 10.8438 3.50781 9.91406 4.10938 9.20312L1.42969 8.38281C0.171875 8 0.171875 6.30469 1.42969 5.92188L16.6875 1.21875C17.5078 0.945312 18.4375 0.945312 19.2578 1.21875L34.5156 5.92188ZM19.75 14.7812L27.6797 12.3203L28.5 18.5C28.5 20.4688 23.7969 22 18 22C12.1484 22 7.5 20.4688 7.5 18.5L8.26562 12.3203L16.1953 14.7812C16.8516 15 18.2188 15.2188 19.75 14.7812Z" fill="#5970F6"/>
</svg>
