<svg width="36" height="29" viewBox="0 0 36 29" fill="none" xmlns="http://www.w3.org/2000/svg">
<path d="M34.1875 11C34.8984 11 35.5 11.6016 35.5 12.3125V26.75C35.5 27.7344 34.6797 28.5 33.75 28.5H2.25C1.26562 28.5 0.5 27.7344 0.5 26.75V7.0625C0.5 6.35156 1.04688 5.75 1.8125 5.75H4V1.375C4 0.9375 4.38281 0.5 4.875 0.5H5.75C6.1875 0.5 6.625 0.9375 6.625 1.375V5.75H10.125V1.375C10.125 0.9375 10.5078 0.5 11 0.5H11.875C12.3125 0.5 12.75 0.9375 12.75 1.375V5.75H16.25V1.8125C16.25 1.10156 16.7969 0.5 17.5625 0.5H25.4375C26.1484 0.5 26.75 1.10156 26.75 1.8125V11H34.1875ZM7.5 22.5938V20.4062C7.5 20.0781 7.17188 19.75 6.84375 19.75H4.65625C4.27344 19.75 4 20.0781 4 20.4062V22.5938C4 22.9766 4.27344 23.25 4.65625 23.25H6.84375C7.17188 23.25 7.5 22.9766 7.5 22.5938ZM7.5 17.3438V15.1562C7.5 14.8281 7.17188 14.5 6.84375 14.5H4.65625C4.27344 14.5 4 14.8281 4 15.1562V17.3438C4 17.7266 4.27344 18 4.65625 18H6.84375C7.17188 18 7.5 17.7266 7.5 17.3438ZM7.5 12.0938V9.90625C7.5 9.57812 7.17188 9.25 6.84375 9.25H4.65625C4.27344 9.25 4 9.57812 4 9.90625V12.0938C4 12.4766 4.27344 12.75 4.65625 12.75H6.84375C7.17188 12.75 7.5 12.4766 7.5 12.0938ZM14.5 22.5938V20.4062C14.5 20.0781 14.1719 19.75 13.8438 19.75H11.6562C11.2734 19.75 11 20.0781 11 20.4062V22.5938C11 22.9766 11.2734 23.25 11.6562 23.25H13.8438C14.1719 23.25 14.5 22.9766 14.5 22.5938ZM14.5 17.3438V15.1562C14.5 14.8281 14.1719 14.5 13.8438 14.5H11.6562C11.2734 14.5 11 14.8281 11 15.1562V17.3438C11 17.7266 11.2734 18 11.6562 18H13.8438C14.1719 18 14.5 17.7266 14.5 17.3438ZM14.5 12.0938V9.90625C14.5 9.57812 14.1719 9.25 13.8438 9.25H11.6562C11.2734 9.25 11 9.57812 11 9.90625V12.0938C11 12.4766 11.2734 12.75 11.6562 12.75H13.8438C14.1719 12.75 14.5 12.4766 14.5 12.0938ZM23.25 17.3438V15.1562C23.25 14.8281 22.9219 14.5 22.5938 14.5H20.4062C20.0234 14.5 19.75 14.8281 19.75 15.1562V17.3438C19.75 17.7266 20.0234 18 20.4062 18H22.5938C22.9219 18 23.25 17.7266 23.25 17.3438ZM23.25 12.0938V9.90625C23.25 9.57812 22.9219 9.25 22.5938 9.25H20.4062C20.0234 9.25 19.75 9.57812 19.75 9.90625V12.0938C19.75 12.4766 20.0234 12.75 20.4062 12.75H22.5938C22.9219 12.75 23.25 12.4766 23.25 12.0938ZM23.25 6.84375V4.65625C23.25 4.32812 22.9219 4 22.5938 4H20.4062C20.0234 4 19.75 4.32812 19.75 4.65625V6.84375C19.75 7.22656 20.0234 7.5 20.4062 7.5H22.5938C22.9219 7.5 23.25 7.22656 23.25 6.84375ZM32 22.5938V20.4062C32 20.0781 31.6719 19.75 31.3438 19.75H29.1562C28.7734 19.75 28.5 20.0781 28.5 20.4062V22.5938C28.5 22.9766 28.7734 23.25 29.1562 23.25H31.3438C31.6719 23.25 32 22.9766 32 22.5938ZM32 17.3438V15.1562C32 14.8281 31.6719 14.5 31.3438 14.5H29.1562C28.7734 14.5 28.5 14.8281 28.5 15.1562V17.3438C28.5 17.7266 28.7734 18 29.1562 18H31.3438C31.6719 18 32 17.7266 32 17.3438Z" fill="#5970F6"/>
</svg>
