<svg width="666" height="844" viewBox="0 0 666 844" fill="none" xmlns="http://www.w3.org/2000/svg">
<g filter="url(#filter0_f_2462_1854)">
<ellipse cx="478.417" cy="371.041" rx="178.123" ry="172.348" transform="rotate(-167.405 478.417 371.041)" fill="#5970F6" fill-opacity="0.2"/>
</g>
<path d="M345.31 340.374C280.518 324.975 235.527 298.329 215.147 267.712C194.765 237.093 199.009 202.535 232.575 171.274C266.14 140.014 322.747 117.9 387.225 107.45C451.7 97.0008 523.986 98.2269 588.778 113.626C653.57 129.025 698.561 155.671 718.941 186.288C739.323 216.907 735.079 251.465 701.513 282.726C667.948 313.986 611.341 336.1 546.863 346.55C482.388 356.999 410.102 355.773 345.31 340.374Z" stroke="#D5DAE1" stroke-width="0.940453"/>
<path d="M381.522 313.363C313.18 297.121 265.723 269.014 244.225 236.718C222.727 204.422 227.201 167.966 262.612 134.988C298.022 102.009 357.737 78.6828 425.749 67.6598C493.759 56.6374 570.006 57.9309 638.348 74.1734C706.69 90.416 754.146 118.523 775.644 150.818C797.143 183.115 792.668 219.57 757.258 252.549C721.848 285.527 662.133 308.854 594.12 319.877C526.11 330.899 449.863 329.606 381.522 313.363Z" stroke="#D5DAE1" stroke-width="0.940453"/>
<defs>
<filter id="filter0_f_2462_1854" x="0.527344" y="-101.624" width="955.779" height="945.33" filterUnits="userSpaceOnUse" color-interpolation-filters="sRGB">
<feFlood flood-opacity="0" result="BackgroundImageFix"/>
<feBlend mode="normal" in="SourceGraphic" in2="BackgroundImageFix" result="shape"/>
<feGaussianBlur stdDeviation="150" result="effect1_foregroundBlur_2462_1854"/>
</filter>
</defs>
</svg>
