<svg width="652" height="843" viewBox="0 0 652 843" fill="none" xmlns="http://www.w3.org/2000/svg">
<g filter="url(#filter0_f_2610_7324)">
<ellipse cx="478.417" cy="370.042" rx="178.123" ry="172.348" transform="rotate(-167.405 478.417 370.042)" fill="#5970F6" fill-opacity="0.2"/>
</g>
<path d="M351.071 611.64C221.55 552.057 171.131 405.413 238.421 284.113C305.711 162.813 465.249 112.753 594.771 172.335C724.292 231.918 774.711 378.562 707.421 499.862C640.131 621.162 480.593 671.222 351.071 611.64Z" stroke="#D5DAE1" stroke-width="0.940453"/>
<path d="M387.283 559.358C250.662 496.51 197.479 341.828 268.458 213.878C339.437 85.9281 507.72 33.1246 644.341 95.9727C780.961 158.821 834.144 313.503 763.165 441.453C692.186 569.403 523.903 622.206 387.283 559.358Z" stroke="#D5DAE1" stroke-width="0.940453"/>
<defs>
<filter id="filter0_f_2610_7324" x="0.527344" y="-102.623" width="955.779" height="945.33" filterUnits="userSpaceOnUse" color-interpolation-filters="sRGB">
<feFlood flood-opacity="0" result="BackgroundImageFix"/>
<feBlend mode="normal" in="SourceGraphic" in2="BackgroundImageFix" result="shape"/>
<feGaussianBlur stdDeviation="150" result="effect1_foregroundBlur_2610_7324"/>
</filter>
</defs>
</svg>
