<svg width="32" height="32" viewBox="0 0 32 32" fill="none" xmlns="http://www.w3.org/2000/svg">
<path d="M23.0034 2.65198H8.99805C6.79271 2.65198 4.99805 4.44664 4.99805 6.65198V28.0133C4.99805 28.5026 5.26605 28.952 5.69538 29.1853C6.12471 29.4186 6.64605 29.3986 7.05805 29.1306L11.1647 26.4573L15.2714 29.1306C15.4927 29.2746 15.746 29.3466 15.9994 29.3466C16.2527 29.3466 16.506 29.2746 16.7274 29.1306L20.834 26.4573L24.9407 29.1306C25.3527 29.3986 25.8767 29.4186 26.3034 29.1853C26.7327 28.952 27.0007 28.5026 27.0007 28.0133V6.65198C27.0034 4.44664 25.2087 2.65198 23.0034 2.65198ZM21.3647 18.6653H10.6367C9.89938 18.6653 9.30338 18.068 9.30338 17.332C9.30338 16.596 9.89938 15.9986 10.6367 15.9986H21.366C22.1034 15.9986 22.6994 16.596 22.6994 17.332C22.6994 18.068 22.102 18.6653 21.3647 18.6653ZM21.3647 13.3253H10.6367C9.89938 13.3253 9.30338 12.728 9.30338 11.992C9.30338 11.256 9.89938 10.6586 10.6367 10.6586H21.366C22.1034 10.6586 22.6994 11.256 22.6994 11.992C22.6994 12.728 22.102 13.3253 21.3647 13.3253Z" fill="#5970F6"/>
</svg>
