<svg width="32" height="32" viewBox="0 0 32 32" fill="none" xmlns="http://www.w3.org/2000/svg">
<path d="M26.3678 2.65869H5.63178C4.00111 2.65869 2.67578 3.98536 2.67578 5.61469V16.5694H29.3238V5.61469C29.3238 3.98402 27.9984 2.65869 26.3678 2.65869ZM18.2051 13.9734C17.8638 13.9734 17.5224 13.8427 17.2624 13.5827C16.7411 13.0614 16.7411 12.2187 17.2624 11.6974L23.6744 5.29203C24.1958 4.77203 25.0384 4.77069 25.5598 5.29336C26.0811 5.81469 26.0811 6.65736 25.5598 7.17869L19.1478 13.584C18.8878 13.844 18.5464 13.9734 18.2051 13.9734ZM26.4958 12.4974L24.8198 14.168C24.5598 14.428 24.2198 14.5574 23.8784 14.5574C23.5358 14.5574 23.1944 14.4267 22.9344 14.1654C22.4144 13.644 22.4158 12.8 22.9371 12.28L24.6131 10.6094C25.1344 10.0894 25.9771 10.0907 26.4984 10.612C27.0184 11.1334 27.0171 11.9774 26.4958 12.4974Z" fill="#5970F6"/>
<path d="M2.67578 21.1361C2.67578 22.7668 4.00111 24.0921 5.63178 24.0921H11.6678V26.6667H10.1198C9.38245 26.6667 8.78645 27.2641 8.78645 28.0001C8.78645 28.7361 9.38245 29.3334 10.1198 29.3334H21.8798C22.6171 29.3334 23.2131 28.7361 23.2131 28.0001C23.2131 27.2641 22.6171 26.6667 21.8798 26.6667H20.3318V24.0921H26.3678C27.9984 24.0921 29.3238 22.7654 29.3238 21.1361V19.2361H2.67578V21.1361Z" fill="#5970F6"/>
</svg>
