<svg width="32" height="32" viewBox="0 0 32 32" fill="none" xmlns="http://www.w3.org/2000/svg">
<path d="M20.2229 14.184C19.5069 14.5534 18.8349 15.5134 18.4883 16.5707H25.2763C24.9309 15.516 24.2576 14.556 23.5389 14.184C23.1376 13.976 22.8696 13.58 22.8256 13.1307C22.7816 12.6827 22.9669 12.2414 23.3189 11.9587C23.8803 11.5107 24.2016 10.852 24.2016 10.1547C24.2016 8.87471 23.1616 7.83337 21.8816 7.83337C20.6016 7.83337 19.5603 8.87337 19.5603 10.1534C19.5603 10.8507 19.8816 11.508 20.4429 11.9574C20.7963 12.2387 20.9816 12.68 20.9376 13.1307C20.8936 13.58 20.6243 13.976 20.2229 14.184Z" fill="#5970F6"/>
<path d="M26.3678 2.65869H5.63178C4.00111 2.65869 2.67578 3.98536 2.67578 5.61469V16.5694H3.98645C4.25845 15.2947 4.89178 13.864 5.90911 12.8147C5.40378 12.028 5.12911 11.1094 5.12911 10.1534C5.12911 7.40269 7.36778 5.16536 10.1184 5.16536C12.8678 5.16536 15.1051 7.40269 15.1051 10.1534C15.1051 11.1094 14.8304 12.0267 14.3264 12.8147C15.1091 13.62 15.6544 14.6534 15.9998 15.6667C16.3451 14.6534 16.8904 13.62 17.6704 12.816C17.1664 12.028 16.8918 11.1107 16.8918 10.1547C16.8918 7.40402 19.1304 5.16669 21.8798 5.16669C24.6291 5.16669 26.8664 7.40402 26.8664 10.1547C26.8664 11.1107 26.5918 12.028 26.0878 12.816C27.1091 13.8667 27.7411 15.2974 28.0118 16.5707H29.3211V5.61469C29.3238 3.98402 27.9984 2.65869 26.3678 2.65869Z" fill="#5970F6"/>
<path d="M2.67578 21.1361C2.67578 22.7668 4.00111 24.0921 5.63178 24.0921H11.6678V26.6667H10.1198C9.38245 26.6667 8.78645 27.2641 8.78645 28.0001C8.78645 28.7361 9.38245 29.3334 10.1198 29.3334H21.8798C22.6171 29.3334 23.2131 28.7361 23.2131 28.0001C23.2131 27.2641 22.6171 26.6667 21.8798 26.6667H20.3318V24.0921H26.3678C27.9984 24.0921 29.3238 22.7654 29.3238 21.1361V19.2361H2.67578V21.1361Z" fill="#5970F6"/>
<path d="M8.46061 14.184C7.74461 14.5534 7.07261 15.5134 6.72461 16.5707H13.5126C13.1673 15.516 12.4953 14.556 11.7753 14.184C11.3739 13.976 11.1059 13.58 11.0619 13.1307C11.0179 12.6814 11.2033 12.24 11.5553 11.9574C12.1179 11.508 12.4393 10.8507 12.4393 10.1534C12.4393 8.87336 11.3993 7.83203 10.1193 7.83203C8.83794 7.83203 7.79661 8.87336 7.79661 10.1534C7.79661 10.8507 8.11794 11.508 8.68061 11.956C9.03394 12.2374 9.21928 12.6787 9.17528 13.1294C9.13128 13.58 8.86061 13.976 8.46061 14.184Z" fill="#5970F6"/>
</svg>
