<svg width="28" height="28" viewBox="0 0 28 28" fill="none" xmlns="http://www.w3.org/2000/svg">
<path d="M27.2557 10.0093C26.917 7.40397 24.6997 5.3773 21.993 5.3773H19.493V4.66797C19.493 2.46264 17.6984 0.667969 15.493 0.667969H12.4944C10.289 0.667969 8.49437 2.46264 8.49437 4.66797V5.37597H5.99571C3.29438 5.37597 1.07971 7.40264 0.734375 10.0106L13.989 15.9L27.2557 10.0093ZM11.1624 4.66797C11.1624 3.9333 11.7597 3.33464 12.4957 3.33464H15.4944C16.229 3.33464 16.8277 3.93197 16.8277 4.66797V5.37597H11.1624V4.66797Z" fill="#5970F6"/>
<path d="M27.3267 12.896L14.5307 18.58C14.3587 18.656 14.1734 18.6947 13.9894 18.6947C13.8054 18.6947 13.6201 18.656 13.4481 18.58L0.664062 12.9V21.9987C0.664062 24.94 3.05606 27.332 5.99606 27.332H21.9921C24.9387 27.332 27.3361 24.94 27.3361 21.9987L27.3267 12.896Z" fill="#5970F6"/>
</svg>
