<svg width="676" height="452" viewBox="0 0 676 452" fill="none" xmlns="http://www.w3.org/2000/svg">
<path d="M467.74 388.228C450.522 388.228 433.305 388.228 416.058 388.228C397.222 388.228 378.387 388.228 359.58 388.228C340.08 388.228 320.551 388.228 301.051 388.228C282.1 388.228 263.12 388.228 244.169 388.228C226.691 388.228 209.185 388.228 191.707 388.228C189.742 388.228 187.749 388.228 185.785 388.228C185.236 388.228 185.236 389.097 185.785 389.097C203.002 389.097 220.22 389.097 237.467 389.097C256.302 389.097 275.138 389.097 293.945 389.097C313.445 389.097 332.974 389.097 352.474 389.097C371.425 389.097 390.405 389.097 409.356 389.097C426.834 389.097 444.34 389.097 461.818 389.097C463.782 389.097 465.776 389.097 467.74 389.097C468.289 389.097 468.289 388.228 467.74 388.228Z" fill="black"/>
<path d="M441.22 361.223C441.22 361.223 443.214 364.671 449.743 364.382C456.272 364.092 470.427 355.11 475.252 351.024C480.076 346.91 480.856 339.261 477.967 338.015C475.078 336.74 472.478 333.582 460.027 336.305C447.576 339 435.269 356.095 441.22 361.223Z" fill="#FFDCDA"/>
<path d="M441.104 361.513C441.104 361.513 447.286 359.601 453.959 349.286C460.632 338.971 467.912 337.522 473.026 337.406C478.139 337.29 480.132 340.593 479.468 343.752C478.399 348.909 468.172 359.977 458.061 363.02C447.921 366.062 443.299 363.657 441.104 361.513Z" fill="black"/>
<path d="M452.717 352.067C452.717 352.067 463.348 376.841 463.955 376.841C464.562 376.841 468.606 376.87 473.286 370.843C477.995 364.845 477.966 359.977 477.966 359.977L465.342 336.943C465.342 336.972 451.244 348.62 452.717 352.067Z" fill="#FFE4D9"/>
<path d="M425.938 89.2409C425.909 89.154 422.471 84.8658 422.182 80.056C421.893 75.2753 425.158 68.8719 426.169 67.9737C427.209 67.0755 430.358 65.0763 430.358 65.0763C430.358 65.0763 434.604 61.1068 438.418 60.1217C442.26 59.1366 450.667 60.3535 454.595 61.8312C458.524 63.3089 460.518 65.8876 461.182 67.0466C461.847 68.2055 461.904 69.3645 463.175 69.7991C464.447 70.2048 465.169 69.8281 465.255 70.2337C465.342 70.6394 463.291 72.5227 463.349 72.9573C463.407 73.3919 466.353 73.9135 466.931 74.493C467.509 75.0725 464.995 76.8109 463.898 77.1296C462.8 77.4484 462.164 77.5353 462.164 77.5353C462.164 77.5353 463.031 80.0561 461.442 81.9104C459.853 83.7937 457.86 85.6771 457.86 85.6771C457.86 85.6771 426.747 93.9927 425.938 89.2409Z" fill="#6D4E4D"/>
<path d="M426.053 103.554C426.053 103.554 427.844 101.497 428.739 99.8167C429.606 98.1361 429.895 95.0069 429.895 95.0069C429.895 95.0069 427.497 93.732 426.631 90.8636C425.764 87.9951 426.862 85.909 428.104 85.2426C429.317 84.5472 431.108 85.9379 431.108 85.9379C431.108 85.9379 434.373 82.8377 436.395 80.0851C438.446 77.3326 439.746 73.6818 440.439 72.349C441.133 71.0161 443.155 71.7695 443.155 71.7695C443.155 71.7695 449.482 75.5651 451.677 76.2605C453.873 76.9559 458.322 77.4774 458.553 77.7961C458.784 78.1149 458.784 81.6787 458.611 82.9246C458.466 84.1705 457.339 89.5597 457.282 90.342C457.224 91.1243 456.819 96.7454 455.866 98.1941C454.913 99.6428 450.55 103.757 448.702 104.916C446.853 106.075 444.599 106.452 442.75 106.133C442.028 106.017 442.115 106.539 440.699 106.51C438.417 106.481 434.373 105.959 432.871 105.641C431.166 105.293 426.833 104.076 426.053 103.554Z" fill="#FFE4D9"/>
<path d="M422.039 103.323C422.039 103.323 418.63 105.959 417.561 106.249C416.492 106.539 404.012 108.915 403.839 109.03C403.665 109.146 397.656 110.624 394.854 112.594C392.052 114.565 390.03 117.839 389.25 118.911C388.47 119.983 385.552 128.298 384.483 131.051C383.443 133.804 379.861 147.103 379.861 147.103C379.861 147.103 375.239 163.676 374.661 165.038C374.083 166.4 371.743 172.253 370.27 173.962C368.796 175.643 365.272 181.582 364.954 182.973C364.608 184.364 365.965 185.928 366.572 187.174C367.179 188.42 375.845 195.142 380.756 197.779C385.668 200.416 396.328 205.08 405.254 207.225C414.181 209.369 420.132 207.891 420.854 207.311C421.576 206.732 422.761 204.298 423.108 203.4C423.454 202.502 430.734 182.278 430.734 182.278L432.439 176.801L438.476 170.746L438.679 175.99L444.919 172.687C444.919 172.687 455.001 167.327 458.265 166.11C461.53 164.893 467.048 162.633 467.048 162.633C467.048 162.633 469.763 159.649 469.763 158.229C469.763 156.809 462.974 132.036 462.223 130.153C461.472 128.269 461.328 122.822 459.623 120.823C457.919 118.824 446.045 110.218 445.265 109.552C444.485 108.915 445.872 108.422 444.948 107.698C444.023 106.944 435.183 106.017 432.872 105.611C430.561 105.206 424.379 101.903 422.039 103.323Z" fill="#AEB8F0"/>
<path d="M409.153 168.457C408.865 168.428 402.393 170.195 397.482 173.035C392.571 175.903 387.082 179.178 387.169 179.438C387.256 179.699 389.769 191.231 399.331 192.013C408.893 192.824 410.8 189.029 416.838 185.9C422.876 182.77 438.505 172.542 438.505 172.542C438.505 172.542 438.851 180.771 441.047 185.059C443.242 189.348 446.738 191.463 450.638 190.767C454.538 190.072 467.827 182.365 469.531 180.597C471.265 178.859 473.951 177.091 475.713 176.483C477.476 175.874 481.636 174.715 483.629 172.369C485.593 170.022 487.038 166.545 486.258 163.415C485.911 162.054 484.64 160.489 483.716 159.156C482.531 157.447 481.607 156.056 480.422 155.361C478.342 154.115 476.233 153.796 474.125 154.665C472.016 155.534 469.127 158.838 468.289 160.721C467.451 162.604 466.873 162.836 466.873 162.836C466.873 162.836 455.665 166.834 454.74 167.24C453.816 167.646 439.14 175.382 439.14 175.382L438.533 172.513C438.533 172.513 452.573 162.952 454.047 161.503C455.52 160.054 455.52 160.083 455.52 160.083C455.462 160.112 461.356 158.432 463.233 156.693C464.822 155.216 465.891 154.057 467.682 153.043C467.682 153.043 467.682 154.202 469.56 153.941C471.438 153.709 475.02 152.463 475.685 150.522C476.378 148.581 474.933 146.639 474.933 146.639C474.933 146.639 475.136 144.901 474.847 144.379C473.98 142.757 472.796 143.191 472.796 143.191C472.796 143.191 473.98 141.743 472.796 140.815C471.611 139.888 470.022 139.83 470.022 139.83C470.022 139.83 470.282 138.208 468.173 137.976C466.036 137.744 462.28 138.121 459.449 139.83C456.647 141.54 448.5 151.13 447.142 152.289C445.813 153.477 428.307 160.46 428.307 160.46L411.696 167.906L409.153 168.457Z" fill="#FFE4D9"/>
<path d="M365.444 185.436C365.444 185.436 360.937 194.36 360.244 203.777C359.55 213.193 360.793 214.033 360.793 214.033L354.726 237.068C354.726 237.068 352.646 242.747 350.855 245.094C349.035 247.441 276.639 331.525 276.639 331.525C276.639 331.525 272.913 335.03 273.461 336.16C274.01 337.261 277.044 339.84 280.164 342.535C283.284 345.2 299.606 352.415 305.268 349.807C310.959 347.2 310.901 346.128 314.224 342.825C317.546 339.492 358.741 293.394 358.741 293.394C358.741 293.394 373.099 276.763 377.548 273.315C381.997 269.838 386.59 263.203 387.977 260.421C389.364 257.64 390.808 251.7 390.808 251.7C390.808 251.7 401.728 261.696 401.93 264.072C402.133 266.448 422.441 320.398 422.441 320.398C422.441 320.398 436.799 358.587 439.977 360.847C443.155 363.107 451.619 354.791 455.057 348.851C458.495 342.911 467.161 336.682 471.379 337.29C475.597 337.899 479.439 339.985 479.439 339.985L452.197 279.429C452.197 279.429 441.681 254.076 437.29 248.281C432.87 242.486 411.926 218.38 411.926 218.38L417.473 208.297C417.473 208.297 394.997 208.326 380.784 197.721C380.784 197.779 367.581 190.97 365.444 185.436Z" fill="#635353"/>
<path d="M276.235 339.753L270.486 346.099C270.486 346.099 273.057 351.778 276.235 351.836C279.413 351.894 282.157 350.416 284.844 350.88C287.531 351.343 288.831 351.836 288.831 351.836L292.5 348.388C292.471 348.388 279.673 343.404 276.235 339.753Z" fill="#FFE4D9"/>
<path d="M277.16 340.594C277.16 340.594 286.26 348.561 289.64 349.952L292.471 348.388L277.16 340.594Z" fill="black"/>
<path d="M452.719 352.067L455.088 356.906C455.088 356.906 455.608 352.125 459.652 346.504C463.697 340.854 467.394 340.738 467.394 340.738L466.643 339.058C466.643 339.029 460.172 339.724 452.719 352.067Z" fill="black"/>
<path d="M397.223 205.399C397.223 205.399 409.674 211.6 415.769 210.499L417.445 208.355C417.445 208.355 404.82 208.731 397.223 205.399Z" fill="black"/>
<path d="M363.855 187.783C363.855 187.783 372.898 195.925 378.82 197.228C378.82 197.228 368.333 191.318 365.444 185.436L363.855 187.783Z" fill="black"/>
<path d="M387.168 179.757L388.15 182.77C388.15 182.77 394.506 176.57 396.817 175.005C399.128 173.441 401.237 171.76 401.237 171.76L387.168 179.757Z" fill="black"/>
<path d="M449.886 170.543C455.549 168.341 461.384 166.69 467.364 165.618C468.029 165.502 467.74 164.488 467.075 164.603C461.095 165.675 455.231 167.327 449.597 169.529C448.991 169.761 449.251 170.775 449.886 170.543Z" fill="black"/>
<path d="M412.417 137.483C412.417 137.483 411.695 159.33 411.348 163.126C411.001 166.921 409.99 168.109 409.99 168.109L410.452 168.805L413.312 166.805L412.417 137.483Z" fill="black"/>
<path d="M441.826 155.187C441.826 155.187 444.455 154.288 444.455 153.564C444.455 152.84 447.344 140.583 447.344 140.583L441.826 155.187Z" fill="black"/>
<path d="M244.198 267.028C294.951 267.028 336.094 225.763 336.094 174.86C336.094 123.958 294.951 82.6929 244.198 82.6929C193.446 82.6929 152.303 123.958 152.303 174.86C152.303 225.763 193.446 267.028 244.198 267.028Z" fill="white"/>
<path d="M244.199 267.694C193.152 267.694 151.639 226.058 151.639 174.86C151.639 123.663 193.152 82.0264 244.199 82.0264C295.245 82.0264 336.759 123.663 336.759 174.86C336.759 226.058 295.245 267.694 244.199 267.694ZM244.199 83.3302C193.874 83.3302 152.939 124.387 152.939 174.86C152.939 225.334 193.874 266.39 244.199 266.39C294.523 266.39 335.459 225.334 335.459 174.86C335.459 124.387 294.523 83.3302 244.199 83.3302Z" fill="black"/>
<path d="M244.198 257.901C289.925 257.901 326.993 220.722 326.993 174.86C326.993 128.998 289.925 91.8198 244.198 91.8198C198.471 91.8198 161.402 128.998 161.402 174.86C161.402 220.722 198.471 257.901 244.198 257.901Z" fill="#5970F6"/>
<path d="M464.996 137.918C464.505 136.498 464.043 135.049 463.638 133.601C462.887 130.993 462.165 128.327 461.934 125.604C461.443 120.128 456.531 116.738 452.285 113.985C450.436 112.768 448.558 111.58 446.68 110.392C446.391 110.218 446.103 110.016 445.814 109.842C445.698 109.784 445.351 109.639 445.294 109.523C445.265 109.436 445.409 109.001 445.438 108.886C445.496 108.625 445.554 108.335 445.525 108.074C445.525 107.727 445.438 107.408 445.178 107.147C444.774 106.77 444.138 106.684 443.647 106.626C442.665 106.481 441.683 106.423 440.671 106.307C437.869 106.046 435.125 105.756 432.438 104.974C430.04 104.279 427.671 103.38 425.245 102.801C424.465 102.627 423.627 102.424 422.818 102.482C421.865 102.569 421.2 103.438 420.449 103.931C419.669 104.453 418.86 105.119 417.965 105.409C416.723 105.843 415.423 106.162 414.123 106.423C410.916 107.118 407.68 107.582 404.503 108.306C398.985 109.552 393.785 111.841 390.289 116.448C387.949 119.519 386.447 123.286 385.205 126.937C383.963 130.529 383.125 134.267 382.114 137.947C380.351 144.321 378.589 150.725 376.856 157.099C375.874 160.721 374.92 164.4 373.476 167.848C372.667 169.79 371.454 171.528 370.211 173.238C368.68 175.324 367.063 177.381 365.734 179.612C364.983 180.858 364 182.48 364.405 184.016C364.607 184.769 364.954 185.523 365.358 186.189C366.86 188.71 369.085 190.738 371.367 192.535C375.7 195.925 380.554 198.561 385.523 200.879C391.734 203.777 398.205 206.326 404.907 207.862C408.778 208.76 412.88 209.398 416.838 208.963C418.456 208.789 420.623 208.499 421.865 207.254C422.356 206.79 422.616 206.066 422.876 205.486C423.454 204.211 423.945 202.907 424.436 201.604C426.256 196.794 427.903 191.926 429.578 187.058C430.734 183.697 431.889 180.336 433.016 176.975C433.218 176.338 432.236 176.077 432.005 176.686C429.896 182.857 427.816 189.029 425.649 195.171C424.494 198.445 423.396 201.777 421.98 204.965C421.807 205.341 421.634 205.718 421.431 206.066C421.374 206.182 421.316 206.297 421.229 206.384C421.143 206.5 421.229 206.384 421.229 206.413C421.2 206.442 421.171 206.5 421.114 206.529C420.94 206.703 420.883 206.732 420.565 206.935C420.189 207.138 419.987 207.225 419.611 207.34C417.04 208.239 414.123 208.152 411.465 207.92C406.005 207.427 400.66 205.834 395.547 203.95C389.22 201.633 383.009 198.851 377.26 195.345C373.967 193.346 370.731 191.057 368.131 188.188C366.976 186.914 365.676 185.291 365.358 183.639C365.243 182.973 365.531 182.307 365.791 181.698C366.254 180.713 366.831 179.786 367.438 178.888C368.854 176.773 370.414 174.802 371.887 172.716C372.985 171.151 373.938 169.558 374.66 167.761C375.267 166.255 375.758 164.719 376.22 163.184C377.723 158.287 378.994 153.303 380.351 148.349C381.911 142.641 383.5 136.962 385.031 131.254C385.754 128.559 386.649 125.98 387.718 123.402C388.643 121.2 389.683 119.027 391.127 117.114C392.571 115.202 394.594 113.464 396.76 112.218C402.249 109.117 408.778 108.712 414.816 107.379C416.029 107.118 417.243 106.828 418.427 106.394C419.236 106.104 419.987 105.554 420.709 105.061C421.258 104.713 421.778 104.337 422.269 103.902C422.587 103.641 422.587 103.554 422.991 103.496C423.829 103.409 424.725 103.699 425.534 103.902C427.903 104.539 430.214 105.38 432.583 106.046C435.183 106.799 437.869 107.031 440.556 107.292C441.538 107.379 442.52 107.437 443.503 107.582C443.763 107.611 444.051 107.669 444.311 107.756C444.427 107.814 444.369 107.785 444.485 107.814C444.571 107.843 444.543 107.785 444.543 107.871C444.543 107.669 444.543 107.987 444.543 107.987C444.543 108.161 444.514 108.335 444.485 108.538C444.427 108.828 444.34 109.117 444.34 109.436C444.34 109.871 444.514 110.16 444.889 110.392C445.38 110.711 445.871 110.972 446.363 111.29C448.211 112.449 450.06 113.637 451.88 114.825C453.931 116.158 455.954 117.491 457.658 119.229C458.698 120.273 459.651 121.46 460.287 122.793C460.865 123.981 460.923 125.198 461.096 126.502C461.443 129.139 462.136 131.746 462.858 134.296C463.234 135.6 463.638 136.875 464.071 138.15C464.216 138.816 465.227 138.555 464.996 137.918Z" fill="black"/>
<path d="M384.626 134.412C383.961 138.99 383.788 143.655 383.673 148.291C383.528 153.419 383.528 158.548 383.499 163.676C383.47 167.617 383.21 171.586 383.586 175.527C383.73 177.062 383.875 179.206 384.944 180.423C385.55 181.119 386.244 180.771 386.966 180.423C389.739 179.091 392.281 177.265 394.91 175.672C398.261 173.614 401.728 171.557 405.397 170.166C406.148 169.877 406.899 169.616 407.65 169.442C408.228 169.297 408.864 169.297 409.441 169.123C410.25 168.892 410.684 168.051 410.944 167.327C411.406 166.168 411.608 164.893 411.781 163.676C412.041 161.88 412.157 160.054 412.273 158.229C412.879 147.653 412.706 137.049 413.486 126.473C413.573 125.111 413.688 123.75 413.833 122.388C413.89 121.721 412.85 121.721 412.793 122.388C411.781 132.963 411.81 143.597 411.435 154.202C411.319 157.794 411.233 161.474 410.539 165.009C410.366 165.936 410.164 166.979 409.615 167.762C409.557 167.849 409.499 167.935 409.355 168.051C409.326 168.08 409.181 168.167 409.124 168.167C409.037 168.196 408.69 168.225 408.459 168.254C408.084 168.312 407.737 168.399 407.361 168.486C403.866 169.355 400.601 171.21 397.481 172.977C394.419 174.744 391.473 176.657 388.439 178.453C387.659 178.917 386.735 179.554 385.897 179.786C385.839 179.815 385.753 179.815 385.695 179.844C385.608 179.873 385.666 179.844 385.666 179.844C385.666 179.815 385.781 179.873 385.781 179.873C385.781 179.902 385.666 179.757 385.608 179.67C385.175 179.091 385.001 178.25 384.857 177.555C384.106 173.875 384.424 170.051 384.453 166.342C384.568 156.78 384.308 147.19 385.233 137.657C385.319 136.672 385.435 135.687 385.579 134.702C385.724 134.035 384.713 133.746 384.626 134.412Z" fill="black"/>
<path d="M449.77 131.66C446.853 139.425 443.848 147.161 441.306 155.042C441.104 155.679 442.115 155.969 442.317 155.332C444.859 147.451 447.864 139.714 450.781 131.949C451.013 131.312 450.001 131.022 449.77 131.66Z" fill="black"/>
<path d="M387.025 180.163C387.863 185.523 391.127 190.159 396.24 192.158C398.407 192.998 400.776 193.317 403.087 193.027C405.514 192.737 407.68 191.665 409.876 190.593C415.943 187.638 421.778 184.132 427.498 180.568C433.623 176.773 439.66 172.832 445.583 168.718C447.865 167.124 450.147 165.473 452.343 163.792C453.325 163.039 454.336 162.314 455.26 161.503C455.289 161.474 455.347 161.445 455.376 161.387C455.896 160.953 455.145 160.228 454.654 160.663C452.256 162.662 449.714 164.516 447.171 166.342C441.567 170.369 435.789 174.136 429.954 177.845C424.234 181.466 418.427 185.001 412.418 188.159C410.136 189.376 407.767 190.709 405.311 191.521C403.203 192.216 400.949 192.303 398.783 191.839C396.24 191.318 393.843 190.043 392.023 188.188C389.798 185.957 388.556 183.002 388.065 179.902C387.92 179.235 386.909 179.496 387.025 180.163Z" fill="black"/>
<path d="M399.533 176.106C401.642 173.875 404.415 172.455 407.131 171.036C410.02 169.558 412.937 168.167 415.913 166.805C421.951 164.053 428.046 161.474 434.2 158.982C437.666 157.563 441.133 156.172 444.629 154.81C445.235 154.578 444.975 153.564 444.34 153.796C431.946 158.722 419.437 163.618 407.506 169.674C404.444 171.238 401.209 172.803 398.811 175.353C398.32 175.874 399.071 176.599 399.533 176.106Z" fill="black"/>
<path d="M364.608 185.726C362.99 188.304 362.181 191.549 361.401 194.476C360.563 197.605 359.985 200.792 359.783 204.037C359.379 210.846 360.881 217.597 364.203 223.566C366.948 228.492 370.703 232.867 374.603 236.865C379.139 241.53 383.992 245.876 388.701 250.367C392.63 254.134 396.501 258.104 399.968 262.305C400.545 263 401.181 263.725 401.585 264.565C401.614 264.652 401.557 264.478 401.614 264.652C401.643 264.739 401.672 264.826 401.73 264.913C401.817 265.144 401.903 265.376 401.99 265.608C403.521 269.635 404.937 273.721 406.381 277.777C408.808 284.586 411.234 291.366 413.69 298.146C416.55 306.027 419.41 313.879 422.385 321.702C425.13 328.975 427.903 336.218 430.879 343.375C432.959 348.388 435.01 353.458 437.639 358.181C438.274 359.34 438.968 360.644 439.95 361.542C440.239 361.803 440.614 362.035 441.019 362.035C441.885 362.006 442.925 361.339 443.677 360.963C444.89 360.354 446.017 359.63 447.057 358.789C451.621 355.197 454.568 349.894 458.468 345.664C460.981 342.94 463.812 339.898 467.365 338.594C469.965 337.638 472.768 337.638 475.397 338.42C476.494 338.768 477.65 339.203 478.603 339.869C478.777 339.985 479.094 339.956 479.239 339.782C479.672 339.29 479.441 338.449 479.297 337.899C479.008 336.769 478.603 335.668 478.199 334.567C476.783 330.771 475.108 327.092 473.461 323.383C468.925 313.242 464.101 303.217 459.305 293.192C455.261 284.76 451.101 276.386 447.432 267.781C444.659 261.349 442.117 254.772 438.274 248.89C434.779 243.558 430.417 238.807 426.17 234.055C419.179 226.261 412.072 218.583 404.879 210.962C404.734 210.817 404.619 210.673 404.474 210.528C404.012 210.035 403.29 210.788 403.752 211.252C409.905 217.771 415.972 224.319 421.981 230.955C425.997 235.359 430.07 239.763 433.768 244.428C438.159 249.933 441.337 256.046 444.081 262.508C446.248 267.549 448.357 272.591 450.697 277.545C452.545 281.486 454.452 285.426 456.33 289.367C461.125 299.363 465.921 309.33 470.514 319.384C472.392 323.47 474.241 327.584 475.974 331.756C476.581 333.205 477.159 334.683 477.679 336.16C477.852 336.682 478.025 337.204 478.199 337.754C478.257 337.957 478.314 338.16 478.343 338.363C478.372 338.478 478.43 338.855 478.43 338.768C478.43 338.884 478.43 339 478.459 339.116C478.401 339.058 478.488 339.232 478.459 339.116C478.459 339.145 478.459 339.087 478.517 339L479.152 338.913C476.148 336.885 471.959 336.276 468.492 337.117C465.025 337.957 462.252 340.333 459.739 342.825C457.399 345.114 455.319 347.663 453.297 350.271C451.621 352.415 450.003 354.617 448.039 356.501C447.085 357.428 446.074 358.268 444.948 358.992C444.37 359.369 443.763 359.717 443.128 360.035C442.405 360.383 441.654 360.615 440.932 360.963C440.903 360.963 440.903 360.963 440.932 360.963C440.701 360.818 440.759 360.905 440.614 360.731C440.181 360.325 439.979 360.006 439.661 359.543C437.119 355.747 435.357 351.314 433.565 347.142C430.677 340.449 428.019 333.64 425.419 326.802C422.443 319.066 419.583 311.272 416.723 303.477C414.123 296.321 411.552 289.164 408.981 281.978C407.248 277.111 405.514 272.214 403.723 267.346C403.319 266.245 402.943 265.115 402.481 264.043C402.192 263.377 401.701 262.797 401.239 262.218C399.708 260.277 398.003 258.422 396.328 256.626C392.052 252.019 387.488 247.731 382.923 243.414C378.879 239.589 374.805 235.764 371.194 231.534C366.919 226.522 363.337 220.929 361.719 214.468C360.101 207.978 360.65 201.227 362.354 194.795C363.134 191.926 363.914 188.71 365.503 186.16C365.85 185.697 364.954 185.175 364.608 185.726Z" fill="black"/>
<path d="M360.447 213.28C359.147 218.38 357.876 223.479 356.576 228.55C355.709 231.969 354.814 235.388 353.658 238.691C353.052 240.4 352.358 242.081 351.318 243.587C350.74 244.457 350.076 245.326 349.469 246.108C347.216 249.006 344.876 251.816 342.536 254.627C339.214 258.625 335.863 262.595 332.483 266.535C328.496 271.2 324.509 275.865 320.494 280.501C316.247 285.426 312 290.323 307.725 295.22C303.652 299.885 299.578 304.549 295.505 309.214C291.952 313.271 288.427 317.327 284.874 321.355C282.303 324.281 279.732 327.236 277.132 330.163C275.889 331.554 274.676 332.944 273.434 334.364C271.152 337.03 276.149 340.478 277.912 341.695C280.772 343.665 283.892 345.258 287.098 346.62C290.507 348.069 294.06 349.257 297.729 349.923C299.376 350.242 301.052 350.445 302.756 350.474C303.738 350.474 304.836 350.503 305.789 350.213C306.829 349.894 307.754 349.199 308.592 348.533C311.827 346.07 314.687 343.143 317.518 340.246C321.649 336.016 325.665 331.64 329.623 327.236C334.216 322.137 338.723 317.008 343.258 311.851C347.736 306.751 352.185 301.623 356.692 296.495C360.505 292.148 364.318 287.773 368.218 283.485C370.732 280.704 373.274 277.864 376.047 275.343C381.449 270.389 386.765 264.826 389.769 258.017C389.972 257.553 390.145 257.089 390.318 256.626C390.867 255.177 390.954 253.381 391.329 251.816C391.474 251.15 390.463 250.889 390.318 251.526C389.972 253.12 389.914 254.829 389.307 256.365C389.105 256.858 388.96 257.292 388.729 257.756C387.487 260.45 385.869 263 384.078 265.347C381.42 268.824 378.329 271.808 375.123 274.764C373.938 275.865 372.812 277.024 371.714 278.183C368.334 281.747 365.069 285.397 361.834 289.077C357.616 293.858 353.427 298.668 349.238 303.477C344.732 308.664 340.196 313.821 335.66 318.979C331.356 323.846 327.023 328.656 322.632 333.408C319.194 337.117 315.698 340.796 312.029 344.244C310.787 345.403 309.487 346.591 308.158 347.605C307.667 347.982 307.176 348.33 306.656 348.648C306.454 348.764 306.223 348.88 306.02 348.996C305.789 349.112 305.847 349.083 305.558 349.17C304.576 349.46 303.42 349.402 302.409 349.373C300.734 349.315 299.087 349.083 297.469 348.764C293.8 348.011 290.247 346.794 286.838 345.287C283.776 343.926 280.743 342.361 277.998 340.362C276.987 339.637 276.005 338.826 275.167 337.899C274.676 337.348 274.098 336.595 274.012 335.9C273.983 335.61 274.012 335.407 274.127 335.204C274.185 335.088 274.069 335.291 274.156 335.175C274.243 335.059 274.358 334.915 274.474 334.799C274.994 334.19 275.514 333.611 276.034 333.002C278.143 330.626 280.223 328.221 282.332 325.846C285.509 322.195 288.716 318.573 291.894 314.922C295.794 310.489 299.665 306.027 303.565 301.565C307.754 296.755 311.972 291.917 316.16 287.078C320.292 282.326 324.394 277.545 328.496 272.765C332.136 268.505 335.776 264.246 339.387 259.987C342.218 256.655 345.02 253.294 347.765 249.904C349.354 247.934 351 245.992 352.416 243.877C353.514 242.226 354.265 240.313 354.9 238.43C356.056 235.069 356.923 231.621 357.818 228.202C359.089 223.305 360.274 218.38 361.545 213.483C361.632 212.904 360.62 212.614 360.447 213.28Z" fill="black"/>
<path d="M416.259 208.297C415.508 210.006 414.728 211.687 413.919 213.396C413.053 215.193 412.244 217.076 411.088 218.698C410.713 219.249 411.608 219.77 411.984 219.22C413.11 217.597 413.948 215.714 414.815 213.918C415.624 212.237 416.404 210.528 417.155 208.818C417.444 208.21 416.548 207.688 416.259 208.297Z" fill="black"/>
<path d="M271.093 346.128C272.769 344.302 274.416 342.506 276.091 340.681C276.553 340.188 275.802 339.435 275.369 339.956C273.693 341.782 272.018 343.578 270.371 345.403C269.909 345.867 270.631 346.62 271.093 346.128Z" fill="black"/>
<path d="M291.663 348.04C290.623 348.996 289.554 349.952 288.456 350.88C288.254 351.053 288.254 351.43 288.456 351.604C288.687 351.807 288.976 351.778 289.179 351.604C290.276 350.677 291.345 349.721 292.385 348.764C292.587 348.591 292.587 348.214 292.385 348.04C292.183 347.837 291.894 347.837 291.663 348.04Z" fill="black"/>
<path d="M452.284 352.328C455.289 359.253 458.409 366.12 461.587 372.958C462.222 374.349 462.858 375.739 463.522 377.101C463.811 377.71 464.707 377.188 464.418 376.58C461.384 370.176 458.467 363.715 455.578 357.254C454.769 355.457 453.96 353.632 453.18 351.807C452.891 351.198 452.024 351.72 452.284 352.328Z" fill="black"/>
<path d="M465.805 338.797C467.827 343.23 470.08 347.547 472.565 351.749C474.125 354.385 475.714 356.993 477.534 359.456C477.938 359.977 478.834 359.485 478.429 358.934C476.609 356.472 475.02 353.864 473.46 351.227C470.976 347.026 468.722 342.709 466.7 338.276C466.411 337.667 465.516 338.189 465.805 338.797Z" fill="black"/>
<path d="M432.901 111.03C435.934 110.943 438.968 110.624 441.972 110.074C442.636 109.958 442.348 108.944 441.683 109.06C438.765 109.581 435.848 109.9 432.901 109.958C432.208 110.016 432.208 111.059 432.901 111.03Z" fill="black"/>
<path d="M437.985 173.093C438.274 177.961 438.678 183.031 441.509 187.174C442.694 188.884 444.225 190.506 446.161 191.376C447.027 191.752 447.981 192.013 448.934 191.955C449.772 191.926 450.552 191.665 451.332 191.405C454.076 190.564 456.618 189.232 459.132 187.87C461.356 186.682 463.581 185.523 465.718 184.161C467.452 183.06 469.098 181.814 470.745 180.568C472.074 179.554 473.432 178.482 474.992 177.816C477.129 176.859 479.238 175.961 481.261 174.773C481.838 174.426 481.318 173.527 480.741 173.875C478.892 174.947 476.985 175.845 475.021 176.686C473.807 177.207 472.738 177.845 471.669 178.598C470.254 179.641 468.867 180.742 467.423 181.756C465.487 183.147 463.436 184.364 461.327 185.494C458.525 187.029 455.723 188.71 452.718 189.84C451.505 190.304 450.089 190.883 448.761 190.912C446.681 190.941 444.832 189.521 443.503 188.044C439.805 183.929 439.314 178.366 438.996 173.093C438.996 172.426 437.956 172.426 437.985 173.093Z" fill="black"/>
<path d="M438.966 176.483C442.115 174.252 445.669 172.513 449.135 170.862C453.209 168.921 457.369 167.095 461.586 165.531C463.435 164.835 465.284 164.169 467.191 163.676C467.826 163.502 467.566 162.488 466.902 162.662C463.146 163.676 459.477 165.183 455.895 166.689C451.677 168.486 447.517 170.398 443.473 172.571C441.74 173.498 440.035 174.484 438.446 175.614C437.897 175.961 438.417 176.859 438.966 176.483Z" fill="black"/>
<path d="M414.239 277.053C419.41 285.079 424.436 293.221 429.521 301.275C435.039 309.997 440.614 318.689 446.536 327.12C449.512 331.351 452.603 335.552 455.867 339.55C456.301 340.072 457.023 339.319 456.59 338.826C450.494 331.322 445.034 323.296 439.718 315.241C434.114 306.752 428.741 298.088 423.339 289.483C420.623 285.166 417.907 280.819 415.134 276.531C414.787 275.981 413.892 276.473 414.239 277.053Z" fill="black"/>
<path d="M293.916 328.279C303.074 322.687 312.145 316.95 321.13 311.04C329.97 305.216 338.723 299.218 347.361 293.104C352.33 289.599 357.27 286.035 362.21 282.442C362.759 282.036 362.239 281.138 361.69 281.544C352.994 287.889 344.212 294.148 335.343 300.232C326.619 306.23 317.807 312.083 308.852 317.762C303.739 321.036 298.567 324.223 293.396 327.381C292.819 327.729 293.339 328.627 293.916 328.279Z" fill="black"/>
<path d="M478.545 339.29C478.805 339.898 479.123 340.507 479.267 341.173C479.469 342.158 479.267 343.172 478.949 344.129C478.4 345.664 477.476 347.084 476.58 348.446C475.685 349.779 474.674 351.14 473.345 352.068C472.796 352.444 473.316 353.342 473.865 352.966C475.309 351.981 476.378 350.59 477.36 349.17C478.371 347.692 479.354 346.128 479.96 344.418C480.365 343.317 480.538 342.158 480.307 340.999C480.163 340.217 479.758 339.522 479.44 338.768C479.18 338.16 478.285 338.681 478.545 339.29Z" fill="black"/>
<path d="M440.844 361.948C445.062 366.468 452.516 365.164 457.484 362.904C458.091 362.614 457.571 361.716 456.964 362.006C452.4 364.092 445.467 365.367 441.567 361.223C441.133 360.702 440.382 361.455 440.844 361.948Z" fill="black"/>
<path d="M477.216 159.011C474.963 159.968 472.652 160.982 471.063 162.923C470.283 163.879 469.878 164.922 469.561 166.081C469.474 166.4 469.243 167.559 468.954 167.559C468.463 167.588 468.087 166.805 467.943 166.458C467.192 164.459 468.058 161.88 469.127 160.17C470.081 158.664 471.41 157.708 472.912 156.751C474.674 155.65 476.87 154.926 478.892 155.679C479.527 155.911 479.787 154.897 479.181 154.665C477.072 153.883 474.761 154.52 472.854 155.592C471.207 156.52 469.705 157.621 468.578 159.156C467.192 161.098 466.325 163.763 466.787 166.139C466.99 167.153 467.567 168.196 468.607 168.515C470.052 168.95 470.341 167.095 470.63 166.11C471.063 164.545 471.872 163.329 473.143 162.314C474.501 161.242 476.147 160.547 477.736 159.881C478.372 159.649 477.852 158.751 477.216 159.011Z" fill="black"/>
<path d="M469.704 165.617C469.444 166.66 468.751 167.964 469.184 169.036C469.849 170.659 471.64 170.746 472.824 169.645C473.46 169.065 473.835 168.225 474.355 167.559C474.817 166.921 475.366 166.371 475.944 165.849C477.215 164.777 478.746 164.024 480.364 163.647C481.029 163.502 480.74 162.488 480.075 162.633C477.36 163.27 474.933 164.893 473.344 167.153C472.911 167.761 472.564 168.486 471.986 168.978C471.409 169.471 470.571 169.529 470.166 168.776C469.935 168.312 470.109 167.79 470.253 167.327C470.397 166.863 470.542 166.4 470.657 165.907C470.889 165.241 469.877 164.98 469.704 165.617Z" fill="black"/>
<path d="M472.247 168.776C471.669 169.616 471.207 170.688 472.074 171.499C473.027 172.426 474.731 172.426 475.598 171.441C476.089 170.891 476.494 170.34 477.042 169.848C477.591 169.355 478.198 168.92 478.834 168.544C480.105 167.79 481.491 167.269 482.936 166.892C483.571 166.718 483.311 165.704 482.647 165.878C480.336 166.516 478.111 167.501 476.291 169.094C475.858 169.5 475.454 169.906 475.107 170.369C474.702 170.862 474.356 171.209 473.662 171.093C473.316 171.036 472.709 170.862 472.622 170.427C472.565 170.05 472.969 169.558 473.142 169.268C473.547 168.747 472.622 168.225 472.247 168.776Z" fill="black"/>
<path d="M474.385 171.094C473.605 171.818 473.374 172.774 474.125 173.614C474.847 174.426 475.887 174.629 476.927 174.397C477.534 174.252 478.083 174.02 478.545 173.643C479.065 173.238 479.527 172.745 480.047 172.34C481.145 171.528 482.503 171.21 483.774 170.862C484.409 170.688 484.149 169.703 483.485 169.848C482.445 170.109 481.405 170.369 480.451 170.862C479.498 171.325 478.747 172.166 477.88 172.832C477.216 173.325 476.003 173.759 475.223 173.238C475.049 173.122 474.818 172.919 474.703 172.687C474.529 172.34 474.847 172.05 475.107 171.847C475.627 171.412 474.905 170.659 474.385 171.094Z" fill="black"/>
<path d="M477.736 155.389C478.834 155.592 479.903 155.853 480.769 156.577C481.896 157.505 482.849 158.721 483.745 159.851C486.172 162.836 486.489 166.979 484.727 170.369C483.861 172.05 482.387 173.122 480.741 173.904C480.134 174.194 480.654 175.092 481.261 174.802C482.821 174.049 484.236 173.064 485.218 171.586C486.374 169.848 486.923 167.617 486.894 165.53C486.865 163.531 486.258 161.735 485.189 160.083C484.265 158.664 483.052 157.302 481.838 156.143C480.741 155.1 479.469 154.636 478.025 154.375C477.361 154.288 477.072 155.274 477.736 155.389Z" fill="black"/>
<path d="M480.683 172.31C481.463 177.236 480.914 182.278 482.156 187.145C483.254 191.434 485.45 195.345 487.963 198.938C489.407 201.024 490.939 203.023 492.499 204.994C492.903 205.515 493.654 204.791 493.221 204.269C490.534 200.821 487.819 197.315 485.767 193.433C484.727 191.492 483.861 189.434 483.254 187.29C482.619 184.972 482.387 182.596 482.272 180.192C482.127 177.468 482.099 174.744 481.665 172.05C481.579 171.383 480.567 171.644 480.683 172.31Z" fill="black"/>
<path d="M444.716 154.752C446.218 153.883 447.518 152.579 448.731 151.362C450.233 149.855 451.649 148.262 453.064 146.697C454.307 145.306 455.491 143.858 456.82 142.583C458.264 141.192 459.882 140.294 461.789 139.743C463.262 139.309 464.822 138.961 466.353 138.932C467.856 138.874 469.82 139.164 470.369 140.815L470.744 140.178C469.416 140.555 468 140.497 466.671 140.931C465.429 141.337 464.244 141.945 463.204 142.728C462.684 143.133 463.204 144.032 463.724 143.626C464.764 142.844 465.92 142.235 467.162 141.887C468.433 141.511 469.762 141.569 471.033 141.221C471.293 141.163 471.496 140.844 471.409 140.584C470.456 137.715 466.989 137.744 464.533 138.121C462.251 138.468 459.853 139.106 457.918 140.41C456.271 141.54 454.942 143.075 453.613 144.582C452.169 146.205 450.753 147.856 449.251 149.421C447.749 150.985 446.131 152.811 444.224 153.941C443.618 154.202 444.138 155.1 444.716 154.752Z" fill="black"/>
<path d="M471.988 150C470.225 150.609 468.896 151.594 467.423 152.695C466.701 153.245 465.95 153.709 465.343 154.375C464.823 154.955 464.332 155.592 463.754 156.143C462.945 156.925 462.05 157.563 461.068 158.113C459.132 159.185 456.994 159.909 454.856 160.518C454.221 160.692 454.481 161.706 455.145 161.532C458.236 160.663 461.472 159.562 463.956 157.418C465.141 156.404 465.95 154.984 467.25 154.086C468.925 152.956 470.312 151.681 472.276 151.014C472.883 150.783 472.623 149.768 471.988 150Z" fill="black"/>
<path d="M470.282 140.844C470.629 141.337 471.236 141.25 471.756 141.511C472.478 141.888 472.507 142.67 472.507 143.394C472.507 143.626 472.68 143.829 472.882 143.887C474.067 144.263 474.673 145.538 474.269 146.726C474.182 147.016 474.384 147.277 474.644 147.364C474.731 147.393 474.558 147.335 474.616 147.364C474.673 147.393 474.76 147.422 474.818 147.48C475.02 147.624 475.193 147.769 475.309 147.972C475.858 148.841 475.569 150.116 475.02 150.87C474.269 151.913 473.142 152.782 471.958 153.245C470.831 153.709 468.982 154.289 468.347 152.869C468.087 152.26 467.191 152.782 467.451 153.39C468.202 155.1 470.138 154.926 471.64 154.462C473.287 153.941 474.731 152.927 475.771 151.565C476.956 150.029 477.042 147.103 474.904 146.379L475.28 147.016C475.569 146.176 475.396 145.075 475.02 144.292C474.673 143.568 473.893 143.104 473.171 142.873L473.547 143.365C473.547 142.612 473.489 141.743 472.969 141.134C472.449 140.526 471.698 140.41 470.947 140.149L471.264 140.381L471.207 140.294C470.802 139.801 469.907 140.323 470.282 140.844Z" fill="black"/>
<path d="M296.746 366.526C295.821 364.903 294.55 363.512 293.684 361.861C292.817 360.209 292.615 359.717 292.239 357.805C291.921 356.24 291.575 353.603 289.321 352.126C287.039 350.648 282.619 350.619 280.106 351.198C277.592 351.778 277.188 352.126 274.877 350.967C271.786 349.431 270.717 345.027 269.648 345.838C268.608 346.649 260.895 355.95 260.519 357.862C260.172 359.775 260.664 362.035 266.124 366.12C271.584 370.206 274.704 373.711 277.477 376.435C280.279 379.159 290.621 386.605 296.341 387.677C300.444 388.43 305.73 388.981 307.088 382.722C308.417 376.464 301.946 374.001 299.548 370.35C298.71 369.105 297.41 367.714 296.746 366.526Z" fill="white"/>
<path d="M297.179 366.265C296.312 364.787 295.186 363.483 294.319 362.006C293.626 360.818 293.135 359.63 292.846 358.297C292.326 355.834 291.921 353.342 289.726 351.778C287.588 350.271 284.439 350.155 281.926 350.387C280.626 350.503 279.384 350.88 278.112 351.14C276.841 351.401 275.599 350.88 274.559 350.213C273.519 349.518 272.797 348.562 272.132 347.577C271.699 346.91 271.295 346.128 270.688 345.577C269.619 344.65 268.695 346.07 268.03 346.794C265.459 349.692 262.888 352.763 260.837 356.066C260.172 357.167 259.768 358.181 259.97 359.485C260.259 361.339 261.588 362.875 262.888 364.121C264.159 365.338 265.575 366.352 266.961 367.424C268.261 368.438 269.532 369.51 270.775 370.611C272.797 372.437 274.675 374.378 276.61 376.261C279.701 379.332 283.457 381.824 287.155 384.084C289.292 385.388 291.488 386.576 293.828 387.445C295.706 388.141 297.757 388.517 299.779 388.604C301.83 388.691 303.968 388.315 305.499 386.895C307.232 385.301 308.041 382.52 307.752 380.202C307.175 375.508 302.437 373.595 300.01 370.061C299.086 368.815 297.988 367.627 297.179 366.265C296.832 365.686 295.937 366.207 296.284 366.787C297.092 368.148 298.19 369.307 299.057 370.611C299.577 371.393 300.212 372.089 300.877 372.726C302.379 374.175 304.112 375.45 305.326 377.159C306.741 379.159 307.001 381.448 306.192 383.766C305.47 385.823 303.91 387.156 301.772 387.503C299.895 387.822 297.844 387.532 295.995 387.098C293.886 386.605 291.892 385.62 290.015 384.606C286.028 382.462 282.186 379.883 278.748 376.928C277.188 375.595 275.83 374.088 274.357 372.639C272.219 370.524 269.995 368.525 267.626 366.671C265.517 365.019 263.061 363.397 261.617 361.05C261.039 360.093 260.635 358.848 261.01 357.747C261.444 356.443 262.541 355.168 263.379 354.067C264.592 352.444 265.864 350.851 267.164 349.286C267.684 348.649 268.204 348.04 268.752 347.432C269.099 347.055 269.532 346.707 269.821 346.302C269.879 346.244 269.937 346.244 269.85 346.273C269.735 346.302 269.821 346.244 269.879 346.302C269.995 346.533 270.284 346.765 270.457 346.997C271.035 347.837 271.584 348.707 272.248 349.518C273.664 351.227 275.917 352.56 278.199 352.183C279.412 351.981 280.568 351.575 281.81 351.459C283.168 351.314 284.584 351.343 285.941 351.546C287.155 351.749 288.426 352.068 289.408 352.85C290.448 353.69 290.997 354.907 291.344 356.153C291.632 357.225 291.748 358.355 292.037 359.427C292.355 360.644 292.99 361.832 293.655 362.904C294.492 364.237 295.504 365.425 296.284 366.787C296.63 367.366 297.526 366.844 297.179 366.265Z" fill="black"/>
<path d="M302.84 384.2C298.507 383.939 294.376 382.23 290.649 380.086C288.656 378.927 286.778 377.623 284.958 376.232C283.6 375.189 282.185 374.117 281 372.871C280.22 372.06 279.44 371.22 278.66 370.408C277.823 369.539 276.956 368.583 275.974 367.888C274.269 366.671 272.478 365.57 270.774 364.295C269.3 363.194 267.827 362.035 266.469 360.789C265.343 359.775 264.187 358.674 263.378 357.341C263.032 356.761 262.136 357.283 262.483 357.862C264.043 360.412 266.643 362.411 268.983 364.208C270.976 365.744 272.998 367.221 275.136 368.554C275.974 369.076 276.667 369.829 277.36 370.495C278.285 371.422 279.18 372.379 280.076 373.335C281.116 374.436 282.329 375.421 283.485 376.348C285.276 377.797 287.125 379.13 289.089 380.347C293.249 382.925 297.929 384.954 302.869 385.243C303.505 385.301 303.505 384.258 302.84 384.2Z" fill="black"/>
<path d="M492.727 359.456C490.879 359.717 489.434 359.601 487.556 359.34C484.552 358.934 483.627 358.268 481.634 358.326C480.132 358.384 478.774 359.021 477.359 360.586C475.539 362.585 474.874 364.845 474.527 367.424C474.181 370.003 472.765 372.089 470.252 374.436C467.739 376.783 463.203 376.174 463.579 377.449C463.954 378.724 467.97 390.429 469.616 391.473C471.263 392.516 473.545 392.863 479.323 389.242C485.101 385.649 489.492 383.997 493.016 382.375C496.541 380.752 507.259 373.798 510.321 368.844C512.516 365.28 514.943 360.528 509.627 357.022C504.312 353.516 501.336 357.602 497.061 358.5C495.616 358.818 494.056 359.253 492.727 359.456Z" fill="white"/>
<path d="M492.584 358.963C489.521 359.369 486.633 358.587 483.657 358.007C482.617 357.804 481.49 357.717 480.45 357.978C479.006 358.326 477.793 359.311 476.839 360.412C475.915 361.455 475.25 362.643 474.788 363.976C474.326 365.28 474.181 366.671 473.893 368.032C473.604 369.365 472.939 370.611 472.13 371.683C471.264 372.842 470.166 374.088 468.895 374.812C467.884 375.363 466.757 375.653 465.659 375.884C464.966 376.029 463.984 376.116 463.435 376.609C462.684 377.275 463.493 378.724 463.753 379.506C464.966 383.012 466.208 386.605 467.913 389.908C468.461 390.98 469.01 391.849 470.137 392.342C471.553 392.95 473.141 392.747 474.557 392.284C477.388 391.357 479.815 389.56 482.386 388.112C484.87 386.721 487.441 385.504 490.041 384.345C491.775 383.592 493.508 382.867 495.155 381.94C496.975 380.897 498.766 379.767 500.499 378.579C502.55 377.159 504.544 375.653 506.421 374.03C507.981 372.668 509.541 371.162 510.697 369.423C511.853 367.685 513.008 365.598 513.326 363.483C513.701 361.078 512.806 358.905 510.957 357.341C508.935 355.66 506.421 354.704 503.793 355.371C501.51 355.921 499.604 357.399 497.321 357.978C495.733 358.326 494.144 358.732 492.584 358.963C491.919 359.079 492.208 360.064 492.873 359.977C495.53 359.572 498.188 358.905 500.586 357.746C502.55 356.79 504.601 355.747 506.855 356.298C509.224 356.877 511.795 358.79 512.257 361.339C512.633 363.425 511.65 365.541 510.639 367.308C508.53 371.046 505.15 373.798 501.741 376.29C498.679 378.55 495.444 380.723 491.948 382.288C489.839 383.244 487.701 384.142 485.621 385.156C482.848 386.518 480.277 388.141 477.619 389.647C475.915 390.603 473.893 391.704 471.899 391.646C470.946 391.617 469.993 391.27 469.501 390.545C468.635 389.3 468.057 387.851 467.479 386.46C466.728 384.693 466.064 382.925 465.428 381.129C464.995 379.941 464.619 378.695 464.186 377.507C464.157 377.42 464.157 377.246 464.099 377.362C464.157 377.246 464.619 377.159 464.793 377.101C465.717 376.87 466.67 376.725 467.595 376.435C470.079 375.682 471.899 373.827 473.373 371.741C474.095 370.727 474.644 369.568 474.904 368.351C475.221 367.047 475.308 365.743 475.713 364.468C476.521 361.977 478.63 359.021 481.49 358.818C482.473 358.761 483.426 358.963 484.379 359.195C485.679 359.514 486.979 359.746 488.308 359.92C489.839 360.122 491.341 360.122 492.873 359.92C493.508 359.862 493.219 358.876 492.584 358.963Z" fill="black"/>
<path d="M509.512 361.426C507.749 365.251 504.832 368.409 501.625 371.046C499.892 372.465 498.043 373.74 496.136 374.928C494.547 375.913 492.901 376.927 491.167 377.681C489.029 378.608 486.661 379.303 484.667 380.549C484.061 380.926 483.483 381.418 482.905 381.824C481.749 382.635 480.565 383.418 479.381 384.171C477.821 385.156 476.232 386.083 474.585 386.924C473.169 387.648 471.696 388.343 470.107 388.604C469.443 388.72 469.732 389.734 470.396 389.618C471.783 389.357 473.083 388.807 474.325 388.198C475.856 387.474 477.358 386.634 478.803 385.736C480.883 384.49 482.905 383.128 484.869 381.679C485.736 381.042 486.805 380.636 487.787 380.201C488.943 379.709 490.098 379.245 491.254 378.782C492.727 378.202 494.143 377.333 495.529 376.522C497.523 375.363 499.429 374.088 501.249 372.697C504.976 369.8 508.414 366.294 510.407 361.977C510.696 361.339 509.772 360.818 509.512 361.426Z" fill="black"/>
<path d="M429.376 94.9778C429.145 96.8032 428.654 98.6576 427.816 100.309C427.325 101.294 426.66 102.482 425.765 103.091C425.216 103.467 425.736 104.366 426.285 103.989C427.382 103.265 428.134 101.99 428.711 100.831C429.636 99.0053 430.156 97.006 430.416 94.9778C430.503 94.3404 429.463 94.3404 429.376 94.9778Z" fill="black"/>
<path d="M432.813 98.1942C433.073 98.7447 433.419 99.2663 433.795 99.7298C434.835 101.15 436.077 102.395 437.377 103.525C439.833 105.641 442.721 107.35 446.073 106.713C447.69 106.394 449.135 105.583 450.464 104.655C451.793 103.728 453.093 102.656 454.219 101.439C455.49 100.078 456.473 98.426 457.079 96.6586C457.773 94.6304 457.773 92.4283 457.975 90.3421C458.206 87.8504 458.553 85.3875 459.13 82.9537C459.535 81.2442 459.824 79.5927 459.159 77.9121C458.928 77.3037 457.917 77.5645 458.148 78.2019C458.668 79.5347 458.581 80.8675 458.235 82.2293C457.744 84.1416 457.397 86.1119 457.166 88.0821C456.906 90.0524 456.848 92.2255 456.559 94.2827C456.299 96.2239 455.548 98.0204 454.421 99.6139C453.555 100.831 452.399 101.874 451.244 102.83C449.973 103.873 448.557 104.858 446.997 105.438C444.079 106.539 441.335 105.409 438.966 103.612C437.406 102.424 435.961 101.005 434.777 99.4691C434.373 98.9475 433.968 98.368 433.679 97.7596C433.448 97.0642 432.553 97.5857 432.813 98.1942Z" fill="black"/>
<path d="M432.352 86.9521C431.572 85.5324 430.099 84.0257 428.308 84.5473C426.69 85.0108 425.939 86.9811 425.823 88.4878C425.679 90.2262 426.314 91.9357 427.354 93.2975C428.394 94.6303 429.839 96.079 431.572 96.4267C432.236 96.5716 432.496 95.5575 431.861 95.4126C430.503 95.1229 429.405 94.0798 428.51 93.0367C427.614 92.0226 426.979 90.7188 426.863 89.2991C426.776 88.0821 427.094 86.5175 428.134 85.7642C429.492 84.7501 430.85 86.3726 431.456 87.4447C431.774 88.0531 432.699 87.5316 432.352 86.9521Z" fill="black"/>
<path d="M428.422 88.2558L428.48 88.2268C428.451 88.2268 428.451 88.2268 428.48 88.2268C428.48 88.2268 428.595 88.2268 428.538 88.2268C428.567 88.2268 428.595 88.2558 428.653 88.2558C428.798 88.2848 428.653 88.2268 428.711 88.2848C428.884 88.3717 428.942 88.4297 429.087 88.5456C429.347 88.8063 429.52 89.0671 429.751 89.3858C430.184 90.0233 430.444 90.6317 430.618 91.385C430.675 91.6458 430.993 91.8197 431.253 91.7617C431.513 91.7038 431.687 91.385 431.629 91.1243C431.398 90.255 431.022 89.4148 430.502 88.6904C429.982 87.9661 429.202 87.0099 428.162 87.2707C427.902 87.3286 427.729 87.6474 427.787 87.9081C427.844 88.1399 428.133 88.3138 428.422 88.2558Z" fill="black"/>
<path d="M430.155 89.0962C429.346 89.2701 428.999 90.2262 429.057 90.9506C429.115 91.675 429.49 92.3703 430.097 92.805C430.328 92.9498 430.675 92.8629 430.819 92.6311C430.964 92.3703 430.877 92.0806 430.646 91.9068C430.617 91.9068 430.559 91.8198 430.617 91.8778C430.675 91.9357 430.588 91.8488 430.588 91.8488C430.559 91.8198 430.501 91.7619 430.473 91.7329L430.415 91.675C430.386 91.617 430.357 91.5591 430.299 91.5011C430.27 91.4432 430.241 91.3852 430.213 91.3562C430.184 91.2983 430.241 91.4432 430.213 91.3562C430.213 91.3273 430.184 91.2983 430.184 91.2693C430.155 91.2114 430.155 91.1534 430.126 91.0955C430.126 91.0665 430.126 91.0375 430.097 91.0086C430.068 90.9506 430.097 91.1245 430.097 91.0086C430.097 90.8927 430.097 90.7768 430.097 90.6609C430.068 90.7478 430.097 90.545 430.097 90.6609C430.097 90.6319 430.097 90.6029 430.126 90.5739C430.126 90.516 430.155 90.458 430.184 90.4001C430.213 90.3421 430.213 90.3421 430.184 90.4001C430.213 90.3711 430.213 90.3421 430.241 90.3132C430.27 90.2842 430.27 90.2552 430.299 90.2262C430.328 90.1683 430.328 90.1973 430.299 90.2262C430.328 90.1973 430.357 90.1683 430.357 90.1683C430.27 90.2262 430.386 90.1103 430.357 90.1683L430.415 90.1393C430.357 90.1683 430.357 90.1683 430.386 90.1683C430.415 90.1683 430.415 90.1683 430.444 90.1393C430.704 90.0814 430.877 89.7627 430.819 89.5019C430.704 89.1832 430.444 89.0383 430.155 89.0962Z" fill="black"/>
<path d="M450.377 87.7633C450.752 88.8354 451.128 89.9074 451.504 90.9795C451.59 91.1823 451.677 91.4431 451.706 91.6748C451.735 91.9066 451.619 92.1095 451.504 92.3123C451.272 92.7179 450.955 93.0656 450.579 93.3264C450.348 93.5002 450.232 93.79 450.406 94.0507C450.521 94.2825 450.897 94.3984 451.128 94.2246C452.024 93.5582 453.035 92.4572 452.717 91.2402C452.544 90.6318 452.312 90.0523 452.11 89.4438C451.879 88.7774 451.648 88.14 451.417 87.4736C451.157 86.8361 450.146 87.1259 450.377 87.7633Z" fill="black"/>
<path d="M453.872 86.6914C453.756 86.7493 453.64 86.9811 453.583 87.097C453.438 87.4447 453.352 87.7924 453.352 88.1691C453.352 88.3429 453.352 88.4878 453.438 88.6327C453.496 88.7775 453.64 88.9224 453.785 88.9514C454.016 89.0093 454.218 88.8645 454.363 88.6906C454.536 88.4588 454.623 88.1691 454.652 87.8793C454.68 87.5896 454.623 87.2998 454.565 87.0101C454.536 86.9232 454.507 86.8073 454.449 86.7493C454.392 86.6914 454.305 86.6334 454.132 86.6045C454.045 86.5755 453.958 86.6624 453.872 86.6914Z" fill="black"/>
<path d="M453.67 86.3726C453.266 86.6623 453.092 87.2128 453.035 87.6764C452.948 88.2269 452.919 88.8644 453.41 89.241C453.901 89.6177 454.508 89.27 454.797 88.8064C455.086 88.3139 455.086 87.7344 454.999 87.1839C454.941 86.8651 454.855 86.5754 454.566 86.3726C454.306 86.1698 453.959 86.1698 453.67 86.3726C453.497 86.4885 453.41 86.7203 453.526 86.8941C453.641 87.068 453.873 87.1549 454.075 87.039L454.161 86.981C454.161 86.981 454.075 87.01 454.075 86.981C454.075 86.981 454.219 87.039 454.161 87.01C454.219 87.068 454.161 86.981 454.132 86.981C454.132 86.981 454.19 87.039 454.161 87.01C454.161 87.01 454.19 87.068 454.161 87.039C454.161 87.01 454.161 87.068 454.161 87.068C454.19 87.1549 454.219 87.2418 454.219 87.3577C454.248 87.4446 454.248 87.5026 454.248 87.5895C454.248 87.6764 454.248 87.7923 454.248 87.8792C454.248 87.9082 454.248 87.9082 454.248 87.9372C454.248 87.9372 454.248 87.9951 454.248 87.9662C454.248 87.9372 454.248 87.9951 454.248 87.9951C454.248 88.0241 454.248 88.0241 454.248 88.0531C454.248 88.111 454.219 88.14 454.219 88.198C454.219 88.2269 454.219 88.2269 454.19 88.2559C454.161 88.3139 454.219 88.2269 454.19 88.2849C454.161 88.3428 454.133 88.4298 454.075 88.4877C454.075 88.5167 454.046 88.5167 454.046 88.5167C454.046 88.5167 453.959 88.6036 453.988 88.5746C453.959 88.6036 453.959 88.6036 453.93 88.6036C453.93 88.6036 453.872 88.6326 453.901 88.6036C453.93 88.5746 453.815 88.6036 453.872 88.6036C453.93 88.6036 453.844 88.6036 453.844 88.6036C453.844 88.6036 453.901 88.6036 453.872 88.6036C453.844 88.6036 453.872 88.6036 453.901 88.6036C453.872 88.6036 453.872 88.5746 453.844 88.5746C453.901 88.6036 453.844 88.5457 453.815 88.5457C453.844 88.6036 453.815 88.5167 453.786 88.5167C453.815 88.5746 453.757 88.4587 453.757 88.4587C453.757 88.4297 453.757 88.4298 453.757 88.4008C453.757 88.4298 453.757 88.4008 453.757 88.3718C453.757 88.2849 453.757 88.198 453.757 88.111C453.757 88.0821 453.757 88.0241 453.757 87.9951C453.757 87.9662 453.757 87.9662 453.757 87.9372C453.757 87.8792 453.757 87.9951 453.757 87.9082C453.786 87.7054 453.844 87.5026 453.93 87.2997C453.93 87.2997 453.959 87.2418 453.93 87.2708C453.901 87.2998 453.93 87.2418 453.93 87.2418C453.959 87.2128 453.959 87.1549 453.988 87.1259C454.017 87.0969 454.017 87.068 454.046 87.01C453.988 87.068 454.132 86.9521 454.017 87.01C454.19 86.8941 454.277 86.6623 454.161 86.4595C454.104 86.3436 453.844 86.2277 453.67 86.3726Z" fill="black"/>
<path d="M443.329 84.9529C443.213 85.0108 443.097 85.2426 443.04 85.3585C442.895 85.7062 442.809 86.0539 442.809 86.4306C442.809 86.6044 442.809 86.7493 442.895 86.8941C442.953 87.039 443.097 87.1839 443.242 87.2129C443.473 87.2708 443.675 87.1259 443.82 86.9521C443.993 86.7203 444.08 86.4306 444.109 86.1408C444.137 85.8511 444.08 85.5613 444.022 85.2716C443.993 85.1847 443.964 85.0688 443.906 85.0108C443.849 84.9529 443.762 84.8949 443.589 84.8659C443.502 84.837 443.415 84.9239 443.329 84.9529Z" fill="black"/>
<path d="M443.155 84.634C442.75 84.9238 442.577 85.4743 442.519 85.9379C442.432 86.4884 442.404 87.1258 442.895 87.5025C443.386 87.8792 443.992 87.5315 444.281 87.0679C444.57 86.5753 444.57 85.9958 444.484 85.4453C444.426 85.1266 444.339 84.8369 444.05 84.634C443.761 84.4312 443.415 84.4312 443.155 84.634C442.981 84.7499 442.895 84.9817 443.01 85.1556C443.126 85.3294 443.357 85.4164 443.559 85.3005L443.646 85.2425C443.646 85.2425 443.559 85.2715 443.559 85.2425C443.559 85.2425 443.703 85.3005 443.646 85.2715C443.703 85.3294 443.646 85.2425 443.617 85.2425C443.617 85.2425 443.675 85.3005 443.646 85.2715C443.646 85.2715 443.675 85.3294 443.646 85.3005C443.617 85.2715 443.646 85.3294 443.646 85.3294C443.675 85.4164 443.704 85.5033 443.704 85.6192C443.732 85.7061 443.732 85.764 443.732 85.851C443.732 85.9379 443.732 86.0538 443.732 86.1407C443.732 86.1697 443.732 86.1697 443.732 86.1987C443.732 86.1987 443.732 86.2566 443.732 86.2276C443.732 86.1987 443.732 86.2566 443.732 86.2566C443.732 86.2856 443.732 86.2856 443.732 86.3146C443.732 86.3725 443.704 86.4015 443.704 86.4594C443.704 86.4884 443.704 86.4884 443.675 86.5174C443.646 86.5753 443.704 86.4884 443.675 86.5464C443.646 86.6043 443.617 86.6912 443.559 86.7492C443.559 86.7781 443.53 86.7781 443.53 86.7781C443.53 86.7781 443.444 86.8651 443.472 86.8361C443.444 86.8651 443.444 86.8651 443.415 86.8651C443.415 86.8651 443.357 86.894 443.386 86.8651C443.415 86.8361 443.299 86.8651 443.357 86.8651C443.415 86.8651 443.328 86.8651 443.328 86.8651C443.328 86.8651 443.386 86.8651 443.357 86.8651C443.328 86.8651 443.357 86.8651 443.386 86.8651C443.357 86.8651 443.357 86.8361 443.328 86.8361C443.386 86.8651 443.328 86.8071 443.299 86.8071C443.328 86.8651 443.299 86.7781 443.27 86.7781C443.299 86.8361 443.241 86.7202 443.241 86.7202C443.241 86.6912 443.241 86.6912 443.241 86.6623C443.241 86.6912 443.241 86.6623 443.241 86.6333C443.241 86.5464 443.241 86.4594 443.241 86.3725C443.241 86.3435 443.241 86.2856 443.241 86.2566C443.241 86.2276 443.241 86.2276 443.241 86.1987C443.241 86.1407 443.241 86.2566 443.241 86.1697C443.27 85.9669 443.328 85.764 443.415 85.5612C443.415 85.5612 443.444 85.5033 443.415 85.5323C443.386 85.5612 443.415 85.5033 443.415 85.5033C443.444 85.4743 443.444 85.4164 443.472 85.3874C443.501 85.3584 443.501 85.3294 443.53 85.2715C443.472 85.3294 443.617 85.2135 443.501 85.2715C443.675 85.1556 443.761 84.9238 443.646 84.721C443.559 84.6051 443.299 84.4892 443.155 84.634Z" fill="black"/>
<path d="M463.089 69.1907C462.194 68.0317 461.702 66.612 460.72 65.511C459.767 64.4099 458.582 63.5697 457.369 62.8453C454.48 61.1358 451.158 60.0928 447.836 59.6292C444.514 59.1366 441.105 59.2235 437.84 59.9769C435.731 60.4694 433.68 61.3097 432.005 62.6715C431.311 63.222 430.589 63.9174 430.185 64.7287L430.502 64.4969C426.718 65.9166 424.291 69.2487 422.934 72.9574C421.778 76.1446 421.547 79.4476 422.154 82.7797C422.674 85.4453 423.771 87.9951 425.591 90.0522C426.025 90.5448 426.776 89.8204 426.314 89.3279C423.396 86.0248 422.269 80.9543 423.02 76.6371C423.685 72.6966 425.591 68.5243 429.087 66.3512C429.549 66.0615 430.04 65.8297 430.531 65.6269C430.762 65.5399 430.936 65.482 431.109 65.2792C431.225 65.1053 431.311 64.9315 431.427 64.7866C431.947 64.0622 432.871 63.3089 433.738 62.7874C435.5 61.7153 437.522 61.1069 439.545 60.7592C442.347 60.2956 445.265 60.2956 448.067 60.7592C451.1 61.2517 454.105 62.2079 456.762 63.7435C457.918 64.4099 459.045 65.2212 459.94 66.2353C460.836 67.2494 461.327 68.6692 462.194 69.7702C462.598 70.2338 463.494 69.7122 463.089 69.1907Z" fill="black"/>
<path d="M434.402 99.6719C433.535 98.4839 436.453 103.004 437.146 104.279C437.868 105.554 439.168 106.336 440.41 107.118C441.422 107.756 443.213 107.64 443.213 107.64L443.242 106.336C443.27 106.336 438.648 105.438 434.402 99.6719Z" fill="black"/>
<path d="M461.645 78.1148C461.645 78.7522 461.674 79.4186 461.53 80.0561C461.385 80.6356 461.154 81.1571 460.836 81.6497C460.201 82.6638 459.363 83.504 458.496 84.3443C458.005 84.8079 458.756 85.5612 459.219 85.0686C460.143 84.1415 461.096 83.2143 461.761 82.0843C462.079 81.5338 462.339 80.9543 462.483 80.3169C462.656 79.5925 462.656 78.8392 462.656 78.1148C462.685 77.4194 461.645 77.4194 461.645 78.1148Z" fill="black"/>
<path d="M431.428 86.1407C433.508 84.634 435.154 82.5479 436.685 80.5197C437.437 79.5346 438.188 78.4915 438.736 77.3905C439.112 76.6371 439.401 75.8548 439.69 75.1015C440.065 74.1743 440.47 73.1602 441.048 72.3489C441.423 71.8274 441.741 71.7984 442.319 72.0592C443.243 72.4938 444.11 73.1312 444.977 73.6528C445.988 74.2322 447.028 74.7828 448.068 75.3043C450.494 76.4633 453.008 77.3905 455.636 77.941C458.121 78.4335 460.721 78.6074 463.177 77.854C464.188 77.5353 465.17 77.1297 466.065 76.5502C466.614 76.2025 467.308 75.7389 467.51 75.1015C467.712 74.464 467.25 74.0584 466.672 73.8846C466.065 73.7107 465.43 73.6238 464.823 73.4499C464.361 73.3051 463.899 73.0443 463.465 72.8994C463.494 72.8994 463.35 72.8125 463.35 72.8125C463.177 72.8125 463.119 73.334 463.263 73.363C463.408 73.392 463.697 73.2181 463.841 73.1602C464.245 72.9574 464.621 72.6097 464.91 72.262C465.401 71.7115 466.094 70.7843 465.69 70.002C465.517 69.6543 465.17 69.5384 464.823 69.4805C464.274 69.4225 463.725 69.3935 463.177 69.3066C461.819 69.0748 460.432 68.7271 459.161 68.1766C458.554 67.9158 458.034 68.814 458.641 69.0748C459.681 69.5094 460.779 69.8571 461.877 70.0889C462.397 70.2048 462.916 70.3207 463.436 70.3787C463.668 70.4076 463.899 70.4366 464.13 70.4656C464.274 70.4946 464.708 70.4366 464.823 70.5235C464.765 70.4946 464.765 70.4076 464.765 70.5235C464.765 70.6684 464.65 70.8422 464.563 70.9581C464.361 71.3348 464.072 71.6535 463.725 71.9433C463.321 72.291 462.425 72.3489 462.397 72.9864C462.368 73.6238 463.177 73.9135 463.61 74.0874C464.505 74.464 465.748 74.7828 466.557 74.8987C466.441 74.8697 466.614 74.7538 466.499 74.7828C466.47 74.7828 466.354 74.9856 466.325 75.0146C466.036 75.3333 465.661 75.5651 465.314 75.7679C464.39 76.3184 463.408 76.6951 462.368 76.9558C459.883 77.5933 457.197 77.2456 454.741 76.6371C452.228 75.9997 449.83 75.0435 447.548 73.8556C446.623 73.363 445.699 72.8705 444.803 72.3199C444.023 71.8274 443.243 71.2769 442.377 70.9581C440.788 70.4076 440.008 71.8564 439.43 73.0733C438.997 73.9715 438.65 74.9276 438.274 75.8548C437.87 76.8979 437.292 77.883 436.628 78.8102C435.01 81.1281 433.19 83.6199 430.879 85.2715C430.359 85.6481 430.879 86.5464 431.428 86.1407Z" fill="black"/>
<path d="M441.307 94.9489C443.011 96.6584 445.265 97.8173 447.662 98.165C447.951 98.194 448.211 98.1071 448.298 97.7883C448.356 97.5566 448.211 97.1799 447.922 97.1509C445.698 96.8322 443.618 95.8181 442.029 94.2245C441.567 93.7319 440.816 94.4563 441.307 94.9489Z" fill="black"/>
<path d="M442.058 81.2441C443.04 80.7805 444.254 80.8384 445.207 81.3889C445.438 81.5338 445.785 81.4469 445.929 81.2151C446.074 80.9833 445.987 80.6356 445.756 80.4907C444.456 79.7664 442.896 79.7084 441.567 80.3459C441.307 80.4618 441.249 80.8384 441.394 81.0702C441.509 81.302 441.798 81.36 442.058 81.2441Z" fill="black"/>
<path d="M452.977 83.2144C453.266 83.2144 453.555 83.2144 453.844 83.2144C454.104 83.2144 454.422 83.2144 454.653 83.2434C454.768 83.2724 454.913 83.3014 455.028 83.3303C455.086 83.3593 455.144 83.3593 455.173 83.3883C455.115 83.3593 455.288 83.4462 455.288 83.4462C455.404 83.5042 455.519 83.5621 455.635 83.6491C455.693 83.678 455.721 83.707 455.779 83.736C455.808 83.7649 455.837 83.765 455.866 83.7939C455.837 83.765 455.837 83.7649 455.895 83.8229C456.097 83.9967 456.415 84.0547 456.617 83.8229C456.79 83.6201 456.848 83.2724 456.617 83.0985C456.126 82.6929 455.577 82.3742 454.97 82.2583C454.335 82.1134 453.641 82.1714 452.977 82.1714C452.717 82.1714 452.457 82.4032 452.457 82.6929C452.457 82.9826 452.688 83.2144 452.977 83.2144Z" fill="black"/>
<path d="M432.091 66.6989C434.345 68.6691 437.262 69.4514 440.094 70.1758C440.729 70.3496 441.018 69.3355 440.382 69.1617C437.754 68.4953 434.951 67.7709 432.842 65.9455C432.322 65.5109 431.6 66.2643 432.091 66.6989Z" fill="black"/>
<path d="M244.198 258.567C198.178 258.567 160.738 221.016 160.738 174.86C160.738 128.704 198.178 91.1533 244.198 91.1533C290.218 91.1533 327.658 128.704 327.658 174.86C327.658 221.016 290.218 258.567 244.198 258.567ZM244.198 92.4861C198.9 92.4861 162.067 129.428 162.067 174.86C162.067 220.292 198.929 257.263 244.227 257.263C289.525 257.263 326.387 220.292 326.387 174.86C326.387 129.428 289.496 92.4861 244.198 92.4861Z" fill="black"/>
<path d="M244.171 182.307C240.097 182.307 236.746 178.975 236.746 174.86C236.746 170.746 240.068 167.414 244.171 167.414C248.273 167.414 251.595 170.746 251.595 174.86C251.595 178.975 248.273 182.307 244.171 182.307ZM244.171 168.747C240.791 168.747 238.046 171.499 238.046 174.889C238.046 178.279 240.791 181.032 244.171 181.032C247.551 181.032 250.295 178.279 250.295 174.889C250.295 171.499 247.551 168.747 244.171 168.747Z" fill="black"/>
<path d="M210.86 120.504C210.629 120.504 210.427 120.388 210.311 120.186L205.747 112.681C205.689 112.565 205.66 112.45 205.66 112.334C205.66 112.102 205.776 111.899 205.978 111.783C206.296 111.609 206.7 111.696 206.873 112.015L211.438 119.519C211.496 119.635 211.525 119.751 211.525 119.867C211.525 120.099 211.409 120.302 211.207 120.417C211.091 120.475 210.976 120.504 210.86 120.504Z" fill="black"/>
<path d="M244.17 111.117C243.824 111.117 243.506 110.827 243.506 110.45V101.729C243.506 101.381 243.795 101.062 244.17 101.062C244.517 101.062 244.835 101.352 244.835 101.729V110.45C244.806 110.827 244.517 111.117 244.17 111.117Z" fill="black"/>
<path d="M274.358 118.679C274.242 118.679 274.156 118.65 274.04 118.592C273.809 118.476 273.693 118.244 273.693 118.012C273.693 117.897 273.722 117.81 273.78 117.694L277.882 109.987C278.056 109.668 278.431 109.552 278.749 109.726C278.98 109.842 279.096 110.073 279.096 110.305C279.096 110.421 279.067 110.508 279.009 110.624L274.907 118.331C274.82 118.563 274.589 118.679 274.358 118.679Z" fill="black"/>
<path d="M299.636 143.162C299.404 143.162 299.202 143.046 299.087 142.844C299.029 142.728 299 142.612 299 142.496C299 142.264 299.116 142.061 299.318 141.945L306.771 137.396C307.089 137.223 307.493 137.309 307.667 137.628C307.724 137.744 307.753 137.86 307.753 137.976C307.753 138.208 307.638 138.41 307.436 138.526L299.982 143.075C299.867 143.133 299.751 143.162 299.636 143.162Z" fill="black"/>
<path d="M317.085 175.498C317.056 175.498 316.998 175.498 316.969 175.498H308.418C308.072 175.498 307.754 175.208 307.754 174.831C307.754 174.484 308.043 174.165 308.418 174.165H317.085C317.432 174.165 317.749 174.455 317.749 174.831C317.749 175.208 317.461 175.498 317.085 175.498Z" fill="black"/>
<path d="M308.535 209.89C308.419 209.89 308.333 209.861 308.217 209.803L300.562 205.718C300.33 205.602 300.215 205.37 300.215 205.139C300.215 205.023 300.244 204.936 300.302 204.82C300.475 204.501 300.85 204.385 301.168 204.559L308.824 208.644C309.055 208.76 309.17 208.992 309.17 209.224C309.17 209.34 309.142 209.427 309.084 209.543C308.997 209.774 308.766 209.89 308.535 209.89Z" fill="black"/>
<path d="M282.042 238.024C281.811 238.024 281.609 237.908 281.493 237.706L276.958 230.23C276.9 230.114 276.871 229.998 276.871 229.882C276.871 229.651 276.987 229.448 277.189 229.332C277.507 229.158 277.911 229.245 278.084 229.564L282.62 237.039C282.678 237.155 282.707 237.271 282.707 237.387C282.707 237.619 282.591 237.821 282.389 237.937C282.273 237.995 282.158 238.024 282.042 238.024Z" fill="black"/>
<path d="M244.17 248.658C243.824 248.658 243.506 248.368 243.506 247.991V239.328C243.506 238.98 243.795 238.662 244.17 238.662C244.517 238.662 244.835 238.951 244.835 239.328V247.991C244.806 248.368 244.517 248.658 244.17 248.658Z" fill="black"/>
<path d="M209.85 240.052C209.734 240.052 209.648 240.023 209.532 239.966C209.301 239.85 209.186 239.618 209.186 239.386C209.186 239.27 209.214 239.183 209.272 239.067L213.346 231.389C213.519 231.07 213.894 230.955 214.212 231.128C214.443 231.244 214.559 231.476 214.559 231.708C214.559 231.824 214.53 231.911 214.472 232.027L210.399 239.705C210.312 239.937 210.081 240.052 209.85 240.052Z" fill="black"/>
<path d="M182.493 214.526C182.262 214.526 182.06 214.41 181.944 214.207C181.886 214.091 181.857 213.976 181.857 213.86C181.857 213.628 181.973 213.425 182.175 213.309L189.629 208.76C189.946 208.586 190.351 208.673 190.524 208.992C190.582 209.108 190.611 209.224 190.611 209.34C190.611 209.571 190.495 209.774 190.293 209.89L182.84 214.439C182.724 214.497 182.609 214.526 182.493 214.526Z" fill="black"/>
<path d="M171.254 175.498C170.908 175.498 170.59 175.208 170.59 174.86V174.831C170.59 174.484 170.879 174.194 171.254 174.194H179.921C180.268 174.194 180.585 174.484 180.585 174.86C180.585 175.237 180.297 175.527 179.921 175.527H171.37C171.341 175.498 171.283 175.498 171.254 175.498Z" fill="black"/>
<path d="M187.49 145.191C187.374 145.191 187.287 145.162 187.172 145.104L179.487 140.989C179.256 140.873 179.141 140.642 179.141 140.41C179.141 140.294 179.17 140.207 179.227 140.091C179.401 139.772 179.776 139.656 180.094 139.83L187.778 143.945C188.01 144.061 188.125 144.292 188.125 144.524C188.125 144.64 188.096 144.727 188.038 144.843C187.952 145.075 187.721 145.191 187.49 145.191Z" fill="black"/>
<path d="M214.269 207.398C214.096 207.369 213.922 207.253 213.836 207.08C213.691 206.848 213.749 206.529 213.922 206.326L243.678 174.368C243.938 174.107 244.342 174.107 244.602 174.339C244.862 174.599 244.891 175.005 244.631 175.266L216.234 205.747L220.365 204.965C220.711 204.907 221.058 205.138 221.116 205.486C221.174 205.834 220.942 206.181 220.596 206.239L214.529 207.398C214.442 207.427 214.356 207.427 214.269 207.398Z" fill="black"/>
<path d="M214.27 207.398C213.952 207.311 213.721 207.022 213.778 206.674L214.674 200.473C214.732 200.126 215.05 199.865 215.425 199.923C215.772 199.952 216.032 200.3 215.974 200.676L215.078 206.877C215.021 207.224 214.703 207.485 214.327 207.427C214.298 207.427 214.27 207.427 214.27 207.398Z" fill="black"/>
<path d="M244.113 175.527C243.766 175.527 243.448 175.237 243.448 174.86L243.535 138.353L241.05 141.743C240.848 142.032 240.444 142.09 240.155 141.888C239.866 141.685 239.808 141.279 240.01 140.989L243.679 135.977C243.853 135.745 244.141 135.658 244.401 135.745C244.661 135.832 244.835 136.093 244.835 136.353L244.748 174.889C244.777 175.266 244.488 175.556 244.113 175.527Z" fill="black"/>
<path d="M247.753 142.148C247.551 142.148 247.349 142.061 247.205 141.858L243.651 136.701C243.449 136.411 243.536 136.005 243.825 135.803C244.113 135.6 244.518 135.658 244.72 135.976L248.273 141.134C248.476 141.424 248.389 141.829 248.1 142.032C248.013 142.119 247.869 142.148 247.753 142.148Z" fill="black"/>
<path d="M222.703 198.619C224.235 197.866 225.737 197.112 227.268 196.388C231.428 194.36 235.559 192.332 239.69 190.304C245.815 187.29 251.939 184.277 258.092 181.292C265.575 177.613 273.057 173.962 280.539 170.282C288.743 166.255 296.919 162.256 305.123 158.229C313.386 154.172 321.677 150.116 329.939 146.06C337.652 142.264 345.366 138.497 353.079 134.702C359.608 131.515 366.108 128.298 372.637 125.111C377.317 122.822 382.026 120.504 386.706 118.215C388.93 117.114 391.183 116.071 393.379 114.941C393.466 114.883 393.581 114.854 393.668 114.796C394.275 114.507 393.755 113.608 393.148 113.898C391.617 114.651 390.115 115.405 388.583 116.129C384.423 118.157 380.292 120.186 376.161 122.214C370.037 125.227 363.912 128.24 357.759 131.225C350.277 134.905 342.795 138.555 335.312 142.235C327.108 146.262 318.932 150.261 310.728 154.288C302.466 158.345 294.175 162.401 285.912 166.458C278.199 170.253 270.486 174.02 262.772 177.816C256.243 181.003 249.743 184.219 243.215 187.406C238.535 189.695 233.826 192.013 229.146 194.302C226.921 195.403 224.668 196.446 222.472 197.576C222.386 197.634 222.27 197.663 222.183 197.721C221.606 198.011 222.126 198.909 222.703 198.619Z" fill="black"/>
<path d="M445.41 109.668C445.959 109.842 446.507 110.392 446.941 110.798C447.663 111.493 448.327 112.276 448.992 113.058C450.696 115.144 452.256 117.346 453.701 119.606C455.116 121.75 456.445 123.952 457.658 126.241C458.843 128.443 459.854 130.732 461.01 132.934C461.674 134.238 462.367 135.513 463.119 136.759C463.552 137.483 464.043 138.41 464.794 138.874C465.372 139.222 465.892 138.324 465.314 137.976C464.736 137.628 464.274 136.701 463.927 136.122C463.234 134.992 462.627 133.833 461.992 132.674C460.807 130.414 459.767 128.096 458.583 125.865C456.127 121.2 453.181 116.68 449.858 112.594C449.136 111.696 448.385 110.827 447.547 110.045C446.998 109.523 446.363 108.973 445.641 108.712C445.063 108.451 444.803 109.436 445.41 109.668Z" fill="black"/>
<path d="M466.757 146.32C468.491 144.901 470.657 144.032 472.882 143.858C473.546 143.8 473.546 142.757 472.882 142.815C470.369 143.017 467.971 143.974 466.006 145.596C465.804 145.77 465.833 146.147 466.006 146.32C466.237 146.552 466.526 146.494 466.757 146.32Z" fill="black"/>
<path d="M468.78 149.102C470.484 148.146 472.42 147.566 474.355 147.422C475.02 147.364 475.02 146.321 474.355 146.379C472.217 146.523 470.137 147.161 468.231 148.204C467.682 148.523 468.202 149.421 468.78 149.102Z" fill="black"/>
<path d="M468.491 155.331C468.838 156.201 469.156 157.099 469.416 157.997C469.503 158.258 469.792 158.461 470.052 158.374C470.312 158.287 470.485 158.026 470.427 157.736C470.167 156.838 469.849 155.94 469.503 155.071C469.387 154.81 469.156 154.607 468.867 154.694C468.607 154.752 468.376 155.042 468.491 155.331Z" fill="black"/>
<path d="M244.198 179.38C246.687 179.38 248.705 177.357 248.705 174.86C248.705 172.364 246.687 170.34 244.198 170.34C241.709 170.34 239.691 172.364 239.691 174.86C239.691 177.357 241.709 179.38 244.198 179.38Z" fill="white"/>
<path d="M244.198 180.047C241.367 180.047 239.027 177.729 239.027 174.86C239.027 172.021 241.338 169.674 244.198 169.674C247.058 169.674 249.37 171.992 249.37 174.86C249.37 177.729 247.058 180.047 244.198 180.047ZM244.198 171.007C242.061 171.007 240.327 172.745 240.327 174.889C240.327 177.033 242.061 178.772 244.198 178.772C246.336 178.772 248.07 177.033 248.07 174.889C248.07 172.745 246.336 171.007 244.198 171.007Z" fill="black"/>
<path d="M374.342 235.851C374.342 235.851 389.48 255.177 389.48 257.292C389.48 257.292 390.722 251.845 390.52 251.063C390.346 250.281 374.342 235.851 374.342 235.851Z" fill="black"/>
</svg>
