<svg width="32" height="32" fill="none" xmlns="http://www.w3.org/2000/svg"><path d="M26.368 2.659H5.632a2.96 2.96 0 00-2.956 2.956v10.954h26.648V5.615a2.958 2.958 0 00-2.956-2.956zm-8.163 11.314a1.332 1.332 0 01-.943-2.276l6.412-6.405a1.332 1.332 0 011.886.001 1.332 1.332 0 010 1.886l-6.412 6.405c-.26.26-.602.39-.943.39zm8.29-1.476l-1.675 1.671c-.26.26-.6.39-.942.39a1.333 1.333 0 01-.941-2.277l1.676-1.672a1.333 1.333 0 111.883 1.888zM2.676 21.136a2.958 2.958 0 002.956 2.956h6.036v2.575H10.12a1.333 1.333 0 100 2.666h11.76a1.333 1.333 0 100-2.666h-1.548v-2.575h6.036a2.96 2.96 0 002.956-2.956v-1.9H2.676v1.9z" fill="#5970F6"/></svg>