<svg width="32" height="32" fill="none" xmlns="http://www.w3.org/2000/svg"><path d="M20.223 14.184c-.716.37-1.388 1.33-1.735 2.387h6.788c-.345-1.055-1.018-2.015-1.737-2.387a1.332 1.332 0 01-.22-2.225 2.305 2.305 0 00.883-1.804c0-1.28-1.04-2.322-2.32-2.322a2.323 2.323 0 00-2.322 2.32c0 .698.322 1.355.883 1.804a1.332 1.332 0 01-.22 2.227z" fill="#5970F6"/><path d="M26.368 2.659H5.632a2.96 2.96 0 00-2.956 2.956v10.954h1.31c.272-1.274.906-2.705 1.923-3.754a4.914 4.914 0 01-.78-2.662 4.994 4.994 0 014.99-4.988 4.993 4.993 0 014.986 4.988 4.93 4.93 0 01-.779 2.662c.783.805 1.328 1.838 1.674 2.852.345-1.014.89-2.047 1.67-2.851a4.927 4.927 0 01-.778-2.661 4.994 4.994 0 014.988-4.988 4.993 4.993 0 014.986 4.988c0 .956-.274 1.873-.778 2.661 1.021 1.05 1.653 2.481 1.924 3.755h1.31V5.615a2.954 2.954 0 00-2.954-2.956zM2.676 21.136a2.958 2.958 0 002.956 2.956h6.036v2.575H10.12a1.333 1.333 0 100 2.666h11.76a1.333 1.333 0 100-2.666h-1.548v-2.575h6.036a2.96 2.96 0 002.956-2.956v-1.9H2.676v1.9z" fill="#5970F6"/><path d="M8.46 14.184c-.715.37-1.387 1.33-1.735 2.387h6.788c-.346-1.055-1.018-2.015-1.738-2.387a1.337 1.337 0 01-.22-2.227 2.302 2.302 0 00.884-1.804c0-1.28-1.04-2.321-2.32-2.321a2.324 2.324 0 00-2.322 2.321 2.3 2.3 0 00.884 1.803 1.332 1.332 0 01-.22 2.228z" fill="#5970F6"/></svg>