<svg width="28" height="28" fill="none" xmlns="http://www.w3.org/2000/svg"><path d="M27.256 10.01c-.339-2.606-2.556-4.633-5.263-4.633h-2.5v-.709c0-2.205-1.795-4-4-4h-2.999c-2.205 0-4 1.795-4 4v.708H5.996c-2.702 0-4.916 2.027-5.262 4.635L13.99 15.9l13.267-5.89zM11.162 4.667c0-.735.598-1.333 1.334-1.333h2.998c.735 0 1.334.597 1.334 1.333v.708h-5.666v-.708z" fill="#5970F6"/><path d="M27.327 12.896L14.53 18.58a1.343 1.343 0 01-1.083 0L.664 12.9v9.099a5.338 5.338 0 005.332 5.333h15.996c2.947 0 5.344-2.392 5.344-5.333l-.01-9.103z" fill="#5970F6"/></svg>