<svg width="55" height="55" viewBox="0 0 55 55" fill="none" xmlns="http://www.w3.org/2000/svg">
<path d="M32.5142 37.9509C31.0255 38.2403 29.5014 38.3869 27.9841 38.3869H26.8409C20.4318 38.3869 14.2037 35.7418 9.75349 31.1297C8.85796 30.2016 8.36481 28.9803 8.36481 27.6906V27.4074C8.36481 26.1178 8.85796 24.8965 9.75349 23.9684C10.5423 23.1508 11.3974 22.3836 12.2948 21.688C12.5548 21.4865 12.6022 21.1124 12.4006 20.8525C12.1991 20.5926 11.8252 20.5452 11.5652 20.7467C10.6228 21.4772 9.72483 22.2829 8.89646 23.1414C7.7856 24.2926 7.17383 25.8076 7.17383 27.4074V27.6906C7.17383 29.2904 7.7856 30.8054 8.89646 31.9567C11.1508 34.293 13.7954 36.1377 16.7596 37.4472L15.4852 38.7216L15.2045 38.4409C14.6626 37.899 13.7812 37.8991 13.2394 38.4409L11.8358 39.8445C11.2941 40.3862 11.2941 41.2677 11.8358 41.8095L13.2394 43.2131C13.7812 43.7549 14.6626 43.7549 15.2045 43.2131L16.6081 41.8095C17.1498 41.2678 17.1498 40.3863 16.6081 39.8445L16.3273 39.5637L17.9527 37.9383C20.7971 39.0256 23.7823 39.5779 26.8409 39.5779H26.9044V40.7689H26.5074C25.7413 40.7689 25.118 41.3923 25.118 42.1584V44.1434C25.118 44.9095 25.7413 45.5328 26.5074 45.5328H28.4924C29.2585 45.5328 29.8819 44.9095 29.8819 44.1434V42.1584C29.8819 41.3923 29.2585 40.7689 28.4924 40.7689H28.0954V39.5766C29.6519 39.5696 31.2144 39.4167 32.7414 39.12C33.0643 39.0572 33.2751 38.7446 33.2123 38.4218C33.1496 38.099 32.8373 37.8885 32.5142 37.9509ZM15.766 40.9673L14.3624 42.3709C14.2511 42.4534 14.1928 42.4534 14.0816 42.3709L12.678 40.9673C12.5955 40.8561 12.5955 40.7979 12.678 40.6866L14.0816 39.283C14.1928 39.2005 14.251 39.2004 14.3624 39.283L15.766 40.6866C15.8485 40.7978 15.8485 40.8561 15.766 40.9673ZM28.6909 42.1584V44.1434C28.6909 44.2528 28.6018 44.3419 28.4924 44.3419H26.5074C26.398 44.3419 26.3089 44.2528 26.3089 44.1434V42.1584C26.3089 42.049 26.398 41.9599 26.5074 41.9599H28.4924C28.6018 41.9599 28.6909 42.049 28.6909 42.1584Z" fill="#5970F6"/>
<path d="M45.9139 23.0947L45.1589 22.3775C43.0896 20.4117 40.7344 18.8396 38.1928 17.6984L39.5148 16.3764L39.7956 16.6572C40.3374 17.199 41.2188 17.1989 41.7606 16.6572L43.1642 15.2536C43.7059 14.7118 43.7059 13.8303 43.1642 13.2885L41.7606 11.8849C41.2189 11.3432 40.3374 11.3431 39.7956 11.8849L38.3919 13.2885C37.8502 13.8302 37.8502 14.7117 38.3919 15.2536L38.6727 15.5343L37.0048 17.2022C34.1941 16.1122 31.183 15.5349 28.0957 15.5214V14.3291H28.4927C29.2588 14.3291 29.8821 13.7058 29.8821 12.9396V10.9547C29.8821 10.1885 29.2588 9.56519 28.4927 9.56519H26.5077C25.7416 9.56519 25.1182 10.1885 25.1182 10.9547V12.9396C25.1182 13.7058 25.7416 14.3291 26.5077 14.3291H26.9047V15.5201H26.8412C23.7903 15.5201 20.7792 16.0805 17.9523 17.159L16.3276 15.5343L16.6083 15.2536C17.1501 14.7118 17.1501 13.8303 16.6083 13.2885L15.2047 11.8849C14.6629 11.3431 13.7814 11.3432 13.2397 11.8849L11.836 13.2886C11.2943 13.8303 11.2943 14.7118 11.836 15.2536L13.2396 16.6572C13.7813 17.199 14.6628 17.1991 15.2046 16.6572L15.4854 16.3765L16.759 17.6501C15.783 18.0815 14.8321 18.5758 13.9134 19.1327C13.6321 19.3032 13.5424 19.6694 13.7129 19.9507C13.8834 20.2319 14.2496 20.3218 14.5309 20.1512C18.2432 17.9006 22.5 16.7111 26.841 16.7111H27.9841C31.0601 16.7111 34.0585 17.2986 36.8435 18.4183C36.8915 18.4464 36.9424 18.4673 36.9949 18.4809C39.687 19.585 42.1767 21.1873 44.3386 23.241L45.0935 23.9582C46.0732 24.8889 46.6351 26.1977 46.6351 27.549C46.6351 28.9003 46.0732 30.2091 45.0935 31.1398L44.3386 31.857C41.7399 34.3259 38.5596 36.202 35.1415 37.2826C34.8279 37.3818 34.6541 37.7163 34.7533 38.0299C34.8335 38.2837 35.0681 38.446 35.3209 38.446C35.3803 38.446 35.4408 38.437 35.5006 38.4181C36.0053 38.2586 36.505 38.0819 36.9988 37.8898L38.6726 39.5636L38.3919 39.8444C37.8501 40.3861 37.8501 41.2676 38.3919 41.8094L39.7955 43.213C40.3373 43.7549 41.2187 43.7548 41.7605 43.213L43.1641 41.8094C43.7059 41.2677 43.7059 40.3862 43.1641 39.8444L41.7605 38.4408C41.2188 37.899 40.3373 37.899 39.7955 38.4408L39.5147 38.7215L38.186 37.3928C40.7499 36.2401 43.1242 34.6534 45.1589 32.7204L45.9138 32.0032C47.1291 30.8488 47.8261 29.2253 47.8261 27.549C47.8261 25.8727 47.1291 24.2492 45.9139 23.0947ZM39.234 14.1307L40.6376 12.7271C40.7488 12.6446 40.8071 12.6446 40.9183 12.7271L42.3219 14.1307C42.4044 14.2419 42.4044 14.3001 42.3219 14.4114L40.9183 15.8151C40.8071 15.8976 40.7489 15.8976 40.6376 15.8151L39.234 14.4114C39.1515 14.3002 39.1515 14.2419 39.234 14.1307ZM26.309 12.9396V10.9547C26.309 10.8453 26.3981 10.7562 26.5075 10.7562H28.4925C28.6019 10.7562 28.691 10.8453 28.691 10.9547V12.9396C28.691 13.049 28.6019 13.1381 28.4925 13.1381H26.5075C26.3981 13.1381 26.309 13.049 26.309 12.9396ZM14.0817 15.8151L12.6782 14.4114C12.5957 14.3002 12.5957 14.2419 12.6782 14.1307L14.0818 12.7271C14.193 12.6446 14.2512 12.6446 14.3625 12.7271L15.7662 14.1307C15.8486 14.2419 15.8487 14.3001 15.7662 14.4114L14.3625 15.8151C14.2733 15.9042 14.1732 15.8951 14.0817 15.8151ZM40.9183 39.283L42.3219 40.6866C42.4044 40.7978 42.4044 40.8561 42.3219 40.9673L40.9183 42.3709C40.8071 42.4534 40.7489 42.4534 40.6376 42.3709L39.234 40.9673C39.1515 40.8561 39.1514 40.7979 39.234 40.6866L40.6376 39.283C40.7161 39.1913 40.8162 39.1852 40.9183 39.283Z" fill="#5970F6"/>
<path d="M27.5003 29.3354C28.4854 29.3354 29.2868 28.534 29.2868 27.5489C29.2868 26.5638 28.4854 25.7625 27.5003 25.7625C26.5152 25.7625 25.7139 26.5638 25.7139 27.5489C25.7139 28.534 26.5152 29.3354 27.5003 29.3354ZM27.5003 26.9534C27.8287 26.9534 28.0958 27.2205 28.0958 27.5489C28.0958 27.8773 27.8287 28.1444 27.5003 28.1444C27.1719 28.1444 26.9048 27.8773 26.9048 27.5489C26.9048 27.2205 27.1719 26.9534 27.5003 26.9534Z" fill="#5970F6"/>
<path d="M27.5012 24.1746C27.83 24.1746 28.0967 23.908 28.0967 23.5791C28.0967 23.2503 27.83 22.9836 27.5012 22.9836H27.5004C27.1715 22.9836 26.9053 23.2503 26.9053 23.5791C26.9053 23.908 27.1723 24.1746 27.5012 24.1746Z" fill="#5970F6"/>
<path d="M30.3088 30.9517C30.6376 30.9517 30.9043 30.6851 30.9043 30.3562C30.9043 30.0274 30.6376 29.7607 30.3088 29.7607H30.308C29.9791 29.7607 29.7129 30.0274 29.7129 30.3562C29.7129 30.6851 29.9799 30.9517 30.3088 30.9517Z" fill="#5970F6"/>
<path d="M24.6945 25.3375C25.0234 25.3375 25.29 25.0708 25.29 24.742C25.29 24.4131 25.0234 24.1465 24.6945 24.1465H24.6937C24.3649 24.1465 24.0986 24.4131 24.0986 24.742C24.0986 25.0708 24.3656 25.3375 24.6945 25.3375Z" fill="#5970F6"/>
<path d="M31.4719 28.1446C31.8007 28.1446 32.0674 27.878 32.0674 27.5491C32.0674 27.2202 31.8007 26.9536 31.4719 26.9536H31.4711C31.1422 26.9536 30.876 27.2202 30.876 27.5491C30.876 27.878 31.143 28.1446 31.4719 28.1446Z" fill="#5970F6"/>
<path d="M23.5314 28.1446C23.8603 28.1446 24.1269 27.878 24.1269 27.5491C24.1269 27.2202 23.8603 26.9536 23.5314 26.9536H23.5306C23.2018 26.9536 22.9355 27.2202 22.9355 27.5491C22.9355 27.878 23.2026 28.1446 23.5314 28.1446Z" fill="#5970F6"/>
<path d="M27.5012 30.9233H27.5004C27.1715 30.9233 26.9053 31.19 26.9053 31.5188C26.9053 31.8477 27.1723 32.1143 27.5012 32.1143C27.83 32.1143 28.0967 31.8477 28.0967 31.5188C28.0967 31.19 27.83 30.9233 27.5012 30.9233Z" fill="#5970F6"/>
<path d="M30.3088 25.3375C30.6376 25.3375 30.9043 25.0708 30.9043 24.742C30.9043 24.4131 30.6376 24.1465 30.3088 24.1465H30.308C29.9791 24.1465 29.7129 24.4131 29.7129 24.742C29.7129 25.0708 29.9799 25.3375 30.3088 25.3375Z" fill="#5970F6"/>
<path d="M24.6945 29.7607H24.6937C24.3649 29.7607 24.0986 30.0274 24.0986 30.3562C24.0986 30.6851 24.3657 30.9517 24.6945 30.9517C25.0234 30.9517 25.29 30.6851 25.29 30.3562C25.29 30.0274 25.0234 29.7607 24.6945 29.7607Z" fill="#5970F6"/>
<path d="M15.0346 25.167H13.0496C12.2835 25.167 11.6602 25.7904 11.6602 26.5565V28.5415C11.6602 29.3076 12.2835 29.931 13.0496 29.931H15.0346C15.8007 29.931 16.4241 29.3076 16.4241 28.5415V28.1445H19.7815C20.0866 32.1359 23.432 35.2904 27.5002 35.2904C31.5684 35.2904 34.9138 32.1359 35.2189 28.1445H38.5763V28.5415C38.5763 29.3076 39.1997 29.931 39.9658 29.931H41.9508C42.7169 29.931 43.3403 29.3076 43.3403 28.5415V26.5565C43.3403 25.7904 42.7169 25.167 41.9508 25.167H39.9658C39.1997 25.167 38.5763 25.7904 38.5763 26.5565V26.9535H35.2189C34.9138 22.9621 31.5684 19.8076 27.5002 19.8076C23.432 19.8076 20.0866 22.9621 19.7815 26.9535H16.4241V26.5565C16.4241 25.7904 15.8007 25.167 15.0346 25.167ZM39.7673 26.5565C39.7673 26.4471 39.8564 26.358 39.9658 26.358H41.9508C42.0602 26.358 42.1493 26.4471 42.1493 26.5565V28.5415C42.1493 28.6509 42.0602 28.74 41.9508 28.74H39.9658C39.8564 28.74 39.7673 28.6509 39.7673 28.5415V26.5565ZM27.5002 20.9986C31.1121 20.9986 34.0506 23.9371 34.0506 27.549C34.0506 31.1609 31.1121 34.0994 27.5002 34.0994C23.8883 34.0994 20.9498 31.1609 20.9498 27.549C20.9498 23.9371 23.8883 20.9986 27.5002 20.9986ZM15.2331 28.5415C15.2331 28.6509 15.144 28.74 15.0346 28.74H13.0496C12.9402 28.74 12.8511 28.6509 12.8511 28.5415V26.5565C12.8511 26.4471 12.9402 26.358 13.0496 26.358H15.0346C15.144 26.358 15.2331 26.4471 15.2331 26.5565V28.5415Z" fill="#5970F6"/>
</svg>
