<svg width="55" height="55" viewBox="0 0 55 55" fill="none" xmlns="http://www.w3.org/2000/svg">
<g clip-path="url(#clip0_896_1334)">
<path d="M33.4623 44.3411C33.0993 44.3411 32.8023 44.6381 32.8023 45.0011V47.9491C32.8023 49.7201 31.3613 51.1721 29.5793 51.1721H6.82034C5.04934 51.1721 3.59734 49.7311 3.59734 47.9491V7.05106C3.59734 5.28006 5.03834 3.82806 6.82034 3.82806H29.5793C31.3503 3.82806 32.8023 5.26906 32.8023 7.05106C32.8023 7.41406 33.0993 7.71106 33.4623 7.71106C33.8253 7.71106 34.1223 7.41406 34.1223 7.05106C34.1223 4.54306 32.0873 2.50806 29.5793 2.50806H6.82034C4.31234 2.50806 2.27734 4.54306 2.27734 7.05106V47.9601C2.27734 50.4681 4.31234 52.5031 6.82034 52.5031H29.5793C32.0873 52.5031 34.1223 50.4681 34.1223 47.9601V45.0121C34.1223 44.6381 33.8253 44.3411 33.4623 44.3411Z" fill="#5970F6"/>
<path d="M9.26154 7.41399H27.5765C28.9295 7.41399 30.0405 8.48099 30.0405 9.77899C30.0405 10.142 30.3375 10.439 30.7005 10.439C31.0635 10.439 31.3605 10.142 31.3605 9.77899C31.3605 7.74399 29.6665 6.09399 27.5765 6.09399H9.26154C7.17154 6.09399 5.47754 7.74399 5.47754 9.77899V41.701C5.47754 43.736 7.17154 45.386 9.26154 45.386H27.5765C29.6665 45.386 31.3605 43.736 31.3605 41.701C31.3605 41.338 31.0635 41.041 30.7005 41.041C30.3375 41.041 30.0405 41.338 30.0405 41.701C30.0405 43.01 28.9405 44.066 27.5765 44.066H9.26154C7.90854 44.066 6.79754 42.999 6.79754 41.701V9.78999C6.79754 8.48099 7.89754 7.41399 9.26154 7.41399Z" fill="#5970F6"/>
<path d="M16.5438 47.718C16.1808 47.718 15.8838 48.015 15.8838 48.378C15.8838 48.741 16.1808 49.038 16.5438 49.038H19.8658C20.2288 49.038 20.5258 48.741 20.5258 48.378C20.5258 48.015 20.2288 47.718 19.8658 47.718H16.5438Z" fill="#5970F6"/>
<path d="M52.7231 16.5111C52.7231 16.4891 52.7231 16.4671 52.7231 16.4451C52.7231 16.4341 52.7231 16.4231 52.7121 16.4121C52.7121 16.3901 52.7011 16.3791 52.7011 16.3571C52.7011 16.3461 52.6901 16.3351 52.6901 16.3241C52.6901 16.3131 52.6791 16.2911 52.6791 16.2801C52.6791 16.2691 52.6681 16.2581 52.6571 16.2471C52.6461 16.2361 52.6461 16.2141 52.6351 16.2031C52.6241 16.1921 52.6241 16.1811 52.6131 16.1701C52.6021 16.1591 52.5911 16.1481 52.5911 16.1371C52.5801 16.1261 52.5691 16.1151 52.5691 16.1041C52.5581 16.0931 52.5471 16.0821 52.5361 16.0711C52.5251 16.0601 52.5141 16.0491 52.5031 16.0381C52.4921 16.0271 52.4811 16.0161 52.4701 16.0051C52.4591 15.9941 52.4481 15.9831 52.4371 15.9831L52.4261 15.9721C52.4151 15.9611 52.4041 15.9611 52.3931 15.9611C52.3821 15.9611 52.3821 15.9501 52.3711 15.9501L37.6421 8.62411C37.4551 8.53611 37.2351 8.53611 37.0591 8.62411L22.3301 15.9391C22.3191 15.9391 22.3191 15.9501 22.3081 15.9501C22.2971 15.9611 22.2861 15.9611 22.2751 15.9611L22.2641 15.9721C22.2531 15.9831 22.2421 15.9831 22.2311 15.9941C22.2201 16.0051 22.2091 16.0161 22.1981 16.0271C22.1871 16.0381 22.1761 16.0491 22.1651 16.0491C22.1541 16.0601 22.1431 16.0711 22.1321 16.0821C22.1211 16.0931 22.1101 16.1041 22.1101 16.1151C22.0991 16.1261 22.0881 16.1371 22.0771 16.1591C22.0661 16.1701 22.0661 16.1811 22.0551 16.1921C22.0441 16.2031 22.0441 16.2251 22.0331 16.2361C22.0331 16.2471 22.0221 16.2581 22.0221 16.2691C22.0111 16.2801 22.0111 16.3021 22.0001 16.3131C22.0001 16.3241 21.9891 16.3351 21.9891 16.3461C21.9891 16.3681 21.9781 16.3791 21.9781 16.4011C21.9781 16.4121 21.9781 16.4231 21.9671 16.4341C21.9671 16.4671 21.9561 16.4891 21.9561 16.5221V34.8371C21.9561 35.0901 22.0991 35.3211 22.3191 35.4311L37.0371 42.7461C37.0371 42.7461 37.0481 42.7461 37.0481 42.7571C37.0591 42.7571 37.0701 42.7681 37.0811 42.7681C37.0921 42.7791 37.1141 42.7791 37.1251 42.7901C37.1361 42.7901 37.1471 42.8011 37.1581 42.8011C37.1801 42.8011 37.1911 42.8121 37.2131 42.8121C37.2241 42.8121 37.2351 42.8121 37.2351 42.8121C37.2681 42.8121 37.2901 42.8231 37.3231 42.8231C37.3561 42.8231 37.3781 42.8231 37.4111 42.8121C37.4221 42.8121 37.4331 42.8121 37.4441 42.8121C37.4661 42.8121 37.4771 42.8011 37.4991 42.8011C37.5101 42.8011 37.5211 42.7901 37.5321 42.7901C37.5541 42.7901 37.5651 42.7791 37.5761 42.7681C37.5871 42.7681 37.5981 42.7571 37.6091 42.7571C37.6091 42.7571 37.6201 42.7571 37.6201 42.7461L52.3381 35.4311C52.5581 35.3211 52.7011 35.0901 52.7011 34.8371V16.5331C52.7231 16.5221 52.7231 16.5221 52.7231 16.5111ZM37.3451 9.95511L50.5781 16.5331L37.3451 23.1111L24.1121 16.5331L37.3451 9.95511ZM23.2871 17.6001L33.1211 22.4841L36.6851 24.2551V41.0961L23.2871 34.4411V17.6001ZM51.4031 34.4411L38.0051 41.0961V24.2551L49.2801 18.6451L51.4031 17.5891V34.4411Z" fill="#5970F6"/>
<path d="M35.0575 25.1899L25.5095 20.4489C25.3005 20.3499 25.0585 20.3609 24.8715 20.4819C24.6735 20.6029 24.5635 20.8119 24.5635 21.0429V25.3659C24.5635 25.6189 24.7065 25.8499 24.9265 25.9599L34.4745 30.7009C34.5625 30.7449 34.6725 30.7669 34.7715 30.7669C34.8925 30.7669 35.0135 30.7339 35.1235 30.6679C35.3215 30.5469 35.4315 30.3379 35.4315 30.1069V25.7839C35.4205 25.5309 35.2775 25.2999 35.0575 25.1899ZM34.1005 29.0289L25.8725 24.9369V22.0879L34.1005 26.1799V29.0289Z" fill="#5970F6"/>
</g>
<defs>
<clipPath id="clip0_896_1334">
<rect width="55" height="55" fill="white"/>
</clipPath>
</defs>
</svg>
