<svg width="55" height="55" viewBox="0 0 55 55" fill="none" xmlns="http://www.w3.org/2000/svg">
<g clip-path="url(#clip0_896_1379)">
<path fill-rule="evenodd" clip-rule="evenodd" d="M45.9696 48.1875H9.08922C8.73362 48.1875 8.44531 47.8992 8.44531 47.5436V27.9659C8.44531 27.6103 8.73362 27.322 9.08922 27.322H45.9696C46.3252 27.322 46.6135 27.6103 46.6135 27.9659V47.5436C46.6135 47.8992 46.3252 48.1875 45.9696 48.1875ZM9.73312 46.8997H45.3258V28.6098H9.73312V46.8997Z" fill="#5970F6"/>
<path fill-rule="evenodd" clip-rule="evenodd" d="M39.7064 45.0169H15.3528C14.9972 45.0169 14.7089 44.7286 14.7089 44.373C14.7089 43.0576 13.6389 41.9874 12.3236 41.9874C11.968 41.9874 11.6797 41.6991 11.6797 41.3435V34.1658C11.6797 33.8102 11.968 33.5219 12.3236 33.5219C13.6389 33.5219 14.7089 32.4518 14.7089 31.1363C14.7089 30.7807 14.9972 30.4924 15.3528 30.4924H39.7063C40.0619 30.4924 40.3502 30.7807 40.3502 31.1363C40.3502 32.4518 41.4203 33.5219 42.7356 33.5219C43.0912 33.5219 43.3795 33.8102 43.3795 34.1658V41.3435C43.3795 41.6991 43.0912 41.9874 42.7356 41.9874C41.4203 41.9874 40.3502 43.0576 40.3502 44.373C40.3503 44.7287 40.062 45.0169 39.7064 45.0169ZM15.9403 43.7291H39.119C39.3871 42.2186 40.5814 41.0244 42.0918 40.7561V34.7531C40.5815 34.485 39.3871 33.2906 39.119 31.7801H15.9403C15.6722 33.2906 14.4779 34.4849 12.9675 34.7531V40.7561C14.4779 41.0244 15.6722 42.2187 15.9403 43.7291Z" fill="#5970F6"/>
<path fill-rule="evenodd" clip-rule="evenodd" d="M36.9513 37.7547C36.9513 37.2807 36.5648 36.8943 36.0909 36.8943C35.617 36.8943 35.2305 37.2807 35.2305 37.7547C35.2305 38.2287 35.6169 38.6152 36.0909 38.6152C36.5649 38.6152 36.9513 38.2286 36.9513 37.7547Z" fill="#5970F6"/>
<path fill-rule="evenodd" clip-rule="evenodd" d="M19.8283 37.7547C19.8283 37.2807 19.4418 36.8943 18.9679 36.8943C18.4939 36.8943 18.1074 37.2807 18.1074 37.7547C18.1074 38.2287 18.494 38.6152 18.9679 38.6152C19.4417 38.6152 19.8283 38.2286 19.8283 37.7547Z" fill="#5970F6"/>
<path fill-rule="evenodd" clip-rule="evenodd" d="M27.529 41.2975C25.5755 41.2975 23.9863 39.7082 23.9863 37.7547C23.9863 35.8012 25.5756 34.2119 27.529 34.2119C29.4825 34.2119 31.0718 35.8012 31.0718 37.7547C31.0718 39.7082 29.4825 41.2975 27.529 41.2975ZM27.529 35.4997C26.2856 35.4997 25.2741 36.5113 25.2741 37.7547C25.2741 38.9981 26.2857 40.0097 27.529 40.0097C28.7724 40.0097 29.784 38.9981 29.784 37.7547C29.784 36.5114 28.7724 35.4997 27.529 35.4997Z" fill="#5970F6"/>
<path fill-rule="evenodd" clip-rule="evenodd" d="M43.2771 28.61C43.1123 28.61 42.9475 28.5471 42.8218 28.4214L22.9327 8.53229L9.99984 21.4651L16.0455 27.5108C16.2969 27.7623 16.2969 28.1699 16.0455 28.4214C15.794 28.6729 15.3864 28.6729 15.1349 28.4214L8.6339 21.9204C8.51317 21.7997 8.44531 21.6359 8.44531 21.4651C8.44531 21.2943 8.51317 21.1305 8.6339 21.0098L22.4774 7.16634C22.7289 6.91493 23.1365 6.91493 23.388 7.16634L43.7324 27.5108C43.9838 27.7623 43.9838 28.1699 43.7324 28.4214C43.6066 28.5471 43.4419 28.61 43.2771 28.61Z" fill="#5970F6"/>
<path fill-rule="evenodd" clip-rule="evenodd" d="M20.0741 28.61C19.9094 28.61 19.7446 28.5472 19.6188 28.4214L15.3048 24.1075C15.0534 23.8561 15.0534 23.4483 15.3048 23.1969C15.7553 22.7464 16.0034 22.1474 16.0035 21.5102C16.0035 20.873 15.7554 20.2739 15.3048 19.8233C15.1841 19.7026 15.1162 19.5387 15.1162 19.368C15.1162 19.1973 15.1841 19.0334 15.3048 18.9127L20.3803 13.8375C20.6317 13.5861 21.0394 13.5861 21.2909 13.8375C22.2209 14.7675 23.7344 14.7673 24.6644 13.8373C24.7851 13.7165 24.9489 13.6487 25.1197 13.6487C25.2905 13.6487 25.4543 13.7165 25.575 13.8373L39.2484 27.5109C39.4998 27.7624 39.4998 28.1701 39.2484 28.4215C38.9968 28.6731 38.5893 28.6731 38.3377 28.4215L25.0796 15.1632C24.4509 15.6023 23.7139 15.822 22.9773 15.8221C22.2406 15.8222 21.5041 15.6026 20.8753 15.1635L16.6309 19.4076C17.06 20.0197 17.2911 20.7473 17.2911 21.5103C17.2911 22.2733 17.06 23.0008 16.6309 23.6127L20.5291 27.5109C20.7807 27.7624 20.7807 28.17 20.5291 28.4215C20.4037 28.5472 20.2389 28.61 20.0741 28.61Z" fill="#5970F6"/>
<path fill-rule="evenodd" clip-rule="evenodd" d="M23.8566 21.5287C23.8566 21.0547 23.4702 20.6682 22.9962 20.6682C22.5222 20.6682 22.1357 21.0548 22.1357 21.5287C22.1357 22.0025 22.5223 22.3891 22.9962 22.3891C23.4701 22.3891 23.8566 22.0026 23.8566 21.5287Z" fill="#5970F6"/>
<path fill-rule="evenodd" clip-rule="evenodd" d="M31.9241 28.6102C31.8957 28.6102 31.8672 28.6083 31.8382 28.6045C31.4858 28.5575 31.238 28.2338 31.285 27.8812C31.3786 27.1787 31.1452 26.4887 30.6446 25.9881C30.2187 25.5623 29.6524 25.3276 29.0501 25.3276C28.4478 25.3276 27.8816 25.5622 27.4557 25.9881C26.9551 26.4887 26.7217 27.1786 26.8152 27.8812C26.8622 28.2337 26.6145 28.5575 26.2619 28.6045C25.9092 28.6514 25.5856 28.4037 25.5386 28.0512C25.3917 26.948 25.7585 25.8641 26.5451 25.0777C27.2142 24.4085 28.1038 24.04 29.05 24.04C29.9963 24.04 30.8859 24.4085 31.5551 25.0777C32.3415 25.8642 32.7084 26.948 32.5615 28.0512C32.5184 28.3748 32.2418 28.6101 31.9241 28.6102Z" fill="#5970F6"/>
</g>
<defs>
<clipPath id="clip0_896_1379">
<rect width="55" height="55" fill="white"/>
</clipPath>
</defs>
</svg>
