<svg width="55" height="55" viewBox="0 0 55 55" fill="none" xmlns="http://www.w3.org/2000/svg">
<path fill-rule="evenodd" clip-rule="evenodd" d="M29.1509 34.9804C29.1399 34.9804 29.129 34.9804 29.1178 34.9804C28.7622 34.9797 28.4745 34.6909 28.4752 34.3352C28.4758 33.98 28.764 33.6925 29.1191 33.6925C29.1294 33.6925 29.1394 33.6925 29.1496 33.6925C30.6743 33.6925 32.0174 33.461 33.0357 33.0224C33.8463 32.6734 34.446 32.1944 34.7246 31.6737C34.9369 31.277 34.9405 30.8893 34.7348 30.5823C34.3749 30.0453 33.4761 29.7941 32.3303 29.9102C32.0797 29.9356 31.834 29.9473 31.5935 29.9473C29.8439 29.9475 28.3601 29.3256 27.1387 28.8138C26.2216 28.4295 25.4295 28.0976 24.7523 28.0971C24.7515 28.0971 24.7505 28.0971 24.7497 28.0971C23.1606 28.0971 21.9741 29.1974 20.6001 30.4713C19.258 31.7156 17.7368 33.1261 15.5654 33.6564C15.2198 33.7409 14.8715 33.5292 14.7871 33.1837C14.7027 32.8382 14.9143 32.4899 15.2599 32.4054C17.1064 31.9543 18.4374 30.7202 19.7246 29.5269C20.4664 28.8392 21.1671 28.1895 21.955 27.687C22.8807 27.0965 23.795 26.8093 24.7498 26.8093C24.751 26.8093 24.7522 26.8093 24.7534 26.8093C25.6891 26.81 26.6351 27.2064 27.6366 27.6262C28.9568 28.1793 30.4529 28.8062 32.2006 28.629C33.8523 28.4617 35.1662 28.9122 35.8049 29.8654C36.2811 30.5763 36.3014 31.4567 35.8605 32.281C35.4389 33.0692 34.6384 33.7345 33.5455 34.2051C32.3508 34.7196 30.8724 34.9804 29.1509 34.9804Z" fill="#5970F6"/>
<path fill-rule="evenodd" clip-rule="evenodd" d="M20.9704 42.2171C20.7891 42.2171 20.6089 42.141 20.4816 41.9926C20.2499 41.7228 20.2808 41.3163 20.5507 41.0846C21.8164 39.9978 22.8881 39.3381 23.9232 39.0087C24.8441 38.7156 25.7445 38.6875 26.7569 38.9202C30.107 39.6906 32.4643 39.1538 34.3585 38.7225C34.4849 38.6938 34.6093 38.6654 34.732 38.6379C36.0849 38.3342 38.9151 36.9949 41.4613 35.4533C44.8416 33.4067 46.2381 31.9417 46.4069 31.309C46.469 31.0766 46.5427 30.6579 46.3395 30.4676C46.1011 30.2442 45.3567 30.1405 44.0433 30.5835C43.9723 30.6078 43.6517 30.7467 43.3122 30.8938C41.0878 31.8578 35.1835 34.4162 31.2883 34.8268C31.2607 34.8303 31.233 34.8322 31.2051 34.8322C30.8495 34.8322 30.5612 34.5439 30.5612 34.1883C30.5612 33.8719 30.7895 33.6088 31.0903 33.5547C31.1068 33.5517 31.1234 33.5492 31.1401 33.5476C34.8383 33.1625 40.6227 30.6558 42.8002 29.7122C43.3074 29.4924 43.5178 29.4018 43.6318 29.3632C45.2734 28.8095 46.5143 28.8664 47.2202 29.528C47.5832 29.8682 47.9526 30.5109 47.6514 31.6409C47.4676 32.3295 46.8241 33.1275 45.684 34.0806C44.7709 34.8439 43.5415 35.6995 42.1285 36.555C39.4352 38.1857 36.5096 39.5589 35.014 39.8946C34.8927 39.9219 34.7696 39.9498 34.6445 39.9783C33.3728 40.2679 31.9051 40.602 30.0864 40.602C29.0132 40.602 27.8183 40.4857 26.4684 40.1754C25.0653 39.8527 23.7261 40.0557 21.3899 42.0617C21.2681 42.166 21.1189 42.2171 20.9704 42.2171Z" fill="#5970F6"/>
<path fill-rule="evenodd" clip-rule="evenodd" d="M16.0333 48.1876C15.9888 48.1876 15.9442 48.1831 15.9 48.1737C15.7329 48.1383 15.5867 48.038 15.4937 47.8949L7.40017 35.4566C7.20622 35.1586 7.29062 34.7596 7.58876 34.5656L13.7864 30.5329C13.9295 30.4397 14.1038 30.4073 14.2709 30.4427C14.4379 30.478 14.5842 30.5784 14.6773 30.7215L22.7708 43.1597C22.9647 43.4578 22.8803 43.8566 22.5822 44.0506L16.3845 48.0833C16.2792 48.1519 16.157 48.1876 16.0333 48.1876ZM8.83073 35.2939L16.2219 46.6528L21.3401 43.3224L13.949 31.9635L8.83073 35.2939Z" fill="#5970F6"/>
<path fill-rule="evenodd" clip-rule="evenodd" d="M33.1341 22.1546C32.7785 22.1546 32.4902 21.8663 32.4902 21.5107V17.5003C32.4902 17.1447 32.7785 16.8564 33.1341 16.8564C33.4897 16.8564 33.778 17.1447 33.778 17.5003V21.5107C33.778 21.8663 33.4897 22.1546 33.1341 22.1546Z" fill="#5970F6"/>
<path fill-rule="evenodd" clip-rule="evenodd" d="M38.394 15.1908C37.4364 15.1908 36.3885 14.8328 35.1113 14.2773C34.8799 14.1766 34.7285 13.95 34.7243 13.6977C34.7025 12.395 34.9019 11.2534 35.3173 10.3047C35.707 9.41472 36.2874 8.68676 37.0424 8.14089C39.2779 6.52488 42.5839 6.82481 44.9324 7.64433C45.1621 7.72448 45.327 7.92726 45.3587 8.1685C45.3904 8.40974 45.2834 8.64819 45.0822 8.78491C43.7797 9.66983 43.2071 10.7538 42.9628 11.2166C42.9226 11.2928 42.8908 11.3528 42.8602 11.4043C42.8483 11.4245 42.7758 11.5516 42.7279 11.6357C42.6766 11.7256 42.629 11.8091 42.6183 11.8272C41.4722 13.789 40.4737 14.7617 39.28 15.0783C38.9907 15.1551 38.6968 15.1908 38.394 15.1908ZM36.0133 13.2627C38.5964 14.3484 39.6719 14.3174 41.5069 11.1765C41.5179 11.1578 41.5618 11.0807 41.6091 10.9978C41.6965 10.8445 41.7392 10.7697 41.7533 10.746C41.7673 10.7225 41.7948 10.6704 41.824 10.6152C42.0237 10.2369 42.4736 9.38521 43.3579 8.53204C41.5292 8.11753 39.2982 8.0992 37.7969 9.18466C36.6588 10.0073 36.0597 11.3781 36.0133 13.2627Z" fill="#5970F6"/>
<path fill-rule="evenodd" clip-rule="evenodd" d="M33.1339 18.1443C32.809 18.1443 32.535 17.9023 32.4949 17.5799C32.3452 16.3767 31.6521 15.213 30.4351 14.1211C29.4937 13.2766 28.2396 12.4673 26.601 11.6471C26.2829 11.488 26.1541 11.1012 26.3134 10.7831C26.4726 10.4651 26.8594 10.3364 27.1774 10.4955C28.9202 11.3679 30.2672 12.2403 31.2952 13.1625C32.0992 13.8838 32.7134 14.644 33.1341 15.4363C33.5548 14.644 34.1689 13.8838 34.973 13.1625C36.001 12.2403 37.348 11.3679 39.0908 10.4955C39.4088 10.3363 39.7956 10.4651 39.9548 10.7831C40.114 11.1012 39.9852 11.488 39.6671 11.6471C38.0284 12.4673 36.7743 13.2767 35.833 14.1211C34.6159 15.2131 33.9229 16.3768 33.7732 17.5799C33.7327 17.9023 33.4587 18.1443 33.1339 18.1443Z" fill="#5970F6"/>
<path fill-rule="evenodd" clip-rule="evenodd" d="M27.8747 15.1908C27.5717 15.1908 27.2779 15.1551 26.9886 15.0783C25.7951 14.7617 24.7964 13.7891 23.6497 11.8262C23.6397 11.809 23.5917 11.7251 23.5402 11.6347C23.4923 11.5509 23.4201 11.4242 23.408 11.4038C23.3777 11.3528 23.346 11.2927 23.3057 11.2166C23.0613 10.7538 22.4887 9.66983 21.1863 8.78491C20.9851 8.64819 20.8781 8.40974 20.9098 8.1685C20.9414 7.92726 21.1064 7.72448 21.3361 7.64433C23.6846 6.82481 26.9906 6.52488 29.2261 8.14089C29.9812 8.68676 30.5616 9.41472 30.9513 10.3047C31.3667 11.2534 31.5663 12.3949 31.5443 13.6977C31.5401 13.9501 31.3888 14.1767 31.1573 14.2773C29.8801 14.8328 28.8322 15.1908 27.8747 15.1908ZM22.9105 8.53193C23.7948 9.38521 24.2447 10.2368 24.4444 10.6151C24.4736 10.6703 24.5011 10.7225 24.5151 10.746C24.5292 10.7697 24.5716 10.8442 24.6587 10.9968C24.7062 11.0802 24.7505 11.1577 24.7609 11.1755C26.5965 14.3173 27.6721 14.3483 30.2551 13.2627C30.2087 11.3781 29.6096 10.0073 28.4715 9.18455C26.9702 8.0992 24.7392 8.11742 22.9105 8.53193Z" fill="#5970F6"/>
<path fill-rule="evenodd" clip-rule="evenodd" d="M43.3741 30.8092C43.0653 30.8092 42.7926 30.5863 42.7398 30.2716C41.9514 25.5682 37.9117 22.1544 33.1343 22.1544C29.3297 22.1544 25.8519 24.3902 24.2701 27.8514C24.1717 28.081 23.9437 28.2418 23.6781 28.2418C23.3225 28.2418 23.0342 27.9538 23.0342 27.5982C23.0342 27.506 23.0539 27.4148 23.092 27.3311C23.9571 25.4304 25.3395 23.8184 27.0896 22.6694C28.8861 21.49 30.9763 20.8667 33.1343 20.8667C34.4703 20.8667 35.7763 21.1031 37.0161 21.5695C38.2138 22.02 39.3165 22.6716 40.2938 23.5065C42.2641 25.1897 43.5839 27.5167 44.01 30.0589C44.0688 30.4095 43.8321 30.7415 43.4814 30.8003C43.4453 30.8063 43.4094 30.8092 43.3741 30.8092Z" fill="#5970F6"/>
</svg>
