<svg width="152" height="70" viewBox="0 0 152 70" fill="none" xmlns="http://www.w3.org/2000/svg">
<mask id="path-1-inside-1_939_1705" fill="white">
<rect y="0.25" width="144.892" height="62.3308" rx="0.853961"/>
</mask>
<rect y="0.25" width="144.892" height="62.3308" rx="0.853961" stroke="#5970F6" stroke-width="2.19048" mask="url(#path-1-inside-1_939_1705)"/>
<circle cx="144.072" cy="61.2139" r="7.92804" fill="#AD0018"/>
<path d="M48.5495 20.4973V21.4983H43.878V35.0958H42.8352V21.4983H38.1846V20.4973H48.5495Z" fill="white"/>
<path d="M59.9581 35.0958L56.3084 28.9644H52.2V35.0958H51.1572V20.4973H56.5378C57.8447 20.4973 58.9223 20.9005 59.7704 21.7069C60.6324 22.4994 61.0634 23.5143 61.0634 24.7517C61.0634 25.8084 60.7297 26.719 60.0623 27.4837C59.395 28.2345 58.5191 28.7003 57.4346 28.881L61.1468 35.0958H59.9581ZM52.2 21.4983V27.9634H56.4753C57.518 27.9634 58.3661 27.6645 59.0196 27.0666C59.673 26.4549 59.9998 25.6832 59.9998 24.7517C59.9998 23.8063 59.6661 23.0277 58.9987 22.4159C58.3453 21.8042 57.5041 21.4983 56.4753 21.4983H52.2Z" fill="white"/>
<path d="M74.784 35.0958L73.0948 31.1125H65.3784L63.6892 35.0958H62.563L68.6944 20.4973H69.6537L75.9311 35.0958H74.784ZM69.1949 21.978L65.7747 30.1323H72.6777L69.1949 21.978Z" fill="white"/>
<path d="M78.5702 35.0958V20.4973H79.613V35.0958H78.5702Z" fill="white"/>
<path d="M94.145 20.4973H95.1878V35.0958H94.291L84.9688 22.3534V35.0958H83.9469V20.4973H84.8854L94.145 33.1771V20.4973Z" fill="white"/>
<path d="M99.5067 35.0958V20.4973H100.549V35.0958H99.5067Z" fill="white"/>
<path d="M115.082 20.4973H116.124V35.0958H115.228L105.905 22.3534V35.0958H104.883V20.4973H105.822L115.082 33.1771V20.4973Z" fill="white"/>
<path d="M126.074 28.1302H133.916C133.86 30.2435 133.158 31.9675 131.809 33.3023C130.475 34.637 128.778 35.3044 126.721 35.3044C124.58 35.3044 122.821 34.6022 121.444 33.198C120.068 31.7798 119.38 29.9863 119.38 27.8174C119.38 25.6485 120.075 23.8549 121.465 22.4368C122.855 21.0186 124.6 20.3096 126.7 20.3096C127.826 20.3096 128.883 20.532 129.87 20.9769C130.871 21.4079 131.705 22.0197 132.372 22.8122C133.04 23.6047 133.478 24.5014 133.686 25.5025H132.602C132.282 24.279 131.573 23.2779 130.475 22.4994C129.39 21.7208 128.139 21.3315 126.721 21.3315C124.899 21.3315 123.398 21.9432 122.216 23.1667C121.048 24.3902 120.464 25.9404 120.464 27.8174C120.464 29.7082 121.041 31.2585 122.195 32.4681C123.363 33.6638 124.871 34.2616 126.721 34.2616C128.333 34.2616 129.696 33.7889 130.808 32.8435C131.934 31.898 132.595 30.6606 132.789 29.1313H126.074V28.1302Z" fill="white"/>
<path d="M46.02 39.634C47.4242 39.634 48.6894 39.9469 49.8156 40.5725C50.9557 41.1982 51.8385 42.0671 52.4642 43.1794C53.1037 44.2917 53.4235 45.536 53.4235 46.9124C53.4235 49.0397 52.7214 50.7915 51.3172 52.1679C49.9268 53.5444 48.1611 54.2326 46.02 54.2326H41.5361V39.634H46.02ZM45.9783 53.2315C46.8959 53.2315 47.744 53.0786 48.5226 52.7727C49.3151 52.4529 49.9894 52.015 50.5455 51.4588C51.1156 50.9027 51.5535 50.2354 51.8594 49.4568C52.1792 48.6643 52.3391 47.8162 52.3391 46.9124C52.3391 45.0911 51.7412 43.5895 50.5455 42.4078C49.3498 41.226 47.8274 40.6351 45.9783 40.6351H42.5789V53.2315H45.9783Z" fill="white"/>
<path d="M66.6904 54.2326L65.0012 50.2493H57.2848L55.5955 54.2326H54.4694L60.6007 39.634H61.5601L67.8375 54.2326H66.6904ZM61.1013 41.1147L57.681 49.2691H64.5841L61.1013 41.1147Z" fill="white"/>
<path d="M77.7465 39.634V40.6351H73.075V54.2326H72.0322V40.6351H67.3816V39.634H77.7465Z" fill="white"/>
<path d="M89.4803 54.2326L87.791 50.2493H80.0746L78.3854 54.2326H77.2592L83.3906 39.634H84.3499L90.6273 54.2326H89.4803ZM83.8911 41.1147L80.4709 49.2691H87.3739L83.8911 41.1147Z" fill="white"/>
</svg>
