<svg width="33" height="33" viewBox="0 0 33 33" fill="none" xmlns="http://www.w3.org/2000/svg">
<rect y="0.25" width="33" height="32" rx="16" fill="#5970F6"/>
<path d="M14.85 18.5358L19.1317 16.2501L14.85 13.9644V18.5358ZM24.387 12.5701C24.4942 12.9282 24.5685 13.4082 24.618 14.0177C24.6758 14.6272 24.7005 15.1529 24.7005 15.6101L24.75 16.2501C24.75 17.9187 24.618 19.1453 24.387 19.9301C24.1807 20.6158 23.7022 21.0577 22.9598 21.2482C22.572 21.3472 21.8625 21.4158 20.7735 21.4615C19.701 21.5148 18.7192 21.5377 17.8118 21.5377L16.5 21.5834C13.0433 21.5834 10.89 21.4615 10.0403 21.2482C9.29775 21.0577 8.81925 20.6158 8.613 19.9301C8.50575 19.572 8.4315 19.092 8.382 18.4825C8.32425 17.8729 8.2995 17.3472 8.2995 16.8901L8.25 16.2501C8.25 14.5815 8.382 13.3548 8.613 12.5701C8.81925 11.8844 9.29775 11.4425 10.0403 11.252C10.428 11.1529 11.1375 11.0844 12.2265 11.0387C13.299 10.9853 14.2807 10.9625 15.1882 10.9625L16.5 10.9167C19.9567 10.9167 22.11 11.0387 22.9598 11.252C23.7022 11.4425 24.1807 11.8844 24.387 12.5701Z" fill="white"/>
</svg>
