<svg width="33" height="33" viewBox="0 0 33 33" fill="none" xmlns="http://www.w3.org/2000/svg">
<rect y="0.25" width="33" height="32" rx="16" fill="#5970F6"/>
<path d="M13.035 8.25H19.965C22.605 8.25 24.75 10.33 24.75 12.89V19.61C24.75 20.8406 24.2459 22.0208 23.3485 22.891C22.4511 23.7611 21.2341 24.25 19.965 24.25H13.035C10.395 24.25 8.25 22.17 8.25 19.61V12.89C8.25 11.6594 8.75413 10.4792 9.65149 9.60902C10.5489 8.73886 11.7659 8.25 13.035 8.25ZM12.87 9.85C12.0823 9.85 11.3269 10.1534 10.7699 10.6935C10.2129 11.2336 9.9 11.9662 9.9 12.73V19.77C9.9 21.362 11.2282 22.65 12.87 22.65H20.13C20.9177 22.65 21.6731 22.3466 22.2301 21.8065C22.7871 21.2664 23.1 20.5338 23.1 19.77V12.73C23.1 11.138 21.7717 9.85 20.13 9.85H12.87ZM20.8313 11.05C21.1048 11.05 21.3671 11.1554 21.5605 11.3429C21.7539 11.5304 21.8625 11.7848 21.8625 12.05C21.8625 12.3152 21.7539 12.5696 21.5605 12.7571C21.3671 12.9446 21.1048 13.05 20.8313 13.05C20.5577 13.05 20.2954 12.9446 20.102 12.7571C19.9086 12.5696 19.8 12.3152 19.8 12.05C19.8 11.7848 19.9086 11.5304 20.102 11.3429C20.2954 11.1554 20.5577 11.05 20.8313 11.05ZM16.5 12.25C17.594 12.25 18.6432 12.6714 19.4168 13.4216C20.1904 14.1717 20.625 15.1891 20.625 16.25C20.625 17.3109 20.1904 18.3283 19.4168 19.0784C18.6432 19.8286 17.594 20.25 16.5 20.25C15.406 20.25 14.3568 19.8286 13.5832 19.0784C12.8096 18.3283 12.375 17.3109 12.375 16.25C12.375 15.1891 12.8096 14.1717 13.5832 13.4216C14.3568 12.6714 15.406 12.25 16.5 12.25ZM16.5 13.85C15.8436 13.85 15.2141 14.1029 14.7499 14.5529C14.2858 15.003 14.025 15.6135 14.025 16.25C14.025 16.8865 14.2858 17.497 14.7499 17.9471C15.2141 18.3971 15.8436 18.65 16.5 18.65C17.1564 18.65 17.7859 18.3971 18.2501 17.9471C18.7142 17.497 18.975 16.8865 18.975 16.25C18.975 15.6135 18.7142 15.003 18.2501 14.5529C17.7859 14.1029 17.1564 13.85 16.5 13.85Z" fill="white"/>
</svg>
