<svg width="33" height="33" viewBox="0 0 33 33" fill="none" xmlns="http://www.w3.org/2000/svg">
<g clip-path="url(#clip0_896_1281)">
<rect y="0.25" width="33" height="32" rx="16" fill="#5970F6"/>
<path d="M22.3415 9.89995C20.761 8.32495 18.6537 7.44995 16.4293 7.44995C11.8049 7.44995 8.05854 11.1833 8.05854 15.7916C8.05854 17.25 8.46829 18.7083 9.17073 19.9333L8 24.25L12.4488 23.0833C13.6781 23.725 15.0244 24.075 16.4293 24.075C21.0537 24.075 24.8 20.3416 24.8 15.7333C24.7415 13.575 23.9219 11.475 22.3415 9.89995ZM20.4683 18.7666C20.2927 19.2333 19.4732 19.7 19.0634 19.7583C18.7122 19.8166 18.2439 19.8166 17.7756 19.7C17.4829 19.5833 17.0732 19.4666 16.6049 19.2333C14.4976 18.3583 13.1512 16.2583 13.0341 16.0833C12.9171 15.9666 12.1561 14.9749 12.1561 13.925C12.1561 12.8749 12.6829 12.4083 12.8585 12.175C13.0341 11.9416 13.2683 11.9416 13.4439 11.9416C13.561 11.9416 13.7366 11.9416 13.8537 11.9416C13.9707 11.9416 14.1463 11.8833 14.322 12.2916C14.4976 12.7 14.9073 13.75 14.9659 13.8083C15.0244 13.925 15.0244 14.0416 14.9659 14.1583C14.9073 14.275 14.8488 14.3916 14.7317 14.5083C14.6146 14.6249 14.4976 14.8 14.439 14.8583C14.3219 14.975 14.2049 15.0916 14.322 15.2666C14.439 15.4999 14.8488 16.1416 15.4927 16.7249C16.3122 17.4249 16.9561 17.6583 17.1902 17.775C17.4244 17.8916 17.5415 17.8333 17.6585 17.7166C17.7756 17.5999 18.1854 17.1333 18.3024 16.9C18.4195 16.6666 18.5951 16.725 18.7707 16.7833C18.9463 16.8416 20 17.3666 20.1756 17.4833C20.4098 17.6 20.5268 17.6583 20.5854 17.7166C20.6439 17.8916 20.6439 18.2999 20.4683 18.7666Z" fill="white"/>
</g>
<defs>
<clipPath id="clip0_896_1281">
<rect y="0.25" width="33" height="32" rx="16" fill="white"/>
</clipPath>
</defs>
</svg>
