<svg width="32" height="33" viewBox="0 0 32 33" fill="none" xmlns="http://www.w3.org/2000/svg">
<rect y="0.25" width="32" height="32" rx="16" fill="#5970F6"/>
<path d="M22.4004 16.8456V21.2582H19.8174V17.1147C19.8174 16.0923 19.4408 15.3927 18.526 15.3927C17.8264 15.3927 17.3959 15.877 17.2345 16.3075C17.1807 16.4689 17.1268 16.6842 17.1268 16.9532V21.2582H14.5439C14.5439 21.2582 14.5977 14.2627 14.5439 13.5631H17.1268V14.6393C17.4497 14.1012 18.0955 13.3479 19.4407 13.3479C21.1089 13.3479 22.4004 14.4779 22.4004 16.8456ZM11.8533 9.8501C10.9923 9.8501 10.4004 10.442 10.4004 11.1954C10.4004 11.9488 10.9385 12.5407 11.7995 12.5407C12.7143 12.5407 13.2524 11.9488 13.2524 11.1954C13.3062 10.3882 12.7681 9.8501 11.8533 9.8501ZM10.5618 21.2582H13.1448V13.5631H10.5618V21.2582Z" fill="white"/>
</svg>
