<svg width="652" height="843" fill="none" xmlns="http://www.w3.org/2000/svg"><g filter="url(#filter0_f_2610_7324)"><ellipse cx="478.417" cy="370.042" rx="178.123" ry="172.348" transform="rotate(-167.405 478.417 370.042)" fill="#5970F6" fill-opacity=".2"/></g><path d="M351.071 611.64c-129.521-59.583-179.94-206.227-112.65-327.527 67.29-121.3 226.828-171.36 356.35-111.778 129.521 59.583 179.94 206.227 112.65 327.527-67.29 121.3-226.828 171.36-356.35 111.778z" stroke="#D5DAE1" stroke-width=".94"/><path d="M387.283 559.358c-136.621-62.848-189.804-217.53-118.825-345.48C339.437 85.928 507.72 33.125 644.341 95.973c136.62 62.848 189.803 217.53 118.824 345.48-70.979 127.95-239.262 180.753-375.882 117.905z" stroke="#D5DAE1" stroke-width=".94"/><defs><filter id="filter0_f_2610_7324" x=".527" y="-102.623" width="955.779" height="945.33" filterUnits="userSpaceOnUse" color-interpolation-filters="sRGB"><feFlood flood-opacity="0" result="BackgroundImageFix"/><feBlend in="SourceGraphic" in2="BackgroundImageFix" result="shape"/><feGaussianBlur stdDeviation="150" result="effect1_foregroundBlur_2610_7324"/></filter></defs></svg>