<svg width="676" height="452" fill="none" xmlns="http://www.w3.org/2000/svg"><path d="M467.74 388.228H185.785c-.549 0-.549.869 0 .869H467.74c.549 0 .549-.869 0-.869z" fill="#000"/><path d="M441.22 361.223s1.994 3.448 8.523 3.159c6.529-.29 20.684-9.272 25.509-13.358 4.824-4.114 5.604-11.763 2.715-13.009-2.889-1.275-5.489-4.433-17.94-1.71-12.451 2.695-24.758 19.79-18.807 24.918z" fill="#FFDCDA"/><path d="M441.104 361.513s6.182-1.912 12.855-12.227c6.673-10.315 13.953-11.764 19.067-11.88 5.113-.116 7.106 3.187 6.442 6.346-1.069 5.157-11.296 16.225-21.407 19.268-10.14 3.042-14.762.637-16.957-1.507z" fill="#000"/><path d="M452.717 352.067s10.631 24.774 11.238 24.774c.607 0 4.651.029 9.331-5.998 4.709-5.998 4.68-10.866 4.68-10.866l-12.624-23.034c0 .029-14.098 11.677-12.625 15.124z" fill="#FFE4D9"/><path d="M425.938 89.24c-.029-.086-3.467-4.374-3.756-9.184-.289-4.78 2.976-11.184 3.987-12.082 1.04-.898 4.189-2.898 4.189-2.898s4.246-3.97 8.06-4.954c3.842-.985 12.249.231 16.177 1.71 3.929 1.477 5.923 4.056 6.587 5.215.665 1.159.722 2.318 1.993 2.752 1.272.406 1.994.03 2.08.435.087.405-1.964 2.289-1.906 2.723.058.435 3.004.957 3.582 1.536.578.58-1.936 2.318-3.033 2.637-1.098.318-1.734.405-1.734.405s.867 2.521-.722 4.375c-1.589 1.884-3.582 3.767-3.582 3.767s-31.113 8.316-31.922 3.564z" fill="#6D4E4D"/><path d="M426.053 103.554s1.791-2.057 2.686-3.737c.867-1.68 1.156-4.81 1.156-4.81s-2.398-1.275-3.264-4.143c-.867-2.869.231-4.955 1.473-5.621 1.213-.696 3.004.695 3.004.695s3.265-3.1 5.287-5.853c2.051-2.752 3.351-6.403 4.044-7.736.694-1.333 2.716-.58 2.716-.58s6.327 3.796 8.522 4.491c2.196.696 6.645 1.217 6.876 1.536.231.319.231 3.883.058 5.129-.145 1.246-1.272 6.635-1.329 7.417-.058.782-.463 6.403-1.416 7.852-.953 1.449-5.316 5.563-7.164 6.722-1.849 1.159-4.103 1.536-5.952 1.217-.722-.116-.635.406-2.051.377-2.282-.029-6.326-.551-7.828-.869-1.705-.348-6.038-1.565-6.818-2.087z" fill="#FFE4D9"/><path d="M422.039 103.323s-3.409 2.636-4.478 2.926c-1.069.29-13.549 2.666-13.722 2.781-.174.116-6.183 1.594-8.985 3.564-2.802 1.971-4.824 5.245-5.604 6.317-.78 1.072-3.698 9.387-4.767 12.14-1.04 2.753-4.622 16.052-4.622 16.052s-4.622 16.573-5.2 17.935c-.578 1.362-2.918 7.215-4.391 8.924-1.474 1.681-4.998 7.62-5.316 9.011-.346 1.391 1.011 2.955 1.618 4.201.607 1.246 9.273 7.968 14.184 10.605 4.912 2.637 15.572 7.301 24.498 9.446 8.927 2.144 14.878.666 15.6.086.722-.579 1.907-3.013 2.254-3.911.346-.898 7.626-21.122 7.626-21.122l1.705-5.477 6.037-6.055.203 5.244 6.24-3.303s10.082-5.36 13.346-6.577c3.265-1.217 8.783-3.477 8.783-3.477s2.715-2.984 2.715-4.404-6.789-26.193-7.54-28.076c-.751-1.884-.895-7.331-2.6-9.33-1.704-1.999-13.578-10.605-14.358-11.271-.78-.637.607-1.13-.317-1.854-.925-.754-9.765-1.681-12.076-2.087-2.311-.405-8.493-3.708-10.833-2.288z" fill="#AEB8F0"/><path d="M409.153 168.457c-.288-.029-6.76 1.738-11.671 4.578-4.911 2.868-10.4 6.143-10.313 6.403.087.261 2.6 11.793 12.162 12.575 9.562.811 11.469-2.984 17.507-6.113 6.038-3.13 21.667-13.358 21.667-13.358s.346 8.229 2.542 12.517c2.195 4.289 5.691 6.404 9.591 5.708 3.9-.695 17.189-8.402 18.893-10.17 1.734-1.738 4.42-3.506 6.182-4.114 1.763-.609 5.923-1.768 7.916-4.114 1.964-2.347 3.409-5.824 2.629-8.954-.347-1.361-1.618-2.926-2.542-4.259-1.185-1.709-2.109-3.1-3.294-3.795-2.08-1.246-4.189-1.565-6.297-.696-2.109.869-4.998 4.173-5.836 6.056-.838 1.883-1.416 2.115-1.416 2.115s-11.208 3.998-12.133 4.404c-.924.406-15.6 8.142-15.6 8.142l-.607-2.869s14.04-9.561 15.514-11.01c1.473-1.449 1.473-1.42 1.473-1.42-.058.029 5.836-1.651 7.713-3.39 1.589-1.477 2.658-2.636 4.449-3.65 0 0 0 1.159 1.878.898 1.878-.232 5.46-1.478 6.125-3.419.693-1.941-.752-3.883-.752-3.883s.203-1.738-.086-2.26c-.867-1.622-2.051-1.188-2.051-1.188s1.184-1.448 0-2.376c-1.185-.927-2.774-.985-2.774-.985s.26-1.622-1.849-1.854c-2.137-.232-5.893.145-8.724 1.854-2.802 1.71-10.949 11.3-12.307 12.459-1.329 1.188-18.835 8.171-18.835 8.171l-16.611 7.446-2.543.551z" fill="#FFE4D9"/><path d="M365.444 185.436s-4.507 8.924-5.2 18.341c-.694 9.416.549 10.256.549 10.256l-6.067 23.035s-2.08 5.679-3.871 8.026c-1.82 2.347-74.216 86.431-74.216 86.431s-3.726 3.505-3.178 4.635c.549 1.101 3.583 3.68 6.703 6.375 3.12 2.665 19.442 9.88 25.104 7.272 5.691-2.607 5.633-3.679 8.956-6.982 3.322-3.333 44.517-49.431 44.517-49.431s14.358-16.631 18.807-20.079c4.449-3.477 9.042-10.112 10.429-12.894 1.387-2.781 2.831-8.721 2.831-8.721s10.92 9.996 11.122 12.372c.203 2.376 20.511 56.326 20.511 56.326s14.358 38.189 17.536 40.449c3.178 2.26 11.642-6.056 15.08-11.996 3.438-5.94 12.104-12.169 16.322-11.561 4.218.609 8.06 2.695 8.06 2.695l-27.242-60.556s-10.516-25.353-14.907-31.148c-4.42-5.795-25.364-29.901-25.364-29.901l5.547-10.083s-22.476.029-36.689-10.576c0 .058-13.203-6.751-15.34-12.285z" fill="#635353"/><path d="M276.235 339.753l-5.749 6.346s2.571 5.679 5.749 5.737c3.178.058 5.922-1.42 8.609-.956 2.687.463 3.987.956 3.987.956l3.669-3.448c-.029 0-12.827-4.984-16.265-8.635z" fill="#FFE4D9"/><path d="M277.16 340.594s9.1 7.967 12.48 9.358l2.831-1.564-15.311-7.794zm175.559 11.473l2.369 4.839s.52-4.781 4.564-10.402c4.045-5.65 7.742-5.766 7.742-5.766l-.751-1.68c0-.029-6.471.666-13.924 13.009zm-55.496-146.668s12.451 6.201 18.546 5.1l1.676-2.144s-12.625.376-20.222-2.956zm-33.368-17.616s9.043 8.142 14.965 9.445c0 0-10.487-5.91-13.376-11.792l-1.589 2.347zm23.313-8.026l.982 3.013s6.356-6.2 8.667-7.765a80.12 80.12 0 004.42-3.245l-14.069 7.997zm62.718-9.214a93.872 93.872 0 0117.478-4.925c.665-.116.376-1.13-.289-1.015a93.253 93.253 0 00-17.478 4.926c-.606.232-.346 1.246.289 1.014zm-37.469-33.06s-.722 21.847-1.069 25.643c-.347 3.795-1.358 4.983-1.358 4.983l.462.696 2.86-2-.895-29.322zm29.409 17.704s2.629-.899 2.629-1.623 2.889-12.981 2.889-12.981l-5.518 14.604z" fill="#000"/><path d="M244.198 267.028c50.753 0 91.896-41.265 91.896-92.168 0-50.902-41.143-92.167-91.896-92.167-50.752 0-91.895 41.265-91.895 92.167 0 50.903 41.143 92.168 91.895 92.168z" fill="#fff"/><path d="M244.199 267.694c-51.047 0-92.56-41.636-92.56-92.834 0-51.197 41.513-92.834 92.56-92.834 51.046 0 92.56 41.637 92.56 92.834 0 51.198-41.514 92.834-92.56 92.834zm0-184.364c-50.325 0-91.26 41.057-91.26 91.53 0 50.474 40.935 91.53 91.26 91.53 50.324 0 91.26-41.056 91.26-91.53 0-50.473-40.936-91.53-91.26-91.53z" fill="#000"/><path d="M244.198 257.901c45.727 0 82.795-37.179 82.795-83.041 0-45.862-37.068-83.04-82.795-83.04-45.727 0-82.796 37.178-82.796 83.04 0 45.862 37.069 83.041 82.796 83.041z" fill="#5970F6"/><path d="M464.996 137.918a75.503 75.503 0 01-1.358-4.317c-.751-2.608-1.473-5.274-1.704-7.997-.491-5.476-5.403-8.866-9.649-11.619-1.849-1.217-3.727-2.405-5.605-3.593-.289-.174-.577-.376-.866-.55-.116-.058-.463-.203-.52-.319-.029-.087.115-.522.144-.637.058-.261.116-.551.087-.812 0-.347-.087-.666-.347-.927-.404-.377-1.04-.463-1.531-.521-.982-.145-1.964-.203-2.976-.319-2.802-.261-5.546-.551-8.233-1.333-2.398-.695-4.767-1.594-7.193-2.173-.78-.174-1.618-.377-2.427-.319-.953.087-1.618.956-2.369 1.449-.78.522-1.589 1.188-2.484 1.478-1.242.434-2.542.753-3.842 1.014-3.207.695-6.443 1.159-9.62 1.883-5.518 1.246-10.718 3.535-14.214 8.142-2.34 3.071-3.842 6.838-5.084 10.489-1.242 3.592-2.08 7.33-3.091 11.01a4544.903 4544.903 0 00-5.258 19.152c-.982 3.622-1.936 7.301-3.38 10.749-.809 1.942-2.022 3.68-3.265 5.39-1.531 2.086-3.148 4.143-4.477 6.374-.751 1.246-1.734 2.868-1.329 4.404.202.753.549 1.507.953 2.173 1.502 2.521 3.727 4.549 6.009 6.346 4.333 3.39 9.187 6.026 14.156 8.344 6.211 2.898 12.682 5.447 19.384 6.983 3.871.898 7.973 1.536 11.931 1.101 1.618-.174 3.785-.464 5.027-1.709.491-.464.751-1.188 1.011-1.768.578-1.275 1.069-2.579 1.56-3.882 1.82-4.81 3.467-9.678 5.142-14.546 1.156-3.361 2.311-6.722 3.438-10.083.202-.637-.78-.898-1.011-.289-2.109 6.171-4.189 12.343-6.356 18.485-1.155 3.274-2.253 6.606-3.669 9.794-.173.376-.346.753-.549 1.101a1.165 1.165 0 01-.202.318c-.086.116 0 0 0 .029-.029.029-.058.087-.115.116-.174.174-.231.203-.549.406-.376.203-.578.29-.954.405-2.571.899-5.488.812-8.146.58-5.46-.493-10.805-2.086-15.918-3.97-6.327-2.317-12.538-5.099-18.287-8.605-3.293-1.999-6.529-4.288-9.129-7.157-1.155-1.274-2.455-2.897-2.773-4.549-.115-.666.173-1.332.433-1.941.463-.985 1.04-1.912 1.647-2.81 1.416-2.115 2.976-4.086 4.449-6.172 1.098-1.565 2.051-3.158 2.773-4.955.607-1.506 1.098-3.042 1.56-4.577 1.503-4.897 2.774-9.881 4.131-14.835 1.56-5.708 3.149-11.387 4.68-17.095a62.925 62.925 0 012.687-7.852c.925-2.202 1.965-4.375 3.409-6.288 1.444-1.912 3.467-3.65 5.633-4.896 5.489-3.101 12.018-3.506 18.056-4.839 1.213-.261 2.427-.551 3.611-.985.809-.29 1.56-.84 2.282-1.333a12.076 12.076 0 001.56-1.159c.318-.261.318-.348.722-.406.838-.087 1.734.203 2.543.406 2.369.637 4.68 1.478 7.049 2.144 2.6.753 5.286.985 7.973 1.246.982.087 1.964.145 2.947.29.26.029.548.087.808.174.116.058.058.029.174.058.086.029.058-.029.058.057v.116c0 .174-.029.348-.058.551-.058.29-.145.579-.145.898 0 .435.174.724.549.956.491.319.982.58 1.474.898a362.1 362.1 0 015.517 3.535c2.051 1.333 4.074 2.666 5.778 4.404 1.04 1.044 1.993 2.231 2.629 3.564.578 1.188.636 2.405.809 3.709.347 2.637 1.04 5.244 1.762 7.794a86.28 86.28 0 001.213 3.854c.145.666 1.156.405.925-.232z" fill="#000"/><path d="M384.626 134.412c-.665 4.578-.838 9.243-.953 13.879-.145 5.128-.145 10.257-.174 15.385-.029 3.941-.289 7.91.087 11.851.144 1.535.289 3.679 1.358 4.896.606.696 1.3.348 2.022 0 2.773-1.332 5.315-3.158 7.944-4.751 3.351-2.058 6.818-4.115 10.487-5.506.751-.289 1.502-.55 2.253-.724.578-.145 1.214-.145 1.791-.319.809-.231 1.243-1.072 1.503-1.796.462-1.159.664-2.434.837-3.651.26-1.796.376-3.622.492-5.447.606-10.576.433-21.18 1.213-31.756.087-1.362.202-2.723.347-4.085.057-.667-.983-.667-1.04 0-1.012 10.575-.983 21.209-1.358 31.814-.116 3.592-.202 7.272-.896 10.807-.173.927-.375 1.97-.924 2.753a1.113 1.113 0 01-.26.289c-.029.029-.174.116-.231.116-.087.029-.434.058-.665.087-.375.058-.722.145-1.098.232-3.495.869-6.76 2.724-9.88 4.491-3.062 1.767-6.008 3.68-9.042 5.476-.78.464-1.704 1.101-2.542 1.333-.058.029-.144.029-.202.058-.087.029-.029 0-.029 0 0-.029.115.029.115.029 0 .029-.115-.116-.173-.203-.433-.579-.607-1.42-.751-2.115-.751-3.68-.433-7.504-.404-11.213.115-9.562-.145-19.152.78-28.685.086-.985.202-1.97.346-2.955.145-.667-.866-.956-.953-.29zm65.144-2.752c-2.917 7.765-5.922 15.501-8.464 23.382-.202.637.809.927 1.011.29 2.542-7.881 5.547-15.618 8.464-23.383.232-.637-.78-.927-1.011-.289z" fill="#000"/><path d="M387.025 180.163c.838 5.36 4.102 9.996 9.215 11.995 2.167.84 4.536 1.159 6.847.869 2.427-.29 4.593-1.362 6.789-2.434 6.067-2.955 11.902-6.461 17.622-10.025a412.83 412.83 0 0018.085-11.85 192.822 192.822 0 006.76-4.926c.982-.753 1.993-1.478 2.917-2.289.029-.029.087-.058.116-.116.52-.434-.231-1.159-.722-.724-2.398 1.999-4.94 3.853-7.483 5.679-5.604 4.027-11.382 7.794-17.217 11.503-5.72 3.621-11.527 7.156-17.536 10.314-2.282 1.217-4.651 2.55-7.107 3.362-2.108.695-4.362.782-6.528.318-2.543-.521-4.94-1.796-6.76-3.651-2.225-2.231-3.467-5.186-3.958-8.286-.145-.667-1.156-.406-1.04.261z" fill="#000"/><path d="M399.533 176.106c2.109-2.231 4.882-3.651 7.598-5.07a222.673 222.673 0 018.782-4.231c6.038-2.752 12.133-5.331 18.287-7.823a656.477 656.477 0 0110.429-4.172c.606-.232.346-1.246-.289-1.014-12.394 4.926-24.903 9.822-36.834 15.878-3.062 1.564-6.297 3.129-8.695 5.679-.491.521.26 1.246.722.753zm-34.925 9.62c-1.618 2.578-2.427 5.823-3.207 8.75-.838 3.129-1.416 6.316-1.618 9.561-.404 6.809 1.098 13.56 4.42 19.529 2.745 4.926 6.5 9.301 10.4 13.299 4.536 4.665 9.389 9.011 14.098 13.502 3.929 3.767 7.8 7.737 11.267 11.938.577.695 1.213 1.42 1.617 2.26l.029.087c.029.087.058.174.116.261l.26.695c1.531 4.027 2.947 8.113 4.391 12.169a4208.791 4208.791 0 007.309 20.369c2.86 7.881 5.72 15.733 8.695 23.556 2.745 7.273 5.518 14.516 8.494 21.673 2.08 5.013 4.131 10.083 6.76 14.806.635 1.159 1.329 2.463 2.311 3.361.289.261.664.493 1.069.493.866-.029 1.906-.696 2.658-1.072a18.7 18.7 0 003.38-2.174c4.564-3.592 7.511-8.895 11.411-13.125 2.513-2.724 5.344-5.766 8.897-7.07 2.6-.956 5.403-.956 8.032-.174 1.097.348 2.253.783 3.206 1.449.174.116.491.087.636-.087.433-.492.202-1.333.058-1.883-.289-1.13-.694-2.231-1.098-3.332-1.416-3.796-3.091-7.475-4.738-11.184-4.536-10.141-9.36-20.166-14.156-30.191-4.044-8.432-8.204-16.806-11.873-25.411-2.773-6.432-5.315-13.009-9.158-18.891-3.495-5.332-7.857-10.083-12.104-14.835-6.991-7.794-14.098-15.472-21.291-23.093-.145-.145-.26-.289-.405-.434-.462-.493-1.184.26-.722.724a1297.14 1297.14 0 0118.229 19.703c4.016 4.404 8.089 8.808 11.787 13.473 4.391 5.505 7.569 11.618 10.313 18.08 2.167 5.041 4.276 10.083 6.616 15.037 1.848 3.941 3.755 7.881 5.633 11.822 4.795 9.996 9.591 19.963 14.184 30.017 1.878 4.086 3.727 8.2 5.46 12.372a81.494 81.494 0 011.705 4.404c.173.522.346 1.044.52 1.594.058.203.115.406.144.609.029.115.087.492.087.405 0 .116 0 .232.029.348-.058-.058.029.116 0 0 0 .029 0-.029.058-.116l.635-.087c-3.004-2.028-7.193-2.637-10.66-1.796-3.467.84-6.24 3.216-8.753 5.708-2.34 2.289-4.42 4.838-6.442 7.446-1.676 2.144-3.294 4.346-5.258 6.23-.954.927-1.965 1.767-3.091 2.491-.578.377-1.185.725-1.82 1.043-.723.348-1.474.58-2.196.928-.029 0-.029 0 0 0-.231-.145-.173-.058-.318-.232-.433-.406-.635-.725-.953-1.188-2.542-3.796-4.304-8.229-6.096-12.401-2.888-6.693-5.546-13.502-8.146-20.34-2.976-7.736-5.836-15.53-8.696-23.325-2.6-7.156-5.171-14.313-7.742-21.499-1.733-4.867-3.467-9.764-5.258-14.632-.404-1.101-.78-2.231-1.242-3.303-.289-.666-.78-1.246-1.242-1.825-1.531-1.941-3.236-3.796-4.911-5.592-4.276-4.607-8.84-8.895-13.405-13.212-4.044-3.825-8.118-7.65-11.729-11.88-4.275-5.012-7.857-10.605-9.475-17.066-1.618-6.49-1.069-13.241.635-19.673.78-2.869 1.56-6.085 3.149-8.635.347-.463-.549-.985-.895-.434z" fill="#000"/><path d="M360.447 213.28c-1.3 5.1-2.571 10.199-3.871 15.27-.867 3.419-1.762 6.838-2.918 10.141-.606 1.709-1.3 3.39-2.34 4.896-.578.87-1.242 1.739-1.849 2.521-2.253 2.898-4.593 5.708-6.933 8.519a990.485 990.485 0 01-10.053 11.908c-3.987 4.665-7.974 9.33-11.989 13.966a3204.3 3204.3 0 01-12.769 14.719l-12.22 13.994c-3.553 4.057-7.078 8.113-10.631 12.141-2.571 2.926-5.142 5.881-7.742 8.808-1.243 1.391-2.456 2.781-3.698 4.201-2.282 2.666 2.715 6.114 4.478 7.331 2.86 1.97 5.98 3.563 9.186 4.925 3.409 1.449 6.962 2.637 10.631 3.303 1.647.319 3.323.522 5.027.551.982 0 2.08.029 3.033-.261 1.04-.319 1.965-1.014 2.803-1.68 3.235-2.463 6.095-5.39 8.926-8.287 4.131-4.23 8.147-8.606 12.105-13.01 4.593-5.099 9.1-10.228 13.635-15.385 4.478-5.1 8.927-10.228 13.434-15.356 3.813-4.347 7.626-8.722 11.526-13.01 2.514-2.781 5.056-5.621 7.829-8.142 5.402-4.954 10.718-10.517 13.722-17.326.203-.464.376-.928.549-1.391.549-1.449.636-3.245 1.011-4.81.145-.666-.866-.927-1.011-.29-.346 1.594-.404 3.303-1.011 4.839-.202.493-.347.927-.578 1.391-1.242 2.694-2.86 5.244-4.651 7.591-2.658 3.477-5.749 6.461-8.955 9.417-1.185 1.101-2.311 2.26-3.409 3.419-3.38 3.564-6.645 7.214-9.88 10.894-4.218 4.781-8.407 9.591-12.596 14.4-4.506 5.187-9.042 10.344-13.578 15.502a889.421 889.421 0 01-13.028 14.429c-3.438 3.709-6.934 7.388-10.603 10.836-1.242 1.159-2.542 2.347-3.871 3.361a17.16 17.16 0 01-1.502 1.043c-.202.116-.433.232-.636.348-.231.116-.173.087-.462.174-.982.29-2.138.232-3.149.203-1.675-.058-3.322-.29-4.94-.609-3.669-.753-7.222-1.97-10.631-3.477-3.062-1.361-6.095-2.926-8.84-4.925-1.011-.725-1.993-1.536-2.831-2.463-.491-.551-1.069-1.304-1.155-1.999-.029-.29 0-.493.115-.696.058-.116-.058.087.029-.029.087-.116.202-.26.318-.376.52-.609 1.04-1.188 1.56-1.797 2.109-2.376 4.189-4.781 6.298-7.156 3.177-3.651 6.384-7.273 9.562-10.924 3.9-4.433 7.771-8.895 11.671-13.357 4.189-4.81 8.407-9.648 12.595-14.487 4.132-4.752 8.234-9.533 12.336-14.313 3.64-4.26 7.28-8.519 10.891-12.778a555.047 555.047 0 008.378-10.083c1.589-1.97 3.235-3.912 4.651-6.027 1.098-1.651 1.849-3.564 2.484-5.447 1.156-3.361 2.023-6.809 2.918-10.228 1.271-4.897 2.456-9.822 3.727-14.719.087-.579-.925-.869-1.098-.203zm55.812-4.983a199.04 199.04 0 01-2.34 5.099c-.866 1.797-1.675 3.68-2.831 5.302-.375.551.52 1.072.896.522 1.126-1.623 1.964-3.506 2.831-5.302.809-1.681 1.589-3.39 2.34-5.1.289-.608-.607-1.13-.896-.521z" fill="#000"/><path d="M271.093 346.128l4.998-5.447c.462-.493-.289-1.246-.722-.725-1.676 1.826-3.351 3.622-4.998 5.447-.462.464.26 1.217.722.725zm20.57 1.912a102.96 102.96 0 01-3.207 2.84c-.202.173-.202.55 0 .724.231.203.52.174.723 0a101.494 101.494 0 003.206-2.84c.202-.173.202-.55 0-.724-.202-.203-.491-.203-.722 0zm160.621 4.288c3.005 6.925 6.125 13.792 9.303 20.63a180.811 180.811 0 001.935 4.143c.289.609 1.185.087.896-.521-3.034-6.404-5.951-12.865-8.84-19.326a312.158 312.158 0 01-2.398-5.447c-.289-.609-1.156-.087-.896.521zm13.521-13.531a137.629 137.629 0 006.76 12.952c1.56 2.636 3.149 5.244 4.969 7.707.404.521 1.3.029.895-.522-1.82-2.462-3.409-5.07-4.969-7.707a137.725 137.725 0 01-6.76-12.951c-.289-.609-1.184-.087-.895.521zM432.901 111.03a59.92 59.92 0 009.071-.956c.664-.116.376-1.13-.289-1.014-2.918.521-5.835.84-8.782.898-.693.058-.693 1.101 0 1.072zm5.084 62.063c.289 4.868.693 9.938 3.524 14.081 1.185 1.71 2.716 3.332 4.652 4.202.866.376 1.82.637 2.773.579.838-.029 1.618-.29 2.398-.55 2.744-.841 5.286-2.173 7.8-3.535 2.224-1.188 4.449-2.347 6.586-3.709 1.734-1.101 3.38-2.347 5.027-3.593 1.329-1.014 2.687-2.086 4.247-2.752 2.137-.957 4.246-1.855 6.269-3.043.577-.347.057-1.246-.52-.898-1.849 1.072-3.756 1.97-5.72 2.811-1.214.521-2.283 1.159-3.352 1.912-1.415 1.043-2.802 2.144-4.246 3.158-1.936 1.391-3.987 2.608-6.096 3.738-2.802 1.535-5.604 3.216-8.609 4.346-1.213.464-2.629 1.043-3.957 1.072-2.08.029-3.929-1.391-5.258-2.868-3.698-4.115-4.189-9.678-4.507-14.951 0-.667-1.04-.667-1.011 0z" fill="#000"/><path d="M438.966 176.483c3.149-2.231 6.703-3.97 10.169-5.621 4.074-1.941 8.234-3.767 12.451-5.331 1.849-.696 3.698-1.362 5.605-1.855.635-.174.375-1.188-.289-1.014-3.756 1.014-7.425 2.521-11.007 4.027-4.218 1.797-8.378 3.709-12.422 5.882-1.733.927-3.438 1.913-5.027 3.043-.549.347-.029 1.245.52.869zm-24.727 100.57c5.171 8.026 10.197 16.168 15.282 24.222 5.518 8.722 11.093 17.414 17.015 25.845 2.976 4.231 6.067 8.432 9.331 12.43.434.522 1.156-.231.723-.724-6.096-7.504-11.556-15.53-16.872-23.585-5.604-8.489-10.977-17.153-16.379-25.758-2.716-4.317-5.432-8.664-8.205-12.952-.347-.55-1.242-.058-.895.522zm-120.323 51.226a957.75 957.75 0 0027.214-17.239 952.484 952.484 0 0026.231-17.936c4.969-3.505 9.909-7.069 14.849-10.662.549-.406.029-1.304-.52-.898-8.696 6.345-17.478 12.604-26.347 18.688-8.724 5.998-17.536 11.851-26.491 17.53-5.113 3.274-10.285 6.461-15.456 9.619-.577.348-.057 1.246.52.898zm184.629 11.011c.26.608.578 1.217.722 1.883.202.985 0 1.999-.318 2.956-.549 1.535-1.473 2.955-2.369 4.317-.895 1.333-1.906 2.694-3.235 3.622-.549.376-.029 1.274.52.898 1.444-.985 2.513-2.376 3.495-3.796 1.011-1.478 1.994-3.042 2.6-4.752.405-1.101.578-2.26.347-3.419-.144-.782-.549-1.477-.867-2.231-.26-.608-1.155-.087-.895.522zm-37.701 22.658c4.218 4.52 11.672 3.216 16.64.956.607-.29.087-1.188-.52-.898-4.564 2.086-11.497 3.361-15.397-.783-.434-.521-1.185.232-.723.725z" fill="#000"/><path d="M477.216 159.011c-2.253.957-4.564 1.971-6.153 3.912-.78.956-1.185 1.999-1.502 3.158-.087.319-.318 1.478-.607 1.478-.491.029-.867-.754-1.011-1.101-.751-1.999.115-4.578 1.184-6.288.954-1.506 2.283-2.462 3.785-3.419 1.762-1.101 3.958-1.825 5.98-1.072.635.232.895-.782.289-1.014-2.109-.782-4.42-.145-6.327.927-1.647.928-3.149 2.029-4.276 3.564-1.386 1.942-2.253 4.607-1.791 6.983.203 1.014.78 2.057 1.82 2.376 1.445.435 1.734-1.42 2.023-2.405.433-1.565 1.242-2.781 2.513-3.796 1.358-1.072 3.004-1.767 4.593-2.433.636-.232.116-1.13-.52-.87z" fill="#000"/><path d="M469.704 165.617c-.26 1.043-.953 2.347-.52 3.419.665 1.623 2.456 1.71 3.64.609.636-.58 1.011-1.42 1.531-2.086.462-.638 1.011-1.188 1.589-1.71a10.61 10.61 0 014.42-2.202c.665-.145.376-1.159-.289-1.014-2.715.637-5.142 2.26-6.731 4.52-.433.608-.78 1.333-1.358 1.825-.577.493-1.415.551-1.82-.202-.231-.464-.057-.986.087-1.449.144-.464.289-.927.404-1.42.232-.666-.78-.927-.953-.29z" fill="#000"/><path d="M472.247 168.776c-.578.84-1.04 1.912-.173 2.723.953.927 2.657.927 3.524-.058.491-.55.896-1.101 1.444-1.593a11.257 11.257 0 011.792-1.304c1.271-.754 2.657-1.275 4.102-1.652.635-.174.375-1.188-.289-1.014-2.311.638-4.536 1.623-6.356 3.216-.433.406-.837.812-1.184 1.275-.405.493-.751.84-1.445.724-.346-.057-.953-.231-1.04-.666-.057-.377.347-.869.52-1.159.405-.521-.52-1.043-.895-.492z" fill="#000"/><path d="M474.385 171.094c-.78.724-1.011 1.68-.26 2.52.722.812 1.762 1.015 2.802.783.607-.145 1.156-.377 1.618-.754.52-.405.982-.898 1.502-1.303 1.098-.812 2.456-1.13 3.727-1.478.635-.174.375-1.159-.289-1.014-1.04.261-2.08.521-3.034 1.014-.953.463-1.704 1.304-2.571 1.97-.664.493-1.877.927-2.657.406-.174-.116-.405-.319-.52-.551-.174-.347.144-.637.404-.84.52-.435-.202-1.188-.722-.753z" fill="#000"/><path d="M477.736 155.389c1.098.203 2.167.464 3.033 1.188 1.127.928 2.08 2.144 2.976 3.274 2.427 2.985 2.744 7.128.982 10.518-.866 1.681-2.34 2.753-3.986 3.535-.607.29-.087 1.188.52.898 1.56-.753 2.975-1.738 3.957-3.216 1.156-1.738 1.705-3.969 1.676-6.056-.029-1.999-.636-3.795-1.705-5.447-.924-1.419-2.137-2.781-3.351-3.94-1.097-1.043-2.369-1.507-3.813-1.768-.664-.087-.953.899-.289 1.014z" fill="#000"/><path d="M480.683 172.31c.78 4.926.231 9.968 1.473 14.835 1.098 4.289 3.294 8.2 5.807 11.793 1.444 2.086 2.976 4.085 4.536 6.056.404.521 1.155-.203.722-.725-2.687-3.448-5.402-6.954-7.454-10.836-1.04-1.941-1.906-3.999-2.513-6.143-.635-2.318-.867-4.694-.982-7.098-.145-2.724-.173-5.448-.607-8.142-.086-.667-1.098-.406-.982.26zm-35.967-17.558c1.502-.869 2.802-2.173 4.015-3.39 1.502-1.507 2.918-3.1 4.333-4.665 1.243-1.391 2.427-2.839 3.756-4.114 1.444-1.391 3.062-2.289 4.969-2.84 1.473-.434 3.033-.782 4.564-.811 1.503-.058 3.467.232 4.016 1.883l.375-.637c-1.328.377-2.744.319-4.073.753a11.966 11.966 0 00-3.467 1.797c-.52.405 0 1.304.52.898 1.04-.782 2.196-1.391 3.438-1.739 1.271-.376 2.6-.318 3.871-.666.26-.058.463-.377.376-.637-.953-2.869-4.42-2.84-6.876-2.463-2.282.347-4.68.985-6.615 2.289-1.647 1.13-2.976 2.665-4.305 4.172-1.444 1.623-2.86 3.274-4.362 4.839-1.502 1.564-3.12 3.39-5.027 4.52-.606.261-.086 1.159.492.811zM471.988 150c-1.763.609-3.092 1.594-4.565 2.695-.722.55-1.473 1.014-2.08 1.68-.52.58-1.011 1.217-1.589 1.768a12.834 12.834 0 01-2.686 1.97c-1.936 1.072-4.074 1.796-6.212 2.405-.635.174-.375 1.188.289 1.014 3.091-.869 6.327-1.97 8.811-4.114 1.185-1.014 1.994-2.434 3.294-3.332 1.675-1.13 3.062-2.405 5.026-3.072.607-.231.347-1.246-.288-1.014z" fill="#000"/><path d="M470.282 140.844c.347.493.954.406 1.474.667.722.377.751 1.159.751 1.883a.53.53 0 00.375.493c1.185.376 1.791 1.651 1.387 2.839-.087.29.115.551.375.638.087.029-.086-.029-.028 0 .057.029.144.058.202.116.202.144.375.289.491.492.549.869.26 2.144-.289 2.898a7.052 7.052 0 01-3.062 2.375c-1.127.464-2.976 1.044-3.611-.376-.26-.609-1.156-.087-.896.521.751 1.71 2.687 1.536 4.189 1.072a8.377 8.377 0 004.131-2.897c1.185-1.536 1.271-4.462-.867-5.186l.376.637c.289-.84.116-1.941-.26-2.724-.347-.724-1.127-1.188-1.849-1.419l.376.492c0-.753-.058-1.622-.578-2.231-.52-.608-1.271-.724-2.022-.985l.317.232-.057-.087c-.405-.493-1.3.029-.925.55z" fill="#000"/><path d="M296.746 366.526c-.925-1.623-2.196-3.014-3.062-4.665-.867-1.652-1.069-2.144-1.445-4.056-.318-1.565-.664-4.202-2.918-5.679-2.282-1.478-6.702-1.507-9.215-.928-2.514.58-2.918.928-5.229-.231-3.091-1.536-4.16-5.94-5.229-5.129-1.04.811-8.753 10.112-9.129 12.024-.347 1.913.145 4.173 5.605 8.258 5.46 4.086 8.58 7.591 11.353 10.315 2.802 2.724 13.144 10.17 18.864 11.242 4.103.753 9.389 1.304 10.747-4.955 1.329-6.258-5.142-8.721-7.54-12.372-.838-1.245-2.138-2.636-2.802-3.824z" fill="#fff"/><path d="M297.179 366.265c-.867-1.478-1.993-2.782-2.86-4.259-.693-1.188-1.184-2.376-1.473-3.709-.52-2.463-.925-4.955-3.12-6.519-2.138-1.507-5.287-1.623-7.8-1.391-1.3.116-2.542.493-3.814.753-1.271.261-2.513-.26-3.553-.927-1.04-.695-1.762-1.651-2.427-2.636-.433-.667-.837-1.449-1.444-2-1.069-.927-1.993.493-2.658 1.217-2.571 2.898-5.142 5.969-7.193 9.272-.665 1.101-1.069 2.115-.867 3.419.289 1.854 1.618 3.39 2.918 4.636 1.271 1.217 2.687 2.231 4.073 3.303a79.726 79.726 0 013.814 3.187c2.022 1.826 3.9 3.767 5.835 5.65 3.091 3.071 6.847 5.563 10.545 7.823 2.137 1.304 4.333 2.492 6.673 3.361 1.878.696 3.929 1.072 5.951 1.159 2.051.087 4.189-.289 5.72-1.709 1.733-1.594 2.542-4.375 2.253-6.693-.577-4.694-5.315-6.607-7.742-10.141-.924-1.246-2.022-2.434-2.831-3.796-.347-.579-1.242-.058-.895.522.808 1.361 1.906 2.52 2.773 3.824.52.782 1.155 1.478 1.82 2.115 1.502 1.449 3.235 2.724 4.449 4.433 1.415 2 1.675 4.289.866 6.607-.722 2.057-2.282 3.39-4.42 3.737-1.877.319-3.928.029-5.777-.405-2.109-.493-4.103-1.478-5.98-2.492-3.987-2.144-7.829-4.723-11.267-7.678-1.56-1.333-2.918-2.84-4.391-4.289-2.138-2.115-4.362-4.114-6.731-5.968-2.109-1.652-4.565-3.274-6.009-5.621-.578-.957-.982-2.202-.607-3.303.434-1.304 1.531-2.579 2.369-3.68a118.956 118.956 0 013.785-4.781c.52-.637 1.04-1.246 1.588-1.854.347-.377.78-.725 1.069-1.13.058-.058.116-.058.029-.029-.115.029-.029-.029.029.029.116.231.405.463.578.695.578.84 1.127 1.71 1.791 2.521 1.416 1.709 3.669 3.042 5.951 2.665 1.213-.202 2.369-.608 3.611-.724a16.421 16.421 0 014.131.087c1.214.203 2.485.522 3.467 1.304 1.04.84 1.589 2.057 1.936 3.303.288 1.072.404 2.202.693 3.274.318 1.217.953 2.405 1.618 3.477.837 1.333 1.849 2.521 2.629 3.883.346.579 1.242.057.895-.522z" fill="#000"/><path d="M302.84 384.2c-4.333-.261-8.464-1.97-12.191-4.114-1.993-1.159-3.871-2.463-5.691-3.854-1.358-1.043-2.773-2.115-3.958-3.361-.78-.811-1.56-1.651-2.34-2.463-.837-.869-1.704-1.825-2.686-2.52-1.705-1.217-3.496-2.318-5.2-3.593-1.474-1.101-2.947-2.26-4.305-3.506-1.126-1.014-2.282-2.115-3.091-3.448-.346-.58-1.242-.058-.895.521 1.56 2.55 4.16 4.549 6.5 6.346 1.993 1.536 4.015 3.013 6.153 4.346.838.522 1.531 1.275 2.224 1.941.925.927 1.82 1.884 2.716 2.84 1.04 1.101 2.253 2.086 3.409 3.013a54.658 54.658 0 005.604 3.999c4.16 2.578 8.84 4.607 13.78 4.896.636.058.636-.985-.029-1.043z" fill="#000"/><path d="M492.727 359.456c-1.848.261-3.293.145-5.171-.116-3.004-.406-3.929-1.072-5.922-1.014-1.502.058-2.86.695-4.275 2.26-1.82 1.999-2.485 4.259-2.832 6.838-.346 2.579-1.762 4.665-4.275 7.012-2.513 2.347-7.049 1.738-6.673 3.013.375 1.275 4.391 12.98 6.037 14.024 1.647 1.043 3.929 1.39 9.707-2.231 5.778-3.593 10.169-5.245 13.693-6.867 3.525-1.623 14.243-8.577 17.305-13.531 2.195-3.564 4.622-8.316-.694-11.822-5.315-3.506-8.291.58-12.566 1.478-1.445.318-3.005.753-4.334.956z" fill="#fff"/><path d="M492.584 358.963c-3.063.406-5.951-.376-8.927-.956-1.04-.203-2.167-.29-3.207-.029-1.444.348-2.657 1.333-3.611 2.434-.924 1.043-1.589 2.231-2.051 3.564-.462 1.304-.607 2.695-.895 4.056-.289 1.333-.954 2.579-1.763 3.651-.866 1.159-1.964 2.405-3.235 3.129-1.011.551-2.138.841-3.236 1.072-.693.145-1.675.232-2.224.725-.751.666.058 2.115.318 2.897 1.213 3.506 2.455 7.099 4.16 10.402.548 1.072 1.097 1.941 2.224 2.434 1.416.608 3.004.405 4.42-.058 2.831-.927 5.258-2.724 7.829-4.172 2.484-1.391 5.055-2.608 7.655-3.767 1.734-.753 3.467-1.478 5.114-2.405a78.612 78.612 0 005.344-3.361c2.051-1.42 4.045-2.926 5.922-4.549 1.56-1.362 3.12-2.868 4.276-4.607 1.156-1.738 2.311-3.825 2.629-5.94.375-2.405-.52-4.578-2.369-6.142-2.022-1.681-4.536-2.637-7.164-1.97-2.283.55-4.189 2.028-6.472 2.607-1.588.348-3.177.754-4.737.985-.665.116-.376 1.101.289 1.014 2.657-.405 5.315-1.072 7.713-2.231 1.964-.956 4.015-1.999 6.269-1.448 2.369.579 4.94 2.492 5.402 5.041.376 2.086-.607 4.202-1.618 5.969-2.109 3.738-5.489 6.49-8.898 8.982-3.062 2.26-6.297 4.433-9.793 5.998-2.109.956-4.247 1.854-6.327 2.868-2.773 1.362-5.344 2.985-8.002 4.491-1.704.956-3.726 2.057-5.72 1.999-.953-.029-1.906-.376-2.398-1.101-.866-1.245-1.444-2.694-2.022-4.085a92.387 92.387 0 01-2.051-5.331c-.433-1.188-.809-2.434-1.242-3.622-.029-.087-.029-.261-.087-.145.058-.116.52-.203.694-.261.924-.231 1.877-.376 2.802-.666 2.484-.753 4.304-2.608 5.778-4.694.722-1.014 1.271-2.173 1.531-3.39.317-1.304.404-2.608.809-3.883.808-2.491 2.917-5.447 5.777-5.65.983-.057 1.936.145 2.889.377 1.3.319 2.6.551 3.929.725a17.27 17.27 0 004.565 0c.635-.058.346-1.044-.289-.957z" fill="#000"/><path d="M509.512 361.426c-1.763 3.825-4.68 6.983-7.887 9.62-1.733 1.419-3.582 2.694-5.489 3.882-1.589.985-3.235 1.999-4.969 2.753-2.138.927-4.506 1.622-6.5 2.868-.606.377-1.184.869-1.762 1.275a93.682 93.682 0 01-3.524 2.347 60.636 60.636 0 01-4.796 2.753c-1.416.724-2.889 1.419-4.478 1.68-.664.116-.375 1.13.289 1.014 1.387-.261 2.687-.811 3.929-1.42a44.927 44.927 0 004.478-2.462 76.158 76.158 0 006.066-4.057c.867-.637 1.936-1.043 2.918-1.478 1.156-.492 2.311-.956 3.467-1.419 1.473-.58 2.889-1.449 4.275-2.26a54.558 54.558 0 005.72-3.825c3.727-2.897 7.165-6.403 9.158-10.72.289-.638-.635-1.159-.895-.551zM429.376 94.978c-.231 1.825-.722 3.68-1.56 5.331-.491.985-1.156 2.173-2.051 2.782-.549.376-.029 1.275.52.898 1.097-.724 1.849-1.999 2.426-3.158.925-1.826 1.445-3.825 1.705-5.853.087-.638-.953-.638-1.04 0zm3.437 3.216c.26.55.606 1.072.982 1.536 1.04 1.42 2.282 2.665 3.582 3.795 2.456 2.116 5.344 3.825 8.696 3.188 1.617-.319 3.062-1.13 4.391-2.058 1.329-.927 2.629-1.999 3.755-3.216a13.42 13.42 0 002.86-4.78c.694-2.029.694-4.23.896-6.317.231-2.492.578-4.954 1.155-7.388.405-1.71.694-3.361.029-5.042-.231-.608-1.242-.348-1.011.29.52 1.333.433 2.666.087 4.027a44.38 44.38 0 00-1.069 5.853c-.26 1.97-.318 4.144-.607 6.2-.26 1.942-1.011 3.738-2.138 5.332-.866 1.217-2.022 2.26-3.177 3.216-1.271 1.043-2.687 2.028-4.247 2.608-2.918 1.101-5.662-.029-8.031-1.826a22.705 22.705 0 01-4.189-4.143c-.404-.521-.809-1.101-1.098-1.71-.231-.695-1.126-.173-.866.435z" fill="#000"/><path d="M432.352 86.952c-.78-1.42-2.253-2.926-4.044-2.405-1.618.464-2.369 2.434-2.485 3.94-.144 1.74.491 3.449 1.531 4.81 1.04 1.333 2.485 2.782 4.218 3.13.664.145.924-.87.289-1.014-1.358-.29-2.456-1.333-3.351-2.376-.896-1.014-1.531-2.318-1.647-3.738-.087-1.217.231-2.782 1.271-3.535 1.358-1.014 2.716.609 3.322 1.68.318.61 1.243.088.896-.492z" fill="#000"/><path d="M428.422 88.256l.058-.03c-.029 0-.029 0 0 0h.058c.029 0 .057.03.115.03.145.029 0-.03.058.029.173.087.231.145.376.26.26.261.433.522.664.84.433.638.693 1.247.867 2 .057.26.375.435.635.377.26-.058.434-.377.376-.638a7.482 7.482 0 00-1.127-2.434c-.52-.724-1.3-1.68-2.34-1.42-.26.059-.433.377-.375.638.057.232.346.406.635.348z" fill="#000"/><path d="M430.155 89.096c-.809.174-1.156 1.13-1.098 1.855.058.724.433 1.42 1.04 1.854.231.145.578.058.722-.174.145-.26.058-.55-.173-.724-.029 0-.087-.087-.029-.03.058.059-.029-.028-.029-.028l-.115-.116-.058-.058a.606.606 0 00-.116-.174.674.674 0 00-.086-.145c-.029-.058.028.087 0 0 0-.029-.029-.058-.029-.087-.029-.058-.029-.116-.058-.174 0-.028 0-.058-.029-.086-.029-.058 0 .115 0 0v-.348c-.029.087 0-.116 0 0 0-.03 0-.058.029-.087 0-.058.029-.116.058-.174.029-.058.029-.058 0 0 .029-.029.029-.058.057-.087.029-.029.029-.058.058-.087.029-.058.029-.029 0 0l.058-.058c-.087.058.029-.058 0 0l.058-.029c-.058.03-.058.03-.029.03s.029 0 .058-.03c.26-.058.433-.376.375-.637-.115-.319-.375-.464-.664-.406zm20.222-1.333l1.127 3.216c.086.203.173.464.202.696.029.232-.087.434-.202.637a3.117 3.117 0 01-.925 1.014c-.231.174-.347.464-.173.725.115.231.491.347.722.174.896-.667 1.907-1.768 1.589-2.985-.173-.608-.405-1.188-.607-1.796-.231-.667-.462-1.304-.693-1.97-.26-.638-1.271-.348-1.04.29zm3.495-1.072c-.116.058-.232.29-.289.406a2.74 2.74 0 00-.231 1.072c0 .174 0 .319.086.464.058.145.202.29.347.318.231.058.433-.086.578-.26.173-.232.26-.522.289-.812.028-.29-.029-.58-.087-.869-.029-.087-.058-.203-.116-.26-.057-.059-.144-.117-.317-.145-.087-.03-.174.057-.26.086z" fill="#000"/><path d="M453.67 86.373c-.404.29-.578.84-.635 1.303-.087.55-.116 1.188.375 1.565s1.098.029 1.387-.435c.289-.492.289-1.072.202-1.622-.058-.319-.144-.609-.433-.811-.26-.203-.607-.203-.896 0-.173.115-.26.347-.144.521.115.174.347.26.549.145l.086-.058s-.086.029-.086 0c0 0 .144.058.086.029.058.058 0-.029-.029-.029l.029.029s.029.058 0 .029v.029c.029.087.058.174.058.29a.637.637 0 01.029.231v.464c0 .058-.029.087-.029.145 0 .029 0 .029-.029.058-.029.058.029-.03 0 .029-.029.058-.057.145-.115.203 0 .029-.029.029-.029.029l-.058.058c-.029.029-.029.029-.058.029 0 0-.058.029-.029 0 .029-.03-.086 0-.029 0h-.028.057c-.029 0-.029-.03-.057-.03.057.03 0-.028-.029-.028.029.058 0-.03-.029-.03l-.029-.057v-.552c.029-.203.087-.405.173-.608 0 0 .029-.058 0-.03-.029.03 0-.028 0-.028.029-.03.029-.087.058-.116.029-.03.029-.058.058-.116-.058.058.086-.058-.029 0 .173-.116.26-.348.144-.55-.057-.116-.317-.232-.491-.087zm-10.341-1.42c-.116.058-.232.29-.289.406a2.74 2.74 0 00-.231 1.072c0 .173 0 .318.086.463.058.145.202.29.347.319.231.058.433-.087.578-.26.173-.233.26-.522.289-.812.028-.29-.029-.58-.087-.87-.029-.086-.058-.202-.116-.26-.057-.058-.144-.116-.317-.145-.087-.029-.174.058-.26.087z" fill="#000"/><path d="M443.155 84.634c-.405.29-.578.84-.636 1.304-.087.55-.115 1.188.376 1.564.491.377 1.097.03 1.386-.434.289-.493.289-1.072.203-1.623-.058-.318-.145-.608-.434-.811-.289-.203-.635-.203-.895 0-.174.116-.26.348-.145.522.116.173.347.26.549.144l.087-.057s-.087.029-.087 0c0 0 .144.058.087.029.057.057 0-.03-.029-.03 0 0 .058.058.029.03 0 0 .029.057 0 .028-.029-.028 0 .03 0 .03a.848.848 0 01.058.29.659.659 0 01.028.231v.464c0 .058-.028.087-.028.144 0 .03 0 .03-.029.058-.029.058.029-.029 0 .03-.029.057-.058.144-.116.202 0 .03-.029.03-.029.03s-.086.086-.058.057c-.028.03-.028.03-.057.03 0 0-.058.028-.029 0 .029-.03-.087 0-.029 0h-.029.058c-.029 0-.029-.03-.058-.03.058.03 0-.029-.029-.029.029.058 0-.029-.029-.029l-.029-.058v-.551c.029-.202.087-.405.174-.608 0 0 .029-.058 0-.029-.029.03 0-.029 0-.029.029-.029.029-.087.057-.116.029-.029.029-.058.058-.115-.058.057.087-.059-.029 0 .174-.116.26-.348.145-.551-.087-.116-.347-.232-.491-.087zm19.934-15.444c-.895-1.158-1.387-2.578-2.369-3.679-.953-1.101-2.138-1.941-3.351-2.666-2.889-1.71-6.211-2.752-9.533-3.216-3.322-.492-6.731-.405-9.996.348-2.109.492-4.16 1.333-5.835 2.695-.694.55-1.416 1.245-1.82 2.057l.317-.232c-3.784 1.42-6.211 4.752-7.568 8.46-1.156 3.188-1.387 6.49-.78 9.823.52 2.665 1.617 5.215 3.437 7.272.434.493 1.185-.232.723-.724-2.918-3.303-4.045-8.374-3.294-12.69.665-3.941 2.571-8.114 6.067-10.287a9.61 9.61 0 011.444-.724c.231-.087.405-.145.578-.348.116-.174.202-.347.318-.492.52-.725 1.444-1.478 2.311-2 1.762-1.072 3.784-1.68 5.807-2.028a26.283 26.283 0 018.522 0c3.033.493 6.038 1.449 8.695 2.984 1.156.667 2.283 1.478 3.178 2.492.896 1.014 1.387 2.434 2.254 3.535.404.464 1.3-.058.895-.58zm-28.687 30.482c-.867-1.188 2.051 3.332 2.744 4.607.722 1.275 2.022 2.057 3.264 2.839 1.012.638 2.803.522 2.803.522l.029-1.304c.028 0-4.594-.898-8.84-6.664zm27.243-21.557c0 .637.029 1.304-.115 1.941a5.246 5.246 0 01-.694 1.594c-.635 1.014-1.473 1.854-2.34 2.694-.491.464.26 1.217.723.725.924-.928 1.877-1.855 2.542-2.985.318-.55.578-1.13.722-1.767.173-.724.173-1.478.173-2.202.029-.696-1.011-.696-1.011 0z" fill="#000"/><path d="M431.428 86.14c2.08-1.506 3.726-3.592 5.257-5.62.752-.985 1.503-2.028 2.051-3.13.376-.753.665-1.535.954-2.288.375-.928.78-1.942 1.358-2.753.375-.522.693-.55 1.271-.29.924.435 1.791 1.072 2.658 1.594 1.011.58 2.051 1.13 3.091 1.651 2.426 1.16 4.94 2.087 7.568 2.637 2.485.492 5.085.666 7.541-.087 1.011-.319 1.993-.724 2.888-1.304.549-.347 1.243-.811 1.445-1.448.202-.638-.26-1.044-.838-1.217-.607-.174-1.242-.261-1.849-.435-.462-.145-.924-.406-1.358-.55.029 0-.115-.088-.115-.088-.173 0-.231.522-.087.551.145.029.434-.145.578-.203.404-.203.78-.55 1.069-.898.491-.55 1.184-1.478.78-2.26-.173-.348-.52-.464-.867-.521-.549-.058-1.098-.087-1.646-.174-1.358-.232-2.745-.58-4.016-1.13-.607-.261-1.127.637-.52.898 1.04.434 2.138.782 3.236 1.014.52.116 1.039.232 1.559.29l.694.087c.144.029.578-.03.693.058-.058-.03-.058-.116-.058 0 0 .144-.115.318-.202.434-.202.377-.491.695-.838.985-.404.348-1.3.406-1.328 1.043-.029.638.78.927 1.213 1.101.895.377 2.138.696 2.947.812-.116-.03.057-.145-.058-.116-.029 0-.145.203-.174.232-.289.318-.664.55-1.011.753-.924.55-1.906.927-2.946 1.188-2.485.637-5.171.29-7.627-.319-2.513-.637-4.911-1.594-7.193-2.781-.925-.493-1.849-.985-2.745-1.536-.78-.493-1.56-1.043-2.426-1.362-1.589-.55-2.369.898-2.947 2.115-.433.899-.78 1.855-1.156 2.782-.404 1.043-.982 2.028-1.646 2.955-1.618 2.318-3.438 4.81-5.749 6.462-.52.376 0 1.274.549.869zm9.879 8.809c1.704 1.71 3.958 2.868 6.355 3.216.289.029.549-.058.636-.377.058-.231-.087-.608-.376-.637-2.224-.319-4.304-1.333-5.893-2.926-.462-.493-1.213.231-.722.724z" fill="#000"/><path d="M442.058 81.244c.982-.463 2.196-.406 3.149.145.231.145.578.058.722-.174.145-.232.058-.58-.173-.724a4.555 4.555 0 00-4.189-.145c-.26.116-.318.492-.173.724.115.232.404.29.664.174zm10.919 1.97h.867c.26 0 .578 0 .809.03.115.028.26.057.375.086.058.03.116.03.145.058l.115.058c.116.058.231.116.347.203.058.029.086.058.144.087.029.029.058.029.087.058l.029.029c.202.174.52.232.722 0 .173-.203.231-.55 0-.724-.491-.406-1.04-.725-1.647-.84-.635-.146-1.329-.088-1.993-.088-.26 0-.52.232-.52.522 0 .29.231.521.52.521zm-20.886-16.515c2.254 1.97 5.171 2.752 8.003 3.477.635.174.924-.84.288-1.014-2.628-.667-5.431-1.391-7.54-3.217-.52-.434-1.242.32-.751.754zM244.198 258.567c-46.02 0-83.46-37.551-83.46-83.707 0-46.156 37.44-83.707 83.46-83.707 46.02 0 83.46 37.551 83.46 83.707 0 46.156-37.44 83.707-83.46 83.707zm0-166.08c-45.298 0-82.131 36.941-82.131 82.373s36.862 82.403 82.16 82.403c45.298 0 82.16-36.971 82.16-82.403 0-45.432-36.891-82.374-82.189-82.374z" fill="#000"/><path d="M244.171 182.307c-4.074 0-7.425-3.332-7.425-7.447 0-4.114 3.322-7.446 7.425-7.446 4.102 0 7.424 3.332 7.424 7.446 0 4.115-3.322 7.447-7.424 7.447zm0-13.56c-3.38 0-6.125 2.752-6.125 6.142 0 3.39 2.745 6.143 6.125 6.143s6.124-2.753 6.124-6.143c0-3.39-2.744-6.142-6.124-6.142zm-33.311-48.243a.62.62 0 01-.549-.318l-4.564-7.505a.768.768 0 01-.087-.347c0-.232.116-.435.318-.551.318-.174.722-.087.895.232l4.565 7.504a.772.772 0 01.087.348.62.62 0 01-.318.55.768.768 0 01-.347.087zm33.31-9.387a.673.673 0 01-.664-.667v-8.721c0-.348.289-.667.664-.667.347 0 .665.29.665.667v8.721c-.029.377-.318.667-.665.667zm30.188 7.562a.657.657 0 01-.318-.087.639.639 0 01-.347-.58.66.66 0 01.087-.318l4.102-7.707a.628.628 0 01.867-.261.637.637 0 01.347.579.661.661 0 01-.087.319l-4.102 7.707c-.087.232-.318.348-.549.348zm25.278 24.483a.619.619 0 01-.549-.318.772.772 0 01-.087-.348c0-.232.116-.435.318-.551l7.453-4.549c.318-.173.722-.087.896.232a.784.784 0 01.086.348.62.62 0 01-.317.55l-7.454 4.549a.764.764 0 01-.346.087zm17.449 32.336h-8.667a.673.673 0 01-.664-.667c0-.347.289-.666.664-.666h8.667c.347 0 .664.29.664.666a.654.654 0 01-.664.667zm-8.55 34.392a.657.657 0 01-.318-.087l-7.655-4.085a.637.637 0 01-.347-.579c0-.116.029-.203.087-.319a.627.627 0 01.866-.261l7.656 4.085a.638.638 0 01.346.58.66.66 0 01-.086.319c-.087.231-.318.347-.549.347zm-26.493 28.134a.62.62 0 01-.549-.318l-4.535-7.476a.772.772 0 01-.087-.348c0-.231.116-.434.318-.55.318-.174.722-.087.895.232l4.536 7.475a.772.772 0 01.087.348.621.621 0 01-.318.55.768.768 0 01-.347.087zm-37.872 10.634a.673.673 0 01-.664-.667v-8.663c0-.348.289-.666.664-.666.347 0 .665.289.665.666v8.663c-.029.377-.318.667-.665.667zm-34.32-8.606a.667.667 0 01-.318-.086.638.638 0 01-.346-.58.66.66 0 01.086-.319l4.074-7.678a.628.628 0 01.866-.261.639.639 0 01.347.58.661.661 0 01-.087.319l-4.073 7.678c-.087.232-.318.347-.549.347zm-27.357-25.526a.62.62 0 01-.549-.319.768.768 0 01-.087-.347c0-.232.116-.435.318-.551l7.454-4.549c.317-.174.722-.087.895.232a.772.772 0 01.087.348.622.622 0 01-.318.55l-7.453 4.549a.768.768 0 01-.347.087zm-11.239-39.028c-.346 0-.664-.29-.664-.638v-.029c0-.347.289-.637.664-.637h8.667c.347 0 .664.29.664.666a.654.654 0 01-.664.667h-8.551c-.029-.029-.087-.029-.116-.029zm16.236-30.307a.654.654 0 01-.318-.087l-7.685-4.115a.636.636 0 01-.346-.579.67.67 0 01.086-.319.628.628 0 01.867-.261l7.684 4.115a.636.636 0 01.347.579.661.661 0 01-.087.319c-.086.232-.317.348-.548.348z" fill="#000"/><path d="M214.269 207.398a.605.605 0 01-.433-.318c-.145-.232-.087-.551.086-.754l29.756-31.958a.67.67 0 01.924-.029c.26.26.289.666.029.927l-28.397 30.481 4.131-.782a.653.653 0 01.751.521.655.655 0 01-.52.753l-6.067 1.159a.4.4 0 01-.26 0z" fill="#000"/><path d="M214.27 207.398c-.318-.087-.549-.376-.492-.724l.896-6.201a.658.658 0 01.751-.55c.347.029.607.377.549.753l-.896 6.201a.657.657 0 01-.751.55c-.029 0-.057 0-.057-.029zm29.843-31.871a.674.674 0 01-.665-.667l.087-36.507-2.485 3.39a.643.643 0 01-.895.145.648.648 0 01-.145-.899l3.669-5.012a.643.643 0 01.722-.232c.26.087.434.348.434.608l-.087 38.536a.579.579 0 01-.635.638z" fill="#000"/><path d="M247.753 142.148a.658.658 0 01-.548-.29l-3.554-5.157a.653.653 0 01.174-.898.624.624 0 01.895.173l3.553 5.158a.652.652 0 01-.173.898c-.087.087-.231.116-.347.116zm-25.05 56.471c1.532-.753 3.034-1.507 4.565-2.231 4.16-2.028 8.291-4.056 12.422-6.084a3648.389 3648.389 0 0118.402-9.012c7.483-3.679 14.965-7.33 22.447-11.01 8.204-4.027 16.38-8.026 24.584-12.053 8.263-4.057 16.554-8.113 24.816-12.169 7.713-3.796 15.427-7.563 23.14-11.358 6.529-3.187 13.029-6.404 19.558-9.591 4.68-2.289 9.389-4.607 14.069-6.896 2.224-1.101 4.477-2.144 6.673-3.274.087-.058.202-.087.289-.145.607-.289.087-1.188-.52-.898-1.531.753-3.033 1.507-4.565 2.231-4.16 2.028-8.291 4.057-12.422 6.085a3692.402 3692.402 0 01-18.402 9.011c-7.482 3.68-14.964 7.33-22.447 11.01-8.204 4.027-16.38 8.026-24.584 12.053-8.262 4.057-16.553 8.113-24.816 12.17-7.713 3.795-15.426 7.562-23.14 11.358-6.529 3.187-13.029 6.403-19.557 9.59-4.68 2.289-9.389 4.607-14.069 6.896-2.225 1.101-4.478 2.144-6.674 3.274-.086.058-.202.087-.289.145-.577.29-.057 1.188.52.898zm222.707-88.951c.549.174 1.097.724 1.531 1.13.722.695 1.386 1.478 2.051 2.26 1.704 2.086 3.264 4.288 4.709 6.548a80.34 80.34 0 013.957 6.635c1.185 2.202 2.196 4.491 3.352 6.693a60.548 60.548 0 002.109 3.825c.433.724.924 1.651 1.675 2.115.578.348 1.098-.55.52-.898-.578-.348-1.04-1.275-1.387-1.854-.693-1.13-1.3-2.289-1.935-3.448-1.185-2.26-2.225-4.578-3.409-6.809-2.456-4.665-5.402-9.185-8.725-13.271-.722-.898-1.473-1.767-2.311-2.549-.549-.522-1.184-1.072-1.906-1.333-.578-.261-.838.724-.231.956zm21.347 36.652a11.105 11.105 0 016.125-2.462c.664-.058.664-1.101 0-1.043a12.335 12.335 0 00-6.876 2.781c-.202.174-.173.551 0 .724.231.232.52.174.751 0zm2.023 2.782a13.546 13.546 0 015.575-1.68c.665-.058.665-1.101 0-1.043-2.138.144-4.218.782-6.124 1.825-.549.319-.029 1.217.549.898zm-.289 6.229c.347.87.665 1.768.925 2.666.087.261.376.464.636.377a.555.555 0 00.375-.638 29.239 29.239 0 00-.924-2.665c-.116-.261-.347-.464-.636-.377-.26.058-.491.348-.376.637z" fill="#000"/><path d="M244.198 179.38a4.513 4.513 0 004.507-4.52 4.514 4.514 0 00-4.507-4.52 4.514 4.514 0 00-4.507 4.52 4.513 4.513 0 004.507 4.52z" fill="#fff"/><path d="M244.198 180.047c-2.831 0-5.171-2.318-5.171-5.187 0-2.839 2.311-5.186 5.171-5.186a5.174 5.174 0 015.172 5.186 5.174 5.174 0 01-5.172 5.187zm0-9.04a3.877 3.877 0 00-3.871 3.882 3.878 3.878 0 003.871 3.883 3.878 3.878 0 003.872-3.883 3.877 3.877 0 00-3.872-3.882zm130.144 64.844s15.138 19.326 15.138 21.441c0 0 1.242-5.447 1.04-6.229-.174-.782-16.178-15.212-16.178-15.212z" fill="#000"/></svg>