<svg width="100" height="101" fill="none" xmlns="http://www.w3.org/2000/svg"><path d="M2.306 2.255c-.258.247-.578.37-.96.37-.381 0-.7-.123-.959-.37A1.283 1.283 0 010 1.313C0 .943.129.634.387.387.645.13.965 0 1.347 0c.381 0 .7.129.959.387.258.258.387.567.387.926 0 .37-.129.684-.387.942zm12.164 0c-.259.247-.579.37-.96.37-.382 0-.701-.123-.96-.37a1.283 1.283 0 01-.387-.942c0-.37.13-.679.387-.926.259-.258.578-.387.96-.387.381 0 .701.129.96.387.257.258.386.567.386.926 0 .37-.129.684-.387.942zm12.163 0c-.258.247-.578.37-.96.37-.381 0-.701-.123-.96-.37a1.283 1.283 0 01-.386-.942c0-.37.129-.679.387-.926.258-.258.578-.387.96-.387.38 0 .7.129.959.387.258.258.387.567.387.926 0 .37-.13.684-.387.942zm12.163 0c-.258.247-.578.37-.96.37-.38 0-.7-.123-.959-.37a1.283 1.283 0 01-.387-.942c0-.37.13-.679.387-.926.258-.258.578-.387.96-.387.381 0 .7.129.959.387.258.258.387.567.387.926 0 .37-.129.684-.387.942zm12.164 0c-.259.247-.578.37-.96.37s-.701-.123-.96-.37a1.283 1.283 0 01-.386-.942c0-.37.128-.679.387-.926C49.299.13 49.619 0 50 0c.382 0 .701.129.96.387.258.258.386.567.386.926 0 .37-.128.684-.387.942zm12.163 0c-.258.247-.578.37-.96.37-.381 0-.7-.123-.959-.37a1.283 1.283 0 01-.387-.942c0-.37.129-.679.387-.926.258-.258.578-.387.96-.387.38 0 .7.129.959.387.258.258.387.567.387.926 0 .37-.13.684-.387.942zm12.163 0c-.258.247-.578.37-.96.37-.38 0-.7-.123-.959-.37a1.283 1.283 0 01-.387-.942c0-.37.13-.679.387-.926.258-.258.578-.387.96-.387.381 0 .701.129.96.387.257.258.386.567.386.926 0 .37-.129.684-.387.942zm12.164 0c-.259.247-.578.37-.96.37-.381 0-.701-.123-.96-.37a1.283 1.283 0 01-.386-.942c0-.37.129-.679.387-.926.258-.258.578-.387.96-.387.38 0 .7.129.959.387.258.258.387.567.387.926 0 .37-.13.684-.388.942zm12.163 0c-.258.247-.578.37-.96.37-.381 0-.7-.123-.959-.37a1.283 1.283 0 01-.387-.942c0-.37.129-.679.387-.926.258-.258.578-.387.96-.387.381 0 .7.129.959.387.258.258.387.567.387.926 0 .37-.129.684-.387.942zM2.306 16.282c-.258.247-.578.37-.96.37-.381 0-.7-.123-.959-.37A1.283 1.283 0 010 15.339c0-.37.129-.679.387-.926.258-.258.578-.387.96-.387.381 0 .7.13.959.387.258.258.387.567.387.926 0 .37-.129.685-.387.943zm12.164 0c-.259.247-.579.37-.96.37-.382 0-.701-.123-.96-.37a1.282 1.282 0 01-.387-.943c0-.37.13-.679.387-.926.259-.258.578-.387.96-.387.381 0 .701.13.96.387.257.258.386.567.386.926 0 .37-.129.685-.387.943zm12.163 0c-.258.247-.578.37-.96.37-.381 0-.701-.123-.96-.37a1.283 1.283 0 01-.386-.943c0-.37.129-.679.387-.926.258-.258.578-.387.96-.387.38 0 .7.13.959.387.258.258.387.567.387.926 0 .37-.13.685-.387.943zm12.163 0c-.258.247-.578.37-.96.37-.38 0-.7-.123-.959-.37a1.283 1.283 0 01-.387-.943c0-.37.13-.679.387-.926.258-.258.578-.387.96-.387.381 0 .7.13.959.387.258.258.387.567.387.926 0 .37-.129.685-.387.943zm12.164 0c-.259.247-.578.37-.96.37s-.701-.123-.96-.37a1.282 1.282 0 01-.386-.943c0-.37.128-.679.387-.926.258-.258.578-.387.959-.387.382 0 .701.13.96.387.258.258.386.567.386.926 0 .37-.128.685-.387.943zm12.163 0c-.258.247-.578.37-.96.37-.381 0-.7-.123-.959-.37a1.282 1.282 0 01-.387-.943c0-.37.129-.679.387-.926.258-.258.578-.387.96-.387.38 0 .7.13.959.387.258.258.387.567.387.926 0 .37-.13.685-.387.943zm12.163 0c-.258.247-.578.37-.96.37-.38 0-.7-.123-.959-.37a1.283 1.283 0 01-.387-.943c0-.37.13-.679.387-.926.258-.258.578-.387.96-.387.381 0 .701.13.96.387.257.258.386.567.386.926 0 .37-.129.685-.387.943zm12.164 0c-.259.247-.578.37-.96.37-.381 0-.701-.123-.96-.37a1.282 1.282 0 01-.386-.943c0-.37.129-.679.387-.926.258-.258.578-.387.96-.387.38 0 .7.13.959.387.258.258.387.567.387.926 0 .37-.13.685-.388.943zm12.163 0c-.258.247-.578.37-.96.37-.381 0-.7-.123-.959-.37a1.282 1.282 0 01-.387-.943c0-.37.129-.679.387-.926.258-.258.578-.387.96-.387.381 0 .7.13.959.387.258.258.387.567.387.926 0 .37-.129.685-.387.943zM2.306 30.308c-.258.247-.578.37-.96.37-.381 0-.7-.123-.959-.37A1.283 1.283 0 010 29.365c0-.37.129-.679.387-.925a1.3 1.3 0 01.96-.388c.381 0 .7.13.959.388.258.258.387.566.387.925 0 .37-.129.685-.387.943zm12.164 0c-.259.247-.579.37-.96.37-.382 0-.701-.123-.96-.37a1.283 1.283 0 01-.387-.943c0-.37.13-.679.387-.925.259-.259.578-.388.96-.388.381 0 .701.13.96.388.257.258.386.566.386.925 0 .37-.129.685-.387.943zm12.163 0c-.258.247-.578.37-.96.37-.381 0-.701-.123-.96-.37a1.283 1.283 0 01-.386-.943c0-.37.129-.679.387-.925a1.3 1.3 0 01.96-.388c.38 0 .7.13.959.388.258.258.387.566.387.925 0 .37-.13.685-.387.943zm12.163 0c-.258.247-.578.37-.96.37-.38 0-.7-.123-.959-.37a1.283 1.283 0 01-.387-.943c0-.37.13-.679.387-.925a1.3 1.3 0 01.96-.388c.381 0 .7.13.959.388.258.258.387.566.387.925 0 .37-.129.685-.387.943zm12.164 0c-.259.247-.578.37-.96.37s-.701-.123-.96-.37a1.283 1.283 0 01-.386-.943c0-.37.128-.679.387-.925a1.3 1.3 0 01.959-.388c.382 0 .701.13.96.388.258.258.386.566.386.925 0 .37-.128.685-.387.943zm12.163 0c-.258.247-.578.37-.96.37-.381 0-.7-.123-.959-.37a1.283 1.283 0 01-.387-.943c0-.37.129-.679.387-.925a1.3 1.3 0 01.96-.388c.38 0 .7.13.959.388.258.258.387.566.387.925 0 .37-.13.685-.387.943zm12.163 0c-.258.247-.578.37-.96.37-.38 0-.7-.123-.959-.37a1.283 1.283 0 01-.387-.943c0-.37.13-.679.387-.925a1.3 1.3 0 01.96-.388c.381 0 .701.13.96.388.257.258.386.566.386.925 0 .37-.129.685-.387.943zm12.164 0c-.259.247-.578.37-.96.37-.381 0-.701-.123-.96-.37a1.283 1.283 0 01-.386-.943c0-.37.129-.679.387-.925a1.3 1.3 0 01.96-.388c.38 0 .7.13.959.388.258.258.387.566.387.925 0 .37-.13.685-.388.943zm12.163 0c-.258.247-.578.37-.96.37-.381 0-.7-.123-.959-.37a1.283 1.283 0 01-.387-.943c0-.37.129-.679.387-.925a1.3 1.3 0 01.96-.388c.381 0 .7.13.959.388.258.258.387.566.387.925 0 .37-.129.685-.387.943zM2.306 44.334c-.258.247-.578.37-.96.37-.381 0-.7-.123-.959-.37A1.283 1.283 0 010 43.391c0-.37.129-.678.387-.925.258-.258.578-.387.96-.387.381 0 .7.129.959.387.258.258.387.566.387.925 0 .37-.129.685-.387.943zm12.164 0c-.259.247-.579.37-.96.37-.382 0-.701-.123-.96-.37a1.283 1.283 0 01-.387-.943c0-.37.13-.678.387-.925.259-.258.578-.387.96-.387.381 0 .701.129.96.387.257.258.386.566.386.925 0 .37-.129.685-.387.943zm12.163 0c-.258.247-.578.37-.96.37-.381 0-.701-.123-.96-.37a1.283 1.283 0 01-.386-.943c0-.37.129-.678.387-.925.258-.258.578-.387.96-.387.38 0 .7.129.959.387.258.258.387.566.387.925 0 .37-.13.685-.387.943zm12.163 0c-.258.247-.578.37-.96.37-.38 0-.7-.123-.959-.37a1.283 1.283 0 01-.387-.943c0-.37.13-.678.387-.925.258-.258.578-.387.96-.387.381 0 .7.129.959.387.258.258.387.566.387.925 0 .37-.129.685-.387.943zm12.164 0c-.259.247-.578.37-.96.37s-.701-.123-.96-.37a1.283 1.283 0 01-.386-.943c0-.37.128-.678.387-.925.258-.258.578-.387.959-.387.382 0 .701.129.96.387.258.258.386.566.386.925 0 .37-.128.685-.387.943zm12.163 0c-.258.247-.578.37-.96.37-.381 0-.7-.123-.959-.37a1.283 1.283 0 01-.387-.943c0-.37.129-.678.387-.925.258-.258.578-.387.96-.387.38 0 .7.129.959.387.258.258.387.566.387.925 0 .37-.13.685-.387.943zm12.163 0c-.258.247-.578.37-.96.37-.38 0-.7-.123-.959-.37a1.283 1.283 0 01-.387-.943c0-.37.13-.678.387-.925.258-.258.578-.387.96-.387.381 0 .701.129.96.387.257.258.386.566.386.925 0 .37-.129.685-.387.943zm12.164 0c-.259.247-.578.37-.96.37-.381 0-.701-.123-.96-.37a1.283 1.283 0 01-.386-.943c0-.37.129-.678.387-.925.258-.258.578-.387.96-.387.38 0 .7.129.959.387.258.258.387.566.387.925 0 .37-.13.685-.388.943zm12.163 0c-.258.247-.578.37-.96.37-.381 0-.7-.123-.959-.37a1.283 1.283 0 01-.387-.943c0-.37.129-.678.387-.925.258-.258.578-.387.96-.387.381 0 .7.129.959.387.258.258.387.566.387.925 0 .37-.129.685-.387.943zM2.306 58.36c-.258.247-.578.37-.96.37-.381 0-.7-.123-.959-.37A1.283 1.283 0 010 57.418c0-.37.129-.68.387-.926.258-.258.578-.387.96-.387.381 0 .7.129.959.387.258.258.387.567.387.926 0 .37-.129.684-.387.942zm12.164 0c-.259.247-.579.37-.96.37-.382 0-.701-.123-.96-.37a1.282 1.282 0 01-.387-.942c0-.37.13-.68.387-.926.259-.258.578-.387.96-.387.381 0 .701.129.96.387.257.258.386.567.386.926 0 .37-.129.684-.387.942zm12.163 0c-.258.247-.578.37-.96.37-.381 0-.701-.123-.96-.37a1.283 1.283 0 01-.386-.942c0-.37.129-.68.387-.926.258-.258.578-.387.96-.387.38 0 .7.129.959.387.258.258.387.567.387.926 0 .37-.13.684-.387.942zm12.163 0c-.258.247-.578.37-.96.37-.38 0-.7-.123-.959-.37a1.283 1.283 0 01-.387-.942c0-.37.13-.68.387-.926.258-.258.578-.387.96-.387.381 0 .7.129.959.387.258.258.387.567.387.926 0 .37-.129.684-.387.942zm12.164 0c-.259.247-.578.37-.96.37s-.701-.123-.96-.37a1.282 1.282 0 01-.386-.942c0-.37.128-.68.387-.926.258-.258.578-.387.959-.387.382 0 .701.129.96.387.258.258.386.567.386.926 0 .37-.128.684-.387.942zm12.163 0c-.258.247-.578.37-.96.37-.381 0-.7-.123-.959-.37a1.282 1.282 0 01-.387-.942c0-.37.129-.68.387-.926.258-.258.578-.387.96-.387.38 0 .7.129.959.387.258.258.387.567.387.926 0 .37-.13.684-.387.942zm12.163 0c-.258.247-.578.37-.96.37-.38 0-.7-.123-.959-.37a1.283 1.283 0 01-.387-.942c0-.37.13-.68.387-.926.258-.258.578-.387.96-.387.381 0 .701.129.96.387.257.258.386.567.386.926 0 .37-.129.684-.387.942zm12.164 0c-.259.247-.578.37-.96.37-.381 0-.701-.123-.96-.37a1.282 1.282 0 01-.386-.942c0-.37.129-.68.387-.926.258-.258.578-.387.96-.387.38 0 .7.129.959.387.258.258.387.567.387.926 0 .37-.13.684-.388.942zm12.163 0c-.258.247-.578.37-.96.37-.381 0-.7-.123-.959-.37a1.282 1.282 0 01-.387-.942c0-.37.129-.68.387-.926.258-.258.578-.387.96-.387.381 0 .7.129.959.387.258.258.387.567.387.926 0 .37-.129.684-.387.942zM2.306 72.387c-.258.246-.578.37-.96.37-.381 0-.7-.124-.959-.37A1.283 1.283 0 010 71.444c0-.37.129-.679.387-.926.258-.258.578-.387.96-.387.381 0 .7.13.959.387.258.258.387.567.387.926 0 .37-.129.684-.387.943zm12.164 0c-.259.246-.579.37-.96.37a1.34 1.34 0 01-.96-.37 1.283 1.283 0 01-.387-.943c0-.37.13-.679.387-.926.259-.258.578-.387.96-.387.381 0 .701.13.96.387.257.258.386.567.386.926 0 .37-.129.684-.387.943zm12.163 0c-.258.246-.578.37-.96.37-.381 0-.701-.124-.96-.37a1.283 1.283 0 01-.386-.943c0-.37.129-.679.387-.926.258-.258.578-.387.96-.387.38 0 .7.13.959.387.258.258.387.567.387.926 0 .37-.13.684-.387.943zm12.163 0c-.258.246-.578.37-.96.37-.38 0-.7-.124-.959-.37a1.283 1.283 0 01-.387-.943c0-.37.13-.679.387-.926.258-.258.578-.387.96-.387.381 0 .7.13.959.387.258.258.387.567.387.926 0 .37-.129.684-.387.943zm12.164 0c-.259.246-.578.37-.96.37s-.701-.124-.96-.37a1.283 1.283 0 01-.386-.943c0-.37.128-.679.387-.926.258-.258.578-.387.959-.387.382 0 .701.13.96.387.258.258.386.567.386.926 0 .37-.128.684-.387.943zm12.163 0c-.258.246-.578.37-.96.37-.381 0-.7-.124-.959-.37a1.283 1.283 0 01-.387-.943c0-.37.129-.679.387-.926.258-.258.578-.387.96-.387.38 0 .7.13.959.387.258.258.387.567.387.926 0 .37-.13.684-.387.943zm12.163 0c-.258.246-.578.37-.96.37-.38 0-.7-.124-.959-.37a1.283 1.283 0 01-.387-.943c0-.37.13-.679.387-.926.258-.258.578-.387.96-.387.381 0 .701.13.96.387.257.258.386.567.386.926 0 .37-.129.684-.387.943zm12.164 0a1.34 1.34 0 01-.96.37c-.381 0-.701-.124-.96-.37a1.283 1.283 0 01-.386-.943c0-.37.129-.679.387-.926.258-.258.578-.387.96-.387.38 0 .7.13.959.387.258.258.387.567.387.926 0 .37-.13.684-.388.943zm12.163 0c-.258.246-.578.37-.96.37-.381 0-.7-.124-.959-.37a1.283 1.283 0 01-.387-.943c0-.37.129-.679.387-.926.258-.258.578-.387.96-.387.381 0 .7.13.959.387.258.258.387.567.387.926 0 .37-.129.684-.387.943zM2.306 86.413c-.258.247-.578.37-.96.37-.381 0-.7-.123-.959-.37A1.283 1.283 0 010 85.47c0-.37.129-.679.387-.925a1.3 1.3 0 01.96-.388c.381 0 .7.13.959.388.258.258.387.566.387.925 0 .37-.129.685-.387.943zm12.164 0c-.259.247-.579.37-.96.37-.382 0-.701-.123-.96-.37a1.283 1.283 0 01-.387-.943c0-.37.13-.679.387-.925.259-.259.578-.388.96-.388.381 0 .701.13.96.388.257.258.386.566.386.925 0 .37-.129.685-.387.943zm12.163 0c-.258.247-.578.37-.96.37-.381 0-.701-.123-.96-.37a1.283 1.283 0 01-.386-.943c0-.37.129-.679.387-.925a1.3 1.3 0 01.96-.388c.38 0 .7.13.959.388.258.258.387.566.387.925 0 .37-.13.685-.387.943zm12.163 0c-.258.247-.578.37-.96.37-.38 0-.7-.123-.959-.37a1.283 1.283 0 01-.387-.943c0-.37.13-.679.387-.925a1.3 1.3 0 01.96-.388c.381 0 .7.13.959.388.258.258.387.566.387.925 0 .37-.129.685-.387.943zm12.164 0c-.259.247-.578.37-.96.37s-.701-.123-.96-.37a1.283 1.283 0 01-.386-.943c0-.37.128-.679.387-.925a1.3 1.3 0 01.959-.388c.382 0 .701.13.96.388.258.258.386.566.386.925 0 .37-.128.685-.387.943zm12.163 0c-.258.247-.578.37-.96.37-.381 0-.7-.123-.959-.37a1.283 1.283 0 01-.387-.943c0-.37.129-.679.387-.925a1.3 1.3 0 01.96-.388c.38 0 .7.13.959.388.258.258.387.566.387.925 0 .37-.13.685-.387.943zm12.163 0c-.258.247-.578.37-.96.37-.38 0-.7-.123-.959-.37a1.283 1.283 0 01-.387-.943c0-.37.13-.679.387-.925a1.3 1.3 0 01.96-.388c.381 0 .701.13.96.388.257.258.386.566.386.925 0 .37-.129.685-.387.943zm12.164 0c-.259.247-.578.37-.96.37-.381 0-.701-.123-.96-.37a1.283 1.283 0 01-.386-.943c0-.37.129-.679.387-.925a1.3 1.3 0 01.96-.388c.38 0 .7.13.959.388.258.258.387.566.387.925 0 .37-.13.685-.388.943zm12.163 0c-.258.247-.578.37-.96.37-.381 0-.7-.123-.959-.37a1.283 1.283 0 01-.387-.943c0-.37.129-.679.387-.925a1.3 1.3 0 01.96-.388c.381 0 .7.13.959.388.258.258.387.566.387.925 0 .37-.129.685-.387.943zM2.306 100.439c-.258.247-.578.37-.96.37-.381 0-.7-.123-.959-.37A1.283 1.283 0 010 99.497c0-.37.129-.68.387-.926.258-.258.578-.387.96-.387.381 0 .7.129.959.387.258.258.387.566.387.925 0 .37-.129.685-.387.943zm12.164 0c-.259.247-.579.37-.96.37-.382 0-.701-.123-.96-.37a1.283 1.283 0 01-.387-.942c0-.37.13-.68.387-.926.259-.258.578-.387.96-.387.381 0 .701.129.96.387.257.258.386.566.386.925 0 .37-.129.685-.387.943zm12.163 0c-.258.247-.578.37-.96.37-.381 0-.701-.123-.96-.37a1.283 1.283 0 01-.386-.942c0-.37.129-.68.387-.926.258-.258.578-.387.96-.387.38 0 .7.129.959.387.258.258.387.566.387.925 0 .37-.13.685-.387.943zm12.163 0c-.258.247-.578.37-.96.37-.38 0-.7-.123-.959-.37a1.283 1.283 0 01-.387-.942c0-.37.13-.68.387-.926.258-.258.578-.387.96-.387.381 0 .7.129.959.387.258.258.387.566.387.925 0 .37-.129.685-.387.943zm12.164 0c-.259.247-.578.37-.96.37s-.701-.123-.96-.37a1.283 1.283 0 01-.386-.942c0-.37.128-.68.387-.926.258-.258.578-.387.959-.387.382 0 .701.129.96.387.258.258.386.566.386.925 0 .37-.128.685-.387.943zm12.163 0c-.258.247-.578.37-.96.37-.381 0-.7-.123-.959-.37a1.283 1.283 0 01-.387-.942c0-.37.129-.68.387-.926.258-.258.578-.387.96-.387.38 0 .7.129.959.387.258.258.387.566.387.925 0 .37-.13.685-.387.943zm12.163 0c-.258.247-.578.37-.96.37-.38 0-.7-.123-.959-.37a1.283 1.283 0 01-.387-.942c0-.37.13-.68.387-.926.258-.258.578-.387.96-.387.381 0 .701.129.96.387.257.258.386.566.386.925 0 .37-.129.685-.387.943zm12.164 0c-.259.247-.578.37-.96.37-.381 0-.701-.123-.96-.37a1.283 1.283 0 01-.386-.942c0-.37.129-.68.387-.926.258-.258.578-.387.96-.387.38 0 .7.129.959.387.258.258.387.566.387.925 0 .37-.13.685-.388.943zm12.163 0c-.258.247-.578.37-.96.37-.381 0-.7-.123-.959-.37a1.283 1.283 0 01-.387-.942c0-.37.129-.68.387-.926.258-.258.578-.387.96-.387.381 0 .7.129.959.387.258.258.387.566.387.925 0 .37-.129.685-.387.943z" fill="#021137" fill-opacity=".6"/></svg>