<svg width="100" height="101" viewBox="0 0 100 101" fill="none" xmlns="http://www.w3.org/2000/svg">
<path d="M2.30591 2.25542C2.04783 2.50228 1.72803 2.62571 1.34652 2.62571C0.965005 2.62571 0.645207 2.50228 0.387124 2.25542C0.129041 1.99734 0 1.68315 0 1.31286C0 0.942563 0.129041 0.633986 0.387124 0.387124C0.645207 0.129041 0.965005 0 1.34652 0C1.72803 0 2.04783 0.129041 2.30591 0.387124C2.56399 0.645207 2.69304 0.953784 2.69304 1.31286C2.69304 1.68315 2.56399 1.99734 2.30591 2.25542Z" fill="#021137" fill-opacity="0.6"/>
<path d="M14.4693 2.25542C14.2112 2.50228 13.8914 2.62571 13.5099 2.62571C13.1284 2.62571 12.8086 2.50228 12.5505 2.25542C12.2924 1.99734 12.1634 1.68315 12.1634 1.31286C12.1634 0.942563 12.2924 0.633986 12.5505 0.387124C12.8086 0.129041 13.1284 0 13.5099 0C13.8914 0 14.2112 0.129041 14.4693 0.387124C14.7274 0.645207 14.8564 0.953784 14.8564 1.31286C14.8564 1.68315 14.7274 1.99734 14.4693 2.25542Z" fill="#021137" fill-opacity="0.6"/>
<path d="M26.6327 2.25542C26.3746 2.50228 26.0548 2.62571 25.6733 2.62571C25.2917 2.62571 24.9719 2.50228 24.7139 2.25542C24.4558 1.99734 24.3267 1.68315 24.3267 1.31286C24.3267 0.942563 24.4558 0.633986 24.7139 0.387124C24.9719 0.129041 25.2917 0 25.6733 0C26.0548 0 26.3746 0.129041 26.6327 0.387124C26.8907 0.645207 27.0198 0.953784 27.0198 1.31286C27.0198 1.68315 26.8907 1.99734 26.6327 2.25542Z" fill="#021137" fill-opacity="0.6"/>
<path d="M38.796 2.25542C38.5379 2.50228 38.2181 2.62571 37.8366 2.62571C37.4551 2.62571 37.1353 2.50228 36.8772 2.25542C36.6192 1.99734 36.4901 1.68315 36.4901 1.31286C36.4901 0.942563 36.6192 0.633986 36.8772 0.387124C37.1353 0.129041 37.4551 0 37.8366 0C38.2181 0 38.5379 0.129041 38.796 0.387124C39.0541 0.645207 39.1831 0.953784 39.1831 1.31286C39.1831 1.68315 39.0541 1.99734 38.796 2.25542Z" fill="#021137" fill-opacity="0.6"/>
<path d="M50.9594 2.25542C50.7013 2.50228 50.3815 2.62571 50 2.62571C49.6185 2.62571 49.2987 2.50228 49.0406 2.25542C48.7825 1.99734 48.6535 1.68315 48.6535 1.31286C48.6535 0.942563 48.7825 0.633986 49.0406 0.387124C49.2987 0.129041 49.6185 0 50 0C50.3815 0 50.7013 0.129041 50.9594 0.387124C51.2175 0.645207 51.3465 0.953784 51.3465 1.31286C51.3465 1.68315 51.2175 1.99734 50.9594 2.25542Z" fill="#021137" fill-opacity="0.6"/>
<path d="M63.1228 2.25542C62.8647 2.50228 62.5449 2.62571 62.1634 2.62571C61.7819 2.62571 61.4621 2.50228 61.204 2.25542C60.9459 1.99734 60.8169 1.68315 60.8169 1.31286C60.8169 0.942563 60.9459 0.633986 61.204 0.387124C61.4621 0.129041 61.7819 0 62.1634 0C62.5449 0 62.8647 0.129041 63.1228 0.387124C63.3809 0.645207 63.5099 0.953784 63.5099 1.31286C63.5099 1.68315 63.3809 1.99734 63.1228 2.25542Z" fill="#021137" fill-opacity="0.6"/>
<path d="M75.2861 2.25542C75.0281 2.50228 74.7083 2.62571 74.3267 2.62571C73.9452 2.62571 73.6254 2.50228 73.3674 2.25542C73.1093 1.99734 72.9802 1.68315 72.9802 1.31286C72.9802 0.942563 73.1093 0.633986 73.3674 0.387124C73.6254 0.129041 73.9452 0 74.3267 0C74.7083 0 75.0281 0.129041 75.2861 0.387124C75.5442 0.645207 75.6733 0.953784 75.6733 1.31286C75.6733 1.68315 75.5442 1.99734 75.2861 2.25542Z" fill="#021137" fill-opacity="0.6"/>
<path d="M87.4495 2.25542C87.1914 2.50228 86.8716 2.62571 86.4901 2.62571C86.1086 2.62571 85.7888 2.50228 85.5307 2.25542C85.2726 1.99734 85.1436 1.68315 85.1436 1.31286C85.1436 0.942563 85.2726 0.633986 85.5307 0.387124C85.7888 0.129041 86.1086 0 86.4901 0C86.8716 0 87.1914 0.129041 87.4495 0.387124C87.7076 0.645207 87.8366 0.953784 87.8366 1.31286C87.8366 1.68315 87.7076 1.99734 87.4495 2.25542Z" fill="#021137" fill-opacity="0.6"/>
<path d="M99.6129 2.25542C99.3548 2.50228 99.035 2.62571 98.6535 2.62571C98.272 2.62571 97.9522 2.50228 97.6941 2.25542C97.436 1.99734 97.307 1.68315 97.307 1.31286C97.307 0.942563 97.436 0.633986 97.6941 0.387124C97.9522 0.129041 98.272 0 98.6535 0C99.035 0 99.3548 0.129041 99.6129 0.387124C99.871 0.645207 100 0.953784 100 1.31286C100 1.68315 99.871 1.99734 99.6129 2.25542Z" fill="#021137" fill-opacity="0.6"/>
<path d="M2.30591 16.2816C2.04783 16.5285 1.72803 16.6519 1.34652 16.6519C0.965005 16.6519 0.645207 16.5285 0.387124 16.2816C0.129041 16.0236 0 15.7094 0 15.3391C0 14.9688 0.129041 14.6602 0.387124 14.4134C0.645207 14.1553 0.965005 14.0262 1.34652 14.0262C1.72803 14.0262 2.04783 14.1553 2.30591 14.4134C2.56399 14.6714 2.69304 14.98 2.69304 15.3391C2.69304 15.7094 2.56399 16.0236 2.30591 16.2816Z" fill="#021137" fill-opacity="0.6"/>
<path d="M14.4693 16.2816C14.2112 16.5285 13.8914 16.6519 13.5099 16.6519C13.1284 16.6519 12.8086 16.5285 12.5505 16.2816C12.2924 16.0236 12.1634 15.7094 12.1634 15.3391C12.1634 14.9688 12.2924 14.6602 12.5505 14.4134C12.8086 14.1553 13.1284 14.0262 13.5099 14.0262C13.8914 14.0262 14.2112 14.1553 14.4693 14.4134C14.7274 14.6714 14.8564 14.98 14.8564 15.3391C14.8564 15.7094 14.7274 16.0236 14.4693 16.2816Z" fill="#021137" fill-opacity="0.6"/>
<path d="M26.6327 16.2816C26.3746 16.5285 26.0548 16.6519 25.6733 16.6519C25.2917 16.6519 24.9719 16.5285 24.7139 16.2816C24.4558 16.0236 24.3267 15.7094 24.3267 15.3391C24.3267 14.9688 24.4558 14.6602 24.7139 14.4134C24.9719 14.1553 25.2917 14.0262 25.6733 14.0262C26.0548 14.0262 26.3746 14.1553 26.6327 14.4134C26.8907 14.6714 27.0198 14.98 27.0198 15.3391C27.0198 15.7094 26.8907 16.0236 26.6327 16.2816Z" fill="#021137" fill-opacity="0.6"/>
<path d="M38.796 16.2816C38.5379 16.5285 38.2181 16.6519 37.8366 16.6519C37.4551 16.6519 37.1353 16.5285 36.8772 16.2816C36.6192 16.0236 36.4901 15.7094 36.4901 15.3391C36.4901 14.9688 36.6192 14.6602 36.8772 14.4134C37.1353 14.1553 37.4551 14.0262 37.8366 14.0262C38.2181 14.0262 38.5379 14.1553 38.796 14.4134C39.0541 14.6714 39.1831 14.98 39.1831 15.3391C39.1831 15.7094 39.0541 16.0236 38.796 16.2816Z" fill="#021137" fill-opacity="0.6"/>
<path d="M50.9594 16.2816C50.7013 16.5285 50.3815 16.6519 50 16.6519C49.6185 16.6519 49.2987 16.5285 49.0406 16.2816C48.7825 16.0236 48.6535 15.7094 48.6535 15.3391C48.6535 14.9688 48.7825 14.6602 49.0406 14.4134C49.2987 14.1553 49.6185 14.0262 50 14.0262C50.3815 14.0262 50.7013 14.1553 50.9594 14.4134C51.2175 14.6714 51.3465 14.98 51.3465 15.3391C51.3465 15.7094 51.2175 16.0236 50.9594 16.2816Z" fill="#021137" fill-opacity="0.6"/>
<path d="M63.1228 16.2816C62.8647 16.5285 62.5449 16.6519 62.1634 16.6519C61.7819 16.6519 61.4621 16.5285 61.204 16.2816C60.9459 16.0236 60.8169 15.7094 60.8169 15.3391C60.8169 14.9688 60.9459 14.6602 61.204 14.4134C61.4621 14.1553 61.7819 14.0262 62.1634 14.0262C62.5449 14.0262 62.8647 14.1553 63.1228 14.4134C63.3809 14.6714 63.5099 14.98 63.5099 15.3391C63.5099 15.7094 63.3809 16.0236 63.1228 16.2816Z" fill="#021137" fill-opacity="0.6"/>
<path d="M75.2861 16.2816C75.0281 16.5285 74.7083 16.6519 74.3267 16.6519C73.9452 16.6519 73.6254 16.5285 73.3674 16.2816C73.1093 16.0236 72.9802 15.7094 72.9802 15.3391C72.9802 14.9688 73.1093 14.6602 73.3674 14.4134C73.6254 14.1553 73.9452 14.0262 74.3267 14.0262C74.7083 14.0262 75.0281 14.1553 75.2861 14.4134C75.5442 14.6714 75.6733 14.98 75.6733 15.3391C75.6733 15.7094 75.5442 16.0236 75.2861 16.2816Z" fill="#021137" fill-opacity="0.6"/>
<path d="M87.4495 16.2816C87.1914 16.5285 86.8716 16.6519 86.4901 16.6519C86.1086 16.6519 85.7888 16.5285 85.5307 16.2816C85.2726 16.0236 85.1436 15.7094 85.1436 15.3391C85.1436 14.9688 85.2726 14.6602 85.5307 14.4134C85.7888 14.1553 86.1086 14.0262 86.4901 14.0262C86.8716 14.0262 87.1914 14.1553 87.4495 14.4134C87.7076 14.6714 87.8366 14.98 87.8366 15.3391C87.8366 15.7094 87.7076 16.0236 87.4495 16.2816Z" fill="#021137" fill-opacity="0.6"/>
<path d="M99.6129 16.2816C99.3548 16.5285 99.035 16.6519 98.6535 16.6519C98.272 16.6519 97.9522 16.5285 97.6941 16.2816C97.436 16.0236 97.307 15.7094 97.307 15.3391C97.307 14.9688 97.436 14.6602 97.6941 14.4134C97.9522 14.1553 98.272 14.0262 98.6535 14.0262C99.035 14.0262 99.3548 14.1553 99.6129 14.4134C99.871 14.6714 100 14.98 100 15.3391C100 15.7094 99.871 16.0236 99.6129 16.2816Z" fill="#021137" fill-opacity="0.6"/>
<path d="M2.30591 30.3079C2.04783 30.5547 1.72803 30.6782 1.34652 30.6782C0.965005 30.6782 0.645207 30.5547 0.387124 30.3079C0.129041 30.0498 0 29.7356 0 29.3653C0 28.995 0.129041 28.6864 0.387124 28.4396C0.645207 28.1815 0.965005 28.0525 1.34652 28.0525C1.72803 28.0525 2.04783 28.1815 2.30591 28.4396C2.56399 28.6977 2.69304 29.0062 2.69304 29.3653C2.69304 29.7356 2.56399 30.0498 2.30591 30.3079Z" fill="#021137" fill-opacity="0.6"/>
<path d="M14.4693 30.3079C14.2112 30.5547 13.8914 30.6782 13.5099 30.6782C13.1284 30.6782 12.8086 30.5547 12.5505 30.3079C12.2924 30.0498 12.1634 29.7356 12.1634 29.3653C12.1634 28.995 12.2924 28.6864 12.5505 28.4396C12.8086 28.1815 13.1284 28.0525 13.5099 28.0525C13.8914 28.0525 14.2112 28.1815 14.4693 28.4396C14.7274 28.6977 14.8564 29.0062 14.8564 29.3653C14.8564 29.7356 14.7274 30.0498 14.4693 30.3079Z" fill="#021137" fill-opacity="0.6"/>
<path d="M26.6327 30.3079C26.3746 30.5547 26.0548 30.6782 25.6733 30.6782C25.2917 30.6782 24.9719 30.5547 24.7139 30.3079C24.4558 30.0498 24.3267 29.7356 24.3267 29.3653C24.3267 28.995 24.4558 28.6864 24.7139 28.4396C24.9719 28.1815 25.2917 28.0525 25.6733 28.0525C26.0548 28.0525 26.3746 28.1815 26.6327 28.4396C26.8907 28.6977 27.0198 29.0062 27.0198 29.3653C27.0198 29.7356 26.8907 30.0498 26.6327 30.3079Z" fill="#021137" fill-opacity="0.6"/>
<path d="M38.796 30.3079C38.5379 30.5547 38.2181 30.6782 37.8366 30.6782C37.4551 30.6782 37.1353 30.5547 36.8772 30.3079C36.6192 30.0498 36.4901 29.7356 36.4901 29.3653C36.4901 28.995 36.6192 28.6864 36.8772 28.4396C37.1353 28.1815 37.4551 28.0525 37.8366 28.0525C38.2181 28.0525 38.5379 28.1815 38.796 28.4396C39.0541 28.6977 39.1831 29.0062 39.1831 29.3653C39.1831 29.7356 39.0541 30.0498 38.796 30.3079Z" fill="#021137" fill-opacity="0.6"/>
<path d="M50.9594 30.3079C50.7013 30.5547 50.3815 30.6782 50 30.6782C49.6185 30.6782 49.2987 30.5547 49.0406 30.3079C48.7825 30.0498 48.6535 29.7356 48.6535 29.3653C48.6535 28.995 48.7825 28.6864 49.0406 28.4396C49.2987 28.1815 49.6185 28.0525 50 28.0525C50.3815 28.0525 50.7013 28.1815 50.9594 28.4396C51.2175 28.6977 51.3465 29.0062 51.3465 29.3653C51.3465 29.7356 51.2175 30.0498 50.9594 30.3079Z" fill="#021137" fill-opacity="0.6"/>
<path d="M63.1228 30.3079C62.8647 30.5547 62.5449 30.6782 62.1634 30.6782C61.7819 30.6782 61.4621 30.5547 61.204 30.3079C60.9459 30.0498 60.8169 29.7356 60.8169 29.3653C60.8169 28.995 60.9459 28.6864 61.204 28.4396C61.4621 28.1815 61.7819 28.0525 62.1634 28.0525C62.5449 28.0525 62.8647 28.1815 63.1228 28.4396C63.3809 28.6977 63.5099 29.0062 63.5099 29.3653C63.5099 29.7356 63.3809 30.0498 63.1228 30.3079Z" fill="#021137" fill-opacity="0.6"/>
<path d="M75.2861 30.3079C75.0281 30.5547 74.7083 30.6782 74.3267 30.6782C73.9452 30.6782 73.6254 30.5547 73.3674 30.3079C73.1093 30.0498 72.9802 29.7356 72.9802 29.3653C72.9802 28.995 73.1093 28.6864 73.3674 28.4396C73.6254 28.1815 73.9452 28.0525 74.3267 28.0525C74.7083 28.0525 75.0281 28.1815 75.2861 28.4396C75.5442 28.6977 75.6733 29.0062 75.6733 29.3653C75.6733 29.7356 75.5442 30.0498 75.2861 30.3079Z" fill="#021137" fill-opacity="0.6"/>
<path d="M87.4495 30.3079C87.1914 30.5547 86.8716 30.6782 86.4901 30.6782C86.1086 30.6782 85.7888 30.5547 85.5307 30.3079C85.2726 30.0498 85.1436 29.7356 85.1436 29.3653C85.1436 28.995 85.2726 28.6864 85.5307 28.4396C85.7888 28.1815 86.1086 28.0525 86.4901 28.0525C86.8716 28.0525 87.1914 28.1815 87.4495 28.4396C87.7076 28.6977 87.8366 29.0062 87.8366 29.3653C87.8366 29.7356 87.7076 30.0498 87.4495 30.3079Z" fill="#021137" fill-opacity="0.6"/>
<path d="M99.6129 30.3079C99.3548 30.5547 99.035 30.6782 98.6535 30.6782C98.272 30.6782 97.9522 30.5547 97.6941 30.3079C97.436 30.0498 97.307 29.7356 97.307 29.3653C97.307 28.995 97.436 28.6864 97.6941 28.4396C97.9522 28.1815 98.272 28.0525 98.6535 28.0525C99.035 28.0525 99.3548 28.1815 99.6129 28.4396C99.871 28.6977 100 29.0062 100 29.3653C100 29.7356 99.871 30.0498 99.6129 30.3079Z" fill="#021137" fill-opacity="0.6"/>
<path d="M2.30591 44.3341C2.04783 44.581 1.72803 44.7044 1.34652 44.7044C0.965005 44.7044 0.645207 44.581 0.387124 44.3341C0.129041 44.076 0 43.7618 0 43.3915C0 43.0213 0.129041 42.7127 0.387124 42.4658C0.645207 42.2077 0.965005 42.0787 1.34652 42.0787C1.72803 42.0787 2.04783 42.2077 2.30591 42.4658C2.56399 42.7239 2.69304 43.0325 2.69304 43.3915C2.69304 43.7618 2.56399 44.076 2.30591 44.3341Z" fill="#021137" fill-opacity="0.6"/>
<path d="M14.4693 44.3341C14.2112 44.581 13.8914 44.7044 13.5099 44.7044C13.1284 44.7044 12.8086 44.581 12.5505 44.3341C12.2924 44.076 12.1634 43.7618 12.1634 43.3915C12.1634 43.0213 12.2924 42.7127 12.5505 42.4658C12.8086 42.2077 13.1284 42.0787 13.5099 42.0787C13.8914 42.0787 14.2112 42.2077 14.4693 42.4658C14.7274 42.7239 14.8564 43.0325 14.8564 43.3915C14.8564 43.7618 14.7274 44.076 14.4693 44.3341Z" fill="#021137" fill-opacity="0.6"/>
<path d="M26.6327 44.3341C26.3746 44.581 26.0548 44.7044 25.6733 44.7044C25.2917 44.7044 24.9719 44.581 24.7139 44.3341C24.4558 44.076 24.3267 43.7618 24.3267 43.3915C24.3267 43.0213 24.4558 42.7127 24.7139 42.4658C24.9719 42.2077 25.2917 42.0787 25.6733 42.0787C26.0548 42.0787 26.3746 42.2077 26.6327 42.4658C26.8907 42.7239 27.0198 43.0325 27.0198 43.3915C27.0198 43.7618 26.8907 44.076 26.6327 44.3341Z" fill="#021137" fill-opacity="0.6"/>
<path d="M38.796 44.3341C38.5379 44.581 38.2181 44.7044 37.8366 44.7044C37.4551 44.7044 37.1353 44.581 36.8772 44.3341C36.6192 44.076 36.4901 43.7618 36.4901 43.3915C36.4901 43.0213 36.6192 42.7127 36.8772 42.4658C37.1353 42.2077 37.4551 42.0787 37.8366 42.0787C38.2181 42.0787 38.5379 42.2077 38.796 42.4658C39.0541 42.7239 39.1831 43.0325 39.1831 43.3915C39.1831 43.7618 39.0541 44.076 38.796 44.3341Z" fill="#021137" fill-opacity="0.6"/>
<path d="M50.9594 44.3341C50.7013 44.581 50.3815 44.7044 50 44.7044C49.6185 44.7044 49.2987 44.581 49.0406 44.3341C48.7825 44.076 48.6535 43.7618 48.6535 43.3915C48.6535 43.0213 48.7825 42.7127 49.0406 42.4658C49.2987 42.2077 49.6185 42.0787 50 42.0787C50.3815 42.0787 50.7013 42.2077 50.9594 42.4658C51.2175 42.7239 51.3465 43.0325 51.3465 43.3915C51.3465 43.7618 51.2175 44.076 50.9594 44.3341Z" fill="#021137" fill-opacity="0.6"/>
<path d="M63.1228 44.3341C62.8647 44.581 62.5449 44.7044 62.1634 44.7044C61.7819 44.7044 61.4621 44.581 61.204 44.3341C60.9459 44.076 60.8169 43.7618 60.8169 43.3915C60.8169 43.0213 60.9459 42.7127 61.204 42.4658C61.4621 42.2077 61.7819 42.0787 62.1634 42.0787C62.5449 42.0787 62.8647 42.2077 63.1228 42.4658C63.3809 42.7239 63.5099 43.0325 63.5099 43.3915C63.5099 43.7618 63.3809 44.076 63.1228 44.3341Z" fill="#021137" fill-opacity="0.6"/>
<path d="M75.2861 44.3341C75.0281 44.581 74.7083 44.7044 74.3267 44.7044C73.9452 44.7044 73.6254 44.581 73.3674 44.3341C73.1093 44.076 72.9802 43.7618 72.9802 43.3915C72.9802 43.0213 73.1093 42.7127 73.3674 42.4658C73.6254 42.2077 73.9452 42.0787 74.3267 42.0787C74.7083 42.0787 75.0281 42.2077 75.2861 42.4658C75.5442 42.7239 75.6733 43.0325 75.6733 43.3915C75.6733 43.7618 75.5442 44.076 75.2861 44.3341Z" fill="#021137" fill-opacity="0.6"/>
<path d="M87.4495 44.3341C87.1914 44.581 86.8716 44.7044 86.4901 44.7044C86.1086 44.7044 85.7888 44.581 85.5307 44.3341C85.2726 44.076 85.1436 43.7618 85.1436 43.3915C85.1436 43.0213 85.2726 42.7127 85.5307 42.4658C85.7888 42.2077 86.1086 42.0787 86.4901 42.0787C86.8716 42.0787 87.1914 42.2077 87.4495 42.4658C87.7076 42.7239 87.8366 43.0325 87.8366 43.3915C87.8366 43.7618 87.7076 44.076 87.4495 44.3341Z" fill="#021137" fill-opacity="0.6"/>
<path d="M99.6129 44.3341C99.3548 44.581 99.035 44.7044 98.6535 44.7044C98.272 44.7044 97.9522 44.581 97.6941 44.3341C97.436 44.076 97.307 43.7618 97.307 43.3915C97.307 43.0213 97.436 42.7127 97.6941 42.4658C97.9522 42.2077 98.272 42.0787 98.6535 42.0787C99.035 42.0787 99.3548 42.2077 99.6129 42.4658C99.871 42.7239 100 43.0325 100 43.3915C100 43.7618 99.871 44.076 99.6129 44.3341Z" fill="#021137" fill-opacity="0.6"/>
<path d="M2.30591 58.3603C2.04783 58.6072 1.72803 58.7306 1.34652 58.7306C0.965005 58.7306 0.645207 58.6072 0.387124 58.3603C0.129041 58.1023 0 57.7881 0 57.4178C0 57.0475 0.129041 56.7389 0.387124 56.492C0.645207 56.234 0.965005 56.1049 1.34652 56.1049C1.72803 56.1049 2.04783 56.234 2.30591 56.492C2.56399 56.7501 2.69304 57.0587 2.69304 57.4178C2.69304 57.7881 2.56399 58.1023 2.30591 58.3603Z" fill="#021137" fill-opacity="0.6"/>
<path d="M14.4693 58.3603C14.2112 58.6072 13.8914 58.7306 13.5099 58.7306C13.1284 58.7306 12.8086 58.6072 12.5505 58.3603C12.2924 58.1023 12.1634 57.7881 12.1634 57.4178C12.1634 57.0475 12.2924 56.7389 12.5505 56.492C12.8086 56.234 13.1284 56.1049 13.5099 56.1049C13.8914 56.1049 14.2112 56.234 14.4693 56.492C14.7274 56.7501 14.8564 57.0587 14.8564 57.4178C14.8564 57.7881 14.7274 58.1023 14.4693 58.3603Z" fill="#021137" fill-opacity="0.6"/>
<path d="M26.6327 58.3603C26.3746 58.6072 26.0548 58.7306 25.6733 58.7306C25.2917 58.7306 24.9719 58.6072 24.7139 58.3603C24.4558 58.1023 24.3267 57.7881 24.3267 57.4178C24.3267 57.0475 24.4558 56.7389 24.7139 56.492C24.9719 56.234 25.2917 56.1049 25.6733 56.1049C26.0548 56.1049 26.3746 56.234 26.6327 56.492C26.8907 56.7501 27.0198 57.0587 27.0198 57.4178C27.0198 57.7881 26.8907 58.1023 26.6327 58.3603Z" fill="#021137" fill-opacity="0.6"/>
<path d="M38.796 58.3603C38.5379 58.6072 38.2181 58.7306 37.8366 58.7306C37.4551 58.7306 37.1353 58.6072 36.8772 58.3603C36.6192 58.1023 36.4901 57.7881 36.4901 57.4178C36.4901 57.0475 36.6192 56.7389 36.8772 56.492C37.1353 56.234 37.4551 56.1049 37.8366 56.1049C38.2181 56.1049 38.5379 56.234 38.796 56.492C39.0541 56.7501 39.1831 57.0587 39.1831 57.4178C39.1831 57.7881 39.0541 58.1023 38.796 58.3603Z" fill="#021137" fill-opacity="0.6"/>
<path d="M50.9594 58.3603C50.7013 58.6072 50.3815 58.7306 50 58.7306C49.6185 58.7306 49.2987 58.6072 49.0406 58.3603C48.7825 58.1023 48.6535 57.7881 48.6535 57.4178C48.6535 57.0475 48.7825 56.7389 49.0406 56.492C49.2987 56.234 49.6185 56.1049 50 56.1049C50.3815 56.1049 50.7013 56.234 50.9594 56.492C51.2175 56.7501 51.3465 57.0587 51.3465 57.4178C51.3465 57.7881 51.2175 58.1023 50.9594 58.3603Z" fill="#021137" fill-opacity="0.6"/>
<path d="M63.1228 58.3603C62.8647 58.6072 62.5449 58.7306 62.1634 58.7306C61.7819 58.7306 61.4621 58.6072 61.204 58.3603C60.9459 58.1023 60.8169 57.7881 60.8169 57.4178C60.8169 57.0475 60.9459 56.7389 61.204 56.492C61.4621 56.234 61.7819 56.1049 62.1634 56.1049C62.5449 56.1049 62.8647 56.234 63.1228 56.492C63.3809 56.7501 63.5099 57.0587 63.5099 57.4178C63.5099 57.7881 63.3809 58.1023 63.1228 58.3603Z" fill="#021137" fill-opacity="0.6"/>
<path d="M75.2861 58.3603C75.0281 58.6072 74.7083 58.7306 74.3267 58.7306C73.9452 58.7306 73.6254 58.6072 73.3674 58.3603C73.1093 58.1023 72.9802 57.7881 72.9802 57.4178C72.9802 57.0475 73.1093 56.7389 73.3674 56.492C73.6254 56.234 73.9452 56.1049 74.3267 56.1049C74.7083 56.1049 75.0281 56.234 75.2861 56.492C75.5442 56.7501 75.6733 57.0587 75.6733 57.4178C75.6733 57.7881 75.5442 58.1023 75.2861 58.3603Z" fill="#021137" fill-opacity="0.6"/>
<path d="M87.4495 58.3603C87.1914 58.6072 86.8716 58.7306 86.4901 58.7306C86.1086 58.7306 85.7888 58.6072 85.5307 58.3603C85.2726 58.1023 85.1436 57.7881 85.1436 57.4178C85.1436 57.0475 85.2726 56.7389 85.5307 56.492C85.7888 56.234 86.1086 56.1049 86.4901 56.1049C86.8716 56.1049 87.1914 56.234 87.4495 56.492C87.7076 56.7501 87.8366 57.0587 87.8366 57.4178C87.8366 57.7881 87.7076 58.1023 87.4495 58.3603Z" fill="#021137" fill-opacity="0.6"/>
<path d="M99.6129 58.3603C99.3548 58.6072 99.035 58.7306 98.6535 58.7306C98.272 58.7306 97.9522 58.6072 97.6941 58.3603C97.436 58.1023 97.307 57.7881 97.307 57.4178C97.307 57.0475 97.436 56.7389 97.6941 56.492C97.9522 56.234 98.272 56.1049 98.6535 56.1049C99.035 56.1049 99.3548 56.234 99.6129 56.492C99.871 56.7501 100 57.0587 100 57.4178C100 57.7881 99.871 58.1023 99.6129 58.3603Z" fill="#021137" fill-opacity="0.6"/>
<path d="M2.30591 72.3866C2.04783 72.6334 1.72803 72.7569 1.34652 72.7569C0.965005 72.7569 0.645207 72.6334 0.387124 72.3866C0.129041 72.1285 0 71.8143 0 71.444C0 71.0737 0.129041 70.7651 0.387124 70.5183C0.645207 70.2602 0.965005 70.1311 1.34652 70.1311C1.72803 70.1311 2.04783 70.2602 2.30591 70.5183C2.56399 70.7764 2.69304 71.0849 2.69304 71.444C2.69304 71.8143 2.56399 72.1285 2.30591 72.3866Z" fill="#021137" fill-opacity="0.6"/>
<path d="M14.4693 72.3866C14.2112 72.6334 13.8914 72.7569 13.5099 72.7569C13.1284 72.7569 12.8086 72.6334 12.5505 72.3866C12.2924 72.1285 12.1634 71.8143 12.1634 71.444C12.1634 71.0737 12.2924 70.7651 12.5505 70.5183C12.8086 70.2602 13.1284 70.1311 13.5099 70.1311C13.8914 70.1311 14.2112 70.2602 14.4693 70.5183C14.7274 70.7764 14.8564 71.0849 14.8564 71.444C14.8564 71.8143 14.7274 72.1285 14.4693 72.3866Z" fill="#021137" fill-opacity="0.6"/>
<path d="M26.6327 72.3866C26.3746 72.6334 26.0548 72.7569 25.6733 72.7569C25.2917 72.7569 24.9719 72.6334 24.7139 72.3866C24.4558 72.1285 24.3267 71.8143 24.3267 71.444C24.3267 71.0737 24.4558 70.7651 24.7139 70.5183C24.9719 70.2602 25.2917 70.1311 25.6733 70.1311C26.0548 70.1311 26.3746 70.2602 26.6327 70.5183C26.8907 70.7764 27.0198 71.0849 27.0198 71.444C27.0198 71.8143 26.8907 72.1285 26.6327 72.3866Z" fill="#021137" fill-opacity="0.6"/>
<path d="M38.796 72.3866C38.5379 72.6334 38.2181 72.7569 37.8366 72.7569C37.4551 72.7569 37.1353 72.6334 36.8772 72.3866C36.6192 72.1285 36.4901 71.8143 36.4901 71.444C36.4901 71.0737 36.6192 70.7651 36.8772 70.5183C37.1353 70.2602 37.4551 70.1311 37.8366 70.1311C38.2181 70.1311 38.5379 70.2602 38.796 70.5183C39.0541 70.7764 39.1831 71.0849 39.1831 71.444C39.1831 71.8143 39.0541 72.1285 38.796 72.3866Z" fill="#021137" fill-opacity="0.6"/>
<path d="M50.9594 72.3866C50.7013 72.6334 50.3815 72.7569 50 72.7569C49.6185 72.7569 49.2987 72.6334 49.0406 72.3866C48.7825 72.1285 48.6535 71.8143 48.6535 71.444C48.6535 71.0737 48.7825 70.7651 49.0406 70.5183C49.2987 70.2602 49.6185 70.1311 50 70.1311C50.3815 70.1311 50.7013 70.2602 50.9594 70.5183C51.2175 70.7764 51.3465 71.0849 51.3465 71.444C51.3465 71.8143 51.2175 72.1285 50.9594 72.3866Z" fill="#021137" fill-opacity="0.6"/>
<path d="M63.1228 72.3866C62.8647 72.6334 62.5449 72.7569 62.1634 72.7569C61.7819 72.7569 61.4621 72.6334 61.204 72.3866C60.9459 72.1285 60.8169 71.8143 60.8169 71.444C60.8169 71.0737 60.9459 70.7651 61.204 70.5183C61.4621 70.2602 61.7819 70.1311 62.1634 70.1311C62.5449 70.1311 62.8647 70.2602 63.1228 70.5183C63.3809 70.7764 63.5099 71.0849 63.5099 71.444C63.5099 71.8143 63.3809 72.1285 63.1228 72.3866Z" fill="#021137" fill-opacity="0.6"/>
<path d="M75.2861 72.3866C75.0281 72.6334 74.7083 72.7569 74.3267 72.7569C73.9452 72.7569 73.6254 72.6334 73.3674 72.3866C73.1093 72.1285 72.9802 71.8143 72.9802 71.444C72.9802 71.0737 73.1093 70.7651 73.3674 70.5183C73.6254 70.2602 73.9452 70.1311 74.3267 70.1311C74.7083 70.1311 75.0281 70.2602 75.2861 70.5183C75.5442 70.7764 75.6733 71.0849 75.6733 71.444C75.6733 71.8143 75.5442 72.1285 75.2861 72.3866Z" fill="#021137" fill-opacity="0.6"/>
<path d="M87.4495 72.3866C87.1914 72.6334 86.8716 72.7569 86.4901 72.7569C86.1086 72.7569 85.7888 72.6334 85.5307 72.3866C85.2726 72.1285 85.1436 71.8143 85.1436 71.444C85.1436 71.0737 85.2726 70.7651 85.5307 70.5183C85.7888 70.2602 86.1086 70.1311 86.4901 70.1311C86.8716 70.1311 87.1914 70.2602 87.4495 70.5183C87.7076 70.7764 87.8366 71.0849 87.8366 71.444C87.8366 71.8143 87.7076 72.1285 87.4495 72.3866Z" fill="#021137" fill-opacity="0.6"/>
<path d="M99.6129 72.3866C99.3548 72.6334 99.035 72.7569 98.6535 72.7569C98.272 72.7569 97.9522 72.6334 97.6941 72.3866C97.436 72.1285 97.307 71.8143 97.307 71.444C97.307 71.0737 97.436 70.7651 97.6941 70.5183C97.9522 70.2602 98.272 70.1311 98.6535 70.1311C99.035 70.1311 99.3548 70.2602 99.6129 70.5183C99.871 70.7764 100 71.0849 100 71.444C100 71.8143 99.871 72.1285 99.6129 72.3866Z" fill="#021137" fill-opacity="0.6"/>
<path d="M2.30591 86.4128C2.04783 86.6597 1.72803 86.7831 1.34652 86.7831C0.965005 86.7831 0.645207 86.6597 0.387124 86.4128C0.129041 86.1547 0 85.8405 0 85.4702C0 85.0999 0.129041 84.7914 0.387124 84.5445C0.645207 84.2864 0.965005 84.1574 1.34652 84.1574C1.72803 84.1574 2.04783 84.2864 2.30591 84.5445C2.56399 84.8026 2.69304 85.1112 2.69304 85.4702C2.69304 85.8405 2.56399 86.1547 2.30591 86.4128Z" fill="#021137" fill-opacity="0.6"/>
<path d="M14.4693 86.4128C14.2112 86.6597 13.8914 86.7831 13.5099 86.7831C13.1284 86.7831 12.8086 86.6597 12.5505 86.4128C12.2924 86.1547 12.1634 85.8405 12.1634 85.4702C12.1634 85.0999 12.2924 84.7914 12.5505 84.5445C12.8086 84.2864 13.1284 84.1574 13.5099 84.1574C13.8914 84.1574 14.2112 84.2864 14.4693 84.5445C14.7274 84.8026 14.8564 85.1112 14.8564 85.4702C14.8564 85.8405 14.7274 86.1547 14.4693 86.4128Z" fill="#021137" fill-opacity="0.6"/>
<path d="M26.6327 86.4128C26.3746 86.6597 26.0548 86.7831 25.6733 86.7831C25.2917 86.7831 24.9719 86.6597 24.7139 86.4128C24.4558 86.1547 24.3267 85.8405 24.3267 85.4702C24.3267 85.0999 24.4558 84.7914 24.7139 84.5445C24.9719 84.2864 25.2917 84.1574 25.6733 84.1574C26.0548 84.1574 26.3746 84.2864 26.6327 84.5445C26.8907 84.8026 27.0198 85.1112 27.0198 85.4702C27.0198 85.8405 26.8907 86.1547 26.6327 86.4128Z" fill="#021137" fill-opacity="0.6"/>
<path d="M38.796 86.4128C38.5379 86.6597 38.2181 86.7831 37.8366 86.7831C37.4551 86.7831 37.1353 86.6597 36.8772 86.4128C36.6192 86.1547 36.4901 85.8405 36.4901 85.4702C36.4901 85.0999 36.6192 84.7914 36.8772 84.5445C37.1353 84.2864 37.4551 84.1574 37.8366 84.1574C38.2181 84.1574 38.5379 84.2864 38.796 84.5445C39.0541 84.8026 39.1831 85.1112 39.1831 85.4702C39.1831 85.8405 39.0541 86.1547 38.796 86.4128Z" fill="#021137" fill-opacity="0.6"/>
<path d="M50.9594 86.4128C50.7013 86.6597 50.3815 86.7831 50 86.7831C49.6185 86.7831 49.2987 86.6597 49.0406 86.4128C48.7825 86.1547 48.6535 85.8405 48.6535 85.4702C48.6535 85.0999 48.7825 84.7914 49.0406 84.5445C49.2987 84.2864 49.6185 84.1574 50 84.1574C50.3815 84.1574 50.7013 84.2864 50.9594 84.5445C51.2175 84.8026 51.3465 85.1112 51.3465 85.4702C51.3465 85.8405 51.2175 86.1547 50.9594 86.4128Z" fill="#021137" fill-opacity="0.6"/>
<path d="M63.1228 86.4128C62.8647 86.6597 62.5449 86.7831 62.1634 86.7831C61.7819 86.7831 61.4621 86.6597 61.204 86.4128C60.9459 86.1547 60.8169 85.8405 60.8169 85.4702C60.8169 85.0999 60.9459 84.7914 61.204 84.5445C61.4621 84.2864 61.7819 84.1574 62.1634 84.1574C62.5449 84.1574 62.8647 84.2864 63.1228 84.5445C63.3809 84.8026 63.5099 85.1112 63.5099 85.4702C63.5099 85.8405 63.3809 86.1547 63.1228 86.4128Z" fill="#021137" fill-opacity="0.6"/>
<path d="M75.2861 86.4128C75.0281 86.6597 74.7083 86.7831 74.3267 86.7831C73.9452 86.7831 73.6254 86.6597 73.3674 86.4128C73.1093 86.1547 72.9802 85.8405 72.9802 85.4702C72.9802 85.0999 73.1093 84.7914 73.3674 84.5445C73.6254 84.2864 73.9452 84.1574 74.3267 84.1574C74.7083 84.1574 75.0281 84.2864 75.2861 84.5445C75.5442 84.8026 75.6733 85.1112 75.6733 85.4702C75.6733 85.8405 75.5442 86.1547 75.2861 86.4128Z" fill="#021137" fill-opacity="0.6"/>
<path d="M87.4495 86.4128C87.1914 86.6597 86.8716 86.7831 86.4901 86.7831C86.1086 86.7831 85.7888 86.6597 85.5307 86.4128C85.2726 86.1547 85.1436 85.8405 85.1436 85.4702C85.1436 85.0999 85.2726 84.7914 85.5307 84.5445C85.7888 84.2864 86.1086 84.1574 86.4901 84.1574C86.8716 84.1574 87.1914 84.2864 87.4495 84.5445C87.7076 84.8026 87.8366 85.1112 87.8366 85.4702C87.8366 85.8405 87.7076 86.1547 87.4495 86.4128Z" fill="#021137" fill-opacity="0.6"/>
<path d="M99.6129 86.4128C99.3548 86.6597 99.035 86.7831 98.6535 86.7831C98.272 86.7831 97.9522 86.6597 97.6941 86.4128C97.436 86.1547 97.307 85.8405 97.307 85.4702C97.307 85.0999 97.436 84.7914 97.6941 84.5445C97.9522 84.2864 98.272 84.1574 98.6535 84.1574C99.035 84.1574 99.3548 84.2864 99.6129 84.5445C99.871 84.8026 100 85.1112 100 85.4702C100 85.8405 99.871 86.1547 99.6129 86.4128Z" fill="#021137" fill-opacity="0.6"/>
<path d="M2.30591 100.439C2.04783 100.686 1.72803 100.809 1.34652 100.809C0.965005 100.809 0.645207 100.686 0.387124 100.439C0.129041 100.181 0 99.8667 0 99.4965C0 99.1262 0.129041 98.8176 0.387124 98.5707C0.645207 98.3126 0.965005 98.1836 1.34652 98.1836C1.72803 98.1836 2.04783 98.3126 2.30591 98.5707C2.56399 98.8288 2.69304 99.1374 2.69304 99.4965C2.69304 99.8667 2.56399 100.181 2.30591 100.439Z" fill="#021137" fill-opacity="0.6"/>
<path d="M14.4693 100.439C14.2112 100.686 13.8914 100.809 13.5099 100.809C13.1284 100.809 12.8086 100.686 12.5505 100.439C12.2924 100.181 12.1634 99.8667 12.1634 99.4965C12.1634 99.1262 12.2924 98.8176 12.5505 98.5707C12.8086 98.3126 13.1284 98.1836 13.5099 98.1836C13.8914 98.1836 14.2112 98.3126 14.4693 98.5707C14.7274 98.8288 14.8564 99.1374 14.8564 99.4965C14.8564 99.8667 14.7274 100.181 14.4693 100.439Z" fill="#021137" fill-opacity="0.6"/>
<path d="M26.6327 100.439C26.3746 100.686 26.0548 100.809 25.6733 100.809C25.2917 100.809 24.9719 100.686 24.7139 100.439C24.4558 100.181 24.3267 99.8667 24.3267 99.4965C24.3267 99.1262 24.4558 98.8176 24.7139 98.5707C24.9719 98.3126 25.2917 98.1836 25.6733 98.1836C26.0548 98.1836 26.3746 98.3126 26.6327 98.5707C26.8907 98.8288 27.0198 99.1374 27.0198 99.4965C27.0198 99.8667 26.8907 100.181 26.6327 100.439Z" fill="#021137" fill-opacity="0.6"/>
<path d="M38.796 100.439C38.5379 100.686 38.2181 100.809 37.8366 100.809C37.4551 100.809 37.1353 100.686 36.8772 100.439C36.6192 100.181 36.4901 99.8667 36.4901 99.4965C36.4901 99.1262 36.6192 98.8176 36.8772 98.5707C37.1353 98.3126 37.4551 98.1836 37.8366 98.1836C38.2181 98.1836 38.5379 98.3126 38.796 98.5707C39.0541 98.8288 39.1831 99.1374 39.1831 99.4965C39.1831 99.8667 39.0541 100.181 38.796 100.439Z" fill="#021137" fill-opacity="0.6"/>
<path d="M50.9594 100.439C50.7013 100.686 50.3815 100.809 50 100.809C49.6185 100.809 49.2987 100.686 49.0406 100.439C48.7825 100.181 48.6535 99.8667 48.6535 99.4965C48.6535 99.1262 48.7825 98.8176 49.0406 98.5707C49.2987 98.3126 49.6185 98.1836 50 98.1836C50.3815 98.1836 50.7013 98.3126 50.9594 98.5707C51.2175 98.8288 51.3465 99.1374 51.3465 99.4965C51.3465 99.8667 51.2175 100.181 50.9594 100.439Z" fill="#021137" fill-opacity="0.6"/>
<path d="M63.1228 100.439C62.8647 100.686 62.5449 100.809 62.1634 100.809C61.7819 100.809 61.4621 100.686 61.204 100.439C60.9459 100.181 60.8169 99.8667 60.8169 99.4965C60.8169 99.1262 60.9459 98.8176 61.204 98.5707C61.4621 98.3126 61.7819 98.1836 62.1634 98.1836C62.5449 98.1836 62.8647 98.3126 63.1228 98.5707C63.3809 98.8288 63.5099 99.1374 63.5099 99.4965C63.5099 99.8667 63.3809 100.181 63.1228 100.439Z" fill="#021137" fill-opacity="0.6"/>
<path d="M75.2861 100.439C75.0281 100.686 74.7083 100.809 74.3267 100.809C73.9452 100.809 73.6254 100.686 73.3674 100.439C73.1093 100.181 72.9802 99.8667 72.9802 99.4965C72.9802 99.1262 73.1093 98.8176 73.3674 98.5707C73.6254 98.3126 73.9452 98.1836 74.3267 98.1836C74.7083 98.1836 75.0281 98.3126 75.2861 98.5707C75.5442 98.8288 75.6733 99.1374 75.6733 99.4965C75.6733 99.8667 75.5442 100.181 75.2861 100.439Z" fill="#021137" fill-opacity="0.6"/>
<path d="M87.4495 100.439C87.1914 100.686 86.8716 100.809 86.4901 100.809C86.1086 100.809 85.7888 100.686 85.5307 100.439C85.2726 100.181 85.1436 99.8667 85.1436 99.4965C85.1436 99.1262 85.2726 98.8176 85.5307 98.5707C85.7888 98.3126 86.1086 98.1836 86.4901 98.1836C86.8716 98.1836 87.1914 98.3126 87.4495 98.5707C87.7076 98.8288 87.8366 99.1374 87.8366 99.4965C87.8366 99.8667 87.7076 100.181 87.4495 100.439Z" fill="#021137" fill-opacity="0.6"/>
<path d="M99.6129 100.439C99.3548 100.686 99.035 100.809 98.6535 100.809C98.272 100.809 97.9522 100.686 97.6941 100.439C97.436 100.181 97.307 99.8667 97.307 99.4965C97.307 99.1262 97.436 98.8176 97.6941 98.5707C97.9522 98.3126 98.272 98.1836 98.6535 98.1836C99.035 98.1836 99.3548 98.3126 99.6129 98.5707C99.871 98.8288 100 99.1374 100 99.4965C100 99.8667 99.871 100.181 99.6129 100.439Z" fill="#021137" fill-opacity="0.6"/>
</svg>
