<svg width="133" height="60" viewBox="0 0 133 60" fill="none" xmlns="http://www.w3.org/2000/svg">
<mask id="path-1-inside-1_896_1815" fill="white">
<rect width="126.191" height="54.2858" rx="0.853961"/>
</mask>
<rect width="126.191" height="54.2858" rx="0.853961" stroke="#5970F6" stroke-width="2.19048" mask="url(#path-1-inside-1_896_1815)"/>
<circle cx="125.477" cy="53.0942" r="6.90477" fill="#AD0018"/>
<path d="M42.283 17.6342V18.506H38.2144V30.3485H37.3063V18.506H33.2559V17.6342H42.283Z" fill="#222324"/>
<path d="M52.219 30.3485L49.0405 25.0085H45.4623V30.3485H44.5541V17.6342H49.2403C50.3785 17.6342 51.3169 17.9853 52.0556 18.6876C52.8063 19.3778 53.1817 20.2618 53.1817 21.3395C53.1817 22.2598 52.8911 23.0529 52.3098 23.7189C51.7286 24.3727 50.9658 24.7784 50.0213 24.9358L53.2543 30.3485H52.219ZM45.4623 18.506V24.1366H49.1858C50.0939 24.1366 50.8326 23.8763 51.4017 23.3556C51.9708 22.8228 52.2554 22.1508 52.2554 21.3395C52.2554 20.5161 51.9647 19.838 51.3835 19.3052C50.8144 18.7724 50.0818 18.506 49.1858 18.506H45.4623Z" fill="#222324"/>
<path d="M65.1314 30.3485L63.6602 26.8793H56.9398L55.4686 30.3485H54.4877L59.8277 17.6342H60.6633L66.1304 30.3485H65.1314ZM60.2637 18.9238L57.2849 26.0256H63.2969L60.2637 18.9238Z" fill="#222324"/>
<path d="M68.4289 30.3485V17.6342H69.3371V30.3485H68.4289Z" fill="#222324"/>
<path d="M81.9935 17.6342H82.9016V30.3485H82.1206L74.0016 19.2507V30.3485H73.1116V17.6342H73.929L81.9935 28.6774V17.6342Z" fill="#222324"/>
<path d="M86.6631 30.3485V17.6342H87.5713V30.3485H86.6631Z" fill="#222324"/>
<path d="M100.228 17.6342H101.136V30.3485H100.355L92.2358 19.2507V30.3485H91.3458V17.6342H92.1632L100.228 28.6774V17.6342Z" fill="#222324"/>
<path d="M109.801 24.2819H116.631C116.582 26.1225 115.971 27.624 114.796 28.7864C113.634 29.9489 112.157 30.5301 110.365 30.5301C108.5 30.5301 106.968 29.9186 105.769 28.6956C104.57 27.4605 103.971 25.8985 103.971 24.0095C103.971 22.1205 104.576 20.5585 105.787 19.3234C106.998 18.0883 108.518 17.4707 110.346 17.4707C111.327 17.4707 112.247 17.6644 113.107 18.0519C113.979 18.4273 114.706 18.9601 115.287 19.6503C115.868 20.3405 116.249 21.1215 116.431 21.9934H115.487C115.208 20.9278 114.59 20.0559 113.634 19.3778C112.689 18.6998 111.6 18.3607 110.365 18.3607C108.778 18.3607 107.47 18.8935 106.441 19.9591C105.424 21.0247 104.916 22.3748 104.916 24.0095C104.916 25.6563 105.418 27.0064 106.423 28.0599C107.44 29.1013 108.754 29.6219 110.365 29.6219C111.769 29.6219 112.956 29.2102 113.925 28.3868C114.905 27.5634 115.48 26.4857 115.65 25.1538H109.801V24.2819Z" fill="#222324"/>
<path d="M40.0799 34.3008C41.3029 34.3008 42.4048 34.5732 43.3856 35.1181C44.3786 35.663 45.1475 36.4198 45.6924 37.3885C46.2494 38.3572 46.5279 39.441 46.5279 40.6398C46.5279 42.4924 45.9164 44.0181 44.6934 45.2169C43.4825 46.4157 41.9447 47.0151 40.0799 47.0151H36.1748V34.3008H40.0799ZM40.0436 46.1432C40.8428 46.1432 41.5814 46.01 42.2595 45.7436C42.9497 45.4651 43.537 45.0837 44.0213 44.5994C44.5178 44.115 44.8992 43.5338 45.1656 42.8557C45.4441 42.1655 45.5834 41.4268 45.5834 40.6398C45.5834 39.0535 45.0627 37.7457 44.0213 36.7165C42.98 35.6872 41.6541 35.1726 40.0436 35.1726H37.083V46.1432H40.0436Z" fill="#222324"/>
<path d="M58.0824 47.0151L56.6112 43.5459H49.8908L48.4195 47.0151H47.4387L52.7787 34.3008H53.6142L59.0814 47.0151H58.0824ZM53.2147 35.5904L50.2359 42.6922H56.2479L53.2147 35.5904Z" fill="#222324"/>
<path d="M67.7115 34.3008V35.1726H63.6429V47.0151H62.7348V35.1726H58.6844V34.3008H67.7115Z" fill="#222324"/>
<path d="M77.9308 47.0151L76.4595 43.5459H69.7391L68.2679 47.0151H67.2871L72.6271 34.3008H73.4626L78.9297 47.0151H77.9308ZM73.063 35.5904L70.0842 42.6922H76.0963L73.063 35.5904Z" fill="#222324"/>
</svg>
