<svg width="32" height="29" fill="none" xmlns="http://www.w3.org/2000/svg"><path d="M16 6.79l11.922 10.554c.11.11.219.11.328.218v10.063c0 .492-.438.875-.875.875H4.625a.864.864 0 01-.875-.875V17.562c.055-.109.164-.109.273-.218L16 6.789zm5.25 14.273v-2.625a.47.47 0 00-.438-.438H17.75v-3.063a.47.47 0 00-.438-.437h-2.625a.431.431 0 00-.437.438V18h-3.063a.431.431 0 00-.437.438v2.625c0 .273.164.437.438.437h3.062v3.063c0 .273.164.437.438.437h2.624a.431.431 0 00.438-.438V21.5h3.063a.431.431 0 00.437-.438zm10.172-7.602a.906.906 0 01.273.656c0 .219-.054.438-.218.547l-1.149 1.313a.906.906 0 01-.656.273c-.219 0-.438-.055-.602-.219L16.547 4.984c-.164-.109-.328-.218-.602-.218-.218 0-.383.109-.547.218L2.875 16.031a.878.878 0 01-.602.274c-.273 0-.492-.164-.656-.328L.47 14.664a.673.673 0 01-.274-.547c0-.273.164-.492.328-.656l14-12.36A2.02 2.02 0 0116 .5c.547 0 1.04.219 1.422.602l14 12.359z" fill="#5970F6"/></svg>