<svg width="36" height="29" fill="none" xmlns="http://www.w3.org/2000/svg"><path d="M14.445 14.828l-3.226-3.172c-.328-.328-.328-.93 0-1.258l3.226-3.171a.858.858 0 011.203 0l.602.601a.832.832 0 010 1.258L14.336 11l1.914 1.969a.832.832 0 010 1.258l-.602.601a.858.858 0 01-1.203 0zm5.25-.601a.832.832 0 010-1.258L21.61 11l-1.914-1.914a.832.832 0 010-1.258l.602-.601a.858.858 0 011.203 0l3.227 3.171c.328.329.328.93 0 1.258L21.5 14.828a.858.858 0 01-1.203 0l-.602-.601zm14.93 9.023c.438 0 .875.438.875.875V25a3.49 3.49 0 01-3.5 3.5H4C2.031 28.5.5 26.969.5 25v-.875c0-.438.383-.875.875-.875h13.07c-.054.82.766 1.75 1.805 1.75h3.281c.985 0 1.75-.656 1.805-1.75h13.289zM32 3.125V21.5H4V3.125A2.626 2.626 0 016.625.5h22.75C30.797.5 32 1.703 32 3.125zM28.5 18V4h-21v14h21z" fill="#5970F6"/></svg>