<svg width="32" height="29" fill="none" xmlns="http://www.w3.org/2000/svg"><path d="M29.125 17.016c-.164.601-.71.984-1.313.984H11.79l.383 1.75h14.656c.82 0 1.477.82 1.258 1.64l-.273 1.313a3.027 3.027 0 011.75 2.735c0 1.695-1.422 3.062-3.063 3.062a3.057 3.057 0 01-3.063-3.063c0-.82.329-1.585.875-2.187h-11.43c.548.602.93 1.367.93 2.188 0 1.695-1.421 3.062-3.062 3.062a3.057 3.057 0 01-3.063-3.063c0-1.093.602-2.078 1.532-2.625L5.336 4H1.562C.797 4 .25 3.453.25 2.687v-.874C.25 1.102.797.5 1.563.5H7.14c.601 0 1.148.492 1.312 1.094L8.945 4h21.438c.875 0 1.476.82 1.312 1.64l-2.57 11.376z" fill="#5970F6"/></svg>