<svg width="36" height="22" fill="none" xmlns="http://www.w3.org/2000/svg"><path d="M34.516 5.922a1.274 1.274 0 010 2.46l-15.258 4.704c-1.094.328-2.078.164-2.57 0L6.023 9.805c-.71.437-1.093 1.203-1.148 2.023.492.274.875.82.875 1.422s-.328 1.094-.766 1.422l1.368 6.289c.109.547-.274 1.039-.82 1.039H2.413c-.547 0-.93-.492-.82-1.04l1.367-6.288a1.736 1.736 0 01-.711-1.422c0-.602.328-1.148.875-1.477.055-.93.383-1.859.984-2.57l-2.68-.82a1.274 1.274 0 010-2.461l15.258-4.703a4.13 4.13 0 012.57 0l15.259 4.703zm-14.766 8.86l7.93-2.462.82 6.18c0 1.969-4.703 3.5-10.5 3.5-5.852 0-10.5-1.531-10.5-3.5l.766-6.18 7.93 2.461c.656.219 2.023.438 3.554 0z" fill="#5970F6"/></svg>