<svg width="36" height="29" fill="none" xmlns="http://www.w3.org/2000/svg"><path d="M34.188 11c.71 0 1.312.602 1.312 1.313V26.75c0 .984-.82 1.75-1.75 1.75H2.25c-.984 0-1.75-.766-1.75-1.75V7.062c0-.71.547-1.312 1.313-1.312H4V1.375C4 .937 4.383.5 4.875.5h.875c.438 0 .875.438.875.875V5.75h3.5V1.375c0-.438.383-.875.875-.875h.875c.438 0 .875.438.875.875V5.75h3.5V1.812c0-.71.547-1.312 1.313-1.312h7.875c.71 0 1.312.602 1.312 1.313V11h7.438zM7.5 22.594v-2.188c0-.328-.328-.656-.656-.656H4.656a.665.665 0 00-.656.656v2.188c0 .383.273.656.656.656h2.188a.665.665 0 00.656-.656zm0-5.25v-2.188c0-.328-.328-.656-.656-.656H4.656a.665.665 0 00-.656.656v2.188c0 .383.273.656.656.656h2.188a.665.665 0 00.656-.656zm0-5.25V9.906c0-.328-.328-.656-.656-.656H4.656A.665.665 0 004 9.906v2.188c0 .383.273.656.656.656h2.188a.665.665 0 00.656-.656zm7 10.5v-2.188c0-.328-.328-.656-.656-.656h-2.188a.665.665 0 00-.656.656v2.188c0 .383.273.656.656.656h2.188a.665.665 0 00.656-.656zm0-5.25v-2.188c0-.328-.328-.656-.656-.656h-2.188a.665.665 0 00-.656.656v2.188c0 .383.273.656.656.656h2.188a.665.665 0 00.656-.656zm0-5.25V9.906c0-.328-.328-.656-.656-.656h-2.188a.665.665 0 00-.656.656v2.188c0 .383.273.656.656.656h2.188a.665.665 0 00.656-.656zm8.75 5.25v-2.188c0-.328-.328-.656-.656-.656h-2.188a.665.665 0 00-.656.656v2.188c0 .383.273.656.656.656h2.188a.665.665 0 00.656-.656zm0-5.25V9.906c0-.328-.328-.656-.656-.656h-2.188a.665.665 0 00-.656.656v2.188c0 .383.273.656.656.656h2.188a.665.665 0 00.656-.656zm0-5.25V4.656c0-.328-.328-.656-.656-.656h-2.188a.665.665 0 00-.656.656v2.188c0 .383.273.656.656.656h2.188a.665.665 0 00.656-.656zM32 22.594v-2.188c0-.328-.328-.656-.656-.656h-2.188a.665.665 0 00-.656.656v2.188c0 .383.273.656.656.656h2.188a.665.665 0 00.656-.656zm0-5.25v-2.188c0-.328-.328-.656-.656-.656h-2.188a.665.665 0 00-.656.656v2.188c0 .383.273.656.656.656h2.188a.665.665 0 00.656-.656z" fill="#5970F6"/></svg>